M48
; DRILL file {KiCad 8.0.4} date 2025-04-17T01:04:02+0200
; FORMAT={-:-/ absolute / metric / decimal}
; #@! TF.CreationDate,2025-04-17T01:04:02+02:00
; #@! TF.GenerationSoftware,Kicad,Pcbnew,8.0.4
; #@! TF.FileFunction,Plated,1,4,PTH
FMAT,2
METRIC
; #@! TA.AperFunction,Plated,PTH,ViaDrill
T1C0.300
; #@! TA.AperFunction,Plated,PTH,ViaDrill
T2C0.350
; #@! TA.AperFunction,Plated,PTH,ComponentDrill
T3C0.800
; #@! TA.AperFunction,Plated,PTH,ComponentDrill
T4C6.050
%
G90
G05
T1
X130.038Y-92.269
X132.223Y-77.665
X132.3Y-90.7
X133.066Y-97.045
X137.113Y-101.375
X139.395Y-87.882
X148.3Y-76.7
X151.6Y-90.7
X153.2Y-90.7
X153.727Y-84.234
X153.727Y-86.384
X154.65Y-80.2
X154.8Y-90.7
X155.061Y-81.0
X155.5Y-81.8
X156.027Y-88.534
X156.25Y-77.65
X156.4Y-90.7
X157.186Y-88.538
X157.5Y-83.3
X157.827Y-87.4
X158.0Y-90.7
X159.3Y-84.1
X159.3Y-85.2
X159.618Y-90.772
T2
X116.45Y-89.672
X118.15Y-86.728
X130.7Y-98.9
X131.0Y-103.8
X135.013Y-103.125
X136.025Y-117.525
X137.588Y-123.269
X140.35Y-91.15
X140.816Y-84.237
X141.4Y-93.1
X142.187Y-123.269
X145.3Y-78.7
X145.3Y-80.2
X145.3Y-81.7
X145.3Y-83.2
X145.3Y-84.7
X145.6Y-74.8
X146.3Y-101.5
X146.787Y-123.269
X146.8Y-112.5
X147.6Y-101.5
X148.4Y-112.5
X149.8Y-89.0
X150.0Y-97.2
X150.0Y-112.5
X150.5Y-75.9
X150.5Y-77.4
X150.65Y-78.9
X150.65Y-80.4
X150.9Y-100.5
X151.387Y-123.269
X151.502Y-82.919
X151.6Y-97.2
X151.6Y-112.5
X153.2Y-97.2
X153.2Y-112.5
X154.4Y-74.7
X154.8Y-112.6
X154.8Y-97.2
X155.987Y-123.269
X156.4Y-97.2
X156.4Y-109.45
X157.887Y-123.269
X158.0Y-97.2
X158.5Y-83.3
X159.0Y-101.6
X159.282Y-88.992
X159.3Y-86.3
X159.782Y-89.858
X160.357Y-85.254
X160.588Y-123.269
X162.487Y-123.269
X162.725Y-93.1
X162.725Y-94.975
X163.557Y-90.796
X164.075Y-117.525
X168.4Y-102.1
X168.4Y-105.1
X168.4Y-108.1
X168.4Y-111.1
T4
X140.75Y-69.504
X159.25Y-69.504
T3
X119.8Y-104.618G85X116.2Y-98.382
G05
X183.8Y-98.382G85X180.2Y-104.618
G05
M30
