%TF.GenerationSoftware,KiCad,Pcbnew,8.0.4*%
%TF.CreationDate,2025-04-17T01:04:02+02:00*%
%TF.ProjectId,bms_stage_bq40z80,626d735f-7374-4616-9765-5f627134307a,rev?*%
%TF.SameCoordinates,Original*%
%TF.FileFunction,Drillmap*%
%TF.FilePolarity,Positive*%
%FSLAX45Y45*%
G04 Gerber Fmt 4.5, Leading zero omitted, Abs format (unit mm)*
G04 Created by KiCad (PCBNEW 8.0.4) date 2025-04-17 01:04:02*
%MOMM*%
%LPD*%
G01*
G04 APERTURE LIST*
%ADD10C,0.200000*%
%ADD11C,0.100000*%
%ADD12C,0.605000*%
G04 APERTURE END LIST*
D10*
X14074999Y-13595187D02*
G75*
G02*
X13273928Y-13132685I1J924997D01*
G01*
X12348925Y-7401244D02*
G75*
G02*
X12643950Y-7089445I801065J-462496D01*
G01*
X18576076Y-9003391D02*
G75*
G02*
X18576075Y-9928391I-801076J-462499D01*
G01*
X11423924Y-9928391D02*
X13273926Y-13132687D01*
X11423924Y-9928391D02*
G75*
G02*
X11423924Y-9003390I801076J462501D01*
G01*
X12643949Y-7089443D02*
G75*
G02*
X17356051Y-7089443I2356051J-3604955D01*
G01*
X17356051Y-7089443D02*
G75*
G02*
X17651074Y-7401243I-506041J-774287D01*
G01*
X16726075Y-13132686D02*
G75*
G02*
X15926290Y-13595183I-801075J462506D01*
G01*
X16726075Y-13132686D02*
X18576076Y-9928391D01*
X12348925Y-7401244D02*
X11423925Y-9003391D01*
X18576076Y-9003391D02*
X17651075Y-7401242D01*
X14074999Y-13595187D02*
X15926290Y-13595187D01*
D11*
X12988815Y-9211885D02*
X13018815Y-9241885D01*
X13018815Y-9211885D02*
X12988815Y-9241885D01*
X13207295Y-7751466D02*
X13237295Y-7781466D01*
X13237295Y-7751466D02*
X13207295Y-7781466D01*
X13215000Y-9055000D02*
X13245000Y-9085000D01*
X13245000Y-9055000D02*
X13215000Y-9085000D01*
X13291602Y-9689486D02*
X13321602Y-9719486D01*
X13321602Y-9689486D02*
X13291602Y-9719486D01*
X13696292Y-10122500D02*
X13726292Y-10152500D01*
X13726292Y-10122500D02*
X13696292Y-10152500D01*
X13924545Y-8773198D02*
X13954545Y-8803198D01*
X13954545Y-8773198D02*
X13924545Y-8803198D01*
X14815000Y-7655000D02*
X14845000Y-7685000D01*
X14845000Y-7655000D02*
X14815000Y-7685000D01*
X15145000Y-9055000D02*
X15175000Y-9085000D01*
X15175000Y-9055000D02*
X15145000Y-9085000D01*
X15305000Y-9055000D02*
X15335000Y-9085000D01*
X15335000Y-9055000D02*
X15305000Y-9085000D01*
X15357742Y-8408368D02*
X15387742Y-8438368D01*
X15387742Y-8408368D02*
X15357742Y-8438368D01*
X15357742Y-8623368D02*
X15387742Y-8653368D01*
X15387742Y-8623368D02*
X15357742Y-8653368D01*
X15450000Y-8005000D02*
X15480000Y-8035000D01*
X15480000Y-8005000D02*
X15450000Y-8035000D01*
X15465000Y-9055000D02*
X15495000Y-9085000D01*
X15495000Y-9055000D02*
X15465000Y-9085000D01*
X15491110Y-8085000D02*
X15521110Y-8115000D01*
X15521110Y-8085000D02*
X15491110Y-8115000D01*
X15535000Y-8165000D02*
X15565000Y-8195000D01*
X15565000Y-8165000D02*
X15535000Y-8195000D01*
X15587742Y-8838368D02*
X15617742Y-8868368D01*
X15617742Y-8838368D02*
X15587742Y-8868368D01*
X15610000Y-7750000D02*
X15640000Y-7780000D01*
X15640000Y-7750000D02*
X15610000Y-7780000D01*
X15625000Y-9055000D02*
X15655000Y-9085000D01*
X15655000Y-9055000D02*
X15625000Y-9085000D01*
X15703564Y-8838804D02*
X15733564Y-8868804D01*
X15733564Y-8838804D02*
X15703564Y-8868804D01*
X15735000Y-8315000D02*
X15765000Y-8345000D01*
X15765000Y-8315000D02*
X15735000Y-8345000D01*
X15767742Y-8725000D02*
X15797742Y-8755000D01*
X15797742Y-8725000D02*
X15767742Y-8755000D01*
X15785000Y-9055000D02*
X15815000Y-9085000D01*
X15815000Y-9055000D02*
X15785000Y-9085000D01*
X15915000Y-8395000D02*
X15945000Y-8425000D01*
X15945000Y-8395000D02*
X15915000Y-8425000D01*
X15915000Y-8505000D02*
X15945000Y-8535000D01*
X15945000Y-8505000D02*
X15915000Y-8535000D01*
X15946828Y-9062235D02*
X15976828Y-9092235D01*
X15976828Y-9062235D02*
X15946828Y-9092235D01*
X11662500Y-8967224D02*
G75*
G02*
X11627500Y-8967224I-17500J0D01*
G01*
X11627500Y-8967224D02*
G75*
G02*
X11662500Y-8967224I17500J0D01*
G01*
X11832500Y-8672776D02*
G75*
G02*
X11797500Y-8672776I-17500J0D01*
G01*
X11797500Y-8672776D02*
G75*
G02*
X11832500Y-8672776I17500J0D01*
G01*
X13087500Y-9890000D02*
G75*
G02*
X13052500Y-9890000I-17500J0D01*
G01*
X13052500Y-9890000D02*
G75*
G02*
X13087500Y-9890000I17500J0D01*
G01*
X13117500Y-10380000D02*
G75*
G02*
X13082500Y-10380000I-17500J0D01*
G01*
X13082500Y-10380000D02*
G75*
G02*
X13117500Y-10380000I17500J0D01*
G01*
X13518792Y-10312500D02*
G75*
G02*
X13483792Y-10312500I-17500J0D01*
G01*
X13483792Y-10312500D02*
G75*
G02*
X13518792Y-10312500I17500J0D01*
G01*
X13620000Y-11752500D02*
G75*
G02*
X13585000Y-11752500I-17500J0D01*
G01*
X13585000Y-11752500D02*
G75*
G02*
X13620000Y-11752500I17500J0D01*
G01*
X13776250Y-12326875D02*
G75*
G02*
X13741250Y-12326875I-17500J0D01*
G01*
X13741250Y-12326875D02*
G75*
G02*
X13776250Y-12326875I17500J0D01*
G01*
X14052500Y-9115000D02*
G75*
G02*
X14017500Y-9115000I-17500J0D01*
G01*
X14017500Y-9115000D02*
G75*
G02*
X14052500Y-9115000I17500J0D01*
G01*
X14099062Y-8423692D02*
G75*
G02*
X14064062Y-8423692I-17500J0D01*
G01*
X14064062Y-8423692D02*
G75*
G02*
X14099062Y-8423692I17500J0D01*
G01*
X14157500Y-9310000D02*
G75*
G02*
X14122500Y-9310000I-17500J0D01*
G01*
X14122500Y-9310000D02*
G75*
G02*
X14157500Y-9310000I17500J0D01*
G01*
X14236250Y-12326875D02*
G75*
G02*
X14201250Y-12326875I-17500J0D01*
G01*
X14201250Y-12326875D02*
G75*
G02*
X14236250Y-12326875I17500J0D01*
G01*
X14547500Y-7870000D02*
G75*
G02*
X14512500Y-7870000I-17500J0D01*
G01*
X14512500Y-7870000D02*
G75*
G02*
X14547500Y-7870000I17500J0D01*
G01*
X14547500Y-8020000D02*
G75*
G02*
X14512500Y-8020000I-17500J0D01*
G01*
X14512500Y-8020000D02*
G75*
G02*
X14547500Y-8020000I17500J0D01*
G01*
X14547500Y-8170000D02*
G75*
G02*
X14512500Y-8170000I-17500J0D01*
G01*
X14512500Y-8170000D02*
G75*
G02*
X14547500Y-8170000I17500J0D01*
G01*
X14547500Y-8320000D02*
G75*
G02*
X14512500Y-8320000I-17500J0D01*
G01*
X14512500Y-8320000D02*
G75*
G02*
X14547500Y-8320000I17500J0D01*
G01*
X14547500Y-8470000D02*
G75*
G02*
X14512500Y-8470000I-17500J0D01*
G01*
X14512500Y-8470000D02*
G75*
G02*
X14547500Y-8470000I17500J0D01*
G01*
X14577500Y-7480000D02*
G75*
G02*
X14542500Y-7480000I-17500J0D01*
G01*
X14542500Y-7480000D02*
G75*
G02*
X14577500Y-7480000I17500J0D01*
G01*
X14647500Y-10150000D02*
G75*
G02*
X14612500Y-10150000I-17500J0D01*
G01*
X14612500Y-10150000D02*
G75*
G02*
X14647500Y-10150000I17500J0D01*
G01*
X14696250Y-12326875D02*
G75*
G02*
X14661250Y-12326875I-17500J0D01*
G01*
X14661250Y-12326875D02*
G75*
G02*
X14696250Y-12326875I17500J0D01*
G01*
X14697500Y-11250000D02*
G75*
G02*
X14662500Y-11250000I-17500J0D01*
G01*
X14662500Y-11250000D02*
G75*
G02*
X14697500Y-11250000I17500J0D01*
G01*
X14777500Y-10150000D02*
G75*
G02*
X14742500Y-10150000I-17500J0D01*
G01*
X14742500Y-10150000D02*
G75*
G02*
X14777500Y-10150000I17500J0D01*
G01*
X14857500Y-11250000D02*
G75*
G02*
X14822500Y-11250000I-17500J0D01*
G01*
X14822500Y-11250000D02*
G75*
G02*
X14857500Y-11250000I17500J0D01*
G01*
X14997500Y-8900000D02*
G75*
G02*
X14962500Y-8900000I-17500J0D01*
G01*
X14962500Y-8900000D02*
G75*
G02*
X14997500Y-8900000I17500J0D01*
G01*
X15017500Y-9720000D02*
G75*
G02*
X14982500Y-9720000I-17500J0D01*
G01*
X14982500Y-9720000D02*
G75*
G02*
X15017500Y-9720000I17500J0D01*
G01*
X15017500Y-11250000D02*
G75*
G02*
X14982500Y-11250000I-17500J0D01*
G01*
X14982500Y-11250000D02*
G75*
G02*
X15017500Y-11250000I17500J0D01*
G01*
X15067500Y-7590000D02*
G75*
G02*
X15032500Y-7590000I-17500J0D01*
G01*
X15032500Y-7590000D02*
G75*
G02*
X15067500Y-7590000I17500J0D01*
G01*
X15067500Y-7740000D02*
G75*
G02*
X15032500Y-7740000I-17500J0D01*
G01*
X15032500Y-7740000D02*
G75*
G02*
X15067500Y-7740000I17500J0D01*
G01*
X15082500Y-7890000D02*
G75*
G02*
X15047500Y-7890000I-17500J0D01*
G01*
X15047500Y-7890000D02*
G75*
G02*
X15082500Y-7890000I17500J0D01*
G01*
X15082500Y-8040000D02*
G75*
G02*
X15047500Y-8040000I-17500J0D01*
G01*
X15047500Y-8040000D02*
G75*
G02*
X15082500Y-8040000I17500J0D01*
G01*
X15107500Y-10050000D02*
G75*
G02*
X15072500Y-10050000I-17500J0D01*
G01*
X15072500Y-10050000D02*
G75*
G02*
X15107500Y-10050000I17500J0D01*
G01*
X15156250Y-12326875D02*
G75*
G02*
X15121250Y-12326875I-17500J0D01*
G01*
X15121250Y-12326875D02*
G75*
G02*
X15156250Y-12326875I17500J0D01*
G01*
X15167704Y-8291873D02*
G75*
G02*
X15132704Y-8291873I-17500J0D01*
G01*
X15132704Y-8291873D02*
G75*
G02*
X15167704Y-8291873I17500J0D01*
G01*
X15177500Y-9720000D02*
G75*
G02*
X15142500Y-9720000I-17500J0D01*
G01*
X15142500Y-9720000D02*
G75*
G02*
X15177500Y-9720000I17500J0D01*
G01*
X15177500Y-11250000D02*
G75*
G02*
X15142500Y-11250000I-17500J0D01*
G01*
X15142500Y-11250000D02*
G75*
G02*
X15177500Y-11250000I17500J0D01*
G01*
X15337500Y-9720000D02*
G75*
G02*
X15302500Y-9720000I-17500J0D01*
G01*
X15302500Y-9720000D02*
G75*
G02*
X15337500Y-9720000I17500J0D01*
G01*
X15337500Y-11250000D02*
G75*
G02*
X15302500Y-11250000I-17500J0D01*
G01*
X15302500Y-11250000D02*
G75*
G02*
X15337500Y-11250000I17500J0D01*
G01*
X15457500Y-7470000D02*
G75*
G02*
X15422500Y-7470000I-17500J0D01*
G01*
X15422500Y-7470000D02*
G75*
G02*
X15457500Y-7470000I17500J0D01*
G01*
X15497500Y-11260000D02*
G75*
G02*
X15462500Y-11260000I-17500J0D01*
G01*
X15462500Y-11260000D02*
G75*
G02*
X15497500Y-11260000I17500J0D01*
G01*
X15497500Y-9720000D02*
G75*
G02*
X15462500Y-9720000I-17500J0D01*
G01*
X15462500Y-9720000D02*
G75*
G02*
X15497500Y-9720000I17500J0D01*
G01*
X15616250Y-12326875D02*
G75*
G02*
X15581250Y-12326875I-17500J0D01*
G01*
X15581250Y-12326875D02*
G75*
G02*
X15616250Y-12326875I17500J0D01*
G01*
X15657500Y-9720000D02*
G75*
G02*
X15622500Y-9720000I-17500J0D01*
G01*
X15622500Y-9720000D02*
G75*
G02*
X15657500Y-9720000I17500J0D01*
G01*
X15657500Y-10945000D02*
G75*
G02*
X15622500Y-10945000I-17500J0D01*
G01*
X15622500Y-10945000D02*
G75*
G02*
X15657500Y-10945000I17500J0D01*
G01*
X15806250Y-12326875D02*
G75*
G02*
X15771250Y-12326875I-17500J0D01*
G01*
X15771250Y-12326875D02*
G75*
G02*
X15806250Y-12326875I17500J0D01*
G01*
X15817500Y-9720000D02*
G75*
G02*
X15782500Y-9720000I-17500J0D01*
G01*
X15782500Y-9720000D02*
G75*
G02*
X15817500Y-9720000I17500J0D01*
G01*
X15867500Y-8330000D02*
G75*
G02*
X15832500Y-8330000I-17500J0D01*
G01*
X15832500Y-8330000D02*
G75*
G02*
X15867500Y-8330000I17500J0D01*
G01*
X15917500Y-10160000D02*
G75*
G02*
X15882500Y-10160000I-17500J0D01*
G01*
X15882500Y-10160000D02*
G75*
G02*
X15917500Y-10160000I17500J0D01*
G01*
X15945731Y-8899179D02*
G75*
G02*
X15910731Y-8899179I-17500J0D01*
G01*
X15910731Y-8899179D02*
G75*
G02*
X15945731Y-8899179I17500J0D01*
G01*
X15947500Y-8630000D02*
G75*
G02*
X15912500Y-8630000I-17500J0D01*
G01*
X15912500Y-8630000D02*
G75*
G02*
X15947500Y-8630000I17500J0D01*
G01*
X15995731Y-8985782D02*
G75*
G02*
X15960731Y-8985782I-17500J0D01*
G01*
X15960731Y-8985782D02*
G75*
G02*
X15995731Y-8985782I17500J0D01*
G01*
X16053218Y-8525352D02*
G75*
G02*
X16018218Y-8525352I-17500J0D01*
G01*
X16018218Y-8525352D02*
G75*
G02*
X16053218Y-8525352I17500J0D01*
G01*
X16076250Y-12326875D02*
G75*
G02*
X16041250Y-12326875I-17500J0D01*
G01*
X16041250Y-12326875D02*
G75*
G02*
X16076250Y-12326875I17500J0D01*
G01*
X16266250Y-12326875D02*
G75*
G02*
X16231250Y-12326875I-17500J0D01*
G01*
X16231250Y-12326875D02*
G75*
G02*
X16266250Y-12326875I17500J0D01*
G01*
X16290000Y-9310000D02*
G75*
G02*
X16255000Y-9310000I-17500J0D01*
G01*
X16255000Y-9310000D02*
G75*
G02*
X16290000Y-9310000I17500J0D01*
G01*
X16290000Y-9497500D02*
G75*
G02*
X16255000Y-9497500I-17500J0D01*
G01*
X16255000Y-9497500D02*
G75*
G02*
X16290000Y-9497500I17500J0D01*
G01*
X16373218Y-9079609D02*
G75*
G02*
X16338218Y-9079609I-17500J0D01*
G01*
X16338218Y-9079609D02*
G75*
G02*
X16373218Y-9079609I17500J0D01*
G01*
X16425000Y-11752500D02*
G75*
G02*
X16390000Y-11752500I-17500J0D01*
G01*
X16390000Y-11752500D02*
G75*
G02*
X16425000Y-11752500I17500J0D01*
G01*
X16857500Y-10210000D02*
G75*
G02*
X16822500Y-10210000I-17500J0D01*
G01*
X16822500Y-10210000D02*
G75*
G02*
X16857500Y-10210000I17500J0D01*
G01*
X16857500Y-10510000D02*
G75*
G02*
X16822500Y-10510000I-17500J0D01*
G01*
X16822500Y-10510000D02*
G75*
G02*
X16857500Y-10510000I17500J0D01*
G01*
X16857500Y-10810000D02*
G75*
G02*
X16822500Y-10810000I-17500J0D01*
G01*
X16822500Y-10810000D02*
G75*
G02*
X16857500Y-10810000I17500J0D01*
G01*
X16857500Y-11110000D02*
G75*
G02*
X16822500Y-11110000I-17500J0D01*
G01*
X16822500Y-11110000D02*
G75*
G02*
X16857500Y-11110000I17500J0D01*
G01*
X11800000Y-10110000D02*
X11800000Y-10190000D01*
X11760000Y-10150000D02*
X11840000Y-10150000D01*
X12014641Y-10441769D02*
X11654641Y-9818231D01*
X11585359Y-9858231D02*
G75*
G02*
X11654641Y-9818231I34641J20000D01*
G01*
X11585359Y-9858231D02*
X11945359Y-10481769D01*
X11945359Y-10481769D02*
G75*
G03*
X12014641Y-10441769I34641J20000D01*
G01*
X18200000Y-10110000D02*
X18200000Y-10190000D01*
X18160000Y-10150000D02*
X18240000Y-10150000D01*
X18345359Y-9818231D02*
X17985359Y-10441769D01*
X18054641Y-10481769D02*
G75*
G02*
X17985359Y-10441769I-34641J20000D01*
G01*
X18054641Y-10481769D02*
X18414641Y-9858231D01*
X18414641Y-9858231D02*
G75*
G03*
X18345359Y-9818231I-34641J20000D01*
G01*
D12*
X14288902Y-7164302D02*
X14288902Y-6736498D01*
X13861098Y-6736498D01*
X13861098Y-7164302D01*
X14288902Y-7164302D01*
X16138902Y-7164302D02*
X16138902Y-6736498D01*
X15711098Y-6736498D01*
X15711098Y-7164302D01*
X16138902Y-7164302D01*
D10*
X11550775Y-13916670D02*
X11550775Y-13716670D01*
X11550775Y-13716670D02*
X11598394Y-13716670D01*
X11598394Y-13716670D02*
X11626965Y-13726194D01*
X11626965Y-13726194D02*
X11646013Y-13745242D01*
X11646013Y-13745242D02*
X11655537Y-13764289D01*
X11655537Y-13764289D02*
X11665060Y-13802385D01*
X11665060Y-13802385D02*
X11665060Y-13830956D01*
X11665060Y-13830956D02*
X11655537Y-13869051D01*
X11655537Y-13869051D02*
X11646013Y-13888099D01*
X11646013Y-13888099D02*
X11626965Y-13907147D01*
X11626965Y-13907147D02*
X11598394Y-13916670D01*
X11598394Y-13916670D02*
X11550775Y-13916670D01*
X11750775Y-13916670D02*
X11750775Y-13783337D01*
X11750775Y-13821432D02*
X11760298Y-13802385D01*
X11760298Y-13802385D02*
X11769822Y-13792861D01*
X11769822Y-13792861D02*
X11788870Y-13783337D01*
X11788870Y-13783337D02*
X11807918Y-13783337D01*
X11874584Y-13916670D02*
X11874584Y-13783337D01*
X11874584Y-13716670D02*
X11865060Y-13726194D01*
X11865060Y-13726194D02*
X11874584Y-13735718D01*
X11874584Y-13735718D02*
X11884108Y-13726194D01*
X11884108Y-13726194D02*
X11874584Y-13716670D01*
X11874584Y-13716670D02*
X11874584Y-13735718D01*
X11998394Y-13916670D02*
X11979346Y-13907147D01*
X11979346Y-13907147D02*
X11969822Y-13888099D01*
X11969822Y-13888099D02*
X11969822Y-13716670D01*
X12103156Y-13916670D02*
X12084108Y-13907147D01*
X12084108Y-13907147D02*
X12074584Y-13888099D01*
X12074584Y-13888099D02*
X12074584Y-13716670D01*
X12331727Y-13916670D02*
X12331727Y-13716670D01*
X12331727Y-13716670D02*
X12398394Y-13859528D01*
X12398394Y-13859528D02*
X12465060Y-13716670D01*
X12465060Y-13716670D02*
X12465060Y-13916670D01*
X12646013Y-13916670D02*
X12646013Y-13811909D01*
X12646013Y-13811909D02*
X12636489Y-13792861D01*
X12636489Y-13792861D02*
X12617441Y-13783337D01*
X12617441Y-13783337D02*
X12579346Y-13783337D01*
X12579346Y-13783337D02*
X12560298Y-13792861D01*
X12646013Y-13907147D02*
X12626965Y-13916670D01*
X12626965Y-13916670D02*
X12579346Y-13916670D01*
X12579346Y-13916670D02*
X12560298Y-13907147D01*
X12560298Y-13907147D02*
X12550775Y-13888099D01*
X12550775Y-13888099D02*
X12550775Y-13869051D01*
X12550775Y-13869051D02*
X12560298Y-13850004D01*
X12560298Y-13850004D02*
X12579346Y-13840480D01*
X12579346Y-13840480D02*
X12626965Y-13840480D01*
X12626965Y-13840480D02*
X12646013Y-13830956D01*
X12741251Y-13783337D02*
X12741251Y-13983337D01*
X12741251Y-13792861D02*
X12760298Y-13783337D01*
X12760298Y-13783337D02*
X12798394Y-13783337D01*
X12798394Y-13783337D02*
X12817441Y-13792861D01*
X12817441Y-13792861D02*
X12826965Y-13802385D01*
X12826965Y-13802385D02*
X12836489Y-13821432D01*
X12836489Y-13821432D02*
X12836489Y-13878575D01*
X12836489Y-13878575D02*
X12826965Y-13897623D01*
X12826965Y-13897623D02*
X12817441Y-13907147D01*
X12817441Y-13907147D02*
X12798394Y-13916670D01*
X12798394Y-13916670D02*
X12760298Y-13916670D01*
X12760298Y-13916670D02*
X12741251Y-13907147D01*
X12922203Y-13897623D02*
X12931727Y-13907147D01*
X12931727Y-13907147D02*
X12922203Y-13916670D01*
X12922203Y-13916670D02*
X12912679Y-13907147D01*
X12912679Y-13907147D02*
X12922203Y-13897623D01*
X12922203Y-13897623D02*
X12922203Y-13916670D01*
X12922203Y-13792861D02*
X12931727Y-13802385D01*
X12931727Y-13802385D02*
X12922203Y-13811909D01*
X12922203Y-13811909D02*
X12912679Y-13802385D01*
X12912679Y-13802385D02*
X12922203Y-13792861D01*
X12922203Y-13792861D02*
X12922203Y-13811909D01*
D11*
X11259998Y-14230187D02*
X11289998Y-14260187D01*
X11289998Y-14230187D02*
X11259998Y-14260187D01*
D10*
X11588870Y-14136670D02*
X11607918Y-14136670D01*
X11607918Y-14136670D02*
X11626965Y-14146194D01*
X11626965Y-14146194D02*
X11636489Y-14155718D01*
X11636489Y-14155718D02*
X11646013Y-14174766D01*
X11646013Y-14174766D02*
X11655537Y-14212861D01*
X11655537Y-14212861D02*
X11655537Y-14260480D01*
X11655537Y-14260480D02*
X11646013Y-14298575D01*
X11646013Y-14298575D02*
X11636489Y-14317623D01*
X11636489Y-14317623D02*
X11626965Y-14327147D01*
X11626965Y-14327147D02*
X11607918Y-14336670D01*
X11607918Y-14336670D02*
X11588870Y-14336670D01*
X11588870Y-14336670D02*
X11569822Y-14327147D01*
X11569822Y-14327147D02*
X11560298Y-14317623D01*
X11560298Y-14317623D02*
X11550775Y-14298575D01*
X11550775Y-14298575D02*
X11541251Y-14260480D01*
X11541251Y-14260480D02*
X11541251Y-14212861D01*
X11541251Y-14212861D02*
X11550775Y-14174766D01*
X11550775Y-14174766D02*
X11560298Y-14155718D01*
X11560298Y-14155718D02*
X11569822Y-14146194D01*
X11569822Y-14146194D02*
X11588870Y-14136670D01*
X11741251Y-14317623D02*
X11750775Y-14327147D01*
X11750775Y-14327147D02*
X11741251Y-14336670D01*
X11741251Y-14336670D02*
X11731727Y-14327147D01*
X11731727Y-14327147D02*
X11741251Y-14317623D01*
X11741251Y-14317623D02*
X11741251Y-14336670D01*
X11817441Y-14136670D02*
X11941251Y-14136670D01*
X11941251Y-14136670D02*
X11874584Y-14212861D01*
X11874584Y-14212861D02*
X11903156Y-14212861D01*
X11903156Y-14212861D02*
X11922203Y-14222385D01*
X11922203Y-14222385D02*
X11931727Y-14231909D01*
X11931727Y-14231909D02*
X11941251Y-14250956D01*
X11941251Y-14250956D02*
X11941251Y-14298575D01*
X11941251Y-14298575D02*
X11931727Y-14317623D01*
X11931727Y-14317623D02*
X11922203Y-14327147D01*
X11922203Y-14327147D02*
X11903156Y-14336670D01*
X11903156Y-14336670D02*
X11846013Y-14336670D01*
X11846013Y-14336670D02*
X11826965Y-14327147D01*
X11826965Y-14327147D02*
X11817441Y-14317623D01*
X12065060Y-14136670D02*
X12084108Y-14136670D01*
X12084108Y-14136670D02*
X12103156Y-14146194D01*
X12103156Y-14146194D02*
X12112679Y-14155718D01*
X12112679Y-14155718D02*
X12122203Y-14174766D01*
X12122203Y-14174766D02*
X12131727Y-14212861D01*
X12131727Y-14212861D02*
X12131727Y-14260480D01*
X12131727Y-14260480D02*
X12122203Y-14298575D01*
X12122203Y-14298575D02*
X12112679Y-14317623D01*
X12112679Y-14317623D02*
X12103156Y-14327147D01*
X12103156Y-14327147D02*
X12084108Y-14336670D01*
X12084108Y-14336670D02*
X12065060Y-14336670D01*
X12065060Y-14336670D02*
X12046013Y-14327147D01*
X12046013Y-14327147D02*
X12036489Y-14317623D01*
X12036489Y-14317623D02*
X12026965Y-14298575D01*
X12026965Y-14298575D02*
X12017441Y-14260480D01*
X12017441Y-14260480D02*
X12017441Y-14212861D01*
X12017441Y-14212861D02*
X12026965Y-14174766D01*
X12026965Y-14174766D02*
X12036489Y-14155718D01*
X12036489Y-14155718D02*
X12046013Y-14146194D01*
X12046013Y-14146194D02*
X12065060Y-14136670D01*
X12255537Y-14136670D02*
X12274584Y-14136670D01*
X12274584Y-14136670D02*
X12293632Y-14146194D01*
X12293632Y-14146194D02*
X12303156Y-14155718D01*
X12303156Y-14155718D02*
X12312679Y-14174766D01*
X12312679Y-14174766D02*
X12322203Y-14212861D01*
X12322203Y-14212861D02*
X12322203Y-14260480D01*
X12322203Y-14260480D02*
X12312679Y-14298575D01*
X12312679Y-14298575D02*
X12303156Y-14317623D01*
X12303156Y-14317623D02*
X12293632Y-14327147D01*
X12293632Y-14327147D02*
X12274584Y-14336670D01*
X12274584Y-14336670D02*
X12255537Y-14336670D01*
X12255537Y-14336670D02*
X12236489Y-14327147D01*
X12236489Y-14327147D02*
X12226965Y-14317623D01*
X12226965Y-14317623D02*
X12217441Y-14298575D01*
X12217441Y-14298575D02*
X12207918Y-14260480D01*
X12207918Y-14260480D02*
X12207918Y-14212861D01*
X12207918Y-14212861D02*
X12217441Y-14174766D01*
X12217441Y-14174766D02*
X12226965Y-14155718D01*
X12226965Y-14155718D02*
X12236489Y-14146194D01*
X12236489Y-14146194D02*
X12255537Y-14136670D01*
X12407918Y-14336670D02*
X12407918Y-14203337D01*
X12407918Y-14222385D02*
X12417441Y-14212861D01*
X12417441Y-14212861D02*
X12436489Y-14203337D01*
X12436489Y-14203337D02*
X12465060Y-14203337D01*
X12465060Y-14203337D02*
X12484108Y-14212861D01*
X12484108Y-14212861D02*
X12493632Y-14231909D01*
X12493632Y-14231909D02*
X12493632Y-14336670D01*
X12493632Y-14231909D02*
X12503156Y-14212861D01*
X12503156Y-14212861D02*
X12522203Y-14203337D01*
X12522203Y-14203337D02*
X12550775Y-14203337D01*
X12550775Y-14203337D02*
X12569822Y-14212861D01*
X12569822Y-14212861D02*
X12579346Y-14231909D01*
X12579346Y-14231909D02*
X12579346Y-14336670D01*
X12674584Y-14336670D02*
X12674584Y-14203337D01*
X12674584Y-14222385D02*
X12684108Y-14212861D01*
X12684108Y-14212861D02*
X12703156Y-14203337D01*
X12703156Y-14203337D02*
X12731727Y-14203337D01*
X12731727Y-14203337D02*
X12750775Y-14212861D01*
X12750775Y-14212861D02*
X12760299Y-14231909D01*
X12760299Y-14231909D02*
X12760299Y-14336670D01*
X12760299Y-14231909D02*
X12769822Y-14212861D01*
X12769822Y-14212861D02*
X12788870Y-14203337D01*
X12788870Y-14203337D02*
X12817441Y-14203337D01*
X12817441Y-14203337D02*
X12836489Y-14212861D01*
X12836489Y-14212861D02*
X12846013Y-14231909D01*
X12846013Y-14231909D02*
X12846013Y-14336670D01*
X13236489Y-14127147D02*
X13065061Y-14384289D01*
X13493632Y-14136670D02*
X13512680Y-14136670D01*
X13512680Y-14136670D02*
X13531727Y-14146194D01*
X13531727Y-14146194D02*
X13541251Y-14155718D01*
X13541251Y-14155718D02*
X13550775Y-14174766D01*
X13550775Y-14174766D02*
X13560299Y-14212861D01*
X13560299Y-14212861D02*
X13560299Y-14260480D01*
X13560299Y-14260480D02*
X13550775Y-14298575D01*
X13550775Y-14298575D02*
X13541251Y-14317623D01*
X13541251Y-14317623D02*
X13531727Y-14327147D01*
X13531727Y-14327147D02*
X13512680Y-14336670D01*
X13512680Y-14336670D02*
X13493632Y-14336670D01*
X13493632Y-14336670D02*
X13474584Y-14327147D01*
X13474584Y-14327147D02*
X13465061Y-14317623D01*
X13465061Y-14317623D02*
X13455537Y-14298575D01*
X13455537Y-14298575D02*
X13446013Y-14260480D01*
X13446013Y-14260480D02*
X13446013Y-14212861D01*
X13446013Y-14212861D02*
X13455537Y-14174766D01*
X13455537Y-14174766D02*
X13465061Y-14155718D01*
X13465061Y-14155718D02*
X13474584Y-14146194D01*
X13474584Y-14146194D02*
X13493632Y-14136670D01*
X13646013Y-14317623D02*
X13655537Y-14327147D01*
X13655537Y-14327147D02*
X13646013Y-14336670D01*
X13646013Y-14336670D02*
X13636489Y-14327147D01*
X13636489Y-14327147D02*
X13646013Y-14317623D01*
X13646013Y-14317623D02*
X13646013Y-14336670D01*
X13779346Y-14136670D02*
X13798394Y-14136670D01*
X13798394Y-14136670D02*
X13817442Y-14146194D01*
X13817442Y-14146194D02*
X13826965Y-14155718D01*
X13826965Y-14155718D02*
X13836489Y-14174766D01*
X13836489Y-14174766D02*
X13846013Y-14212861D01*
X13846013Y-14212861D02*
X13846013Y-14260480D01*
X13846013Y-14260480D02*
X13836489Y-14298575D01*
X13836489Y-14298575D02*
X13826965Y-14317623D01*
X13826965Y-14317623D02*
X13817442Y-14327147D01*
X13817442Y-14327147D02*
X13798394Y-14336670D01*
X13798394Y-14336670D02*
X13779346Y-14336670D01*
X13779346Y-14336670D02*
X13760299Y-14327147D01*
X13760299Y-14327147D02*
X13750775Y-14317623D01*
X13750775Y-14317623D02*
X13741251Y-14298575D01*
X13741251Y-14298575D02*
X13731727Y-14260480D01*
X13731727Y-14260480D02*
X13731727Y-14212861D01*
X13731727Y-14212861D02*
X13741251Y-14174766D01*
X13741251Y-14174766D02*
X13750775Y-14155718D01*
X13750775Y-14155718D02*
X13760299Y-14146194D01*
X13760299Y-14146194D02*
X13779346Y-14136670D01*
X14036489Y-14336670D02*
X13922203Y-14336670D01*
X13979346Y-14336670D02*
X13979346Y-14136670D01*
X13979346Y-14136670D02*
X13960299Y-14165242D01*
X13960299Y-14165242D02*
X13941251Y-14184289D01*
X13941251Y-14184289D02*
X13922203Y-14193813D01*
X14226965Y-14336670D02*
X14112680Y-14336670D01*
X14169822Y-14336670D02*
X14169822Y-14136670D01*
X14169822Y-14136670D02*
X14150775Y-14165242D01*
X14150775Y-14165242D02*
X14131727Y-14184289D01*
X14131727Y-14184289D02*
X14112680Y-14193813D01*
X14341251Y-14222385D02*
X14322203Y-14212861D01*
X14322203Y-14212861D02*
X14312680Y-14203337D01*
X14312680Y-14203337D02*
X14303156Y-14184289D01*
X14303156Y-14184289D02*
X14303156Y-14174766D01*
X14303156Y-14174766D02*
X14312680Y-14155718D01*
X14312680Y-14155718D02*
X14322203Y-14146194D01*
X14322203Y-14146194D02*
X14341251Y-14136670D01*
X14341251Y-14136670D02*
X14379346Y-14136670D01*
X14379346Y-14136670D02*
X14398394Y-14146194D01*
X14398394Y-14146194D02*
X14407918Y-14155718D01*
X14407918Y-14155718D02*
X14417442Y-14174766D01*
X14417442Y-14174766D02*
X14417442Y-14184289D01*
X14417442Y-14184289D02*
X14407918Y-14203337D01*
X14407918Y-14203337D02*
X14398394Y-14212861D01*
X14398394Y-14212861D02*
X14379346Y-14222385D01*
X14379346Y-14222385D02*
X14341251Y-14222385D01*
X14341251Y-14222385D02*
X14322203Y-14231909D01*
X14322203Y-14231909D02*
X14312680Y-14241432D01*
X14312680Y-14241432D02*
X14303156Y-14260480D01*
X14303156Y-14260480D02*
X14303156Y-14298575D01*
X14303156Y-14298575D02*
X14312680Y-14317623D01*
X14312680Y-14317623D02*
X14322203Y-14327147D01*
X14322203Y-14327147D02*
X14341251Y-14336670D01*
X14341251Y-14336670D02*
X14379346Y-14336670D01*
X14379346Y-14336670D02*
X14398394Y-14327147D01*
X14398394Y-14327147D02*
X14407918Y-14317623D01*
X14407918Y-14317623D02*
X14417442Y-14298575D01*
X14417442Y-14298575D02*
X14417442Y-14260480D01*
X14417442Y-14260480D02*
X14407918Y-14241432D01*
X14407918Y-14241432D02*
X14398394Y-14231909D01*
X14398394Y-14231909D02*
X14379346Y-14222385D01*
X14493632Y-14136670D02*
X14493632Y-14174766D01*
X14569823Y-14136670D02*
X14569823Y-14174766D01*
X14865061Y-14412861D02*
X14855537Y-14403337D01*
X14855537Y-14403337D02*
X14836489Y-14374766D01*
X14836489Y-14374766D02*
X14826965Y-14355718D01*
X14826965Y-14355718D02*
X14817442Y-14327147D01*
X14817442Y-14327147D02*
X14807918Y-14279528D01*
X14807918Y-14279528D02*
X14807918Y-14241432D01*
X14807918Y-14241432D02*
X14817442Y-14193813D01*
X14817442Y-14193813D02*
X14826965Y-14165242D01*
X14826965Y-14165242D02*
X14836489Y-14146194D01*
X14836489Y-14146194D02*
X14855537Y-14117623D01*
X14855537Y-14117623D02*
X14865061Y-14108099D01*
X14931727Y-14155718D02*
X14941251Y-14146194D01*
X14941251Y-14146194D02*
X14960299Y-14136670D01*
X14960299Y-14136670D02*
X15007918Y-14136670D01*
X15007918Y-14136670D02*
X15026965Y-14146194D01*
X15026965Y-14146194D02*
X15036489Y-14155718D01*
X15036489Y-14155718D02*
X15046013Y-14174766D01*
X15046013Y-14174766D02*
X15046013Y-14193813D01*
X15046013Y-14193813D02*
X15036489Y-14222385D01*
X15036489Y-14222385D02*
X14922204Y-14336670D01*
X14922204Y-14336670D02*
X15046013Y-14336670D01*
X15226965Y-14136670D02*
X15131727Y-14136670D01*
X15131727Y-14136670D02*
X15122204Y-14231909D01*
X15122204Y-14231909D02*
X15131727Y-14222385D01*
X15131727Y-14222385D02*
X15150775Y-14212861D01*
X15150775Y-14212861D02*
X15198394Y-14212861D01*
X15198394Y-14212861D02*
X15217442Y-14222385D01*
X15217442Y-14222385D02*
X15226965Y-14231909D01*
X15226965Y-14231909D02*
X15236489Y-14250956D01*
X15236489Y-14250956D02*
X15236489Y-14298575D01*
X15236489Y-14298575D02*
X15226965Y-14317623D01*
X15226965Y-14317623D02*
X15217442Y-14327147D01*
X15217442Y-14327147D02*
X15198394Y-14336670D01*
X15198394Y-14336670D02*
X15150775Y-14336670D01*
X15150775Y-14336670D02*
X15131727Y-14327147D01*
X15131727Y-14327147D02*
X15122204Y-14317623D01*
X15474585Y-14336670D02*
X15474585Y-14136670D01*
X15560299Y-14336670D02*
X15560299Y-14231909D01*
X15560299Y-14231909D02*
X15550775Y-14212861D01*
X15550775Y-14212861D02*
X15531727Y-14203337D01*
X15531727Y-14203337D02*
X15503156Y-14203337D01*
X15503156Y-14203337D02*
X15484108Y-14212861D01*
X15484108Y-14212861D02*
X15474585Y-14222385D01*
X15684108Y-14336670D02*
X15665061Y-14327147D01*
X15665061Y-14327147D02*
X15655537Y-14317623D01*
X15655537Y-14317623D02*
X15646013Y-14298575D01*
X15646013Y-14298575D02*
X15646013Y-14241432D01*
X15646013Y-14241432D02*
X15655537Y-14222385D01*
X15655537Y-14222385D02*
X15665061Y-14212861D01*
X15665061Y-14212861D02*
X15684108Y-14203337D01*
X15684108Y-14203337D02*
X15712680Y-14203337D01*
X15712680Y-14203337D02*
X15731727Y-14212861D01*
X15731727Y-14212861D02*
X15741251Y-14222385D01*
X15741251Y-14222385D02*
X15750775Y-14241432D01*
X15750775Y-14241432D02*
X15750775Y-14298575D01*
X15750775Y-14298575D02*
X15741251Y-14317623D01*
X15741251Y-14317623D02*
X15731727Y-14327147D01*
X15731727Y-14327147D02*
X15712680Y-14336670D01*
X15712680Y-14336670D02*
X15684108Y-14336670D01*
X15865061Y-14336670D02*
X15846013Y-14327147D01*
X15846013Y-14327147D02*
X15836489Y-14308099D01*
X15836489Y-14308099D02*
X15836489Y-14136670D01*
X16017442Y-14327147D02*
X15998394Y-14336670D01*
X15998394Y-14336670D02*
X15960299Y-14336670D01*
X15960299Y-14336670D02*
X15941251Y-14327147D01*
X15941251Y-14327147D02*
X15931727Y-14308099D01*
X15931727Y-14308099D02*
X15931727Y-14231909D01*
X15931727Y-14231909D02*
X15941251Y-14212861D01*
X15941251Y-14212861D02*
X15960299Y-14203337D01*
X15960299Y-14203337D02*
X15998394Y-14203337D01*
X15998394Y-14203337D02*
X16017442Y-14212861D01*
X16017442Y-14212861D02*
X16026966Y-14231909D01*
X16026966Y-14231909D02*
X16026966Y-14250956D01*
X16026966Y-14250956D02*
X15931727Y-14270004D01*
X16103156Y-14327147D02*
X16122204Y-14336670D01*
X16122204Y-14336670D02*
X16160299Y-14336670D01*
X16160299Y-14336670D02*
X16179347Y-14327147D01*
X16179347Y-14327147D02*
X16188870Y-14308099D01*
X16188870Y-14308099D02*
X16188870Y-14298575D01*
X16188870Y-14298575D02*
X16179347Y-14279528D01*
X16179347Y-14279528D02*
X16160299Y-14270004D01*
X16160299Y-14270004D02*
X16131727Y-14270004D01*
X16131727Y-14270004D02*
X16112680Y-14260480D01*
X16112680Y-14260480D02*
X16103156Y-14241432D01*
X16103156Y-14241432D02*
X16103156Y-14231909D01*
X16103156Y-14231909D02*
X16112680Y-14212861D01*
X16112680Y-14212861D02*
X16131727Y-14203337D01*
X16131727Y-14203337D02*
X16160299Y-14203337D01*
X16160299Y-14203337D02*
X16179347Y-14212861D01*
X16255537Y-14412861D02*
X16265061Y-14403337D01*
X16265061Y-14403337D02*
X16284108Y-14374766D01*
X16284108Y-14374766D02*
X16293632Y-14355718D01*
X16293632Y-14355718D02*
X16303156Y-14327147D01*
X16303156Y-14327147D02*
X16312680Y-14279528D01*
X16312680Y-14279528D02*
X16312680Y-14241432D01*
X16312680Y-14241432D02*
X16303156Y-14193813D01*
X16303156Y-14193813D02*
X16293632Y-14165242D01*
X16293632Y-14165242D02*
X16284108Y-14146194D01*
X16284108Y-14146194D02*
X16265061Y-14117623D01*
X16265061Y-14117623D02*
X16255537Y-14108099D01*
D11*
X11289998Y-14509187D02*
G75*
G02*
X11254998Y-14509187I-17500J0D01*
G01*
X11254998Y-14509187D02*
G75*
G02*
X11289998Y-14509187I17500J0D01*
G01*
D10*
X11588870Y-14400670D02*
X11607918Y-14400670D01*
X11607918Y-14400670D02*
X11626965Y-14410194D01*
X11626965Y-14410194D02*
X11636489Y-14419718D01*
X11636489Y-14419718D02*
X11646013Y-14438766D01*
X11646013Y-14438766D02*
X11655537Y-14476861D01*
X11655537Y-14476861D02*
X11655537Y-14524480D01*
X11655537Y-14524480D02*
X11646013Y-14562575D01*
X11646013Y-14562575D02*
X11636489Y-14581623D01*
X11636489Y-14581623D02*
X11626965Y-14591147D01*
X11626965Y-14591147D02*
X11607918Y-14600670D01*
X11607918Y-14600670D02*
X11588870Y-14600670D01*
X11588870Y-14600670D02*
X11569822Y-14591147D01*
X11569822Y-14591147D02*
X11560298Y-14581623D01*
X11560298Y-14581623D02*
X11550775Y-14562575D01*
X11550775Y-14562575D02*
X11541251Y-14524480D01*
X11541251Y-14524480D02*
X11541251Y-14476861D01*
X11541251Y-14476861D02*
X11550775Y-14438766D01*
X11550775Y-14438766D02*
X11560298Y-14419718D01*
X11560298Y-14419718D02*
X11569822Y-14410194D01*
X11569822Y-14410194D02*
X11588870Y-14400670D01*
X11741251Y-14581623D02*
X11750775Y-14591147D01*
X11750775Y-14591147D02*
X11741251Y-14600670D01*
X11741251Y-14600670D02*
X11731727Y-14591147D01*
X11731727Y-14591147D02*
X11741251Y-14581623D01*
X11741251Y-14581623D02*
X11741251Y-14600670D01*
X11817441Y-14400670D02*
X11941251Y-14400670D01*
X11941251Y-14400670D02*
X11874584Y-14476861D01*
X11874584Y-14476861D02*
X11903156Y-14476861D01*
X11903156Y-14476861D02*
X11922203Y-14486385D01*
X11922203Y-14486385D02*
X11931727Y-14495909D01*
X11931727Y-14495909D02*
X11941251Y-14514956D01*
X11941251Y-14514956D02*
X11941251Y-14562575D01*
X11941251Y-14562575D02*
X11931727Y-14581623D01*
X11931727Y-14581623D02*
X11922203Y-14591147D01*
X11922203Y-14591147D02*
X11903156Y-14600670D01*
X11903156Y-14600670D02*
X11846013Y-14600670D01*
X11846013Y-14600670D02*
X11826965Y-14591147D01*
X11826965Y-14591147D02*
X11817441Y-14581623D01*
X12122203Y-14400670D02*
X12026965Y-14400670D01*
X12026965Y-14400670D02*
X12017441Y-14495909D01*
X12017441Y-14495909D02*
X12026965Y-14486385D01*
X12026965Y-14486385D02*
X12046013Y-14476861D01*
X12046013Y-14476861D02*
X12093632Y-14476861D01*
X12093632Y-14476861D02*
X12112679Y-14486385D01*
X12112679Y-14486385D02*
X12122203Y-14495909D01*
X12122203Y-14495909D02*
X12131727Y-14514956D01*
X12131727Y-14514956D02*
X12131727Y-14562575D01*
X12131727Y-14562575D02*
X12122203Y-14581623D01*
X12122203Y-14581623D02*
X12112679Y-14591147D01*
X12112679Y-14591147D02*
X12093632Y-14600670D01*
X12093632Y-14600670D02*
X12046013Y-14600670D01*
X12046013Y-14600670D02*
X12026965Y-14591147D01*
X12026965Y-14591147D02*
X12017441Y-14581623D01*
X12255537Y-14400670D02*
X12274584Y-14400670D01*
X12274584Y-14400670D02*
X12293632Y-14410194D01*
X12293632Y-14410194D02*
X12303156Y-14419718D01*
X12303156Y-14419718D02*
X12312679Y-14438766D01*
X12312679Y-14438766D02*
X12322203Y-14476861D01*
X12322203Y-14476861D02*
X12322203Y-14524480D01*
X12322203Y-14524480D02*
X12312679Y-14562575D01*
X12312679Y-14562575D02*
X12303156Y-14581623D01*
X12303156Y-14581623D02*
X12293632Y-14591147D01*
X12293632Y-14591147D02*
X12274584Y-14600670D01*
X12274584Y-14600670D02*
X12255537Y-14600670D01*
X12255537Y-14600670D02*
X12236489Y-14591147D01*
X12236489Y-14591147D02*
X12226965Y-14581623D01*
X12226965Y-14581623D02*
X12217441Y-14562575D01*
X12217441Y-14562575D02*
X12207918Y-14524480D01*
X12207918Y-14524480D02*
X12207918Y-14476861D01*
X12207918Y-14476861D02*
X12217441Y-14438766D01*
X12217441Y-14438766D02*
X12226965Y-14419718D01*
X12226965Y-14419718D02*
X12236489Y-14410194D01*
X12236489Y-14410194D02*
X12255537Y-14400670D01*
X12407918Y-14600670D02*
X12407918Y-14467337D01*
X12407918Y-14486385D02*
X12417441Y-14476861D01*
X12417441Y-14476861D02*
X12436489Y-14467337D01*
X12436489Y-14467337D02*
X12465060Y-14467337D01*
X12465060Y-14467337D02*
X12484108Y-14476861D01*
X12484108Y-14476861D02*
X12493632Y-14495909D01*
X12493632Y-14495909D02*
X12493632Y-14600670D01*
X12493632Y-14495909D02*
X12503156Y-14476861D01*
X12503156Y-14476861D02*
X12522203Y-14467337D01*
X12522203Y-14467337D02*
X12550775Y-14467337D01*
X12550775Y-14467337D02*
X12569822Y-14476861D01*
X12569822Y-14476861D02*
X12579346Y-14495909D01*
X12579346Y-14495909D02*
X12579346Y-14600670D01*
X12674584Y-14600670D02*
X12674584Y-14467337D01*
X12674584Y-14486385D02*
X12684108Y-14476861D01*
X12684108Y-14476861D02*
X12703156Y-14467337D01*
X12703156Y-14467337D02*
X12731727Y-14467337D01*
X12731727Y-14467337D02*
X12750775Y-14476861D01*
X12750775Y-14476861D02*
X12760299Y-14495909D01*
X12760299Y-14495909D02*
X12760299Y-14600670D01*
X12760299Y-14495909D02*
X12769822Y-14476861D01*
X12769822Y-14476861D02*
X12788870Y-14467337D01*
X12788870Y-14467337D02*
X12817441Y-14467337D01*
X12817441Y-14467337D02*
X12836489Y-14476861D01*
X12836489Y-14476861D02*
X12846013Y-14495909D01*
X12846013Y-14495909D02*
X12846013Y-14600670D01*
X13236489Y-14391147D02*
X13065061Y-14648289D01*
X13493632Y-14400670D02*
X13512680Y-14400670D01*
X13512680Y-14400670D02*
X13531727Y-14410194D01*
X13531727Y-14410194D02*
X13541251Y-14419718D01*
X13541251Y-14419718D02*
X13550775Y-14438766D01*
X13550775Y-14438766D02*
X13560299Y-14476861D01*
X13560299Y-14476861D02*
X13560299Y-14524480D01*
X13560299Y-14524480D02*
X13550775Y-14562575D01*
X13550775Y-14562575D02*
X13541251Y-14581623D01*
X13541251Y-14581623D02*
X13531727Y-14591147D01*
X13531727Y-14591147D02*
X13512680Y-14600670D01*
X13512680Y-14600670D02*
X13493632Y-14600670D01*
X13493632Y-14600670D02*
X13474584Y-14591147D01*
X13474584Y-14591147D02*
X13465061Y-14581623D01*
X13465061Y-14581623D02*
X13455537Y-14562575D01*
X13455537Y-14562575D02*
X13446013Y-14524480D01*
X13446013Y-14524480D02*
X13446013Y-14476861D01*
X13446013Y-14476861D02*
X13455537Y-14438766D01*
X13455537Y-14438766D02*
X13465061Y-14419718D01*
X13465061Y-14419718D02*
X13474584Y-14410194D01*
X13474584Y-14410194D02*
X13493632Y-14400670D01*
X13646013Y-14581623D02*
X13655537Y-14591147D01*
X13655537Y-14591147D02*
X13646013Y-14600670D01*
X13646013Y-14600670D02*
X13636489Y-14591147D01*
X13636489Y-14591147D02*
X13646013Y-14581623D01*
X13646013Y-14581623D02*
X13646013Y-14600670D01*
X13779346Y-14400670D02*
X13798394Y-14400670D01*
X13798394Y-14400670D02*
X13817442Y-14410194D01*
X13817442Y-14410194D02*
X13826965Y-14419718D01*
X13826965Y-14419718D02*
X13836489Y-14438766D01*
X13836489Y-14438766D02*
X13846013Y-14476861D01*
X13846013Y-14476861D02*
X13846013Y-14524480D01*
X13846013Y-14524480D02*
X13836489Y-14562575D01*
X13836489Y-14562575D02*
X13826965Y-14581623D01*
X13826965Y-14581623D02*
X13817442Y-14591147D01*
X13817442Y-14591147D02*
X13798394Y-14600670D01*
X13798394Y-14600670D02*
X13779346Y-14600670D01*
X13779346Y-14600670D02*
X13760299Y-14591147D01*
X13760299Y-14591147D02*
X13750775Y-14581623D01*
X13750775Y-14581623D02*
X13741251Y-14562575D01*
X13741251Y-14562575D02*
X13731727Y-14524480D01*
X13731727Y-14524480D02*
X13731727Y-14476861D01*
X13731727Y-14476861D02*
X13741251Y-14438766D01*
X13741251Y-14438766D02*
X13750775Y-14419718D01*
X13750775Y-14419718D02*
X13760299Y-14410194D01*
X13760299Y-14410194D02*
X13779346Y-14400670D01*
X14036489Y-14600670D02*
X13922203Y-14600670D01*
X13979346Y-14600670D02*
X13979346Y-14400670D01*
X13979346Y-14400670D02*
X13960299Y-14429242D01*
X13960299Y-14429242D02*
X13941251Y-14448289D01*
X13941251Y-14448289D02*
X13922203Y-14457813D01*
X14103156Y-14400670D02*
X14226965Y-14400670D01*
X14226965Y-14400670D02*
X14160299Y-14476861D01*
X14160299Y-14476861D02*
X14188870Y-14476861D01*
X14188870Y-14476861D02*
X14207918Y-14486385D01*
X14207918Y-14486385D02*
X14217442Y-14495909D01*
X14217442Y-14495909D02*
X14226965Y-14514956D01*
X14226965Y-14514956D02*
X14226965Y-14562575D01*
X14226965Y-14562575D02*
X14217442Y-14581623D01*
X14217442Y-14581623D02*
X14207918Y-14591147D01*
X14207918Y-14591147D02*
X14188870Y-14600670D01*
X14188870Y-14600670D02*
X14131727Y-14600670D01*
X14131727Y-14600670D02*
X14112680Y-14591147D01*
X14112680Y-14591147D02*
X14103156Y-14581623D01*
X14341251Y-14486385D02*
X14322203Y-14476861D01*
X14322203Y-14476861D02*
X14312680Y-14467337D01*
X14312680Y-14467337D02*
X14303156Y-14448289D01*
X14303156Y-14448289D02*
X14303156Y-14438766D01*
X14303156Y-14438766D02*
X14312680Y-14419718D01*
X14312680Y-14419718D02*
X14322203Y-14410194D01*
X14322203Y-14410194D02*
X14341251Y-14400670D01*
X14341251Y-14400670D02*
X14379346Y-14400670D01*
X14379346Y-14400670D02*
X14398394Y-14410194D01*
X14398394Y-14410194D02*
X14407918Y-14419718D01*
X14407918Y-14419718D02*
X14417442Y-14438766D01*
X14417442Y-14438766D02*
X14417442Y-14448289D01*
X14417442Y-14448289D02*
X14407918Y-14467337D01*
X14407918Y-14467337D02*
X14398394Y-14476861D01*
X14398394Y-14476861D02*
X14379346Y-14486385D01*
X14379346Y-14486385D02*
X14341251Y-14486385D01*
X14341251Y-14486385D02*
X14322203Y-14495909D01*
X14322203Y-14495909D02*
X14312680Y-14505432D01*
X14312680Y-14505432D02*
X14303156Y-14524480D01*
X14303156Y-14524480D02*
X14303156Y-14562575D01*
X14303156Y-14562575D02*
X14312680Y-14581623D01*
X14312680Y-14581623D02*
X14322203Y-14591147D01*
X14322203Y-14591147D02*
X14341251Y-14600670D01*
X14341251Y-14600670D02*
X14379346Y-14600670D01*
X14379346Y-14600670D02*
X14398394Y-14591147D01*
X14398394Y-14591147D02*
X14407918Y-14581623D01*
X14407918Y-14581623D02*
X14417442Y-14562575D01*
X14417442Y-14562575D02*
X14417442Y-14524480D01*
X14417442Y-14524480D02*
X14407918Y-14505432D01*
X14407918Y-14505432D02*
X14398394Y-14495909D01*
X14398394Y-14495909D02*
X14379346Y-14486385D01*
X14493632Y-14400670D02*
X14493632Y-14438766D01*
X14569823Y-14400670D02*
X14569823Y-14438766D01*
X14865061Y-14676861D02*
X14855537Y-14667337D01*
X14855537Y-14667337D02*
X14836489Y-14638766D01*
X14836489Y-14638766D02*
X14826965Y-14619718D01*
X14826965Y-14619718D02*
X14817442Y-14591147D01*
X14817442Y-14591147D02*
X14807918Y-14543528D01*
X14807918Y-14543528D02*
X14807918Y-14505432D01*
X14807918Y-14505432D02*
X14817442Y-14457813D01*
X14817442Y-14457813D02*
X14826965Y-14429242D01*
X14826965Y-14429242D02*
X14836489Y-14410194D01*
X14836489Y-14410194D02*
X14855537Y-14381623D01*
X14855537Y-14381623D02*
X14865061Y-14372099D01*
X15026965Y-14400670D02*
X14988870Y-14400670D01*
X14988870Y-14400670D02*
X14969823Y-14410194D01*
X14969823Y-14410194D02*
X14960299Y-14419718D01*
X14960299Y-14419718D02*
X14941251Y-14448289D01*
X14941251Y-14448289D02*
X14931727Y-14486385D01*
X14931727Y-14486385D02*
X14931727Y-14562575D01*
X14931727Y-14562575D02*
X14941251Y-14581623D01*
X14941251Y-14581623D02*
X14950775Y-14591147D01*
X14950775Y-14591147D02*
X14969823Y-14600670D01*
X14969823Y-14600670D02*
X15007918Y-14600670D01*
X15007918Y-14600670D02*
X15026965Y-14591147D01*
X15026965Y-14591147D02*
X15036489Y-14581623D01*
X15036489Y-14581623D02*
X15046013Y-14562575D01*
X15046013Y-14562575D02*
X15046013Y-14514956D01*
X15046013Y-14514956D02*
X15036489Y-14495909D01*
X15036489Y-14495909D02*
X15026965Y-14486385D01*
X15026965Y-14486385D02*
X15007918Y-14476861D01*
X15007918Y-14476861D02*
X14969823Y-14476861D01*
X14969823Y-14476861D02*
X14950775Y-14486385D01*
X14950775Y-14486385D02*
X14941251Y-14495909D01*
X14941251Y-14495909D02*
X14931727Y-14514956D01*
X15169823Y-14400670D02*
X15188870Y-14400670D01*
X15188870Y-14400670D02*
X15207918Y-14410194D01*
X15207918Y-14410194D02*
X15217442Y-14419718D01*
X15217442Y-14419718D02*
X15226965Y-14438766D01*
X15226965Y-14438766D02*
X15236489Y-14476861D01*
X15236489Y-14476861D02*
X15236489Y-14524480D01*
X15236489Y-14524480D02*
X15226965Y-14562575D01*
X15226965Y-14562575D02*
X15217442Y-14581623D01*
X15217442Y-14581623D02*
X15207918Y-14591147D01*
X15207918Y-14591147D02*
X15188870Y-14600670D01*
X15188870Y-14600670D02*
X15169823Y-14600670D01*
X15169823Y-14600670D02*
X15150775Y-14591147D01*
X15150775Y-14591147D02*
X15141251Y-14581623D01*
X15141251Y-14581623D02*
X15131727Y-14562575D01*
X15131727Y-14562575D02*
X15122204Y-14524480D01*
X15122204Y-14524480D02*
X15122204Y-14476861D01*
X15122204Y-14476861D02*
X15131727Y-14438766D01*
X15131727Y-14438766D02*
X15141251Y-14419718D01*
X15141251Y-14419718D02*
X15150775Y-14410194D01*
X15150775Y-14410194D02*
X15169823Y-14400670D01*
X15474585Y-14600670D02*
X15474585Y-14400670D01*
X15560299Y-14600670D02*
X15560299Y-14495909D01*
X15560299Y-14495909D02*
X15550775Y-14476861D01*
X15550775Y-14476861D02*
X15531727Y-14467337D01*
X15531727Y-14467337D02*
X15503156Y-14467337D01*
X15503156Y-14467337D02*
X15484108Y-14476861D01*
X15484108Y-14476861D02*
X15474585Y-14486385D01*
X15684108Y-14600670D02*
X15665061Y-14591147D01*
X15665061Y-14591147D02*
X15655537Y-14581623D01*
X15655537Y-14581623D02*
X15646013Y-14562575D01*
X15646013Y-14562575D02*
X15646013Y-14505432D01*
X15646013Y-14505432D02*
X15655537Y-14486385D01*
X15655537Y-14486385D02*
X15665061Y-14476861D01*
X15665061Y-14476861D02*
X15684108Y-14467337D01*
X15684108Y-14467337D02*
X15712680Y-14467337D01*
X15712680Y-14467337D02*
X15731727Y-14476861D01*
X15731727Y-14476861D02*
X15741251Y-14486385D01*
X15741251Y-14486385D02*
X15750775Y-14505432D01*
X15750775Y-14505432D02*
X15750775Y-14562575D01*
X15750775Y-14562575D02*
X15741251Y-14581623D01*
X15741251Y-14581623D02*
X15731727Y-14591147D01*
X15731727Y-14591147D02*
X15712680Y-14600670D01*
X15712680Y-14600670D02*
X15684108Y-14600670D01*
X15865061Y-14600670D02*
X15846013Y-14591147D01*
X15846013Y-14591147D02*
X15836489Y-14572099D01*
X15836489Y-14572099D02*
X15836489Y-14400670D01*
X16017442Y-14591147D02*
X15998394Y-14600670D01*
X15998394Y-14600670D02*
X15960299Y-14600670D01*
X15960299Y-14600670D02*
X15941251Y-14591147D01*
X15941251Y-14591147D02*
X15931727Y-14572099D01*
X15931727Y-14572099D02*
X15931727Y-14495909D01*
X15931727Y-14495909D02*
X15941251Y-14476861D01*
X15941251Y-14476861D02*
X15960299Y-14467337D01*
X15960299Y-14467337D02*
X15998394Y-14467337D01*
X15998394Y-14467337D02*
X16017442Y-14476861D01*
X16017442Y-14476861D02*
X16026966Y-14495909D01*
X16026966Y-14495909D02*
X16026966Y-14514956D01*
X16026966Y-14514956D02*
X15931727Y-14534004D01*
X16103156Y-14591147D02*
X16122204Y-14600670D01*
X16122204Y-14600670D02*
X16160299Y-14600670D01*
X16160299Y-14600670D02*
X16179347Y-14591147D01*
X16179347Y-14591147D02*
X16188870Y-14572099D01*
X16188870Y-14572099D02*
X16188870Y-14562575D01*
X16188870Y-14562575D02*
X16179347Y-14543528D01*
X16179347Y-14543528D02*
X16160299Y-14534004D01*
X16160299Y-14534004D02*
X16131727Y-14534004D01*
X16131727Y-14534004D02*
X16112680Y-14524480D01*
X16112680Y-14524480D02*
X16103156Y-14505432D01*
X16103156Y-14505432D02*
X16103156Y-14495909D01*
X16103156Y-14495909D02*
X16112680Y-14476861D01*
X16112680Y-14476861D02*
X16131727Y-14467337D01*
X16131727Y-14467337D02*
X16160299Y-14467337D01*
X16160299Y-14467337D02*
X16179347Y-14476861D01*
X16255537Y-14676861D02*
X16265061Y-14667337D01*
X16265061Y-14667337D02*
X16284108Y-14638766D01*
X16284108Y-14638766D02*
X16293632Y-14619718D01*
X16293632Y-14619718D02*
X16303156Y-14591147D01*
X16303156Y-14591147D02*
X16312680Y-14543528D01*
X16312680Y-14543528D02*
X16312680Y-14505432D01*
X16312680Y-14505432D02*
X16303156Y-14457813D01*
X16303156Y-14457813D02*
X16293632Y-14429242D01*
X16293632Y-14429242D02*
X16284108Y-14410194D01*
X16284108Y-14410194D02*
X16265061Y-14381623D01*
X16265061Y-14381623D02*
X16255537Y-14372099D01*
D11*
X11249998Y-14733187D02*
X11249998Y-14813187D01*
X11209998Y-14773187D02*
X11289998Y-14773187D01*
D10*
X11588870Y-14664670D02*
X11607918Y-14664670D01*
X11607918Y-14664670D02*
X11626965Y-14674194D01*
X11626965Y-14674194D02*
X11636489Y-14683718D01*
X11636489Y-14683718D02*
X11646013Y-14702766D01*
X11646013Y-14702766D02*
X11655537Y-14740861D01*
X11655537Y-14740861D02*
X11655537Y-14788480D01*
X11655537Y-14788480D02*
X11646013Y-14826575D01*
X11646013Y-14826575D02*
X11636489Y-14845623D01*
X11636489Y-14845623D02*
X11626965Y-14855147D01*
X11626965Y-14855147D02*
X11607918Y-14864670D01*
X11607918Y-14864670D02*
X11588870Y-14864670D01*
X11588870Y-14864670D02*
X11569822Y-14855147D01*
X11569822Y-14855147D02*
X11560298Y-14845623D01*
X11560298Y-14845623D02*
X11550775Y-14826575D01*
X11550775Y-14826575D02*
X11541251Y-14788480D01*
X11541251Y-14788480D02*
X11541251Y-14740861D01*
X11541251Y-14740861D02*
X11550775Y-14702766D01*
X11550775Y-14702766D02*
X11560298Y-14683718D01*
X11560298Y-14683718D02*
X11569822Y-14674194D01*
X11569822Y-14674194D02*
X11588870Y-14664670D01*
X11741251Y-14845623D02*
X11750775Y-14855147D01*
X11750775Y-14855147D02*
X11741251Y-14864670D01*
X11741251Y-14864670D02*
X11731727Y-14855147D01*
X11731727Y-14855147D02*
X11741251Y-14845623D01*
X11741251Y-14845623D02*
X11741251Y-14864670D01*
X11865060Y-14750385D02*
X11846013Y-14740861D01*
X11846013Y-14740861D02*
X11836489Y-14731337D01*
X11836489Y-14731337D02*
X11826965Y-14712289D01*
X11826965Y-14712289D02*
X11826965Y-14702766D01*
X11826965Y-14702766D02*
X11836489Y-14683718D01*
X11836489Y-14683718D02*
X11846013Y-14674194D01*
X11846013Y-14674194D02*
X11865060Y-14664670D01*
X11865060Y-14664670D02*
X11903156Y-14664670D01*
X11903156Y-14664670D02*
X11922203Y-14674194D01*
X11922203Y-14674194D02*
X11931727Y-14683718D01*
X11931727Y-14683718D02*
X11941251Y-14702766D01*
X11941251Y-14702766D02*
X11941251Y-14712289D01*
X11941251Y-14712289D02*
X11931727Y-14731337D01*
X11931727Y-14731337D02*
X11922203Y-14740861D01*
X11922203Y-14740861D02*
X11903156Y-14750385D01*
X11903156Y-14750385D02*
X11865060Y-14750385D01*
X11865060Y-14750385D02*
X11846013Y-14759909D01*
X11846013Y-14759909D02*
X11836489Y-14769432D01*
X11836489Y-14769432D02*
X11826965Y-14788480D01*
X11826965Y-14788480D02*
X11826965Y-14826575D01*
X11826965Y-14826575D02*
X11836489Y-14845623D01*
X11836489Y-14845623D02*
X11846013Y-14855147D01*
X11846013Y-14855147D02*
X11865060Y-14864670D01*
X11865060Y-14864670D02*
X11903156Y-14864670D01*
X11903156Y-14864670D02*
X11922203Y-14855147D01*
X11922203Y-14855147D02*
X11931727Y-14845623D01*
X11931727Y-14845623D02*
X11941251Y-14826575D01*
X11941251Y-14826575D02*
X11941251Y-14788480D01*
X11941251Y-14788480D02*
X11931727Y-14769432D01*
X11931727Y-14769432D02*
X11922203Y-14759909D01*
X11922203Y-14759909D02*
X11903156Y-14750385D01*
X12065060Y-14664670D02*
X12084108Y-14664670D01*
X12084108Y-14664670D02*
X12103156Y-14674194D01*
X12103156Y-14674194D02*
X12112679Y-14683718D01*
X12112679Y-14683718D02*
X12122203Y-14702766D01*
X12122203Y-14702766D02*
X12131727Y-14740861D01*
X12131727Y-14740861D02*
X12131727Y-14788480D01*
X12131727Y-14788480D02*
X12122203Y-14826575D01*
X12122203Y-14826575D02*
X12112679Y-14845623D01*
X12112679Y-14845623D02*
X12103156Y-14855147D01*
X12103156Y-14855147D02*
X12084108Y-14864670D01*
X12084108Y-14864670D02*
X12065060Y-14864670D01*
X12065060Y-14864670D02*
X12046013Y-14855147D01*
X12046013Y-14855147D02*
X12036489Y-14845623D01*
X12036489Y-14845623D02*
X12026965Y-14826575D01*
X12026965Y-14826575D02*
X12017441Y-14788480D01*
X12017441Y-14788480D02*
X12017441Y-14740861D01*
X12017441Y-14740861D02*
X12026965Y-14702766D01*
X12026965Y-14702766D02*
X12036489Y-14683718D01*
X12036489Y-14683718D02*
X12046013Y-14674194D01*
X12046013Y-14674194D02*
X12065060Y-14664670D01*
X12255537Y-14664670D02*
X12274584Y-14664670D01*
X12274584Y-14664670D02*
X12293632Y-14674194D01*
X12293632Y-14674194D02*
X12303156Y-14683718D01*
X12303156Y-14683718D02*
X12312679Y-14702766D01*
X12312679Y-14702766D02*
X12322203Y-14740861D01*
X12322203Y-14740861D02*
X12322203Y-14788480D01*
X12322203Y-14788480D02*
X12312679Y-14826575D01*
X12312679Y-14826575D02*
X12303156Y-14845623D01*
X12303156Y-14845623D02*
X12293632Y-14855147D01*
X12293632Y-14855147D02*
X12274584Y-14864670D01*
X12274584Y-14864670D02*
X12255537Y-14864670D01*
X12255537Y-14864670D02*
X12236489Y-14855147D01*
X12236489Y-14855147D02*
X12226965Y-14845623D01*
X12226965Y-14845623D02*
X12217441Y-14826575D01*
X12217441Y-14826575D02*
X12207918Y-14788480D01*
X12207918Y-14788480D02*
X12207918Y-14740861D01*
X12207918Y-14740861D02*
X12217441Y-14702766D01*
X12217441Y-14702766D02*
X12226965Y-14683718D01*
X12226965Y-14683718D02*
X12236489Y-14674194D01*
X12236489Y-14674194D02*
X12255537Y-14664670D01*
X12407918Y-14864670D02*
X12407918Y-14731337D01*
X12407918Y-14750385D02*
X12417441Y-14740861D01*
X12417441Y-14740861D02*
X12436489Y-14731337D01*
X12436489Y-14731337D02*
X12465060Y-14731337D01*
X12465060Y-14731337D02*
X12484108Y-14740861D01*
X12484108Y-14740861D02*
X12493632Y-14759909D01*
X12493632Y-14759909D02*
X12493632Y-14864670D01*
X12493632Y-14759909D02*
X12503156Y-14740861D01*
X12503156Y-14740861D02*
X12522203Y-14731337D01*
X12522203Y-14731337D02*
X12550775Y-14731337D01*
X12550775Y-14731337D02*
X12569822Y-14740861D01*
X12569822Y-14740861D02*
X12579346Y-14759909D01*
X12579346Y-14759909D02*
X12579346Y-14864670D01*
X12674584Y-14864670D02*
X12674584Y-14731337D01*
X12674584Y-14750385D02*
X12684108Y-14740861D01*
X12684108Y-14740861D02*
X12703156Y-14731337D01*
X12703156Y-14731337D02*
X12731727Y-14731337D01*
X12731727Y-14731337D02*
X12750775Y-14740861D01*
X12750775Y-14740861D02*
X12760299Y-14759909D01*
X12760299Y-14759909D02*
X12760299Y-14864670D01*
X12760299Y-14759909D02*
X12769822Y-14740861D01*
X12769822Y-14740861D02*
X12788870Y-14731337D01*
X12788870Y-14731337D02*
X12817441Y-14731337D01*
X12817441Y-14731337D02*
X12836489Y-14740861D01*
X12836489Y-14740861D02*
X12846013Y-14759909D01*
X12846013Y-14759909D02*
X12846013Y-14864670D01*
X13236489Y-14655147D02*
X13065061Y-14912289D01*
X13493632Y-14664670D02*
X13512680Y-14664670D01*
X13512680Y-14664670D02*
X13531727Y-14674194D01*
X13531727Y-14674194D02*
X13541251Y-14683718D01*
X13541251Y-14683718D02*
X13550775Y-14702766D01*
X13550775Y-14702766D02*
X13560299Y-14740861D01*
X13560299Y-14740861D02*
X13560299Y-14788480D01*
X13560299Y-14788480D02*
X13550775Y-14826575D01*
X13550775Y-14826575D02*
X13541251Y-14845623D01*
X13541251Y-14845623D02*
X13531727Y-14855147D01*
X13531727Y-14855147D02*
X13512680Y-14864670D01*
X13512680Y-14864670D02*
X13493632Y-14864670D01*
X13493632Y-14864670D02*
X13474584Y-14855147D01*
X13474584Y-14855147D02*
X13465061Y-14845623D01*
X13465061Y-14845623D02*
X13455537Y-14826575D01*
X13455537Y-14826575D02*
X13446013Y-14788480D01*
X13446013Y-14788480D02*
X13446013Y-14740861D01*
X13446013Y-14740861D02*
X13455537Y-14702766D01*
X13455537Y-14702766D02*
X13465061Y-14683718D01*
X13465061Y-14683718D02*
X13474584Y-14674194D01*
X13474584Y-14674194D02*
X13493632Y-14664670D01*
X13646013Y-14845623D02*
X13655537Y-14855147D01*
X13655537Y-14855147D02*
X13646013Y-14864670D01*
X13646013Y-14864670D02*
X13636489Y-14855147D01*
X13636489Y-14855147D02*
X13646013Y-14845623D01*
X13646013Y-14845623D02*
X13646013Y-14864670D01*
X13779346Y-14664670D02*
X13798394Y-14664670D01*
X13798394Y-14664670D02*
X13817442Y-14674194D01*
X13817442Y-14674194D02*
X13826965Y-14683718D01*
X13826965Y-14683718D02*
X13836489Y-14702766D01*
X13836489Y-14702766D02*
X13846013Y-14740861D01*
X13846013Y-14740861D02*
X13846013Y-14788480D01*
X13846013Y-14788480D02*
X13836489Y-14826575D01*
X13836489Y-14826575D02*
X13826965Y-14845623D01*
X13826965Y-14845623D02*
X13817442Y-14855147D01*
X13817442Y-14855147D02*
X13798394Y-14864670D01*
X13798394Y-14864670D02*
X13779346Y-14864670D01*
X13779346Y-14864670D02*
X13760299Y-14855147D01*
X13760299Y-14855147D02*
X13750775Y-14845623D01*
X13750775Y-14845623D02*
X13741251Y-14826575D01*
X13741251Y-14826575D02*
X13731727Y-14788480D01*
X13731727Y-14788480D02*
X13731727Y-14740861D01*
X13731727Y-14740861D02*
X13741251Y-14702766D01*
X13741251Y-14702766D02*
X13750775Y-14683718D01*
X13750775Y-14683718D02*
X13760299Y-14674194D01*
X13760299Y-14674194D02*
X13779346Y-14664670D01*
X13912680Y-14664670D02*
X14036489Y-14664670D01*
X14036489Y-14664670D02*
X13969822Y-14740861D01*
X13969822Y-14740861D02*
X13998394Y-14740861D01*
X13998394Y-14740861D02*
X14017442Y-14750385D01*
X14017442Y-14750385D02*
X14026965Y-14759909D01*
X14026965Y-14759909D02*
X14036489Y-14778956D01*
X14036489Y-14778956D02*
X14036489Y-14826575D01*
X14036489Y-14826575D02*
X14026965Y-14845623D01*
X14026965Y-14845623D02*
X14017442Y-14855147D01*
X14017442Y-14855147D02*
X13998394Y-14864670D01*
X13998394Y-14864670D02*
X13941251Y-14864670D01*
X13941251Y-14864670D02*
X13922203Y-14855147D01*
X13922203Y-14855147D02*
X13912680Y-14845623D01*
X14226965Y-14864670D02*
X14112680Y-14864670D01*
X14169822Y-14864670D02*
X14169822Y-14664670D01*
X14169822Y-14664670D02*
X14150775Y-14693242D01*
X14150775Y-14693242D02*
X14131727Y-14712289D01*
X14131727Y-14712289D02*
X14112680Y-14721813D01*
X14407918Y-14664670D02*
X14312680Y-14664670D01*
X14312680Y-14664670D02*
X14303156Y-14759909D01*
X14303156Y-14759909D02*
X14312680Y-14750385D01*
X14312680Y-14750385D02*
X14331727Y-14740861D01*
X14331727Y-14740861D02*
X14379346Y-14740861D01*
X14379346Y-14740861D02*
X14398394Y-14750385D01*
X14398394Y-14750385D02*
X14407918Y-14759909D01*
X14407918Y-14759909D02*
X14417442Y-14778956D01*
X14417442Y-14778956D02*
X14417442Y-14826575D01*
X14417442Y-14826575D02*
X14407918Y-14845623D01*
X14407918Y-14845623D02*
X14398394Y-14855147D01*
X14398394Y-14855147D02*
X14379346Y-14864670D01*
X14379346Y-14864670D02*
X14331727Y-14864670D01*
X14331727Y-14864670D02*
X14312680Y-14855147D01*
X14312680Y-14855147D02*
X14303156Y-14845623D01*
X14493632Y-14664670D02*
X14493632Y-14702766D01*
X14569823Y-14664670D02*
X14569823Y-14702766D01*
X14865061Y-14940861D02*
X14855537Y-14931337D01*
X14855537Y-14931337D02*
X14836489Y-14902766D01*
X14836489Y-14902766D02*
X14826965Y-14883718D01*
X14826965Y-14883718D02*
X14817442Y-14855147D01*
X14817442Y-14855147D02*
X14807918Y-14807528D01*
X14807918Y-14807528D02*
X14807918Y-14769432D01*
X14807918Y-14769432D02*
X14817442Y-14721813D01*
X14817442Y-14721813D02*
X14826965Y-14693242D01*
X14826965Y-14693242D02*
X14836489Y-14674194D01*
X14836489Y-14674194D02*
X14855537Y-14645623D01*
X14855537Y-14645623D02*
X14865061Y-14636099D01*
X14979346Y-14664670D02*
X14998394Y-14664670D01*
X14998394Y-14664670D02*
X15017442Y-14674194D01*
X15017442Y-14674194D02*
X15026965Y-14683718D01*
X15026965Y-14683718D02*
X15036489Y-14702766D01*
X15036489Y-14702766D02*
X15046013Y-14740861D01*
X15046013Y-14740861D02*
X15046013Y-14788480D01*
X15046013Y-14788480D02*
X15036489Y-14826575D01*
X15036489Y-14826575D02*
X15026965Y-14845623D01*
X15026965Y-14845623D02*
X15017442Y-14855147D01*
X15017442Y-14855147D02*
X14998394Y-14864670D01*
X14998394Y-14864670D02*
X14979346Y-14864670D01*
X14979346Y-14864670D02*
X14960299Y-14855147D01*
X14960299Y-14855147D02*
X14950775Y-14845623D01*
X14950775Y-14845623D02*
X14941251Y-14826575D01*
X14941251Y-14826575D02*
X14931727Y-14788480D01*
X14931727Y-14788480D02*
X14931727Y-14740861D01*
X14931727Y-14740861D02*
X14941251Y-14702766D01*
X14941251Y-14702766D02*
X14950775Y-14683718D01*
X14950775Y-14683718D02*
X14960299Y-14674194D01*
X14960299Y-14674194D02*
X14979346Y-14664670D01*
X15284108Y-14864670D02*
X15284108Y-14664670D01*
X15369823Y-14864670D02*
X15369823Y-14759909D01*
X15369823Y-14759909D02*
X15360299Y-14740861D01*
X15360299Y-14740861D02*
X15341251Y-14731337D01*
X15341251Y-14731337D02*
X15312680Y-14731337D01*
X15312680Y-14731337D02*
X15293632Y-14740861D01*
X15293632Y-14740861D02*
X15284108Y-14750385D01*
X15493632Y-14864670D02*
X15474585Y-14855147D01*
X15474585Y-14855147D02*
X15465061Y-14845623D01*
X15465061Y-14845623D02*
X15455537Y-14826575D01*
X15455537Y-14826575D02*
X15455537Y-14769432D01*
X15455537Y-14769432D02*
X15465061Y-14750385D01*
X15465061Y-14750385D02*
X15474585Y-14740861D01*
X15474585Y-14740861D02*
X15493632Y-14731337D01*
X15493632Y-14731337D02*
X15522204Y-14731337D01*
X15522204Y-14731337D02*
X15541251Y-14740861D01*
X15541251Y-14740861D02*
X15550775Y-14750385D01*
X15550775Y-14750385D02*
X15560299Y-14769432D01*
X15560299Y-14769432D02*
X15560299Y-14826575D01*
X15560299Y-14826575D02*
X15550775Y-14845623D01*
X15550775Y-14845623D02*
X15541251Y-14855147D01*
X15541251Y-14855147D02*
X15522204Y-14864670D01*
X15522204Y-14864670D02*
X15493632Y-14864670D01*
X15674585Y-14864670D02*
X15655537Y-14855147D01*
X15655537Y-14855147D02*
X15646013Y-14836099D01*
X15646013Y-14836099D02*
X15646013Y-14664670D01*
X15826966Y-14855147D02*
X15807918Y-14864670D01*
X15807918Y-14864670D02*
X15769823Y-14864670D01*
X15769823Y-14864670D02*
X15750775Y-14855147D01*
X15750775Y-14855147D02*
X15741251Y-14836099D01*
X15741251Y-14836099D02*
X15741251Y-14759909D01*
X15741251Y-14759909D02*
X15750775Y-14740861D01*
X15750775Y-14740861D02*
X15769823Y-14731337D01*
X15769823Y-14731337D02*
X15807918Y-14731337D01*
X15807918Y-14731337D02*
X15826966Y-14740861D01*
X15826966Y-14740861D02*
X15836489Y-14759909D01*
X15836489Y-14759909D02*
X15836489Y-14778956D01*
X15836489Y-14778956D02*
X15741251Y-14798004D01*
X15912680Y-14855147D02*
X15931727Y-14864670D01*
X15931727Y-14864670D02*
X15969823Y-14864670D01*
X15969823Y-14864670D02*
X15988870Y-14855147D01*
X15988870Y-14855147D02*
X15998394Y-14836099D01*
X15998394Y-14836099D02*
X15998394Y-14826575D01*
X15998394Y-14826575D02*
X15988870Y-14807528D01*
X15988870Y-14807528D02*
X15969823Y-14798004D01*
X15969823Y-14798004D02*
X15941251Y-14798004D01*
X15941251Y-14798004D02*
X15922204Y-14788480D01*
X15922204Y-14788480D02*
X15912680Y-14769432D01*
X15912680Y-14769432D02*
X15912680Y-14759909D01*
X15912680Y-14759909D02*
X15922204Y-14740861D01*
X15922204Y-14740861D02*
X15941251Y-14731337D01*
X15941251Y-14731337D02*
X15969823Y-14731337D01*
X15969823Y-14731337D02*
X15988870Y-14740861D01*
X16236489Y-14788480D02*
X16388870Y-14788480D01*
X16312680Y-14864670D02*
X16312680Y-14712289D01*
X16626966Y-14683718D02*
X16636489Y-14674194D01*
X16636489Y-14674194D02*
X16655537Y-14664670D01*
X16655537Y-14664670D02*
X16703156Y-14664670D01*
X16703156Y-14664670D02*
X16722204Y-14674194D01*
X16722204Y-14674194D02*
X16731728Y-14683718D01*
X16731728Y-14683718D02*
X16741251Y-14702766D01*
X16741251Y-14702766D02*
X16741251Y-14721813D01*
X16741251Y-14721813D02*
X16731728Y-14750385D01*
X16731728Y-14750385D02*
X16617442Y-14864670D01*
X16617442Y-14864670D02*
X16741251Y-14864670D01*
X16969823Y-14855147D02*
X16988871Y-14864670D01*
X16988871Y-14864670D02*
X17026966Y-14864670D01*
X17026966Y-14864670D02*
X17046013Y-14855147D01*
X17046013Y-14855147D02*
X17055537Y-14836099D01*
X17055537Y-14836099D02*
X17055537Y-14826575D01*
X17055537Y-14826575D02*
X17046013Y-14807528D01*
X17046013Y-14807528D02*
X17026966Y-14798004D01*
X17026966Y-14798004D02*
X16998394Y-14798004D01*
X16998394Y-14798004D02*
X16979347Y-14788480D01*
X16979347Y-14788480D02*
X16969823Y-14769432D01*
X16969823Y-14769432D02*
X16969823Y-14759909D01*
X16969823Y-14759909D02*
X16979347Y-14740861D01*
X16979347Y-14740861D02*
X16998394Y-14731337D01*
X16998394Y-14731337D02*
X17026966Y-14731337D01*
X17026966Y-14731337D02*
X17046013Y-14740861D01*
X17169823Y-14864670D02*
X17150775Y-14855147D01*
X17150775Y-14855147D02*
X17141252Y-14836099D01*
X17141252Y-14836099D02*
X17141252Y-14664670D01*
X17274585Y-14864670D02*
X17255537Y-14855147D01*
X17255537Y-14855147D02*
X17246013Y-14845623D01*
X17246013Y-14845623D02*
X17236490Y-14826575D01*
X17236490Y-14826575D02*
X17236490Y-14769432D01*
X17236490Y-14769432D02*
X17246013Y-14750385D01*
X17246013Y-14750385D02*
X17255537Y-14740861D01*
X17255537Y-14740861D02*
X17274585Y-14731337D01*
X17274585Y-14731337D02*
X17303156Y-14731337D01*
X17303156Y-14731337D02*
X17322204Y-14740861D01*
X17322204Y-14740861D02*
X17331728Y-14750385D01*
X17331728Y-14750385D02*
X17341252Y-14769432D01*
X17341252Y-14769432D02*
X17341252Y-14826575D01*
X17341252Y-14826575D02*
X17331728Y-14845623D01*
X17331728Y-14845623D02*
X17322204Y-14855147D01*
X17322204Y-14855147D02*
X17303156Y-14864670D01*
X17303156Y-14864670D02*
X17274585Y-14864670D01*
X17398394Y-14731337D02*
X17474585Y-14731337D01*
X17426966Y-14664670D02*
X17426966Y-14836099D01*
X17426966Y-14836099D02*
X17436490Y-14855147D01*
X17436490Y-14855147D02*
X17455537Y-14864670D01*
X17455537Y-14864670D02*
X17474585Y-14864670D01*
X17531728Y-14855147D02*
X17550775Y-14864670D01*
X17550775Y-14864670D02*
X17588871Y-14864670D01*
X17588871Y-14864670D02*
X17607918Y-14855147D01*
X17607918Y-14855147D02*
X17617442Y-14836099D01*
X17617442Y-14836099D02*
X17617442Y-14826575D01*
X17617442Y-14826575D02*
X17607918Y-14807528D01*
X17607918Y-14807528D02*
X17588871Y-14798004D01*
X17588871Y-14798004D02*
X17560299Y-14798004D01*
X17560299Y-14798004D02*
X17541252Y-14788480D01*
X17541252Y-14788480D02*
X17531728Y-14769432D01*
X17531728Y-14769432D02*
X17531728Y-14759909D01*
X17531728Y-14759909D02*
X17541252Y-14740861D01*
X17541252Y-14740861D02*
X17560299Y-14731337D01*
X17560299Y-14731337D02*
X17588871Y-14731337D01*
X17588871Y-14731337D02*
X17607918Y-14740861D01*
X17684109Y-14940861D02*
X17693633Y-14931337D01*
X17693633Y-14931337D02*
X17712680Y-14902766D01*
X17712680Y-14902766D02*
X17722204Y-14883718D01*
X17722204Y-14883718D02*
X17731728Y-14855147D01*
X17731728Y-14855147D02*
X17741252Y-14807528D01*
X17741252Y-14807528D02*
X17741252Y-14769432D01*
X17741252Y-14769432D02*
X17731728Y-14721813D01*
X17731728Y-14721813D02*
X17722204Y-14693242D01*
X17722204Y-14693242D02*
X17712680Y-14674194D01*
X17712680Y-14674194D02*
X17693633Y-14645623D01*
X17693633Y-14645623D02*
X17684109Y-14636099D01*
X11260709Y-15107898D02*
X11260709Y-14966475D01*
X11119287Y-14966475D01*
X11119287Y-15107898D01*
X11260709Y-15107898D01*
X11636489Y-14928670D02*
X11598394Y-14928670D01*
X11598394Y-14928670D02*
X11579346Y-14938194D01*
X11579346Y-14938194D02*
X11569822Y-14947718D01*
X11569822Y-14947718D02*
X11550775Y-14976289D01*
X11550775Y-14976289D02*
X11541251Y-15014385D01*
X11541251Y-15014385D02*
X11541251Y-15090575D01*
X11541251Y-15090575D02*
X11550775Y-15109623D01*
X11550775Y-15109623D02*
X11560298Y-15119147D01*
X11560298Y-15119147D02*
X11579346Y-15128670D01*
X11579346Y-15128670D02*
X11617441Y-15128670D01*
X11617441Y-15128670D02*
X11636489Y-15119147D01*
X11636489Y-15119147D02*
X11646013Y-15109623D01*
X11646013Y-15109623D02*
X11655537Y-15090575D01*
X11655537Y-15090575D02*
X11655537Y-15042956D01*
X11655537Y-15042956D02*
X11646013Y-15023909D01*
X11646013Y-15023909D02*
X11636489Y-15014385D01*
X11636489Y-15014385D02*
X11617441Y-15004861D01*
X11617441Y-15004861D02*
X11579346Y-15004861D01*
X11579346Y-15004861D02*
X11560298Y-15014385D01*
X11560298Y-15014385D02*
X11550775Y-15023909D01*
X11550775Y-15023909D02*
X11541251Y-15042956D01*
X11741251Y-15109623D02*
X11750775Y-15119147D01*
X11750775Y-15119147D02*
X11741251Y-15128670D01*
X11741251Y-15128670D02*
X11731727Y-15119147D01*
X11731727Y-15119147D02*
X11741251Y-15109623D01*
X11741251Y-15109623D02*
X11741251Y-15128670D01*
X11874584Y-14928670D02*
X11893632Y-14928670D01*
X11893632Y-14928670D02*
X11912679Y-14938194D01*
X11912679Y-14938194D02*
X11922203Y-14947718D01*
X11922203Y-14947718D02*
X11931727Y-14966766D01*
X11931727Y-14966766D02*
X11941251Y-15004861D01*
X11941251Y-15004861D02*
X11941251Y-15052480D01*
X11941251Y-15052480D02*
X11931727Y-15090575D01*
X11931727Y-15090575D02*
X11922203Y-15109623D01*
X11922203Y-15109623D02*
X11912679Y-15119147D01*
X11912679Y-15119147D02*
X11893632Y-15128670D01*
X11893632Y-15128670D02*
X11874584Y-15128670D01*
X11874584Y-15128670D02*
X11855537Y-15119147D01*
X11855537Y-15119147D02*
X11846013Y-15109623D01*
X11846013Y-15109623D02*
X11836489Y-15090575D01*
X11836489Y-15090575D02*
X11826965Y-15052480D01*
X11826965Y-15052480D02*
X11826965Y-15004861D01*
X11826965Y-15004861D02*
X11836489Y-14966766D01*
X11836489Y-14966766D02*
X11846013Y-14947718D01*
X11846013Y-14947718D02*
X11855537Y-14938194D01*
X11855537Y-14938194D02*
X11874584Y-14928670D01*
X12122203Y-14928670D02*
X12026965Y-14928670D01*
X12026965Y-14928670D02*
X12017441Y-15023909D01*
X12017441Y-15023909D02*
X12026965Y-15014385D01*
X12026965Y-15014385D02*
X12046013Y-15004861D01*
X12046013Y-15004861D02*
X12093632Y-15004861D01*
X12093632Y-15004861D02*
X12112679Y-15014385D01*
X12112679Y-15014385D02*
X12122203Y-15023909D01*
X12122203Y-15023909D02*
X12131727Y-15042956D01*
X12131727Y-15042956D02*
X12131727Y-15090575D01*
X12131727Y-15090575D02*
X12122203Y-15109623D01*
X12122203Y-15109623D02*
X12112679Y-15119147D01*
X12112679Y-15119147D02*
X12093632Y-15128670D01*
X12093632Y-15128670D02*
X12046013Y-15128670D01*
X12046013Y-15128670D02*
X12026965Y-15119147D01*
X12026965Y-15119147D02*
X12017441Y-15109623D01*
X12255537Y-14928670D02*
X12274584Y-14928670D01*
X12274584Y-14928670D02*
X12293632Y-14938194D01*
X12293632Y-14938194D02*
X12303156Y-14947718D01*
X12303156Y-14947718D02*
X12312679Y-14966766D01*
X12312679Y-14966766D02*
X12322203Y-15004861D01*
X12322203Y-15004861D02*
X12322203Y-15052480D01*
X12322203Y-15052480D02*
X12312679Y-15090575D01*
X12312679Y-15090575D02*
X12303156Y-15109623D01*
X12303156Y-15109623D02*
X12293632Y-15119147D01*
X12293632Y-15119147D02*
X12274584Y-15128670D01*
X12274584Y-15128670D02*
X12255537Y-15128670D01*
X12255537Y-15128670D02*
X12236489Y-15119147D01*
X12236489Y-15119147D02*
X12226965Y-15109623D01*
X12226965Y-15109623D02*
X12217441Y-15090575D01*
X12217441Y-15090575D02*
X12207918Y-15052480D01*
X12207918Y-15052480D02*
X12207918Y-15004861D01*
X12207918Y-15004861D02*
X12217441Y-14966766D01*
X12217441Y-14966766D02*
X12226965Y-14947718D01*
X12226965Y-14947718D02*
X12236489Y-14938194D01*
X12236489Y-14938194D02*
X12255537Y-14928670D01*
X12407918Y-15128670D02*
X12407918Y-14995337D01*
X12407918Y-15014385D02*
X12417441Y-15004861D01*
X12417441Y-15004861D02*
X12436489Y-14995337D01*
X12436489Y-14995337D02*
X12465060Y-14995337D01*
X12465060Y-14995337D02*
X12484108Y-15004861D01*
X12484108Y-15004861D02*
X12493632Y-15023909D01*
X12493632Y-15023909D02*
X12493632Y-15128670D01*
X12493632Y-15023909D02*
X12503156Y-15004861D01*
X12503156Y-15004861D02*
X12522203Y-14995337D01*
X12522203Y-14995337D02*
X12550775Y-14995337D01*
X12550775Y-14995337D02*
X12569822Y-15004861D01*
X12569822Y-15004861D02*
X12579346Y-15023909D01*
X12579346Y-15023909D02*
X12579346Y-15128670D01*
X12674584Y-15128670D02*
X12674584Y-14995337D01*
X12674584Y-15014385D02*
X12684108Y-15004861D01*
X12684108Y-15004861D02*
X12703156Y-14995337D01*
X12703156Y-14995337D02*
X12731727Y-14995337D01*
X12731727Y-14995337D02*
X12750775Y-15004861D01*
X12750775Y-15004861D02*
X12760299Y-15023909D01*
X12760299Y-15023909D02*
X12760299Y-15128670D01*
X12760299Y-15023909D02*
X12769822Y-15004861D01*
X12769822Y-15004861D02*
X12788870Y-14995337D01*
X12788870Y-14995337D02*
X12817441Y-14995337D01*
X12817441Y-14995337D02*
X12836489Y-15004861D01*
X12836489Y-15004861D02*
X12846013Y-15023909D01*
X12846013Y-15023909D02*
X12846013Y-15128670D01*
X13236489Y-14919147D02*
X13065061Y-15176289D01*
X13493632Y-14928670D02*
X13512680Y-14928670D01*
X13512680Y-14928670D02*
X13531727Y-14938194D01*
X13531727Y-14938194D02*
X13541251Y-14947718D01*
X13541251Y-14947718D02*
X13550775Y-14966766D01*
X13550775Y-14966766D02*
X13560299Y-15004861D01*
X13560299Y-15004861D02*
X13560299Y-15052480D01*
X13560299Y-15052480D02*
X13550775Y-15090575D01*
X13550775Y-15090575D02*
X13541251Y-15109623D01*
X13541251Y-15109623D02*
X13531727Y-15119147D01*
X13531727Y-15119147D02*
X13512680Y-15128670D01*
X13512680Y-15128670D02*
X13493632Y-15128670D01*
X13493632Y-15128670D02*
X13474584Y-15119147D01*
X13474584Y-15119147D02*
X13465061Y-15109623D01*
X13465061Y-15109623D02*
X13455537Y-15090575D01*
X13455537Y-15090575D02*
X13446013Y-15052480D01*
X13446013Y-15052480D02*
X13446013Y-15004861D01*
X13446013Y-15004861D02*
X13455537Y-14966766D01*
X13455537Y-14966766D02*
X13465061Y-14947718D01*
X13465061Y-14947718D02*
X13474584Y-14938194D01*
X13474584Y-14938194D02*
X13493632Y-14928670D01*
X13646013Y-15109623D02*
X13655537Y-15119147D01*
X13655537Y-15119147D02*
X13646013Y-15128670D01*
X13646013Y-15128670D02*
X13636489Y-15119147D01*
X13636489Y-15119147D02*
X13646013Y-15109623D01*
X13646013Y-15109623D02*
X13646013Y-15128670D01*
X13731727Y-14947718D02*
X13741251Y-14938194D01*
X13741251Y-14938194D02*
X13760299Y-14928670D01*
X13760299Y-14928670D02*
X13807918Y-14928670D01*
X13807918Y-14928670D02*
X13826965Y-14938194D01*
X13826965Y-14938194D02*
X13836489Y-14947718D01*
X13836489Y-14947718D02*
X13846013Y-14966766D01*
X13846013Y-14966766D02*
X13846013Y-14985813D01*
X13846013Y-14985813D02*
X13836489Y-15014385D01*
X13836489Y-15014385D02*
X13722203Y-15128670D01*
X13722203Y-15128670D02*
X13846013Y-15128670D01*
X13912680Y-14928670D02*
X14036489Y-14928670D01*
X14036489Y-14928670D02*
X13969822Y-15004861D01*
X13969822Y-15004861D02*
X13998394Y-15004861D01*
X13998394Y-15004861D02*
X14017442Y-15014385D01*
X14017442Y-15014385D02*
X14026965Y-15023909D01*
X14026965Y-15023909D02*
X14036489Y-15042956D01*
X14036489Y-15042956D02*
X14036489Y-15090575D01*
X14036489Y-15090575D02*
X14026965Y-15109623D01*
X14026965Y-15109623D02*
X14017442Y-15119147D01*
X14017442Y-15119147D02*
X13998394Y-15128670D01*
X13998394Y-15128670D02*
X13941251Y-15128670D01*
X13941251Y-15128670D02*
X13922203Y-15119147D01*
X13922203Y-15119147D02*
X13912680Y-15109623D01*
X14150775Y-15014385D02*
X14131727Y-15004861D01*
X14131727Y-15004861D02*
X14122203Y-14995337D01*
X14122203Y-14995337D02*
X14112680Y-14976289D01*
X14112680Y-14976289D02*
X14112680Y-14966766D01*
X14112680Y-14966766D02*
X14122203Y-14947718D01*
X14122203Y-14947718D02*
X14131727Y-14938194D01*
X14131727Y-14938194D02*
X14150775Y-14928670D01*
X14150775Y-14928670D02*
X14188870Y-14928670D01*
X14188870Y-14928670D02*
X14207918Y-14938194D01*
X14207918Y-14938194D02*
X14217442Y-14947718D01*
X14217442Y-14947718D02*
X14226965Y-14966766D01*
X14226965Y-14966766D02*
X14226965Y-14976289D01*
X14226965Y-14976289D02*
X14217442Y-14995337D01*
X14217442Y-14995337D02*
X14207918Y-15004861D01*
X14207918Y-15004861D02*
X14188870Y-15014385D01*
X14188870Y-15014385D02*
X14150775Y-15014385D01*
X14150775Y-15014385D02*
X14131727Y-15023909D01*
X14131727Y-15023909D02*
X14122203Y-15033432D01*
X14122203Y-15033432D02*
X14112680Y-15052480D01*
X14112680Y-15052480D02*
X14112680Y-15090575D01*
X14112680Y-15090575D02*
X14122203Y-15109623D01*
X14122203Y-15109623D02*
X14131727Y-15119147D01*
X14131727Y-15119147D02*
X14150775Y-15128670D01*
X14150775Y-15128670D02*
X14188870Y-15128670D01*
X14188870Y-15128670D02*
X14207918Y-15119147D01*
X14207918Y-15119147D02*
X14217442Y-15109623D01*
X14217442Y-15109623D02*
X14226965Y-15090575D01*
X14226965Y-15090575D02*
X14226965Y-15052480D01*
X14226965Y-15052480D02*
X14217442Y-15033432D01*
X14217442Y-15033432D02*
X14207918Y-15023909D01*
X14207918Y-15023909D02*
X14188870Y-15014385D01*
X14303156Y-14947718D02*
X14312680Y-14938194D01*
X14312680Y-14938194D02*
X14331727Y-14928670D01*
X14331727Y-14928670D02*
X14379346Y-14928670D01*
X14379346Y-14928670D02*
X14398394Y-14938194D01*
X14398394Y-14938194D02*
X14407918Y-14947718D01*
X14407918Y-14947718D02*
X14417442Y-14966766D01*
X14417442Y-14966766D02*
X14417442Y-14985813D01*
X14417442Y-14985813D02*
X14407918Y-15014385D01*
X14407918Y-15014385D02*
X14293632Y-15128670D01*
X14293632Y-15128670D02*
X14417442Y-15128670D01*
X14493632Y-14928670D02*
X14493632Y-14966766D01*
X14569823Y-14928670D02*
X14569823Y-14966766D01*
X14865061Y-15204861D02*
X14855537Y-15195337D01*
X14855537Y-15195337D02*
X14836489Y-15166766D01*
X14836489Y-15166766D02*
X14826965Y-15147718D01*
X14826965Y-15147718D02*
X14817442Y-15119147D01*
X14817442Y-15119147D02*
X14807918Y-15071528D01*
X14807918Y-15071528D02*
X14807918Y-15033432D01*
X14807918Y-15033432D02*
X14817442Y-14985813D01*
X14817442Y-14985813D02*
X14826965Y-14957242D01*
X14826965Y-14957242D02*
X14836489Y-14938194D01*
X14836489Y-14938194D02*
X14855537Y-14909623D01*
X14855537Y-14909623D02*
X14865061Y-14900099D01*
X14931727Y-14947718D02*
X14941251Y-14938194D01*
X14941251Y-14938194D02*
X14960299Y-14928670D01*
X14960299Y-14928670D02*
X15007918Y-14928670D01*
X15007918Y-14928670D02*
X15026965Y-14938194D01*
X15026965Y-14938194D02*
X15036489Y-14947718D01*
X15036489Y-14947718D02*
X15046013Y-14966766D01*
X15046013Y-14966766D02*
X15046013Y-14985813D01*
X15046013Y-14985813D02*
X15036489Y-15014385D01*
X15036489Y-15014385D02*
X14922204Y-15128670D01*
X14922204Y-15128670D02*
X15046013Y-15128670D01*
X15284108Y-15128670D02*
X15284108Y-14928670D01*
X15369823Y-15128670D02*
X15369823Y-15023909D01*
X15369823Y-15023909D02*
X15360299Y-15004861D01*
X15360299Y-15004861D02*
X15341251Y-14995337D01*
X15341251Y-14995337D02*
X15312680Y-14995337D01*
X15312680Y-14995337D02*
X15293632Y-15004861D01*
X15293632Y-15004861D02*
X15284108Y-15014385D01*
X15493632Y-15128670D02*
X15474585Y-15119147D01*
X15474585Y-15119147D02*
X15465061Y-15109623D01*
X15465061Y-15109623D02*
X15455537Y-15090575D01*
X15455537Y-15090575D02*
X15455537Y-15033432D01*
X15455537Y-15033432D02*
X15465061Y-15014385D01*
X15465061Y-15014385D02*
X15474585Y-15004861D01*
X15474585Y-15004861D02*
X15493632Y-14995337D01*
X15493632Y-14995337D02*
X15522204Y-14995337D01*
X15522204Y-14995337D02*
X15541251Y-15004861D01*
X15541251Y-15004861D02*
X15550775Y-15014385D01*
X15550775Y-15014385D02*
X15560299Y-15033432D01*
X15560299Y-15033432D02*
X15560299Y-15090575D01*
X15560299Y-15090575D02*
X15550775Y-15109623D01*
X15550775Y-15109623D02*
X15541251Y-15119147D01*
X15541251Y-15119147D02*
X15522204Y-15128670D01*
X15522204Y-15128670D02*
X15493632Y-15128670D01*
X15674585Y-15128670D02*
X15655537Y-15119147D01*
X15655537Y-15119147D02*
X15646013Y-15100099D01*
X15646013Y-15100099D02*
X15646013Y-14928670D01*
X15826966Y-15119147D02*
X15807918Y-15128670D01*
X15807918Y-15128670D02*
X15769823Y-15128670D01*
X15769823Y-15128670D02*
X15750775Y-15119147D01*
X15750775Y-15119147D02*
X15741251Y-15100099D01*
X15741251Y-15100099D02*
X15741251Y-15023909D01*
X15741251Y-15023909D02*
X15750775Y-15004861D01*
X15750775Y-15004861D02*
X15769823Y-14995337D01*
X15769823Y-14995337D02*
X15807918Y-14995337D01*
X15807918Y-14995337D02*
X15826966Y-15004861D01*
X15826966Y-15004861D02*
X15836489Y-15023909D01*
X15836489Y-15023909D02*
X15836489Y-15042956D01*
X15836489Y-15042956D02*
X15741251Y-15062004D01*
X15912680Y-15119147D02*
X15931727Y-15128670D01*
X15931727Y-15128670D02*
X15969823Y-15128670D01*
X15969823Y-15128670D02*
X15988870Y-15119147D01*
X15988870Y-15119147D02*
X15998394Y-15100099D01*
X15998394Y-15100099D02*
X15998394Y-15090575D01*
X15998394Y-15090575D02*
X15988870Y-15071528D01*
X15988870Y-15071528D02*
X15969823Y-15062004D01*
X15969823Y-15062004D02*
X15941251Y-15062004D01*
X15941251Y-15062004D02*
X15922204Y-15052480D01*
X15922204Y-15052480D02*
X15912680Y-15033432D01*
X15912680Y-15033432D02*
X15912680Y-15023909D01*
X15912680Y-15023909D02*
X15922204Y-15004861D01*
X15922204Y-15004861D02*
X15941251Y-14995337D01*
X15941251Y-14995337D02*
X15969823Y-14995337D01*
X15969823Y-14995337D02*
X15988870Y-15004861D01*
X16065061Y-15204861D02*
X16074585Y-15195337D01*
X16074585Y-15195337D02*
X16093632Y-15166766D01*
X16093632Y-15166766D02*
X16103156Y-15147718D01*
X16103156Y-15147718D02*
X16112680Y-15119147D01*
X16112680Y-15119147D02*
X16122204Y-15071528D01*
X16122204Y-15071528D02*
X16122204Y-15033432D01*
X16122204Y-15033432D02*
X16112680Y-14985813D01*
X16112680Y-14985813D02*
X16103156Y-14957242D01*
X16103156Y-14957242D02*
X16093632Y-14938194D01*
X16093632Y-14938194D02*
X16074585Y-14909623D01*
X16074585Y-14909623D02*
X16065061Y-14900099D01*
M02*
