%TF.GenerationSoftware,KiCad,Pcbnew,8.0.4*%
%TF.CreationDate,2025-04-17T01:04:02+02:00*%
%TF.ProjectId,bms_stage_bq40z80,626d735f-7374-4616-9765-5f627134307a,rev?*%
%TF.SameCoordinates,Original*%
%TF.FileFunction,Drillmap*%
%TF.FilePolarity,Positive*%
%FSLAX45Y45*%
G04 Gerber Fmt 4.5, Leading zero omitted, Abs format (unit mm)*
G04 Created by KiCad (PCBNEW 8.0.4) date 2025-04-17 01:04:02*
%MOMM*%
%LPD*%
G01*
G04 APERTURE LIST*
%ADD10C,0.200000*%
G04 APERTURE END LIST*
D10*
X14074999Y-13595187D02*
G75*
G02*
X13273928Y-13132685I1J924997D01*
G01*
X12348925Y-7401244D02*
G75*
G02*
X12643950Y-7089445I801065J-462496D01*
G01*
X18576076Y-9003391D02*
G75*
G02*
X18576075Y-9928391I-801076J-462499D01*
G01*
X11423924Y-9928391D02*
X13273926Y-13132687D01*
X11423924Y-9928391D02*
G75*
G02*
X11423924Y-9003390I801076J462501D01*
G01*
X12643949Y-7089443D02*
G75*
G02*
X17356051Y-7089443I2356051J-3604955D01*
G01*
X17356051Y-7089443D02*
G75*
G02*
X17651074Y-7401243I-506041J-774287D01*
G01*
X16726075Y-13132686D02*
G75*
G02*
X15926290Y-13595183I-801075J462506D01*
G01*
X16726075Y-13132686D02*
X18576076Y-9928391D01*
X12348925Y-7401244D02*
X11423925Y-9003391D01*
X18576076Y-9003391D02*
X17651075Y-7401242D01*
X14074999Y-13595187D02*
X15926290Y-13595187D01*
X11550775Y-13916670D02*
X11550775Y-13716670D01*
X11550775Y-13716670D02*
X11598394Y-13716670D01*
X11598394Y-13716670D02*
X11626965Y-13726194D01*
X11626965Y-13726194D02*
X11646013Y-13745242D01*
X11646013Y-13745242D02*
X11655537Y-13764289D01*
X11655537Y-13764289D02*
X11665060Y-13802385D01*
X11665060Y-13802385D02*
X11665060Y-13830956D01*
X11665060Y-13830956D02*
X11655537Y-13869051D01*
X11655537Y-13869051D02*
X11646013Y-13888099D01*
X11646013Y-13888099D02*
X11626965Y-13907147D01*
X11626965Y-13907147D02*
X11598394Y-13916670D01*
X11598394Y-13916670D02*
X11550775Y-13916670D01*
X11750775Y-13916670D02*
X11750775Y-13783337D01*
X11750775Y-13821432D02*
X11760298Y-13802385D01*
X11760298Y-13802385D02*
X11769822Y-13792861D01*
X11769822Y-13792861D02*
X11788870Y-13783337D01*
X11788870Y-13783337D02*
X11807918Y-13783337D01*
X11874584Y-13916670D02*
X11874584Y-13783337D01*
X11874584Y-13716670D02*
X11865060Y-13726194D01*
X11865060Y-13726194D02*
X11874584Y-13735718D01*
X11874584Y-13735718D02*
X11884108Y-13726194D01*
X11884108Y-13726194D02*
X11874584Y-13716670D01*
X11874584Y-13716670D02*
X11874584Y-13735718D01*
X11998394Y-13916670D02*
X11979346Y-13907147D01*
X11979346Y-13907147D02*
X11969822Y-13888099D01*
X11969822Y-13888099D02*
X11969822Y-13716670D01*
X12103156Y-13916670D02*
X12084108Y-13907147D01*
X12084108Y-13907147D02*
X12074584Y-13888099D01*
X12074584Y-13888099D02*
X12074584Y-13716670D01*
X12331727Y-13916670D02*
X12331727Y-13716670D01*
X12331727Y-13716670D02*
X12398394Y-13859528D01*
X12398394Y-13859528D02*
X12465060Y-13716670D01*
X12465060Y-13716670D02*
X12465060Y-13916670D01*
X12646013Y-13916670D02*
X12646013Y-13811909D01*
X12646013Y-13811909D02*
X12636489Y-13792861D01*
X12636489Y-13792861D02*
X12617441Y-13783337D01*
X12617441Y-13783337D02*
X12579346Y-13783337D01*
X12579346Y-13783337D02*
X12560298Y-13792861D01*
X12646013Y-13907147D02*
X12626965Y-13916670D01*
X12626965Y-13916670D02*
X12579346Y-13916670D01*
X12579346Y-13916670D02*
X12560298Y-13907147D01*
X12560298Y-13907147D02*
X12550775Y-13888099D01*
X12550775Y-13888099D02*
X12550775Y-13869051D01*
X12550775Y-13869051D02*
X12560298Y-13850004D01*
X12560298Y-13850004D02*
X12579346Y-13840480D01*
X12579346Y-13840480D02*
X12626965Y-13840480D01*
X12626965Y-13840480D02*
X12646013Y-13830956D01*
X12741251Y-13783337D02*
X12741251Y-13983337D01*
X12741251Y-13792861D02*
X12760298Y-13783337D01*
X12760298Y-13783337D02*
X12798394Y-13783337D01*
X12798394Y-13783337D02*
X12817441Y-13792861D01*
X12817441Y-13792861D02*
X12826965Y-13802385D01*
X12826965Y-13802385D02*
X12836489Y-13821432D01*
X12836489Y-13821432D02*
X12836489Y-13878575D01*
X12836489Y-13878575D02*
X12826965Y-13897623D01*
X12826965Y-13897623D02*
X12817441Y-13907147D01*
X12817441Y-13907147D02*
X12798394Y-13916670D01*
X12798394Y-13916670D02*
X12760298Y-13916670D01*
X12760298Y-13916670D02*
X12741251Y-13907147D01*
X12922203Y-13897623D02*
X12931727Y-13907147D01*
X12931727Y-13907147D02*
X12922203Y-13916670D01*
X12922203Y-13916670D02*
X12912679Y-13907147D01*
X12912679Y-13907147D02*
X12922203Y-13897623D01*
X12922203Y-13897623D02*
X12922203Y-13916670D01*
X12922203Y-13792861D02*
X12931727Y-13802385D01*
X12931727Y-13802385D02*
X12922203Y-13811909D01*
X12922203Y-13811909D02*
X12912679Y-13802385D01*
X12912679Y-13802385D02*
X12922203Y-13792861D01*
X12922203Y-13792861D02*
X12922203Y-13811909D01*
M02*
