G04 #@! TF.GenerationSoftware,KiCad,Pcbnew,8.0.4*
G04 #@! TF.CreationDate,2025-04-17T01:03:58+02:00*
G04 #@! TF.ProjectId,bms_stage_bq40z80,626d735f-7374-4616-9765-5f627134307a,rev?*
G04 #@! TF.SameCoordinates,Original*
G04 #@! TF.FileFunction,Paste,Top*
G04 #@! TF.FilePolarity,Positive*
%FSLAX46Y46*%
G04 Gerber Fmt 4.6, Leading zero omitted, Abs format (unit mm)*
G04 Created by KiCad (PCBNEW 8.0.4) date 2025-04-17 01:03:58*
%MOMM*%
%LPD*%
G01*
G04 APERTURE LIST*
G04 Aperture macros list*
%AMRoundRect*
0 Rectangle with rounded corners*
0 $1 Rounding radius*
0 $2 $3 $4 $5 $6 $7 $8 $9 X,Y pos of 4 corners*
0 Add a 4 corners polygon primitive as box body*
4,1,4,$2,$3,$4,$5,$6,$7,$8,$9,$2,$3,0*
0 Add four circle primitives for the rounded corners*
1,1,$1+$1,$2,$3*
1,1,$1+$1,$4,$5*
1,1,$1+$1,$6,$7*
1,1,$1+$1,$8,$9*
0 Add four rect primitives between the rounded corners*
20,1,$1+$1,$2,$3,$4,$5,0*
20,1,$1+$1,$4,$5,$6,$7,0*
20,1,$1+$1,$6,$7,$8,$9,0*
20,1,$1+$1,$8,$9,$2,$3,0*%
%AMRotRect*
0 Rectangle, with rotation*
0 The origin of the aperture is its center*
0 $1 length*
0 $2 width*
0 $3 Rotation angle, in degrees counterclockwise*
0 Add horizontal line*
21,1,$1,$2,0,0,$3*%
%AMFreePoly0*
4,1,9,1.300000,0.375000,1.300000,-0.375000,0.000000,-1.550000,0.000000,-0.000500,-0.000500,-0.000500,-0.000500,0.000500,0.000000,0.000500,0.000000,1.550000,1.300000,0.375000,1.300000,0.375000,$1*%
G04 Aperture macros list end*
%ADD10RoundRect,0.200000X0.200000X0.275000X-0.200000X0.275000X-0.200000X-0.275000X0.200000X-0.275000X0*%
%ADD11RoundRect,0.200000X-0.200000X-0.275000X0.200000X-0.275000X0.200000X0.275000X-0.200000X0.275000X0*%
%ADD12RoundRect,0.200000X-0.275000X0.200000X-0.275000X-0.200000X0.275000X-0.200000X0.275000X0.200000X0*%
%ADD13RoundRect,0.050000X0.100000X0.200000X-0.100000X0.200000X-0.100000X-0.200000X0.100000X-0.200000X0*%
%ADD14RoundRect,0.200000X-0.338157X0.035705X-0.138157X-0.310705X0.338157X-0.035705X0.138157X0.310705X0*%
%ADD15RoundRect,0.150000X0.150000X-0.587500X0.150000X0.587500X-0.150000X0.587500X-0.150000X-0.587500X0*%
%ADD16RoundRect,0.200000X0.138157X-0.310705X0.338157X0.035705X-0.138157X0.310705X-0.338157X-0.035705X0*%
%ADD17RoundRect,0.200000X-0.310705X-0.138157X0.035705X-0.338157X0.310705X0.138157X-0.035705X0.338157X0*%
%ADD18RotRect,0.710000X1.372000X330.000000*%
%ADD19RotRect,0.595000X0.710000X240.000000*%
%ADD20RotRect,0.656000X0.710000X240.000000*%
%ADD21RotRect,3.850000X4.520000X240.000000*%
%ADD22RoundRect,0.250000X-0.452332X-0.258461X0.002332X-0.520961X0.452332X0.258461X-0.002332X0.520961X0*%
%ADD23RoundRect,0.200000X0.275000X-0.200000X0.275000X0.200000X-0.275000X0.200000X-0.275000X-0.200000X0*%
%ADD24RotRect,0.630000X0.830000X150.000000*%
%ADD25RotRect,0.710000X1.372000X150.000000*%
%ADD26RotRect,0.595000X0.710000X60.000000*%
%ADD27RotRect,0.656000X0.710000X60.000000*%
%ADD28RotRect,3.850000X4.520000X60.000000*%
%ADD29RoundRect,0.200000X0.035705X0.338157X-0.310705X0.138157X-0.035705X-0.338157X0.310705X-0.138157X0*%
%ADD30RoundRect,0.150000X0.163846X0.583790X-0.423654X-0.433790X-0.163846X-0.583790X0.423654X0.433790X0*%
%ADD31RoundRect,0.200000X0.338157X-0.035705X0.138157X0.310705X-0.338157X0.035705X-0.138157X-0.310705X0*%
%ADD32RoundRect,0.050000X-0.050000X-0.250000X0.050000X-0.250000X0.050000X0.250000X-0.050000X0.250000X0*%
%ADD33RoundRect,0.050000X0.250000X-0.050000X0.250000X0.050000X-0.250000X0.050000X-0.250000X-0.050000X0*%
%ADD34RoundRect,0.050000X0.050000X0.250000X-0.050000X0.250000X-0.050000X-0.250000X0.050000X-0.250000X0*%
%ADD35RoundRect,0.050000X-0.250000X0.050000X-0.250000X-0.050000X0.250000X-0.050000X0.250000X0.050000X0*%
%ADD36RoundRect,0.100000X0.600000X-0.600000X0.600000X0.600000X-0.600000X0.600000X-0.600000X-0.600000X0*%
%ADD37R,1.170000X0.950000*%
%ADD38RoundRect,0.062500X0.062500X-0.187500X0.062500X0.187500X-0.062500X0.187500X-0.062500X-0.187500X0*%
%ADD39RoundRect,0.250000X0.312500X1.075000X-0.312500X1.075000X-0.312500X-1.075000X0.312500X-1.075000X0*%
%ADD40RoundRect,0.200000X-0.138157X0.310705X-0.338157X-0.035705X0.138157X-0.310705X0.338157X0.035705X0*%
%ADD41RoundRect,0.250000X1.415336X0.398566X1.052836X1.026434X-1.415336X-0.398566X-1.052836X-1.026434X0*%
%ADD42R,0.830000X0.630000*%
%ADD43RoundRect,0.200000X0.310705X0.138157X-0.035705X0.338157X-0.310705X-0.138157X0.035705X-0.338157X0*%
%ADD44R,0.630000X0.830000*%
%ADD45R,2.200000X2.150000*%
%ADD46RotRect,7.600000X2.500000X150.000000*%
%ADD47FreePoly0,150.000000*%
G04 APERTURE END LIST*
D10*
X154799999Y-106800002D03*
X153199999Y-106800002D03*
D11*
X150000000Y-91499999D03*
X151600000Y-91499999D03*
D12*
X158000000Y-94499999D03*
X158000000Y-96099999D03*
D13*
X149699999Y-77400000D03*
X148999999Y-77400000D03*
D11*
X156400000Y-91499999D03*
X158000000Y-91499999D03*
D13*
X149700000Y-75900000D03*
X149000000Y-75900000D03*
D12*
X150000000Y-109800001D03*
X150000000Y-111400001D03*
D14*
X162357180Y-88717623D03*
X163157180Y-90103263D03*
D15*
X142187501Y-121956250D03*
X144087501Y-121956250D03*
X143137501Y-120081250D03*
D10*
X147899999Y-78699998D03*
X146299999Y-78699998D03*
D15*
X160587502Y-121956248D03*
X162487502Y-121956248D03*
X161537502Y-120081248D03*
X154324996Y-101450002D03*
X156224996Y-101450002D03*
X155274996Y-99575002D03*
D16*
X124319331Y-79764125D03*
X125119331Y-78378485D03*
D15*
X155987500Y-121956251D03*
X157887500Y-121956251D03*
X156937500Y-120081251D03*
X141500000Y-87700000D03*
X143400000Y-87700000D03*
X142450000Y-85825000D03*
D17*
X140457180Y-81027756D03*
X141842820Y-81827756D03*
D18*
X126045769Y-89963848D03*
X128245473Y-91233848D03*
X127145621Y-90598848D03*
X129345325Y-91868848D03*
D19*
X132309575Y-86734617D03*
D20*
X131194473Y-86126031D03*
X130094621Y-85491031D03*
X128994769Y-84856031D03*
D21*
X129548547Y-87706858D03*
D22*
X133832957Y-92291500D03*
X135413453Y-93204000D03*
D23*
X149099997Y-100300002D03*
X149099997Y-98700002D03*
D11*
X151599998Y-93000002D03*
X153199998Y-93000002D03*
D14*
X160228592Y-88101798D03*
X161028592Y-89487438D03*
D10*
X152800000Y-67100000D03*
X151200000Y-67100000D03*
D11*
X141800000Y-89440000D03*
X143400000Y-89440000D03*
D12*
X156399999Y-94499998D03*
X156399999Y-96099998D03*
D11*
X146300000Y-80199999D03*
X147900000Y-80199999D03*
D24*
X134638823Y-94950698D03*
X132707587Y-93835698D03*
D10*
X149999999Y-108300002D03*
X148399999Y-108300002D03*
D16*
X122423225Y-83048276D03*
X123223225Y-81662636D03*
D25*
X136215325Y-79969659D03*
X134015621Y-78699659D03*
X135115473Y-79334659D03*
X132915769Y-78064659D03*
D26*
X129951519Y-83198890D03*
D27*
X131066621Y-83807476D03*
X132166473Y-84442476D03*
X133266325Y-85077476D03*
D28*
X132712547Y-82226649D03*
D29*
X166340898Y-86417623D03*
X164955258Y-87217623D03*
D12*
X154800000Y-94499998D03*
X154800000Y-96099998D03*
D23*
X154799999Y-111400001D03*
X154799999Y-109800001D03*
D30*
X133458365Y-103075000D03*
X131812917Y-102125000D03*
X131698141Y-104223798D03*
D11*
X151499999Y-77400000D03*
X153099999Y-77400000D03*
D29*
X165540897Y-85031983D03*
X164155257Y-85831983D03*
D11*
X146300000Y-84699999D03*
X147900000Y-84699999D03*
D17*
X132130384Y-95465442D03*
X133516024Y-96265442D03*
D30*
X138162852Y-90316901D03*
X136517404Y-89366901D03*
X136402628Y-91465699D03*
D12*
X151600000Y-109800003D03*
X151600000Y-111400003D03*
X145200000Y-109800001D03*
X145200000Y-111400001D03*
D31*
X161557181Y-87331981D03*
X160757181Y-85946341D03*
D32*
X153399999Y-87200000D03*
X153799999Y-87200000D03*
X154199999Y-87200000D03*
X154599999Y-87200000D03*
X154999999Y-87200000D03*
X155399999Y-87200000D03*
X155799999Y-87200000D03*
X156199999Y-87200000D03*
D33*
X156699999Y-86700000D03*
X156699999Y-86300000D03*
X156699999Y-85900000D03*
X156699999Y-85500000D03*
X156699999Y-85100000D03*
X156699999Y-84700000D03*
X156699999Y-84300000D03*
X156699999Y-83900000D03*
D34*
X156199999Y-83400000D03*
X155799999Y-83400000D03*
X155399999Y-83400000D03*
X154999999Y-83400000D03*
X154599999Y-83400000D03*
X154199999Y-83400000D03*
X153799999Y-83400000D03*
X153399999Y-83400000D03*
D35*
X152899999Y-83900000D03*
X152899999Y-84300000D03*
X152899999Y-84700000D03*
X152899999Y-85100000D03*
X152899999Y-85500000D03*
X152899999Y-85900000D03*
X152899999Y-86300000D03*
X152899999Y-86700000D03*
D36*
X154799999Y-85300000D03*
D10*
X147899999Y-83199998D03*
X146299999Y-83199998D03*
D24*
X141265618Y-83457500D03*
X139334382Y-82342500D03*
D11*
X151499999Y-75900000D03*
X153099999Y-75900000D03*
D37*
X149665000Y-102650002D03*
X151035000Y-102650002D03*
D38*
X149100000Y-103600002D03*
X149600000Y-103600002D03*
X150100000Y-103600002D03*
X150600000Y-103600002D03*
X151100000Y-103600002D03*
X151600000Y-103600002D03*
X151600000Y-101700002D03*
X151100000Y-101700002D03*
X150600000Y-101700002D03*
X150100000Y-101700002D03*
X149600000Y-101700002D03*
X149100000Y-101700002D03*
D15*
X137587501Y-121956248D03*
X139487501Y-121956248D03*
X138537501Y-120081248D03*
D10*
X156399998Y-108300001D03*
X154799998Y-108300001D03*
D39*
X149200002Y-117518749D03*
X146275002Y-117518749D03*
D12*
X153199998Y-94499998D03*
X153199998Y-96099998D03*
D23*
X151300000Y-88199998D03*
X151300000Y-86599998D03*
D39*
X140000001Y-117518752D03*
X137075001Y-117518752D03*
D40*
X136262437Y-100899999D03*
X135462437Y-102285639D03*
D41*
X172445095Y-85390403D03*
X169482595Y-80259203D03*
D23*
X149800000Y-88200000D03*
X149800000Y-86600000D03*
D39*
X158400001Y-117518750D03*
X155475001Y-117518750D03*
D11*
X151500000Y-78900000D03*
X153100000Y-78900000D03*
D15*
X146787501Y-121956250D03*
X148687501Y-121956250D03*
X147737501Y-120081250D03*
D11*
X151499999Y-81900000D03*
X153099999Y-81900000D03*
X157999998Y-93000001D03*
X159599998Y-93000001D03*
D42*
X146600000Y-86284998D03*
X146600000Y-88514998D03*
D10*
X153199999Y-108300001D03*
X151599999Y-108300001D03*
D23*
X147800000Y-104400001D03*
X147800000Y-102800001D03*
D16*
X134163399Y-101535639D03*
X134963399Y-100149999D03*
D10*
X157824995Y-103212501D03*
X156224995Y-103212501D03*
X151599999Y-106800002D03*
X149999999Y-106800002D03*
D43*
X138945448Y-88661405D03*
X137559808Y-87861405D03*
D11*
X153200000Y-91500000D03*
X154800000Y-91500000D03*
D42*
X157974993Y-101627499D03*
X157974993Y-99397499D03*
D10*
X147900000Y-81699998D03*
X146300000Y-81699998D03*
D44*
X143400000Y-91139999D03*
X141170000Y-91139999D03*
D23*
X148300000Y-88199998D03*
X148300000Y-86599998D03*
D12*
X148400000Y-109800000D03*
X148400000Y-111400000D03*
D10*
X148399999Y-106800001D03*
X146799999Y-106800001D03*
D12*
X146800000Y-109800002D03*
X146800000Y-111400002D03*
D10*
X148800000Y-67100000D03*
X147200000Y-67100000D03*
D11*
X154799999Y-92999998D03*
X156399999Y-92999998D03*
D45*
X147800000Y-70600000D03*
X152200000Y-70600000D03*
D12*
X151600000Y-94499999D03*
X151600000Y-96099999D03*
D46*
X124375162Y-97867423D03*
D47*
X130107417Y-98578866D03*
D46*
X126625162Y-93970309D03*
D15*
X151387500Y-121956250D03*
X153287500Y-121956250D03*
X152337500Y-120081250D03*
D10*
X153099997Y-80399999D03*
X151499997Y-80399999D03*
D12*
X150000000Y-94499998D03*
X150000000Y-96099998D03*
D10*
X157824993Y-104712499D03*
X156224993Y-104712499D03*
D39*
X144600000Y-117518749D03*
X141675000Y-117518749D03*
X153799998Y-117518749D03*
X150874998Y-117518749D03*
D12*
X153200000Y-109800000D03*
X153200000Y-111400000D03*
D39*
X163000002Y-117518748D03*
X160075002Y-117518748D03*
D14*
X162856221Y-86581984D03*
X163656221Y-87967624D03*
M02*
