G04 #@! TF.GenerationSoftware,KiCad,Pcbnew,8.0.4*
G04 #@! TF.CreationDate,2025-04-17T01:03:58+02:00*
G04 #@! TF.ProjectId,bms_stage_bq40z80,626d735f-7374-4616-9765-5f627134307a,rev?*
G04 #@! TF.SameCoordinates,Original*
G04 #@! TF.FileFunction,Copper,L3,Inr*
G04 #@! TF.FilePolarity,Positive*
%FSLAX46Y46*%
G04 Gerber Fmt 4.6, Leading zero omitted, Abs format (unit mm)*
G04 Created by KiCad (PCBNEW 8.0.4) date 2025-04-17 01:03:58*
%MOMM*%
%LPD*%
G01*
G04 APERTURE LIST*
G04 Aperture macros list*
%AMHorizOval*
0 Thick line with rounded ends*
0 $1 width*
0 $2 $3 position (X,Y) of the first rounded end (center of the circle)*
0 $4 $5 position (X,Y) of the second rounded end (center of the circle)*
0 Add line between two ends*
20,1,$1,$2,$3,$4,$5,0*
0 Add two circle primitives to create the rounded ends*
1,1,$1,$2,$3*
1,1,$1,$4,$5*%
G04 Aperture macros list end*
G04 #@! TA.AperFunction,ComponentPad*
%ADD10HorizOval,3.500000X-1.875000X3.247595X1.875000X-3.247595X0*%
G04 #@! TD*
G04 #@! TA.AperFunction,ComponentPad*
%ADD11C,8.500000*%
G04 #@! TD*
G04 #@! TA.AperFunction,ComponentPad*
%ADD12HorizOval,3.500000X-1.875000X-3.247595X1.875000X3.247595X0*%
G04 #@! TD*
G04 #@! TA.AperFunction,ViaPad*
%ADD13C,0.600000*%
G04 #@! TD*
G04 #@! TA.AperFunction,ViaPad*
%ADD14C,0.650000*%
G04 #@! TD*
G04 #@! TA.AperFunction,Conductor*
%ADD15C,0.400000*%
G04 #@! TD*
G04 #@! TA.AperFunction,Conductor*
%ADD16C,0.300000*%
G04 #@! TD*
G04 #@! TA.AperFunction,Conductor*
%ADD17C,0.800000*%
G04 #@! TD*
G04 #@! TA.AperFunction,Conductor*
%ADD18C,0.600000*%
G04 #@! TD*
G04 APERTURE END LIST*
D10*
X118000000Y-101500000D03*
D11*
X140750000Y-69504000D03*
D12*
X182000000Y-101500000D03*
D13*
X148300000Y-76700000D03*
D14*
X140350000Y-91150000D03*
X145300000Y-80199998D03*
X160357182Y-85253522D03*
D13*
X153727420Y-84233678D03*
X156250000Y-77650000D03*
D14*
X149799999Y-88999997D03*
X147599999Y-101500003D03*
D13*
X153727421Y-86383679D03*
D14*
X150900001Y-100500000D03*
D13*
X137112917Y-101375000D03*
X157827421Y-87400000D03*
D14*
X151502045Y-82918730D03*
X163557181Y-90796086D03*
D13*
X151600000Y-90700000D03*
D14*
X137587501Y-123268751D03*
X142187498Y-123268751D03*
D13*
X153199999Y-90700000D03*
X154799999Y-90699999D03*
D14*
X146787499Y-123268748D03*
D13*
X156400001Y-90699999D03*
D14*
X151387500Y-123268749D03*
D13*
X157999999Y-90700000D03*
D14*
X160587500Y-123268751D03*
X155987499Y-123268749D03*
X159782308Y-89857816D03*
D13*
X157185642Y-88538036D03*
D14*
X159000000Y-101600000D03*
X135012917Y-103125000D03*
X150649997Y-78899999D03*
X159282309Y-88991790D03*
D13*
X156027421Y-88533678D03*
D14*
X145300000Y-78699999D03*
X146800000Y-112500000D03*
X149999997Y-97199998D03*
X136025000Y-117525000D03*
X145300000Y-84700000D03*
D13*
X130038146Y-92268847D03*
X133066025Y-97044864D03*
D14*
X140815619Y-84236922D03*
X145300000Y-81699998D03*
D13*
X132222948Y-77664659D03*
D14*
X154400000Y-74700000D03*
X150500000Y-75900000D03*
X162725000Y-94975000D03*
D13*
X155061100Y-80999998D03*
X154650000Y-80200000D03*
D14*
X162725000Y-93100000D03*
X141400000Y-93100000D03*
D13*
X155499999Y-81799998D03*
D14*
X145600000Y-74800000D03*
X150500000Y-77400000D03*
X118150000Y-86727756D03*
X130700000Y-98900000D03*
X131000000Y-103800000D03*
X116450000Y-89672243D03*
X153199999Y-97199998D03*
X150000000Y-112500000D03*
X154800001Y-97200000D03*
X151600000Y-112500000D03*
X156400000Y-97199999D03*
X153200000Y-112500000D03*
X162487500Y-123268750D03*
X154800000Y-112600000D03*
X157887500Y-123268749D03*
X158000000Y-97200000D03*
D13*
X132300000Y-90700000D03*
D14*
X150649999Y-80399999D03*
D13*
X139395448Y-87881982D03*
D14*
X145300000Y-83199998D03*
X148400000Y-112500000D03*
X151600000Y-97199999D03*
X146300000Y-101500000D03*
D13*
X157500000Y-83300000D03*
D14*
X159300000Y-86300000D03*
X168400000Y-102100000D03*
X168400000Y-111100000D03*
X158500000Y-83300000D03*
X168400000Y-108100000D03*
D13*
X159300000Y-84100000D03*
X159300000Y-85200000D03*
D14*
X168400000Y-105100000D03*
X156400000Y-109450002D03*
D13*
X159618283Y-90772352D03*
D14*
X164075000Y-117525000D03*
D15*
X137587501Y-123268751D02*
X137587501Y-102612499D01*
X148100000Y-89800000D02*
X151100000Y-89800000D01*
X139000000Y-101200000D02*
X139000000Y-98900000D01*
X151100000Y-89800000D02*
X151600000Y-90300000D01*
X151600000Y-90300000D02*
X151600000Y-90700000D01*
X139000000Y-98900000D02*
X148100000Y-89800000D01*
X137587501Y-102612499D02*
X139000000Y-101200000D01*
X140500000Y-99300000D02*
X147800000Y-92000000D01*
X142200000Y-123256249D02*
X142200000Y-119900000D01*
X142187498Y-123268751D02*
X142200000Y-123256249D01*
X147800000Y-92000000D02*
X152700000Y-92000000D01*
X153199999Y-91500001D02*
X153199999Y-90700000D01*
X140500000Y-102000000D02*
X140500000Y-99300000D01*
X152700000Y-92000000D02*
X153199999Y-91500001D01*
X142200000Y-119900000D02*
X139200000Y-116900000D01*
X139200000Y-103300000D02*
X140500000Y-102000000D01*
X139200000Y-116900000D02*
X139200000Y-103300000D01*
X140900000Y-103800000D02*
X142000000Y-102700000D01*
X146787499Y-121687499D02*
X140900000Y-115800000D01*
X142000000Y-99700000D02*
X148600000Y-93100000D01*
X142000000Y-102700000D02*
X142000000Y-99700000D01*
X154799999Y-92200001D02*
X154799999Y-90699999D01*
X146787499Y-123268748D02*
X146787499Y-121687499D01*
X140900000Y-115800000D02*
X140900000Y-103800000D01*
X148600000Y-93100000D02*
X153900000Y-93100000D01*
X153900000Y-93100000D02*
X154799999Y-92200001D01*
X149200000Y-94300000D02*
X155200000Y-94300000D01*
X150100000Y-120100000D02*
X147800000Y-120100000D01*
X151387500Y-121387500D02*
X150100000Y-120100000D01*
X142700000Y-104200000D02*
X143700000Y-103200000D01*
X147800000Y-120100000D02*
X142700000Y-115000000D01*
X143700000Y-99800000D02*
X149200000Y-94300000D01*
X155200000Y-94300000D02*
X156400001Y-93099999D01*
X143700000Y-103200000D02*
X143700000Y-99800000D01*
X151387500Y-123268749D02*
X151387500Y-121387500D01*
X156400001Y-93099999D02*
X156400001Y-90699999D01*
X142700000Y-115000000D02*
X142700000Y-104200000D01*
X157999999Y-95000001D02*
X157999999Y-90700000D01*
X155987499Y-123268749D02*
X156100000Y-123156248D01*
X144600000Y-104500000D02*
X145400000Y-103700000D01*
X156100000Y-123156248D02*
X156100000Y-122100000D01*
X145400000Y-99900000D02*
X149600000Y-95700000D01*
X145400000Y-103700000D02*
X145400000Y-99900000D01*
X156118751Y-122118751D02*
X156100000Y-122100000D01*
X154900000Y-118200000D02*
X148800000Y-118200000D01*
X157137501Y-122118751D02*
X159437502Y-122118753D01*
X156100000Y-119400000D02*
X154900000Y-118200000D01*
X159437502Y-122118753D02*
X160587500Y-123268751D01*
X157137501Y-122118751D02*
X156118751Y-122118751D01*
X156100000Y-122100000D02*
X156100000Y-119400000D01*
X144600000Y-114000000D02*
X144600000Y-104500000D01*
X157300000Y-95700000D02*
X157999999Y-95000001D01*
X149600000Y-95700000D02*
X157300000Y-95700000D01*
X148800000Y-118200000D02*
X144600000Y-114000000D01*
D16*
X158505422Y-89857816D02*
X159782308Y-89857816D01*
X157185642Y-88538036D02*
X158505422Y-89857816D01*
D15*
X152600000Y-78899999D02*
X150649997Y-78899999D01*
D16*
X159000000Y-93500000D02*
X160800000Y-91700000D01*
D15*
X152600000Y-83300000D02*
X152600000Y-78899999D01*
X135012917Y-100887083D02*
X152600000Y-83300000D01*
D16*
X159000000Y-101600000D02*
X159000000Y-93500000D01*
X154900000Y-83300000D02*
X152600000Y-83300000D01*
D15*
X135012917Y-103125000D02*
X135012917Y-100887083D01*
D16*
X160800000Y-89200000D02*
X154900000Y-83300000D01*
X160800000Y-91700000D02*
X160800000Y-89200000D01*
X158487926Y-88991790D02*
X159282309Y-88991790D01*
X156400000Y-87800000D02*
X157296136Y-87800000D01*
X156027421Y-88172579D02*
X156400000Y-87800000D01*
X157296136Y-87800000D02*
X158487926Y-88991790D01*
X156027421Y-88533678D02*
X156027421Y-88172579D01*
D15*
X140750000Y-76950000D02*
X140750000Y-69504000D01*
X142500000Y-78700000D02*
X140750000Y-76950000D01*
X145300001Y-78699999D02*
X145300000Y-78700000D01*
X145300000Y-78700000D02*
X142500000Y-78700000D01*
X149999997Y-101100003D02*
X149999997Y-97199998D01*
X146800000Y-104300000D02*
X149999997Y-101100003D01*
X146800000Y-112500000D02*
X146800000Y-104300000D01*
D17*
X136025000Y-113425000D02*
X123600000Y-101000000D01*
X123600000Y-101000000D02*
X119100000Y-101000000D01*
X136025000Y-117525000D02*
X136025000Y-113425000D01*
D15*
X149999999Y-97200000D02*
X149999997Y-97199998D01*
X133066025Y-97044864D02*
X133100000Y-97010889D01*
X133100000Y-93600000D02*
X131350000Y-93600000D01*
X130038146Y-92288146D02*
X130038146Y-92268847D01*
X145300000Y-84700000D02*
X145200000Y-84700000D01*
X131350000Y-93600000D02*
X130038146Y-92288146D01*
X136300000Y-93600000D02*
X133100000Y-93600000D01*
X145200000Y-84700000D02*
X136300000Y-93600000D01*
X133100000Y-97010889D02*
X133100000Y-93600000D01*
X138795211Y-84236922D02*
X132222948Y-77664659D01*
X145300000Y-81699998D02*
X143352543Y-81699998D01*
X143352543Y-81699998D02*
X140815619Y-84236922D01*
X140815619Y-84236922D02*
X138795211Y-84236922D01*
X150500000Y-75300000D02*
X151100000Y-74700000D01*
X151100000Y-74700000D02*
X154400000Y-74700000D01*
X150500000Y-75900000D02*
X150500000Y-75300000D01*
X150100000Y-77400000D02*
X149300000Y-76600000D01*
X149300000Y-75800000D02*
X148300000Y-74800000D01*
X149300000Y-76600000D02*
X149300000Y-75800000D01*
X150500000Y-77400000D02*
X150100000Y-77400000D01*
X148300000Y-74800000D02*
X145600000Y-74800000D01*
D17*
X129050000Y-98900000D02*
X118150000Y-88000000D01*
X130700000Y-98900000D02*
X129050000Y-98900000D01*
X118150000Y-88000000D02*
X118150000Y-86727756D01*
X129950000Y-103800000D02*
X116450000Y-90300000D01*
X131000000Y-103800000D02*
X129950000Y-103800000D01*
X116450000Y-90300000D02*
X116450000Y-89672243D01*
D15*
X153200000Y-97199999D02*
X153199999Y-97199998D01*
X150000000Y-105400000D02*
X153199999Y-102200001D01*
X153199999Y-102200001D02*
X153199999Y-97199998D01*
X150000000Y-112500000D02*
X150000000Y-105400000D01*
X151625001Y-105774999D02*
X154800001Y-102599999D01*
X154800001Y-102599999D02*
X154800001Y-97200000D01*
X151625001Y-112474999D02*
X151625001Y-105774999D01*
X154825002Y-97225001D02*
X154800001Y-97200000D01*
X151600000Y-112500000D02*
X151625001Y-112474999D01*
X153200000Y-112500000D02*
X153200000Y-106300000D01*
X156400000Y-103100000D02*
X156400000Y-97199999D01*
X153200000Y-106300000D02*
X156400000Y-103100000D01*
D18*
X162487500Y-123268750D02*
X161287499Y-124468751D01*
D15*
X158000000Y-103600000D02*
X158000000Y-97200000D01*
X162487500Y-121987500D02*
X154800000Y-114300000D01*
X158000001Y-97200001D02*
X158000000Y-97200000D01*
X162487500Y-123268750D02*
X162487500Y-121987500D01*
D18*
X159087499Y-124468751D02*
X157887500Y-123268749D01*
D15*
X154800000Y-114300000D02*
X154800000Y-112600000D01*
X154800000Y-112600000D02*
X154800000Y-106800000D01*
X158000000Y-97200000D02*
X158027645Y-97172352D01*
D18*
X161287499Y-124468751D02*
X159087499Y-124468751D01*
D15*
X154800000Y-106800000D02*
X158000000Y-103600000D01*
X150649999Y-80399999D02*
X150649999Y-82550001D01*
X135000000Y-98200000D02*
X132100000Y-98200000D01*
X129800000Y-90700000D02*
X132300000Y-90700000D01*
X129000000Y-91500000D02*
X129800000Y-90700000D01*
X132100000Y-98200000D02*
X129000000Y-95100000D01*
X150649999Y-82550001D02*
X135000000Y-98200000D01*
X129000000Y-95100000D02*
X129000000Y-91500000D01*
X145300000Y-83199998D02*
X145282091Y-83217907D01*
X145282091Y-83217907D02*
X144059523Y-83217907D01*
X144059523Y-83217907D02*
X139395448Y-87881982D01*
X152000000Y-99300000D02*
X151600000Y-98900000D01*
X148400000Y-105000000D02*
X152000000Y-101400000D01*
X148400000Y-112500000D02*
X148400000Y-105000000D01*
X152000000Y-101400000D02*
X152000000Y-99300000D01*
X151600000Y-98900000D02*
X151600000Y-97199999D01*
D16*
X168400000Y-93500000D02*
X161200000Y-86300000D01*
X168400000Y-102100000D02*
X168400000Y-93500000D01*
X161200000Y-86300000D02*
X159300000Y-86300000D01*
X159700000Y-81600000D02*
X158500000Y-82800000D01*
X168400000Y-111100000D02*
X172500000Y-107000000D01*
X172500000Y-107000000D02*
X172500000Y-91200000D01*
X162900000Y-81600000D02*
X159700000Y-81600000D01*
X172500000Y-91200000D02*
X162900000Y-81600000D01*
X158500000Y-82800000D02*
X158500000Y-83300000D01*
X168400000Y-108100000D02*
X171300000Y-105200000D01*
X171300000Y-105200000D02*
X171300000Y-92100000D01*
X162300000Y-83100000D02*
X160300000Y-83100000D01*
X160300000Y-83100000D02*
X159300000Y-84100000D01*
X171300000Y-92100000D02*
X162300000Y-83100000D01*
X160200000Y-84300000D02*
X159300000Y-85200000D01*
X161000000Y-84300000D02*
X160200000Y-84300000D01*
X169800000Y-93100000D02*
X161000000Y-84300000D01*
X169800000Y-103700000D02*
X169800000Y-93100000D01*
X168400000Y-105100000D02*
X169800000Y-103700000D01*
X181200000Y-101600000D02*
X181200000Y-101100000D01*
D17*
X175400000Y-108950000D02*
X175400000Y-103800000D01*
X164075000Y-117525000D02*
X166825000Y-117525000D01*
X175400000Y-103800000D02*
X177700000Y-101500000D01*
D15*
X164075000Y-117525000D02*
X161525000Y-117525000D01*
X161525000Y-117525000D02*
X156400000Y-112400000D01*
D17*
X177700000Y-101500000D02*
X182000000Y-101500000D01*
D15*
X156400000Y-112400000D02*
X156400000Y-109450002D01*
X159600001Y-90790634D02*
X159618283Y-90772352D01*
D17*
X166825000Y-117525000D02*
X175400000Y-108950000D01*
M02*
