G04 #@! TF.GenerationSoftware,KiCad,Pcbnew,8.0.4*
G04 #@! TF.CreationDate,2025-04-17T01:05:08+02:00*
G04 #@! TF.ProjectId,buck_mcu_stage,6275636b-5f6d-4637-955f-73746167652e,rev?*
G04 #@! TF.SameCoordinates,Original*
G04 #@! TF.FileFunction,Copper,L3,Inr*
G04 #@! TF.FilePolarity,Positive*
%FSLAX46Y46*%
G04 Gerber Fmt 4.6, Leading zero omitted, Abs format (unit mm)*
G04 Created by KiCad (PCBNEW 8.0.4) date 2025-04-17 01:05:08*
%MOMM*%
%LPD*%
G01*
G04 APERTURE LIST*
G04 #@! TA.AperFunction,ComponentPad*
%ADD10C,7.000000*%
G04 #@! TD*
G04 #@! TA.AperFunction,ComponentPad*
%ADD11C,2.600000*%
G04 #@! TD*
G04 #@! TA.AperFunction,ViaPad*
%ADD12C,0.650000*%
G04 #@! TD*
G04 #@! TA.AperFunction,ViaPad*
%ADD13C,0.800000*%
G04 #@! TD*
G04 #@! TA.AperFunction,Conductor*
%ADD14C,0.400000*%
G04 #@! TD*
G04 #@! TA.AperFunction,Conductor*
%ADD15C,0.300000*%
G04 #@! TD*
G04 APERTURE END LIST*
D10*
X159250000Y-69504000D03*
X140750000Y-69504000D03*
D11*
X113737000Y-100000000D03*
X150000000Y-63737000D03*
X124358000Y-74359000D03*
X186263000Y-100000000D03*
X150000000Y-136263000D03*
X175641000Y-125641000D03*
X124359000Y-125641000D03*
X175641000Y-74359000D03*
D12*
X164500000Y-89200000D03*
X161000000Y-95800000D03*
X163000000Y-89200000D03*
X158650000Y-98200000D03*
D13*
X127500000Y-117500000D03*
X125000000Y-95000000D03*
D12*
X143795000Y-81708000D03*
X168350000Y-83800000D03*
D13*
X130000000Y-85000000D03*
D12*
X161500000Y-102750000D03*
D13*
X132500000Y-122500000D03*
X127500000Y-97500000D03*
X127500000Y-92500000D03*
D12*
X148295000Y-80708000D03*
D13*
X135000000Y-125000000D03*
X125000000Y-105000000D03*
X127500000Y-102500000D03*
X127500000Y-112500000D03*
D12*
X144795000Y-81708000D03*
D13*
X122500000Y-102500000D03*
D12*
X149200000Y-103600000D03*
D13*
X135000000Y-85000000D03*
D12*
X150700000Y-104600000D03*
X147295000Y-80708000D03*
X150795000Y-81708000D03*
X149795000Y-81708000D03*
X151795000Y-81708000D03*
X148200000Y-103600000D03*
X143295000Y-80708000D03*
X146295000Y-80708000D03*
X162700000Y-123600000D03*
D13*
X125000000Y-110000000D03*
X127500000Y-107500000D03*
X132500000Y-82500000D03*
D12*
X145795000Y-81708000D03*
D13*
X135000000Y-115000000D03*
X137500000Y-82500000D03*
D12*
X147200000Y-103600000D03*
X146700000Y-104600000D03*
X161500000Y-89200000D03*
X151200000Y-103600000D03*
D13*
X135000000Y-120000000D03*
D12*
X151700000Y-104600000D03*
D13*
X127500000Y-82500000D03*
D12*
X142795000Y-81708000D03*
X147700000Y-104600000D03*
D13*
X122500000Y-107500000D03*
D12*
X150200000Y-103600000D03*
X149295000Y-80708000D03*
D13*
X140000000Y-85000000D03*
X122500000Y-92500000D03*
D12*
X147795000Y-81708000D03*
X148795000Y-81708000D03*
D13*
X130000000Y-115000000D03*
X130000000Y-120000000D03*
D12*
X150295000Y-80708000D03*
X160000000Y-92600000D03*
X151295000Y-80708000D03*
X144295000Y-80708000D03*
D13*
X125000000Y-115000000D03*
X127500000Y-87500000D03*
X132500000Y-117500000D03*
X125000000Y-90000000D03*
X125000000Y-100000000D03*
D12*
X146795000Y-81708000D03*
X148700000Y-104600000D03*
X149700000Y-104600000D03*
X162700000Y-116500000D03*
D13*
X122500000Y-97500000D03*
D12*
X145295000Y-80708000D03*
X165500000Y-104900000D03*
D13*
X162800000Y-85400000D03*
D12*
X165700000Y-112400000D03*
X166700000Y-107000000D03*
X176900000Y-109700000D03*
X153000000Y-67500000D03*
X168100000Y-107600000D03*
X165150000Y-109500000D03*
X175900000Y-108700000D03*
X151500000Y-67500000D03*
X176250000Y-107500000D03*
X175200000Y-106900000D03*
X150000000Y-67500000D03*
X147000000Y-67500000D03*
X173600000Y-105200000D03*
X148500000Y-67500000D03*
X175200000Y-105600000D03*
X175600000Y-90700000D03*
X169500000Y-111600000D03*
X164200000Y-106000000D03*
X174900000Y-111500000D03*
X163750000Y-92850000D03*
X164000000Y-116500000D03*
X168650000Y-113050000D03*
X170750000Y-94650000D03*
X173900000Y-98300000D03*
X156100000Y-113700000D03*
X163750000Y-98900000D03*
X166000000Y-102750000D03*
X169300000Y-105600000D03*
X161700000Y-126200000D03*
X161700000Y-119100000D03*
X172550000Y-93200000D03*
X145200000Y-107700000D03*
X158850000Y-94400000D03*
X152750000Y-102198000D03*
X161800000Y-115100000D03*
X171200000Y-115100000D03*
X172300000Y-112600000D03*
X162100000Y-113700000D03*
X171800000Y-89100000D03*
X172000000Y-103700000D03*
X155900000Y-118400000D03*
X138900000Y-119200000D03*
X155900000Y-125500000D03*
X138900000Y-126300000D03*
X165500000Y-103700000D03*
X159800000Y-100900000D03*
X155300000Y-107350000D03*
X171250000Y-102850000D03*
X156300000Y-110650000D03*
X170700000Y-104750000D03*
D14*
X161000000Y-95800000D02*
X163400000Y-95800000D01*
X164900000Y-94300000D02*
X164900000Y-91550000D01*
X164900000Y-91550000D02*
X164500000Y-91150000D01*
X164500000Y-91150000D02*
X164500000Y-89200000D01*
X163400000Y-95800000D02*
X164900000Y-94300000D01*
D15*
X158650000Y-98200000D02*
X158650000Y-96550000D01*
X158650000Y-96550000D02*
X163000000Y-92200000D01*
X163000000Y-92200000D02*
X163000000Y-89200000D01*
D14*
X170700000Y-97700000D02*
X170700000Y-97300000D01*
X173000000Y-95000000D02*
X173600000Y-94400000D01*
X166800000Y-85400000D02*
X162800000Y-85400000D01*
X173600000Y-92200000D02*
X166800000Y-85400000D01*
X170700000Y-99900000D02*
X170700000Y-97700000D01*
X166300000Y-104300000D02*
X170700000Y-99900000D01*
X173600000Y-94400000D02*
X173600000Y-92200000D01*
X165500000Y-104900000D02*
X165700000Y-104900000D01*
X170700000Y-97300000D02*
X173000000Y-95000000D01*
X165700000Y-104900000D02*
X166300000Y-104300000D01*
D15*
X182000000Y-104600000D02*
X182000000Y-86200000D01*
X153000000Y-69900000D02*
X153000000Y-67500000D01*
X157300000Y-74200000D02*
X153000000Y-69900000D01*
X176900000Y-109700000D02*
X182000000Y-104600000D01*
X170000000Y-74200000D02*
X157300000Y-74200000D01*
X182000000Y-86200000D02*
X170000000Y-74200000D01*
D14*
X165150000Y-109500000D02*
X166200000Y-109500000D01*
X166200000Y-109500000D02*
X168100000Y-107600000D01*
D15*
X156600000Y-75800000D02*
X151500000Y-70700000D01*
X180600000Y-103150000D02*
X180600000Y-87100000D01*
X180600000Y-87100000D02*
X169300000Y-75800000D01*
X151500000Y-70700000D02*
X151500000Y-67500000D01*
X169300000Y-75800000D02*
X156600000Y-75800000D01*
X176250000Y-107500000D02*
X180600000Y-103150000D01*
X175200000Y-106900000D02*
X179300000Y-102800000D01*
X150000000Y-71900000D02*
X150000000Y-67500000D01*
X179300000Y-102800000D02*
X179300000Y-87900000D01*
X179300000Y-87900000D02*
X168800000Y-77400000D01*
X168800000Y-77400000D02*
X155500000Y-77400000D01*
X155500000Y-77400000D02*
X150000000Y-71900000D01*
X147000000Y-73800000D02*
X147000000Y-67500000D01*
X173600000Y-105200000D02*
X176600000Y-102200000D01*
X176600000Y-102200000D02*
X176600000Y-89500000D01*
X154100000Y-80900000D02*
X147000000Y-73800000D01*
X168000000Y-80900000D02*
X154100000Y-80900000D01*
X176600000Y-89500000D02*
X168000000Y-80900000D01*
X177900000Y-88500000D02*
X168500000Y-79100000D01*
X175200000Y-105600000D02*
X177900000Y-102900000D01*
X177900000Y-102900000D02*
X177900000Y-88500000D01*
X154700000Y-79100000D02*
X148500000Y-72900000D01*
X148500000Y-72900000D02*
X148500000Y-67500000D01*
X168500000Y-79100000D02*
X154700000Y-79100000D01*
D14*
X175600000Y-101700000D02*
X172350000Y-104950000D01*
X172050000Y-108150000D02*
X172050000Y-109050000D01*
X172350000Y-104950000D02*
X172050000Y-105250000D01*
X172050000Y-109050000D02*
X169500000Y-111600000D01*
X175600000Y-90700000D02*
X175600000Y-101700000D01*
X172050000Y-105250000D02*
X172050000Y-108150000D01*
X166600000Y-97400000D02*
X170800000Y-93200000D01*
X161700000Y-119100000D02*
X161700000Y-118400000D01*
X150400000Y-110900000D02*
X150400000Y-106300000D01*
X145200000Y-107700000D02*
X145200000Y-107400000D01*
X150400000Y-106300000D02*
X152500000Y-106300000D01*
X145200000Y-107400000D02*
X146300000Y-106300000D01*
X161400000Y-97400000D02*
X166600000Y-97400000D01*
X161700000Y-119100000D02*
X161700000Y-126200000D01*
X146300000Y-106300000D02*
X150400000Y-106300000D01*
X161700000Y-118400000D02*
X158300000Y-115000000D01*
X170800000Y-93200000D02*
X172550000Y-93200000D01*
X152500000Y-106300000D02*
X161400000Y-97400000D01*
X154500000Y-115000000D02*
X150400000Y-110900000D01*
X158300000Y-115000000D02*
X154500000Y-115000000D01*
D15*
X153650000Y-101750000D02*
X153650000Y-95050000D01*
X152750000Y-102198000D02*
X153202000Y-102198000D01*
X153202000Y-102198000D02*
X153500000Y-101900000D01*
X153650000Y-95050000D02*
X154300000Y-94400000D01*
X153500000Y-101900000D02*
X153650000Y-101750000D01*
X154300000Y-94400000D02*
X158850000Y-94400000D01*
X171200000Y-115100000D02*
X161800000Y-115100000D01*
X172300000Y-112600000D02*
X170900000Y-114000000D01*
X167400000Y-113700000D02*
X162100000Y-113700000D01*
X170900000Y-114000000D02*
X167700000Y-114000000D01*
X167700000Y-114000000D02*
X167400000Y-113700000D01*
X174600000Y-95500000D02*
X174600000Y-90500000D01*
X174600000Y-90500000D02*
X173200000Y-89100000D01*
X172800000Y-102900000D02*
X172800000Y-97300000D01*
X172800000Y-97300000D02*
X174600000Y-95500000D01*
X173200000Y-89100000D02*
X171800000Y-89100000D01*
X172000000Y-103700000D02*
X172800000Y-102900000D01*
D14*
X138900000Y-119200000D02*
X155100000Y-119200000D01*
X155100000Y-119200000D02*
X155900000Y-118400000D01*
X138900000Y-126300000D02*
X155100000Y-126300000D01*
X155100000Y-126300000D02*
X155900000Y-125500000D01*
X165500000Y-103700000D02*
X162700000Y-100900000D01*
X162700000Y-100900000D02*
X159800000Y-100900000D01*
X164650000Y-107350000D02*
X166600000Y-105400000D01*
X170300000Y-102850000D02*
X171250000Y-102850000D01*
X166600000Y-105400000D02*
X167750000Y-105400000D01*
X167750000Y-105400000D02*
X170300000Y-102850000D01*
X155300000Y-107350000D02*
X164650000Y-107350000D01*
X170700000Y-108100000D02*
X168950000Y-109850000D01*
X156300000Y-110650000D02*
X168150000Y-110650000D01*
X168150000Y-110650000D02*
X168950000Y-109850000D01*
X170700000Y-104750000D02*
X170700000Y-108100000D01*
G04 #@! TA.AperFunction,Conductor*
G36*
X177340310Y-73470405D02*
G01*
X177342802Y-73472958D01*
X177577321Y-73719156D01*
X178007057Y-74170294D01*
X178010328Y-74173842D01*
X178828760Y-75090735D01*
X178831915Y-75094386D01*
X179241920Y-75584800D01*
X179606894Y-76021352D01*
X179620262Y-76037341D01*
X179623297Y-76041093D01*
X180380694Y-77009082D01*
X180383605Y-77012930D01*
X181109232Y-78004896D01*
X181112018Y-78008836D01*
X181805182Y-79023839D01*
X181807838Y-79027868D01*
X182467731Y-80064721D01*
X182470256Y-80068833D01*
X183096256Y-81126559D01*
X183098646Y-81130751D01*
X183690055Y-82208174D01*
X183692308Y-82212441D01*
X184248518Y-83308447D01*
X184250632Y-83312785D01*
X184771070Y-84426251D01*
X184773042Y-84430656D01*
X185257127Y-85560338D01*
X185258956Y-85564803D01*
X185706230Y-86709626D01*
X185707913Y-86714149D01*
X186117866Y-87872812D01*
X186119398Y-87877374D01*
X186472079Y-88987225D01*
X186491637Y-89048772D01*
X186493019Y-89053383D01*
X186534433Y-89199997D01*
X186827110Y-90236148D01*
X186828347Y-90240813D01*
X187123978Y-91433833D01*
X187125062Y-91438535D01*
X187216473Y-91866316D01*
X187343378Y-92460208D01*
X187381893Y-92640447D01*
X187382823Y-92645174D01*
X187413953Y-92818077D01*
X187600605Y-93854807D01*
X187601383Y-93859569D01*
X187779876Y-95075591D01*
X187780500Y-95080376D01*
X187919528Y-96301579D01*
X187919996Y-96306382D01*
X188019404Y-97531431D01*
X188019716Y-97536246D01*
X188079402Y-98763863D01*
X188079558Y-98768686D01*
X188099460Y-99997587D01*
X188099460Y-100002413D01*
X188079558Y-101231313D01*
X188079402Y-101236136D01*
X188019716Y-102463753D01*
X188019404Y-102468568D01*
X187919996Y-103693617D01*
X187919528Y-103698420D01*
X187780500Y-104919623D01*
X187779876Y-104924408D01*
X187601383Y-106140430D01*
X187600605Y-106145192D01*
X187382825Y-107354817D01*
X187381893Y-107359552D01*
X187125062Y-108561464D01*
X187123978Y-108566166D01*
X186828347Y-109759186D01*
X186827110Y-109763851D01*
X186493023Y-110946605D01*
X186491637Y-110951227D01*
X186119402Y-112122613D01*
X186117866Y-112127187D01*
X185707913Y-113285850D01*
X185706230Y-113290373D01*
X185258956Y-114435196D01*
X185257127Y-114439661D01*
X184773042Y-115569343D01*
X184771070Y-115573748D01*
X184250632Y-116687214D01*
X184248518Y-116691552D01*
X183692308Y-117787558D01*
X183690055Y-117791825D01*
X183098646Y-118869248D01*
X183096256Y-118873440D01*
X182470256Y-119931166D01*
X182467731Y-119935278D01*
X181807838Y-120972131D01*
X181805182Y-120976160D01*
X181112018Y-121991163D01*
X181109232Y-121995103D01*
X180383605Y-122987069D01*
X180380694Y-122990917D01*
X179623297Y-123958906D01*
X179620262Y-123962658D01*
X178831915Y-124905613D01*
X178828760Y-124909264D01*
X178010328Y-125826157D01*
X178007057Y-125829705D01*
X177159323Y-126719657D01*
X177155938Y-126723096D01*
X176279847Y-127585114D01*
X176276353Y-127588443D01*
X175372803Y-128421642D01*
X175369203Y-128424855D01*
X174439157Y-129228350D01*
X174435455Y-129231445D01*
X173479885Y-130004397D01*
X173476085Y-130007371D01*
X172495955Y-130748998D01*
X172492060Y-130751847D01*
X171488442Y-131461338D01*
X171484457Y-131464059D01*
X170458405Y-132140667D01*
X170454334Y-132143258D01*
X169406902Y-132786293D01*
X169402749Y-132788751D01*
X168335042Y-133397532D01*
X168330812Y-133399854D01*
X167243956Y-133973738D01*
X167239653Y-133975922D01*
X166134760Y-134514322D01*
X166130389Y-134516365D01*
X165008686Y-135018684D01*
X165004250Y-135020585D01*
X163866824Y-135486336D01*
X163862329Y-135488092D01*
X162710428Y-135916764D01*
X162705879Y-135918373D01*
X161540739Y-136309505D01*
X161536140Y-136310967D01*
X160358879Y-136664186D01*
X160354280Y-136665485D01*
X159166208Y-136980394D01*
X159161546Y-136981549D01*
X157963929Y-137257814D01*
X157959210Y-137258823D01*
X156753250Y-137496167D01*
X156748500Y-137497022D01*
X155535494Y-137695188D01*
X155530720Y-137695888D01*
X155268249Y-137730083D01*
X155191795Y-137719913D01*
X155130668Y-137672878D01*
X155101249Y-137601581D01*
X155100000Y-137582332D01*
X155100000Y-126839312D01*
X155119962Y-126764812D01*
X155174500Y-126710274D01*
X155210432Y-126695390D01*
X155258447Y-126682525D01*
X155352053Y-126628482D01*
X155910778Y-126069755D01*
X155977571Y-126031193D01*
X155996676Y-126027393D01*
X156039794Y-126021717D01*
X156170061Y-125967759D01*
X156281923Y-125881923D01*
X156367759Y-125770061D01*
X156421717Y-125639794D01*
X156421717Y-125639793D01*
X156421718Y-125639791D01*
X156440121Y-125500002D01*
X156440121Y-125499997D01*
X156421718Y-125360208D01*
X156367760Y-125229940D01*
X156323901Y-125172783D01*
X156281923Y-125118077D01*
X156170061Y-125032241D01*
X156170058Y-125032239D01*
X156170057Y-125032239D01*
X156039791Y-124978281D01*
X155900003Y-124959879D01*
X155899997Y-124959879D01*
X155760208Y-124978281D01*
X155629940Y-125032239D01*
X155629940Y-125032240D01*
X155518079Y-125118075D01*
X155518075Y-125118079D01*
X155432240Y-125229940D01*
X155432239Y-125229940D01*
X155386658Y-125339986D01*
X155339706Y-125401176D01*
X155268449Y-125430692D01*
X155191981Y-125420625D01*
X155130791Y-125373673D01*
X155101275Y-125302416D01*
X155100000Y-125282967D01*
X155100000Y-119739312D01*
X155119962Y-119664812D01*
X155174500Y-119610274D01*
X155210432Y-119595390D01*
X155258447Y-119582525D01*
X155352053Y-119528482D01*
X155910778Y-118969755D01*
X155977571Y-118931193D01*
X155996676Y-118927393D01*
X156039794Y-118921717D01*
X156170061Y-118867759D01*
X156281923Y-118781923D01*
X156367759Y-118670061D01*
X156421717Y-118539794D01*
X156421717Y-118539793D01*
X156421718Y-118539791D01*
X156440121Y-118400002D01*
X156440121Y-118399997D01*
X156421718Y-118260208D01*
X156367760Y-118129940D01*
X156318938Y-118066316D01*
X156281923Y-118018077D01*
X156170061Y-117932241D01*
X156170058Y-117932239D01*
X156170057Y-117932239D01*
X156039791Y-117878281D01*
X155900003Y-117859879D01*
X155899997Y-117859879D01*
X155760208Y-117878281D01*
X155629940Y-117932239D01*
X155629940Y-117932240D01*
X155518079Y-118018075D01*
X155518075Y-118018079D01*
X155432240Y-118129940D01*
X155432239Y-118129940D01*
X155386658Y-118239986D01*
X155339706Y-118301176D01*
X155268449Y-118330692D01*
X155191981Y-118320625D01*
X155130791Y-118273673D01*
X155101275Y-118202416D01*
X155100000Y-118182967D01*
X155100000Y-115559500D01*
X155119962Y-115485000D01*
X155174500Y-115430462D01*
X155249000Y-115410500D01*
X158068247Y-115410500D01*
X158142747Y-115430462D01*
X158173606Y-115454141D01*
X161245859Y-118526393D01*
X161284423Y-118593188D01*
X161289500Y-118631752D01*
X161289500Y-118704739D01*
X161269538Y-118779239D01*
X161258710Y-118795444D01*
X161232239Y-118829940D01*
X161178281Y-118960208D01*
X161159879Y-119099997D01*
X161159879Y-119100002D01*
X161178281Y-119239791D01*
X161232239Y-119370057D01*
X161232240Y-119370060D01*
X161258709Y-119404554D01*
X161288225Y-119475811D01*
X161289500Y-119495260D01*
X161289500Y-125804739D01*
X161269538Y-125879239D01*
X161258710Y-125895444D01*
X161232239Y-125929940D01*
X161178281Y-126060208D01*
X161159879Y-126199997D01*
X161159879Y-126200002D01*
X161178281Y-126339791D01*
X161227430Y-126458447D01*
X161232241Y-126470061D01*
X161279457Y-126531593D01*
X161295156Y-126552053D01*
X161318077Y-126581923D01*
X161429939Y-126667759D01*
X161465585Y-126682524D01*
X161560208Y-126721718D01*
X161699997Y-126740121D01*
X161700000Y-126740121D01*
X161700003Y-126740121D01*
X161839791Y-126721718D01*
X161839793Y-126721717D01*
X161839794Y-126721717D01*
X161970061Y-126667759D01*
X162081923Y-126581923D01*
X162167759Y-126470061D01*
X162221717Y-126339794D01*
X162221717Y-126339793D01*
X162221718Y-126339791D01*
X162240121Y-126200002D01*
X162240121Y-126199997D01*
X162221718Y-126060208D01*
X162167760Y-125929940D01*
X162141290Y-125895444D01*
X162111775Y-125824187D01*
X162110500Y-125804739D01*
X162110500Y-125641000D01*
X174125829Y-125641000D01*
X174144483Y-125878027D01*
X174144484Y-125878032D01*
X174199987Y-126109216D01*
X174290968Y-126328863D01*
X174290971Y-126328869D01*
X174290973Y-126328873D01*
X174306397Y-126354043D01*
X174415199Y-126531593D01*
X174415201Y-126531595D01*
X174569612Y-126712388D01*
X174718222Y-126839312D01*
X174750406Y-126866800D01*
X174814452Y-126906047D01*
X174953127Y-126991027D01*
X174953132Y-126991029D01*
X174953136Y-126991031D01*
X175172783Y-127082012D01*
X175172784Y-127082012D01*
X175172786Y-127082013D01*
X175403975Y-127137517D01*
X175641000Y-127156171D01*
X175878025Y-127137517D01*
X176109214Y-127082013D01*
X176328873Y-126991027D01*
X176531595Y-126866799D01*
X176712388Y-126712388D01*
X176866799Y-126531595D01*
X176991027Y-126328873D01*
X177082013Y-126109214D01*
X177137517Y-125878025D01*
X177156171Y-125641000D01*
X177137517Y-125403975D01*
X177082013Y-125172786D01*
X177059351Y-125118075D01*
X176991031Y-124953136D01*
X176991028Y-124953130D01*
X176991027Y-124953127D01*
X176866799Y-124750405D01*
X176712388Y-124569612D01*
X176531595Y-124415201D01*
X176531596Y-124415201D01*
X176531593Y-124415199D01*
X176403500Y-124336705D01*
X176328873Y-124290973D01*
X176328870Y-124290972D01*
X176328869Y-124290971D01*
X176328863Y-124290968D01*
X176109216Y-124199987D01*
X175878032Y-124144484D01*
X175878027Y-124144483D01*
X175641000Y-124125829D01*
X175403972Y-124144483D01*
X175403967Y-124144484D01*
X175172783Y-124199987D01*
X174953136Y-124290968D01*
X174953130Y-124290971D01*
X174750406Y-124415199D01*
X174569612Y-124569612D01*
X174415199Y-124750406D01*
X174290971Y-124953130D01*
X174290968Y-124953136D01*
X174199987Y-125172783D01*
X174144484Y-125403967D01*
X174144483Y-125403972D01*
X174125829Y-125641000D01*
X162110500Y-125641000D01*
X162110500Y-124124785D01*
X162130462Y-124050285D01*
X162185000Y-123995747D01*
X162259500Y-123975785D01*
X162334000Y-123995747D01*
X162350191Y-124006565D01*
X162429939Y-124067759D01*
X162429942Y-124067760D01*
X162429943Y-124067761D01*
X162560208Y-124121718D01*
X162699997Y-124140121D01*
X162700000Y-124140121D01*
X162700003Y-124140121D01*
X162839791Y-124121718D01*
X162839793Y-124121717D01*
X162839794Y-124121717D01*
X162970061Y-124067759D01*
X163081923Y-123981923D01*
X163167759Y-123870061D01*
X163221717Y-123739794D01*
X163221717Y-123739793D01*
X163221718Y-123739791D01*
X163240121Y-123600002D01*
X163240121Y-123599997D01*
X163221718Y-123460208D01*
X163167760Y-123329940D01*
X163124841Y-123274008D01*
X163081923Y-123218077D01*
X162970061Y-123132241D01*
X162970058Y-123132239D01*
X162970057Y-123132239D01*
X162839791Y-123078281D01*
X162700003Y-123059879D01*
X162699997Y-123059879D01*
X162560208Y-123078281D01*
X162429940Y-123132239D01*
X162429940Y-123132240D01*
X162350206Y-123193423D01*
X162278949Y-123222939D01*
X162202481Y-123212872D01*
X162141291Y-123165920D01*
X162111775Y-123094663D01*
X162110500Y-123075214D01*
X162110500Y-119495260D01*
X162130462Y-119420760D01*
X162141291Y-119404554D01*
X162167759Y-119370061D01*
X162221717Y-119239794D01*
X162221717Y-119239793D01*
X162221718Y-119239791D01*
X162240121Y-119100002D01*
X162240121Y-119099997D01*
X162221718Y-118960208D01*
X162167760Y-118829940D01*
X162141290Y-118795444D01*
X162111775Y-118724187D01*
X162110500Y-118704739D01*
X162110500Y-118345957D01*
X162110499Y-118345955D01*
X162082525Y-118241553D01*
X162028482Y-118147947D01*
X161952053Y-118071518D01*
X161952050Y-118071516D01*
X160380532Y-116499997D01*
X162159879Y-116499997D01*
X162159879Y-116500002D01*
X162178281Y-116639791D01*
X162232239Y-116770057D01*
X162232241Y-116770061D01*
X162318077Y-116881923D01*
X162429939Y-116967759D01*
X162506247Y-116999367D01*
X162560208Y-117021718D01*
X162699997Y-117040121D01*
X162700000Y-117040121D01*
X162700003Y-117040121D01*
X162839791Y-117021718D01*
X162839793Y-117021717D01*
X162839794Y-117021717D01*
X162970061Y-116967759D01*
X163081923Y-116881923D01*
X163167759Y-116770061D01*
X163221717Y-116639794D01*
X163221717Y-116639793D01*
X163221718Y-116639791D01*
X163240121Y-116500002D01*
X163240121Y-116499997D01*
X163221718Y-116360208D01*
X163167760Y-116229940D01*
X163124841Y-116174008D01*
X163081923Y-116118077D01*
X162970061Y-116032241D01*
X162970058Y-116032239D01*
X162970057Y-116032239D01*
X162839791Y-115978281D01*
X162700003Y-115959879D01*
X162699997Y-115959879D01*
X162560208Y-115978281D01*
X162429940Y-116032239D01*
X162429940Y-116032240D01*
X162318079Y-116118075D01*
X162318075Y-116118079D01*
X162232240Y-116229940D01*
X162232239Y-116229940D01*
X162178281Y-116360208D01*
X162159879Y-116499997D01*
X160380532Y-116499997D01*
X158980532Y-115099997D01*
X161259879Y-115099997D01*
X161259879Y-115100002D01*
X161278281Y-115239791D01*
X161332239Y-115370057D01*
X161332241Y-115370061D01*
X161363272Y-115410501D01*
X161416955Y-115480462D01*
X161418077Y-115481923D01*
X161529939Y-115567759D01*
X161539159Y-115571578D01*
X161660208Y-115621718D01*
X161799997Y-115640121D01*
X161800000Y-115640121D01*
X161800003Y-115640121D01*
X161939791Y-115621718D01*
X161939793Y-115621717D01*
X161939794Y-115621717D01*
X162070061Y-115567759D01*
X162169715Y-115491290D01*
X162240970Y-115461775D01*
X162260420Y-115460500D01*
X170739580Y-115460500D01*
X170814080Y-115480462D01*
X170830281Y-115491288D01*
X170929939Y-115567759D01*
X170939159Y-115571578D01*
X171060208Y-115621718D01*
X171199997Y-115640121D01*
X171200000Y-115640121D01*
X171200003Y-115640121D01*
X171339791Y-115621718D01*
X171339793Y-115621717D01*
X171339794Y-115621717D01*
X171470061Y-115567759D01*
X171581923Y-115481923D01*
X171667759Y-115370061D01*
X171721717Y-115239794D01*
X171721717Y-115239793D01*
X171721718Y-115239791D01*
X171740121Y-115100002D01*
X171740121Y-115099997D01*
X171721718Y-114960208D01*
X171667760Y-114829940D01*
X171624841Y-114774008D01*
X171581923Y-114718077D01*
X171470061Y-114632241D01*
X171470058Y-114632239D01*
X171470057Y-114632239D01*
X171339791Y-114578281D01*
X171190318Y-114558604D01*
X171190710Y-114555624D01*
X171132087Y-114539917D01*
X171077549Y-114485379D01*
X171057587Y-114410879D01*
X171077549Y-114336379D01*
X171115879Y-114292671D01*
X171121342Y-114288477D01*
X171121352Y-114288472D01*
X172229346Y-113180476D01*
X172296139Y-113141914D01*
X172315233Y-113138115D01*
X172439794Y-113121717D01*
X172570061Y-113067759D01*
X172681923Y-112981923D01*
X172767759Y-112870061D01*
X172821717Y-112739794D01*
X172821717Y-112739793D01*
X172821718Y-112739791D01*
X172840121Y-112600002D01*
X172840121Y-112599997D01*
X172821718Y-112460208D01*
X172767760Y-112329940D01*
X172714250Y-112260206D01*
X172681923Y-112218077D01*
X172570061Y-112132241D01*
X172570058Y-112132239D01*
X172570057Y-112132239D01*
X172439791Y-112078281D01*
X172300003Y-112059879D01*
X172299997Y-112059879D01*
X172160208Y-112078281D01*
X172029940Y-112132239D01*
X172029940Y-112132240D01*
X171918079Y-112218075D01*
X171918075Y-112218079D01*
X171832240Y-112329940D01*
X171832239Y-112329940D01*
X171778281Y-112460208D01*
X171761887Y-112584742D01*
X171732372Y-112655999D01*
X171719521Y-112670653D01*
X170794317Y-113595859D01*
X170727522Y-113634423D01*
X170688958Y-113639500D01*
X167911042Y-113639500D01*
X167836542Y-113619538D01*
X167805683Y-113595859D01*
X167770030Y-113560206D01*
X167621352Y-113411528D01*
X167621349Y-113411526D01*
X167621345Y-113411523D01*
X167539151Y-113364068D01*
X167539148Y-113364067D01*
X167514581Y-113357484D01*
X167447463Y-113339500D01*
X167447461Y-113339500D01*
X162560420Y-113339500D01*
X162485920Y-113319538D01*
X162469718Y-113308711D01*
X162370061Y-113232241D01*
X162370060Y-113232240D01*
X162370057Y-113232239D01*
X162239791Y-113178281D01*
X162100003Y-113159879D01*
X162099997Y-113159879D01*
X161960208Y-113178281D01*
X161829940Y-113232239D01*
X161829940Y-113232240D01*
X161718079Y-113318075D01*
X161718075Y-113318079D01*
X161632240Y-113429940D01*
X161632239Y-113429940D01*
X161578281Y-113560208D01*
X161559879Y-113699997D01*
X161559879Y-113700002D01*
X161578281Y-113839791D01*
X161632239Y-113970057D01*
X161632241Y-113970061D01*
X161685673Y-114039694D01*
X161716955Y-114080462D01*
X161718077Y-114081923D01*
X161829939Y-114167759D01*
X161906247Y-114199367D01*
X161960208Y-114221718D01*
X162099997Y-114240121D01*
X162100000Y-114240121D01*
X162100003Y-114240121D01*
X162239791Y-114221718D01*
X162239793Y-114221717D01*
X162239794Y-114221717D01*
X162370061Y-114167759D01*
X162469715Y-114091290D01*
X162540970Y-114061775D01*
X162560420Y-114060500D01*
X167188958Y-114060500D01*
X167263458Y-114080462D01*
X167294317Y-114104141D01*
X167478648Y-114288472D01*
X167478650Y-114288473D01*
X167478654Y-114288476D01*
X167560848Y-114335931D01*
X167560849Y-114335931D01*
X167560852Y-114335933D01*
X167652539Y-114360500D01*
X167652541Y-114360500D01*
X170845139Y-114360500D01*
X170919639Y-114380462D01*
X170974177Y-114435000D01*
X170994139Y-114509500D01*
X170974177Y-114584000D01*
X170935845Y-114627709D01*
X170830285Y-114708709D01*
X170759028Y-114738225D01*
X170739579Y-114739500D01*
X162260420Y-114739500D01*
X162185920Y-114719538D01*
X162169718Y-114708711D01*
X162070061Y-114632241D01*
X162070060Y-114632240D01*
X162070057Y-114632239D01*
X161939791Y-114578281D01*
X161800003Y-114559879D01*
X161799997Y-114559879D01*
X161660208Y-114578281D01*
X161529940Y-114632239D01*
X161529940Y-114632240D01*
X161418079Y-114718075D01*
X161418075Y-114718079D01*
X161332240Y-114829940D01*
X161332239Y-114829940D01*
X161278281Y-114960208D01*
X161259879Y-115099997D01*
X158980532Y-115099997D01*
X158552053Y-114671518D01*
X158458447Y-114617475D01*
X158354043Y-114589500D01*
X155249000Y-114589500D01*
X155174500Y-114569538D01*
X155119962Y-114515000D01*
X155100000Y-114440500D01*
X155100000Y-112500000D01*
X152642253Y-112500000D01*
X152567753Y-112480038D01*
X152536894Y-112456359D01*
X152480532Y-112399997D01*
X165159879Y-112399997D01*
X165159879Y-112400002D01*
X165178281Y-112539791D01*
X165214310Y-112626772D01*
X165232241Y-112670061D01*
X165318077Y-112781923D01*
X165429939Y-112867759D01*
X165435497Y-112870061D01*
X165560208Y-112921718D01*
X165699997Y-112940121D01*
X165700000Y-112940121D01*
X165700003Y-112940121D01*
X165839791Y-112921718D01*
X165839793Y-112921717D01*
X165839794Y-112921717D01*
X165970061Y-112867759D01*
X166081923Y-112781923D01*
X166167759Y-112670061D01*
X166221717Y-112539794D01*
X166221717Y-112539793D01*
X166221718Y-112539791D01*
X166240121Y-112400002D01*
X166240121Y-112399997D01*
X166221718Y-112260208D01*
X166167760Y-112129940D01*
X166120046Y-112067760D01*
X166081923Y-112018077D01*
X165970061Y-111932241D01*
X165970058Y-111932239D01*
X165970057Y-111932239D01*
X165839791Y-111878281D01*
X165700003Y-111859879D01*
X165699997Y-111859879D01*
X165560208Y-111878281D01*
X165429940Y-111932239D01*
X165429940Y-111932240D01*
X165318079Y-112018075D01*
X165318075Y-112018079D01*
X165232240Y-112129940D01*
X165232239Y-112129940D01*
X165178281Y-112260208D01*
X165159879Y-112399997D01*
X152480532Y-112399997D01*
X150854141Y-110773606D01*
X150815577Y-110706811D01*
X150810500Y-110668247D01*
X150810500Y-110649997D01*
X155759879Y-110649997D01*
X155759879Y-110650002D01*
X155778281Y-110789791D01*
X155801546Y-110845957D01*
X155832241Y-110920061D01*
X155877069Y-110978481D01*
X155918075Y-111031921D01*
X155918078Y-111031924D01*
X155939191Y-111048124D01*
X156029939Y-111117759D01*
X156064902Y-111132241D01*
X156160208Y-111171718D01*
X156299997Y-111190121D01*
X156300000Y-111190121D01*
X156300003Y-111190121D01*
X156439791Y-111171718D01*
X156439793Y-111171717D01*
X156439794Y-111171717D01*
X156570061Y-111117759D01*
X156604554Y-111091290D01*
X156675811Y-111061775D01*
X156695260Y-111060500D01*
X168204043Y-111060500D01*
X168308447Y-111032525D01*
X168402053Y-110978482D01*
X169278482Y-110102053D01*
X171028482Y-108352053D01*
X171082525Y-108258447D01*
X171110500Y-108154043D01*
X171110500Y-108045956D01*
X171110500Y-105145260D01*
X171130462Y-105070760D01*
X171141291Y-105054554D01*
X171156329Y-105034956D01*
X171167759Y-105020061D01*
X171221717Y-104889794D01*
X171221717Y-104889793D01*
X171221718Y-104889791D01*
X171240121Y-104750002D01*
X171240121Y-104749997D01*
X171221718Y-104610208D01*
X171167760Y-104479940D01*
X171112385Y-104407776D01*
X171081923Y-104368077D01*
X170970061Y-104282241D01*
X170970058Y-104282239D01*
X170970057Y-104282239D01*
X170839791Y-104228281D01*
X170700003Y-104209879D01*
X170699997Y-104209879D01*
X170560208Y-104228281D01*
X170429940Y-104282239D01*
X170429940Y-104282240D01*
X170318079Y-104368075D01*
X170318075Y-104368079D01*
X170232240Y-104479940D01*
X170232239Y-104479940D01*
X170178281Y-104610208D01*
X170159879Y-104749997D01*
X170159879Y-104750002D01*
X170178281Y-104889791D01*
X170232239Y-105020057D01*
X170232240Y-105020060D01*
X170258709Y-105054554D01*
X170288225Y-105125811D01*
X170289500Y-105145260D01*
X170289500Y-107868247D01*
X170269538Y-107942747D01*
X170245859Y-107973606D01*
X168023606Y-110195859D01*
X167956811Y-110234423D01*
X167918247Y-110239500D01*
X165504860Y-110239500D01*
X165430360Y-110219538D01*
X165375822Y-110165000D01*
X165355860Y-110090500D01*
X165375822Y-110016000D01*
X165414155Y-109972290D01*
X165420058Y-109967759D01*
X165420061Y-109967759D01*
X165454555Y-109941289D01*
X165525812Y-109911775D01*
X165545260Y-109910500D01*
X166254043Y-109910500D01*
X166358447Y-109882525D01*
X166452053Y-109828482D01*
X168110778Y-108169755D01*
X168177571Y-108131193D01*
X168196676Y-108127393D01*
X168239794Y-108121717D01*
X168370061Y-108067759D01*
X168481923Y-107981923D01*
X168567759Y-107870061D01*
X168621717Y-107739794D01*
X168621717Y-107739793D01*
X168621718Y-107739791D01*
X168640121Y-107600002D01*
X168640121Y-107599997D01*
X168621718Y-107460208D01*
X168567760Y-107329940D01*
X168521809Y-107270057D01*
X168481923Y-107218077D01*
X168370061Y-107132241D01*
X168370058Y-107132239D01*
X168370057Y-107132239D01*
X168239791Y-107078281D01*
X168100003Y-107059879D01*
X168099997Y-107059879D01*
X167960208Y-107078281D01*
X167829940Y-107132239D01*
X167829940Y-107132240D01*
X167718079Y-107218075D01*
X167718075Y-107218079D01*
X167632240Y-107329940D01*
X167632239Y-107329940D01*
X167578281Y-107460208D01*
X167572607Y-107503312D01*
X167543091Y-107574569D01*
X167530241Y-107589222D01*
X166073606Y-109045859D01*
X166006811Y-109084423D01*
X165968247Y-109089500D01*
X165545260Y-109089500D01*
X165470760Y-109069538D01*
X165454554Y-109058709D01*
X165420060Y-109032240D01*
X165420057Y-109032239D01*
X165289791Y-108978281D01*
X165150003Y-108959879D01*
X165149997Y-108959879D01*
X165010208Y-108978281D01*
X164879940Y-109032239D01*
X164879940Y-109032240D01*
X164768079Y-109118075D01*
X164768075Y-109118079D01*
X164682240Y-109229940D01*
X164682239Y-109229940D01*
X164628281Y-109360208D01*
X164609879Y-109499997D01*
X164609879Y-109500002D01*
X164628281Y-109639791D01*
X164682239Y-109770057D01*
X164682241Y-109770061D01*
X164727069Y-109828481D01*
X164768075Y-109881921D01*
X164768078Y-109881924D01*
X164798517Y-109905280D01*
X164879939Y-109967759D01*
X164879940Y-109967759D01*
X164885846Y-109972291D01*
X164932798Y-110033480D01*
X164942865Y-110109949D01*
X164913349Y-110181206D01*
X164852160Y-110228158D01*
X164795140Y-110239500D01*
X156695260Y-110239500D01*
X156620760Y-110219538D01*
X156604554Y-110208709D01*
X156570060Y-110182240D01*
X156570057Y-110182239D01*
X156439791Y-110128281D01*
X156300003Y-110109879D01*
X156299997Y-110109879D01*
X156160208Y-110128281D01*
X156029940Y-110182239D01*
X156029940Y-110182240D01*
X155918079Y-110268075D01*
X155918075Y-110268079D01*
X155832240Y-110379940D01*
X155832239Y-110379940D01*
X155778281Y-110510208D01*
X155759879Y-110649997D01*
X150810500Y-110649997D01*
X150810500Y-106859500D01*
X150830462Y-106785000D01*
X150885000Y-106730462D01*
X150959500Y-106710500D01*
X152554043Y-106710500D01*
X152658447Y-106682525D01*
X152752053Y-106628482D01*
X156630538Y-102749997D01*
X160959879Y-102749997D01*
X160959879Y-102750002D01*
X160978281Y-102889791D01*
X161032239Y-103020057D01*
X161032241Y-103020061D01*
X161047436Y-103039863D01*
X161118075Y-103131921D01*
X161118078Y-103131924D01*
X161139191Y-103148124D01*
X161229939Y-103217759D01*
X161230707Y-103218077D01*
X161360208Y-103271718D01*
X161499997Y-103290121D01*
X161500000Y-103290121D01*
X161500003Y-103290121D01*
X161639791Y-103271718D01*
X161639793Y-103271717D01*
X161639794Y-103271717D01*
X161770061Y-103217759D01*
X161881923Y-103131923D01*
X161967759Y-103020061D01*
X162021717Y-102889794D01*
X162021717Y-102889793D01*
X162021718Y-102889791D01*
X162040121Y-102750002D01*
X162040121Y-102749997D01*
X162021718Y-102610208D01*
X161967760Y-102479940D01*
X161892791Y-102382241D01*
X161881923Y-102368077D01*
X161770061Y-102282241D01*
X161770058Y-102282239D01*
X161770057Y-102282239D01*
X161639791Y-102228281D01*
X161500003Y-102209879D01*
X161499997Y-102209879D01*
X161360208Y-102228281D01*
X161229940Y-102282239D01*
X161229940Y-102282240D01*
X161118079Y-102368075D01*
X161118075Y-102368079D01*
X161032240Y-102479940D01*
X161032239Y-102479940D01*
X160978281Y-102610208D01*
X160959879Y-102749997D01*
X156630538Y-102749997D01*
X161526394Y-97854141D01*
X161593189Y-97815577D01*
X161631753Y-97810500D01*
X166654043Y-97810500D01*
X166758447Y-97782525D01*
X166852053Y-97728482D01*
X170926394Y-93654141D01*
X170993189Y-93615577D01*
X171031753Y-93610500D01*
X172154740Y-93610500D01*
X172229240Y-93630462D01*
X172245444Y-93641290D01*
X172279939Y-93667759D01*
X172319303Y-93684064D01*
X172410208Y-93721718D01*
X172549997Y-93740121D01*
X172550000Y-93740121D01*
X172550003Y-93740121D01*
X172689791Y-93721718D01*
X172689793Y-93721717D01*
X172689794Y-93721717D01*
X172820061Y-93667759D01*
X172931923Y-93581923D01*
X172931926Y-93581918D01*
X172935141Y-93578705D01*
X172939083Y-93576428D01*
X172939671Y-93575978D01*
X172939730Y-93576055D01*
X173001936Y-93540141D01*
X173079064Y-93540141D01*
X173145859Y-93578705D01*
X173184423Y-93645500D01*
X173189500Y-93684064D01*
X173189500Y-94168247D01*
X173169538Y-94242747D01*
X173145859Y-94273606D01*
X172671516Y-94747949D01*
X170426990Y-96992474D01*
X170371519Y-97047945D01*
X170317476Y-97141551D01*
X170289500Y-97245955D01*
X170289500Y-99668247D01*
X170269538Y-99742747D01*
X170245859Y-99773606D01*
X166286265Y-103733199D01*
X166219470Y-103771763D01*
X166142342Y-103771763D01*
X166075547Y-103733199D01*
X166036983Y-103666404D01*
X166033183Y-103647303D01*
X166021717Y-103560206D01*
X165980296Y-103460206D01*
X165967760Y-103429940D01*
X165922797Y-103371345D01*
X165881923Y-103318077D01*
X165770061Y-103232241D01*
X165770058Y-103232239D01*
X165770057Y-103232239D01*
X165686089Y-103197459D01*
X165639794Y-103178283D01*
X165639793Y-103178282D01*
X165639791Y-103178282D01*
X165596686Y-103172607D01*
X165525429Y-103143092D01*
X165510776Y-103130241D01*
X162952053Y-100571518D01*
X162858447Y-100517475D01*
X162754043Y-100489500D01*
X160195260Y-100489500D01*
X160120760Y-100469538D01*
X160104554Y-100458709D01*
X160070060Y-100432240D01*
X160070057Y-100432239D01*
X159939791Y-100378281D01*
X159800003Y-100359879D01*
X159799997Y-100359879D01*
X159660208Y-100378281D01*
X159529940Y-100432239D01*
X159529940Y-100432240D01*
X159418079Y-100518075D01*
X159418075Y-100518079D01*
X159332240Y-100629940D01*
X159332239Y-100629940D01*
X159278281Y-100760208D01*
X159259879Y-100899997D01*
X159259879Y-100900002D01*
X159278281Y-101039791D01*
X159332239Y-101170057D01*
X159332241Y-101170061D01*
X159418077Y-101281923D01*
X159529939Y-101367759D01*
X159606247Y-101399367D01*
X159660208Y-101421718D01*
X159799997Y-101440121D01*
X159800000Y-101440121D01*
X159800003Y-101440121D01*
X159939791Y-101421718D01*
X159939793Y-101421717D01*
X159939794Y-101421717D01*
X160070061Y-101367759D01*
X160104554Y-101341290D01*
X160175811Y-101311775D01*
X160195260Y-101310500D01*
X162468247Y-101310500D01*
X162542747Y-101330462D01*
X162573606Y-101354141D01*
X164930241Y-103710776D01*
X164968805Y-103777571D01*
X164972607Y-103796686D01*
X164978282Y-103839791D01*
X164978281Y-103839791D01*
X165032239Y-103970057D01*
X165032241Y-103970061D01*
X165085673Y-104039694D01*
X165115283Y-104078283D01*
X165118077Y-104081923D01*
X165229939Y-104167759D01*
X165229945Y-104167761D01*
X165235484Y-104170960D01*
X165290023Y-104225496D01*
X165309987Y-104299996D01*
X165290026Y-104374496D01*
X165235495Y-104429032D01*
X165229943Y-104432237D01*
X165118079Y-104518075D01*
X165118075Y-104518079D01*
X165032240Y-104629940D01*
X165032239Y-104629940D01*
X164978281Y-104760208D01*
X164959879Y-104899997D01*
X164959879Y-104900002D01*
X164978281Y-105039791D01*
X165032239Y-105170057D01*
X165032241Y-105170061D01*
X165055216Y-105200002D01*
X165118075Y-105281921D01*
X165118078Y-105281924D01*
X165139191Y-105298124D01*
X165229939Y-105367759D01*
X165250786Y-105376394D01*
X165360208Y-105421718D01*
X165499997Y-105440121D01*
X165500000Y-105440121D01*
X165500003Y-105440121D01*
X165616833Y-105424740D01*
X165693301Y-105434807D01*
X165754491Y-105481760D01*
X165784006Y-105553017D01*
X165773939Y-105629485D01*
X165741640Y-105677824D01*
X164523606Y-106895859D01*
X164456811Y-106934423D01*
X164418247Y-106939500D01*
X155695260Y-106939500D01*
X155620760Y-106919538D01*
X155604554Y-106908709D01*
X155570060Y-106882240D01*
X155570057Y-106882239D01*
X155439791Y-106828281D01*
X155300003Y-106809879D01*
X155299997Y-106809879D01*
X155160208Y-106828281D01*
X155029940Y-106882239D01*
X155029940Y-106882240D01*
X154918079Y-106968075D01*
X154918075Y-106968079D01*
X154832240Y-107079940D01*
X154832239Y-107079940D01*
X154778281Y-107210208D01*
X154759879Y-107349997D01*
X154759879Y-107350002D01*
X154778281Y-107489791D01*
X154823932Y-107600002D01*
X154832241Y-107620061D01*
X154847381Y-107639791D01*
X154918075Y-107731921D01*
X154918078Y-107731924D01*
X154939191Y-107748124D01*
X155029939Y-107817759D01*
X155106247Y-107849367D01*
X155160208Y-107871718D01*
X155299997Y-107890121D01*
X155300000Y-107890121D01*
X155300003Y-107890121D01*
X155439791Y-107871718D01*
X155439793Y-107871717D01*
X155439794Y-107871717D01*
X155570061Y-107817759D01*
X155604554Y-107791290D01*
X155675811Y-107761775D01*
X155695260Y-107760500D01*
X164704043Y-107760500D01*
X164808447Y-107732525D01*
X164902053Y-107678482D01*
X165972431Y-106608103D01*
X166039225Y-106569540D01*
X166116353Y-106569540D01*
X166183148Y-106608104D01*
X166221712Y-106674899D01*
X166221712Y-106752027D01*
X166215448Y-106770481D01*
X166178576Y-106859500D01*
X166178281Y-106860212D01*
X166159879Y-106999997D01*
X166159879Y-107000002D01*
X166178281Y-107139791D01*
X166232239Y-107270057D01*
X166232241Y-107270061D01*
X166284118Y-107337668D01*
X166307207Y-107367758D01*
X166318077Y-107381923D01*
X166429939Y-107467759D01*
X166443140Y-107473227D01*
X166560208Y-107521718D01*
X166699997Y-107540121D01*
X166700000Y-107540121D01*
X166700003Y-107540121D01*
X166839791Y-107521718D01*
X166839793Y-107521717D01*
X166839794Y-107521717D01*
X166970061Y-107467759D01*
X167081923Y-107381923D01*
X167167759Y-107270061D01*
X167221717Y-107139794D01*
X167221717Y-107139793D01*
X167221718Y-107139791D01*
X167240121Y-107000002D01*
X167240121Y-106999997D01*
X167221718Y-106860208D01*
X167167760Y-106729940D01*
X167124841Y-106674008D01*
X167081923Y-106618077D01*
X166970061Y-106532241D01*
X166970058Y-106532239D01*
X166970057Y-106532239D01*
X166839791Y-106478281D01*
X166700003Y-106459879D01*
X166699997Y-106459879D01*
X166560210Y-106478281D01*
X166470480Y-106515448D01*
X166394012Y-106525514D01*
X166322755Y-106495998D01*
X166275803Y-106434807D01*
X166265737Y-106358339D01*
X166295253Y-106287082D01*
X166308094Y-106272440D01*
X166726393Y-105854140D01*
X166793188Y-105815577D01*
X166831752Y-105810500D01*
X167804043Y-105810500D01*
X167908447Y-105782525D01*
X168002053Y-105728482D01*
X170426394Y-103304141D01*
X170493189Y-103265577D01*
X170531753Y-103260500D01*
X170854740Y-103260500D01*
X170929240Y-103280462D01*
X170945444Y-103291290D01*
X170979939Y-103317759D01*
X170980707Y-103318077D01*
X171110208Y-103371718D01*
X171249997Y-103390121D01*
X171250000Y-103390121D01*
X171312784Y-103381855D01*
X171389251Y-103391921D01*
X171450441Y-103438873D01*
X171479957Y-103510130D01*
X171477336Y-103550230D01*
X171479557Y-103550523D01*
X171459879Y-103699997D01*
X171459879Y-103700002D01*
X171478281Y-103839791D01*
X171532239Y-103970057D01*
X171532241Y-103970061D01*
X171585673Y-104039694D01*
X171615283Y-104078283D01*
X171618077Y-104081923D01*
X171729939Y-104167759D01*
X171737667Y-104170960D01*
X171860208Y-104221718D01*
X171999997Y-104240121D01*
X172000000Y-104240121D01*
X172000003Y-104240121D01*
X172116833Y-104224740D01*
X172193301Y-104234807D01*
X172254491Y-104281760D01*
X172284006Y-104353017D01*
X172273939Y-104429485D01*
X172241640Y-104477824D01*
X171721519Y-104997945D01*
X171667476Y-105091551D01*
X171639500Y-105195955D01*
X171639500Y-108818246D01*
X171619538Y-108892746D01*
X171595859Y-108923605D01*
X169489222Y-111030241D01*
X169422427Y-111068805D01*
X169403312Y-111072607D01*
X169360208Y-111078281D01*
X169229940Y-111132239D01*
X169229940Y-111132240D01*
X169118079Y-111218075D01*
X169118075Y-111218079D01*
X169032240Y-111329940D01*
X169032239Y-111329940D01*
X168978281Y-111460208D01*
X168959879Y-111599997D01*
X168959879Y-111600002D01*
X168978281Y-111739791D01*
X169032239Y-111870057D01*
X169032241Y-111870061D01*
X169118077Y-111981923D01*
X169229939Y-112067759D01*
X169306247Y-112099367D01*
X169360208Y-112121718D01*
X169499997Y-112140121D01*
X169500000Y-112140121D01*
X169500003Y-112140121D01*
X169639791Y-112121718D01*
X169639793Y-112121717D01*
X169639794Y-112121717D01*
X169770061Y-112067759D01*
X169881923Y-111981923D01*
X169967759Y-111870061D01*
X170021717Y-111739794D01*
X170027391Y-111696688D01*
X170056903Y-111625434D01*
X170069749Y-111610784D01*
X172378482Y-109302053D01*
X172432525Y-109208447D01*
X172460501Y-109104043D01*
X172460501Y-108995956D01*
X172460501Y-108986828D01*
X172460500Y-108986810D01*
X172460500Y-105481752D01*
X172480462Y-105407252D01*
X172504141Y-105376394D01*
X172593556Y-105286978D01*
X172602051Y-105278483D01*
X172602053Y-105278482D01*
X172807016Y-105073518D01*
X172873809Y-105034956D01*
X172950937Y-105034956D01*
X173017732Y-105073520D01*
X173056296Y-105140315D01*
X173059570Y-105190234D01*
X173059879Y-105190234D01*
X173059879Y-105194946D01*
X173060100Y-105198316D01*
X173059879Y-105199995D01*
X173059879Y-105200002D01*
X173078281Y-105339791D01*
X173132239Y-105470057D01*
X173132241Y-105470061D01*
X173218077Y-105581923D01*
X173329939Y-105667759D01*
X173406247Y-105699367D01*
X173460208Y-105721718D01*
X173599997Y-105740121D01*
X173600000Y-105740121D01*
X173600003Y-105740121D01*
X173739791Y-105721718D01*
X173739793Y-105721717D01*
X173739794Y-105721717D01*
X173870061Y-105667759D01*
X173981923Y-105581923D01*
X174067759Y-105470061D01*
X174121717Y-105339794D01*
X174138113Y-105215250D01*
X174167626Y-105143999D01*
X174180470Y-105129352D01*
X176888472Y-102421352D01*
X176935933Y-102339148D01*
X176960500Y-102247461D01*
X176960500Y-102152539D01*
X176960500Y-89452539D01*
X176935933Y-89360852D01*
X176923775Y-89339794D01*
X176888476Y-89278654D01*
X176888474Y-89278651D01*
X176888472Y-89278648D01*
X176821352Y-89211528D01*
X169210270Y-81600446D01*
X169171706Y-81533651D01*
X169171706Y-81456523D01*
X169210268Y-81389731D01*
X169639731Y-80960268D01*
X169706523Y-80921706D01*
X169783651Y-80921706D01*
X169850446Y-80960270D01*
X177495859Y-88605683D01*
X177534423Y-88672478D01*
X177539500Y-88711042D01*
X177539500Y-102688957D01*
X177519538Y-102763457D01*
X177495859Y-102794316D01*
X175270653Y-105019521D01*
X175203858Y-105058085D01*
X175184742Y-105061887D01*
X175060208Y-105078281D01*
X174929940Y-105132239D01*
X174929940Y-105132240D01*
X174818079Y-105218075D01*
X174818075Y-105218079D01*
X174732240Y-105329940D01*
X174732239Y-105329940D01*
X174678281Y-105460208D01*
X174659879Y-105599997D01*
X174659879Y-105600002D01*
X174678281Y-105739791D01*
X174732024Y-105869538D01*
X174732241Y-105870061D01*
X174768624Y-105917475D01*
X174810092Y-105971518D01*
X174818077Y-105981923D01*
X174929939Y-106067759D01*
X174929940Y-106067759D01*
X174929942Y-106067761D01*
X175037572Y-106112342D01*
X175098762Y-106159294D01*
X175128278Y-106230551D01*
X175118211Y-106307019D01*
X175071259Y-106368209D01*
X175037572Y-106387658D01*
X174929940Y-106432239D01*
X174929940Y-106432240D01*
X174818079Y-106518075D01*
X174818075Y-106518079D01*
X174732240Y-106629940D01*
X174732239Y-106629940D01*
X174678281Y-106760208D01*
X174659879Y-106899997D01*
X174659879Y-106900002D01*
X174678281Y-107039791D01*
X174723081Y-107147947D01*
X174732241Y-107170061D01*
X174785673Y-107239694D01*
X174808974Y-107270061D01*
X174818077Y-107281923D01*
X174929939Y-107367759D01*
X174964134Y-107381923D01*
X175060208Y-107421718D01*
X175199997Y-107440121D01*
X175200000Y-107440121D01*
X175200003Y-107440121D01*
X175339791Y-107421718D01*
X175339793Y-107421717D01*
X175339794Y-107421717D01*
X175470061Y-107367759D01*
X175470805Y-107367187D01*
X175471672Y-107366828D01*
X175478516Y-107362877D01*
X175479035Y-107363777D01*
X175542056Y-107337668D01*
X175618525Y-107347730D01*
X175679719Y-107394678D01*
X175709240Y-107465932D01*
X175709242Y-107490234D01*
X175709879Y-107490234D01*
X175709879Y-107500002D01*
X175728281Y-107639791D01*
X175782239Y-107770057D01*
X175782241Y-107770061D01*
X175835673Y-107839694D01*
X175860245Y-107871717D01*
X175868077Y-107881923D01*
X175896559Y-107903778D01*
X175943511Y-107964967D01*
X175953578Y-108041435D01*
X175924063Y-108112692D01*
X175862873Y-108159645D01*
X175825302Y-108169712D01*
X175760208Y-108178281D01*
X175629940Y-108232239D01*
X175629940Y-108232240D01*
X175518079Y-108318075D01*
X175518075Y-108318079D01*
X175432240Y-108429940D01*
X175432239Y-108429940D01*
X175378281Y-108560208D01*
X175359879Y-108699997D01*
X175359879Y-108700002D01*
X175378281Y-108839791D01*
X175432239Y-108970057D01*
X175432241Y-108970061D01*
X175479953Y-109032239D01*
X175508573Y-109069538D01*
X175518077Y-109081923D01*
X175629939Y-109167759D01*
X175706247Y-109199367D01*
X175760208Y-109221718D01*
X175899997Y-109240121D01*
X175900000Y-109240121D01*
X175900003Y-109240121D01*
X176039791Y-109221718D01*
X176039793Y-109221717D01*
X176039794Y-109221717D01*
X176170061Y-109167759D01*
X176281923Y-109081923D01*
X176367759Y-108970061D01*
X176421717Y-108839794D01*
X176421717Y-108839793D01*
X176421718Y-108839791D01*
X176440121Y-108700002D01*
X176440121Y-108699997D01*
X176421718Y-108560208D01*
X176367760Y-108429940D01*
X176324841Y-108374008D01*
X176281923Y-108318077D01*
X176253440Y-108296221D01*
X176206488Y-108235032D01*
X176196421Y-108158564D01*
X176225936Y-108087307D01*
X176287126Y-108040354D01*
X176324699Y-108030287D01*
X176389790Y-108021718D01*
X176389791Y-108021718D01*
X176389793Y-108021717D01*
X176389794Y-108021717D01*
X176520061Y-107967759D01*
X176631923Y-107881923D01*
X176717759Y-107770061D01*
X176771717Y-107639794D01*
X176788113Y-107515250D01*
X176817626Y-107443999D01*
X176830470Y-107429352D01*
X180888472Y-103371352D01*
X180935933Y-103289148D01*
X180960500Y-103197461D01*
X180960500Y-103102539D01*
X180960500Y-87052539D01*
X180935933Y-86960852D01*
X180935931Y-86960848D01*
X180888476Y-86878654D01*
X180888474Y-86878651D01*
X180888472Y-86878648D01*
X180821352Y-86811528D01*
X172410270Y-78400446D01*
X172371706Y-78333651D01*
X172371706Y-78256523D01*
X172410268Y-78189730D01*
X172839730Y-77760268D01*
X172906523Y-77721706D01*
X172983651Y-77721706D01*
X173050446Y-77760270D01*
X181595859Y-86305683D01*
X181634423Y-86372478D01*
X181639500Y-86411042D01*
X181639500Y-104388957D01*
X181619538Y-104463457D01*
X181595859Y-104494316D01*
X176970653Y-109119521D01*
X176903858Y-109158085D01*
X176884742Y-109161887D01*
X176760208Y-109178281D01*
X176629940Y-109232239D01*
X176629940Y-109232240D01*
X176518079Y-109318075D01*
X176518075Y-109318079D01*
X176432240Y-109429940D01*
X176432239Y-109429940D01*
X176378281Y-109560208D01*
X176359879Y-109699997D01*
X176359879Y-109700002D01*
X176378281Y-109839791D01*
X176431287Y-109967759D01*
X176432241Y-109970061D01*
X176467492Y-110016000D01*
X176518075Y-110081921D01*
X176518078Y-110081924D01*
X176539191Y-110098124D01*
X176629939Y-110167759D01*
X176664902Y-110182241D01*
X176760208Y-110221718D01*
X176899997Y-110240121D01*
X176900000Y-110240121D01*
X176900003Y-110240121D01*
X177039791Y-110221718D01*
X177039793Y-110221717D01*
X177039794Y-110221717D01*
X177170061Y-110167759D01*
X177281923Y-110081923D01*
X177367759Y-109970061D01*
X177421717Y-109839794D01*
X177438113Y-109715250D01*
X177467626Y-109643999D01*
X177480470Y-109629352D01*
X182288472Y-104821352D01*
X182335933Y-104739148D01*
X182360500Y-104647461D01*
X182360500Y-104552539D01*
X182360500Y-100000000D01*
X184747829Y-100000000D01*
X184766483Y-100237027D01*
X184766484Y-100237032D01*
X184821987Y-100468216D01*
X184912968Y-100687863D01*
X184912971Y-100687869D01*
X185037199Y-100890593D01*
X185045235Y-100900002D01*
X185191612Y-101071388D01*
X185307139Y-101170057D01*
X185372406Y-101225800D01*
X185436452Y-101265047D01*
X185575127Y-101350027D01*
X185575132Y-101350029D01*
X185575136Y-101350031D01*
X185794783Y-101441012D01*
X185794784Y-101441012D01*
X185794786Y-101441013D01*
X186025975Y-101496517D01*
X186263000Y-101515171D01*
X186500025Y-101496517D01*
X186731214Y-101441013D01*
X186950873Y-101350027D01*
X187153595Y-101225799D01*
X187334388Y-101071388D01*
X187488799Y-100890595D01*
X187613027Y-100687873D01*
X187704013Y-100468214D01*
X187759517Y-100237025D01*
X187778171Y-100000000D01*
X187759517Y-99762975D01*
X187704013Y-99531786D01*
X187613027Y-99312127D01*
X187488799Y-99109405D01*
X187334388Y-98928612D01*
X187153595Y-98774201D01*
X187153596Y-98774201D01*
X187153593Y-98774199D01*
X187025500Y-98695705D01*
X186950873Y-98649973D01*
X186950870Y-98649972D01*
X186950869Y-98649971D01*
X186950863Y-98649968D01*
X186731216Y-98558987D01*
X186500032Y-98503484D01*
X186500027Y-98503483D01*
X186263000Y-98484829D01*
X186025972Y-98503483D01*
X186025967Y-98503484D01*
X185794783Y-98558987D01*
X185575136Y-98649968D01*
X185575130Y-98649971D01*
X185372406Y-98774199D01*
X185191612Y-98928612D01*
X185037199Y-99109406D01*
X184912971Y-99312130D01*
X184912968Y-99312136D01*
X184821987Y-99531783D01*
X184766484Y-99762967D01*
X184766483Y-99762972D01*
X184747829Y-100000000D01*
X182360500Y-100000000D01*
X182360500Y-86152539D01*
X182335933Y-86060852D01*
X182306862Y-86010500D01*
X182288476Y-85978654D01*
X182288474Y-85978651D01*
X182288472Y-85978648D01*
X182221352Y-85911528D01*
X173560270Y-77250446D01*
X173521706Y-77183651D01*
X173521706Y-77106523D01*
X173560268Y-77039730D01*
X174838782Y-75761217D01*
X174905572Y-75722656D01*
X174982700Y-75722656D01*
X175001151Y-75728919D01*
X175172786Y-75800013D01*
X175403975Y-75855517D01*
X175641000Y-75874171D01*
X175878025Y-75855517D01*
X176109214Y-75800013D01*
X176328873Y-75709027D01*
X176531595Y-75584799D01*
X176712388Y-75430388D01*
X176866799Y-75249595D01*
X176991027Y-75046873D01*
X177082013Y-74827214D01*
X177137517Y-74596025D01*
X177156171Y-74359000D01*
X177137517Y-74121975D01*
X177082013Y-73890786D01*
X177010920Y-73719154D01*
X177000854Y-73642688D01*
X177030369Y-73571431D01*
X177043205Y-73556793D01*
X177129596Y-73470402D01*
X177196387Y-73431841D01*
X177273515Y-73431841D01*
X177340310Y-73470405D01*
G37*
G04 #@! TD.AperFunction*
G04 #@! TA.AperFunction,Conductor*
G36*
X166642747Y-85830462D02*
G01*
X166673606Y-85854141D01*
X173145859Y-92326393D01*
X173184423Y-92393188D01*
X173189500Y-92431752D01*
X173189500Y-92715936D01*
X173169538Y-92790436D01*
X173115000Y-92844974D01*
X173040500Y-92864936D01*
X172966000Y-92844974D01*
X172935141Y-92821295D01*
X172931921Y-92818075D01*
X172854554Y-92758709D01*
X172820061Y-92732241D01*
X172820058Y-92732239D01*
X172820057Y-92732239D01*
X172689791Y-92678281D01*
X172550003Y-92659879D01*
X172549997Y-92659879D01*
X172410208Y-92678281D01*
X172279940Y-92732239D01*
X172279940Y-92732240D01*
X172245446Y-92758709D01*
X172174190Y-92788225D01*
X172154740Y-92789500D01*
X170854043Y-92789500D01*
X170745957Y-92789500D01*
X170641553Y-92817475D01*
X170641551Y-92817475D01*
X170641551Y-92817476D01*
X170547946Y-92871518D01*
X166473606Y-96945859D01*
X166406811Y-96984423D01*
X166368247Y-96989500D01*
X161454044Y-96989500D01*
X161345957Y-96989500D01*
X161241553Y-97017475D01*
X161241551Y-97017475D01*
X161241551Y-97017476D01*
X161147946Y-97071518D01*
X152954359Y-105265106D01*
X152887564Y-105303670D01*
X152810436Y-105303670D01*
X152743641Y-105265106D01*
X152705077Y-105198311D01*
X152700000Y-105159747D01*
X152700000Y-102875373D01*
X152719962Y-102800873D01*
X152774500Y-102746335D01*
X152829549Y-102727648D01*
X152889794Y-102719717D01*
X153020061Y-102665759D01*
X153119715Y-102589290D01*
X153190970Y-102559775D01*
X153210420Y-102558500D01*
X153249459Y-102558500D01*
X153249461Y-102558500D01*
X153341148Y-102533933D01*
X153423352Y-102486472D01*
X153788472Y-102121352D01*
X153938472Y-101971352D01*
X153985933Y-101889148D01*
X154010500Y-101797461D01*
X154010500Y-101702539D01*
X154010500Y-98199997D01*
X158109879Y-98199997D01*
X158109879Y-98200002D01*
X158128281Y-98339791D01*
X158182239Y-98470057D01*
X158182241Y-98470061D01*
X158268077Y-98581923D01*
X158379939Y-98667759D01*
X158456247Y-98699367D01*
X158510208Y-98721718D01*
X158649997Y-98740121D01*
X158650000Y-98740121D01*
X158650003Y-98740121D01*
X158789791Y-98721718D01*
X158789793Y-98721717D01*
X158789794Y-98721717D01*
X158920061Y-98667759D01*
X159031923Y-98581923D01*
X159117759Y-98470061D01*
X159171717Y-98339794D01*
X159171717Y-98339793D01*
X159171718Y-98339791D01*
X159190121Y-98200002D01*
X159190121Y-98199997D01*
X159171718Y-98060208D01*
X159117760Y-97929940D01*
X159041290Y-97830283D01*
X159011775Y-97759026D01*
X159010500Y-97739578D01*
X159010500Y-96761041D01*
X159030462Y-96686541D01*
X159054137Y-96655686D01*
X160251722Y-95458101D01*
X160318515Y-95419539D01*
X160395643Y-95419539D01*
X160462438Y-95458103D01*
X160501002Y-95524898D01*
X160501002Y-95602026D01*
X160494738Y-95620480D01*
X160478281Y-95660210D01*
X160459879Y-95799997D01*
X160459879Y-95800002D01*
X160478281Y-95939791D01*
X160532239Y-96070057D01*
X160532241Y-96070061D01*
X160577069Y-96128481D01*
X160618075Y-96181921D01*
X160618078Y-96181924D01*
X160639191Y-96198124D01*
X160729939Y-96267759D01*
X160767659Y-96283383D01*
X160860208Y-96321718D01*
X160999997Y-96340121D01*
X161000000Y-96340121D01*
X161000003Y-96340121D01*
X161139791Y-96321718D01*
X161139793Y-96321717D01*
X161139794Y-96321717D01*
X161270061Y-96267759D01*
X161304554Y-96241290D01*
X161375811Y-96211775D01*
X161395260Y-96210500D01*
X163454043Y-96210500D01*
X163558447Y-96182525D01*
X163652053Y-96128482D01*
X165139785Y-94640747D01*
X165139790Y-94640744D01*
X165152051Y-94628482D01*
X165152053Y-94628482D01*
X165228482Y-94552053D01*
X165282525Y-94458447D01*
X165310500Y-94354043D01*
X165310500Y-91495957D01*
X165282525Y-91391553D01*
X165228482Y-91297947D01*
X165152053Y-91221518D01*
X165152051Y-91221516D01*
X164954141Y-91023606D01*
X164915577Y-90956811D01*
X164910500Y-90918247D01*
X164910500Y-89595260D01*
X164930462Y-89520760D01*
X164941291Y-89504554D01*
X164951468Y-89491291D01*
X164967759Y-89470061D01*
X165021717Y-89339794D01*
X165021717Y-89339793D01*
X165021718Y-89339791D01*
X165040121Y-89200002D01*
X165040121Y-89199997D01*
X165021718Y-89060208D01*
X164967760Y-88929940D01*
X164918053Y-88865162D01*
X164881923Y-88818077D01*
X164770061Y-88732241D01*
X164770058Y-88732239D01*
X164770057Y-88732239D01*
X164639791Y-88678281D01*
X164500003Y-88659879D01*
X164499997Y-88659879D01*
X164360208Y-88678281D01*
X164229940Y-88732239D01*
X164229940Y-88732240D01*
X164118079Y-88818075D01*
X164118075Y-88818079D01*
X164032240Y-88929940D01*
X164032239Y-88929940D01*
X163978281Y-89060208D01*
X163959879Y-89199997D01*
X163959879Y-89200002D01*
X163978281Y-89339791D01*
X164032239Y-89470057D01*
X164032240Y-89470060D01*
X164058709Y-89504554D01*
X164088225Y-89575811D01*
X164089500Y-89595260D01*
X164089500Y-91095957D01*
X164089500Y-91204043D01*
X164117475Y-91308447D01*
X164171518Y-91402053D01*
X164445859Y-91676393D01*
X164484423Y-91743188D01*
X164489500Y-91781752D01*
X164489500Y-94068247D01*
X164469538Y-94142747D01*
X164445859Y-94173606D01*
X163273606Y-95345859D01*
X163206811Y-95384423D01*
X163168247Y-95389500D01*
X161395260Y-95389500D01*
X161320760Y-95369538D01*
X161304554Y-95358709D01*
X161270060Y-95332240D01*
X161270057Y-95332239D01*
X161139791Y-95278281D01*
X161000003Y-95259879D01*
X160999997Y-95259879D01*
X160860210Y-95278281D01*
X160820480Y-95294738D01*
X160744012Y-95304804D01*
X160672755Y-95275288D01*
X160625803Y-95214097D01*
X160615737Y-95137629D01*
X160645253Y-95066372D01*
X160658095Y-95051728D01*
X163288472Y-92421352D01*
X163335933Y-92339148D01*
X163360500Y-92247461D01*
X163360500Y-92152539D01*
X163360500Y-89660420D01*
X163380462Y-89585920D01*
X163391291Y-89569714D01*
X163467759Y-89470061D01*
X163521717Y-89339794D01*
X163521717Y-89339793D01*
X163521718Y-89339791D01*
X163540121Y-89200002D01*
X163540121Y-89199997D01*
X163521718Y-89060208D01*
X163467760Y-88929940D01*
X163418053Y-88865162D01*
X163381923Y-88818077D01*
X163270061Y-88732241D01*
X163270058Y-88732239D01*
X163270057Y-88732239D01*
X163139791Y-88678281D01*
X163000003Y-88659879D01*
X162999997Y-88659879D01*
X162860208Y-88678281D01*
X162729940Y-88732239D01*
X162729940Y-88732240D01*
X162618079Y-88818075D01*
X162618075Y-88818079D01*
X162532240Y-88929940D01*
X162532239Y-88929940D01*
X162478281Y-89060208D01*
X162459879Y-89199997D01*
X162459879Y-89200002D01*
X162478281Y-89339791D01*
X162532239Y-89470057D01*
X162532240Y-89470060D01*
X162532241Y-89470061D01*
X162607209Y-89567760D01*
X162608709Y-89569714D01*
X162638225Y-89640970D01*
X162639500Y-89660420D01*
X162639500Y-91988958D01*
X162619538Y-92063458D01*
X162595859Y-92094317D01*
X158361527Y-96328649D01*
X158361523Y-96328654D01*
X158314068Y-96410848D01*
X158289500Y-96502536D01*
X158289500Y-97739578D01*
X158269538Y-97814078D01*
X158258710Y-97830283D01*
X158182239Y-97929940D01*
X158128281Y-98060208D01*
X158109879Y-98199997D01*
X154010500Y-98199997D01*
X154010500Y-95261042D01*
X154030462Y-95186542D01*
X154054141Y-95155683D01*
X154405683Y-94804141D01*
X154472478Y-94765577D01*
X154511042Y-94760500D01*
X158389580Y-94760500D01*
X158464080Y-94780462D01*
X158480281Y-94791288D01*
X158579939Y-94867759D01*
X158656247Y-94899367D01*
X158710208Y-94921718D01*
X158849997Y-94940121D01*
X158850000Y-94940121D01*
X158850003Y-94940121D01*
X158989791Y-94921718D01*
X158989793Y-94921717D01*
X158989794Y-94921717D01*
X159120061Y-94867759D01*
X159231923Y-94781923D01*
X159317759Y-94670061D01*
X159371717Y-94539794D01*
X159371717Y-94539793D01*
X159371718Y-94539791D01*
X159390121Y-94400002D01*
X159390121Y-94399997D01*
X159371718Y-94260208D01*
X159317760Y-94129940D01*
X159267213Y-94064068D01*
X159231923Y-94018077D01*
X159120061Y-93932241D01*
X159120058Y-93932239D01*
X159120057Y-93932239D01*
X158989791Y-93878281D01*
X158850003Y-93859879D01*
X158849997Y-93859879D01*
X158710208Y-93878281D01*
X158579940Y-93932239D01*
X158579940Y-93932240D01*
X158480285Y-94008709D01*
X158409028Y-94038225D01*
X158389579Y-94039500D01*
X154252536Y-94039500D01*
X154160848Y-94064068D01*
X154078654Y-94111523D01*
X154078650Y-94111526D01*
X153361527Y-94828649D01*
X153361523Y-94828654D01*
X153314068Y-94910848D01*
X153289500Y-95002536D01*
X153289500Y-101538957D01*
X153269538Y-101613457D01*
X153245859Y-101644316D01*
X153189365Y-101700810D01*
X153122570Y-101739374D01*
X153045442Y-101739374D01*
X153026987Y-101733109D01*
X152920996Y-101689207D01*
X152889794Y-101676283D01*
X152889793Y-101676282D01*
X152889791Y-101676282D01*
X152829551Y-101668351D01*
X152758294Y-101638835D01*
X152711342Y-101577645D01*
X152700000Y-101520626D01*
X152700000Y-92949000D01*
X152719962Y-92874500D01*
X152774500Y-92819962D01*
X152849000Y-92800000D01*
X157799999Y-92800000D01*
X157800000Y-92800000D01*
X158000003Y-92599997D01*
X159459879Y-92599997D01*
X159459879Y-92600002D01*
X159478281Y-92739791D01*
X159530118Y-92864936D01*
X159532241Y-92870061D01*
X159618077Y-92981923D01*
X159729939Y-93067759D01*
X159806247Y-93099367D01*
X159860208Y-93121718D01*
X159999997Y-93140121D01*
X160000000Y-93140121D01*
X160000003Y-93140121D01*
X160139791Y-93121718D01*
X160139793Y-93121717D01*
X160139794Y-93121717D01*
X160270061Y-93067759D01*
X160381923Y-92981923D01*
X160467759Y-92870061D01*
X160521717Y-92739794D01*
X160521717Y-92739793D01*
X160521718Y-92739791D01*
X160540121Y-92600002D01*
X160540121Y-92599997D01*
X160521718Y-92460208D01*
X160467760Y-92329940D01*
X160424841Y-92274008D01*
X160381923Y-92218077D01*
X160270061Y-92132241D01*
X160270058Y-92132239D01*
X160270057Y-92132239D01*
X160139791Y-92078281D01*
X160000003Y-92059879D01*
X159999997Y-92059879D01*
X159860208Y-92078281D01*
X159729940Y-92132239D01*
X159729940Y-92132240D01*
X159618079Y-92218075D01*
X159618075Y-92218079D01*
X159532240Y-92329940D01*
X159532239Y-92329940D01*
X159478281Y-92460208D01*
X159459879Y-92599997D01*
X158000003Y-92599997D01*
X160969100Y-89630899D01*
X161035891Y-89592338D01*
X161113019Y-89592338D01*
X161165159Y-89618051D01*
X161229939Y-89667759D01*
X161241332Y-89672478D01*
X161360208Y-89721718D01*
X161499997Y-89740121D01*
X161500000Y-89740121D01*
X161500003Y-89740121D01*
X161639791Y-89721718D01*
X161639793Y-89721717D01*
X161639794Y-89721717D01*
X161770061Y-89667759D01*
X161881923Y-89581923D01*
X161967759Y-89470061D01*
X162021717Y-89339794D01*
X162021717Y-89339793D01*
X162021718Y-89339791D01*
X162040121Y-89200002D01*
X162040121Y-89199997D01*
X162021718Y-89060208D01*
X161967760Y-88929942D01*
X161967759Y-88929941D01*
X161967759Y-88929940D01*
X161918051Y-88865159D01*
X161888536Y-88793905D01*
X161898602Y-88717436D01*
X161930898Y-88669101D01*
X164745859Y-85854141D01*
X164812654Y-85815577D01*
X164851218Y-85810500D01*
X166568247Y-85810500D01*
X166642747Y-85830462D01*
G37*
G04 #@! TD.AperFunction*
G04 #@! TA.AperFunction,Conductor*
G36*
X175115001Y-95626996D02*
G01*
X175169538Y-95681534D01*
X175189500Y-95756033D01*
X175189500Y-101468247D01*
X175169538Y-101542747D01*
X175145859Y-101573606D01*
X172777824Y-103941640D01*
X172711029Y-103980204D01*
X172633901Y-103980204D01*
X172567106Y-103941640D01*
X172528542Y-103874845D01*
X172524740Y-103816834D01*
X172537933Y-103716617D01*
X172538112Y-103715254D01*
X172567626Y-103643999D01*
X172580470Y-103629352D01*
X173088472Y-103121352D01*
X173135933Y-103039148D01*
X173160500Y-102947461D01*
X173160500Y-102852539D01*
X173160500Y-97511041D01*
X173180462Y-97436541D01*
X173204137Y-97405686D01*
X174888472Y-95721352D01*
X174889815Y-95719025D01*
X174911463Y-95681532D01*
X174966001Y-95626995D01*
X175040501Y-95607033D01*
X175115001Y-95626996D01*
G37*
G04 #@! TD.AperFunction*
G04 #@! TA.AperFunction,Conductor*
G36*
X150618954Y-61905560D02*
G01*
X151848240Y-61945387D01*
X151852145Y-61945577D01*
X153079540Y-62025193D01*
X153083477Y-62025513D01*
X154307603Y-62144828D01*
X154311535Y-62145275D01*
X155531144Y-62304166D01*
X155535098Y-62304746D01*
X156748949Y-62503051D01*
X156752843Y-62503752D01*
X157959602Y-62741253D01*
X157963495Y-62742085D01*
X159161926Y-63018538D01*
X159165823Y-63019503D01*
X160354677Y-63334620D01*
X160358500Y-63335700D01*
X161536556Y-63689156D01*
X161540290Y-63690343D01*
X162706306Y-64081769D01*
X162710005Y-64083077D01*
X163862742Y-64512061D01*
X163866448Y-64513509D01*
X165004643Y-64979575D01*
X165008287Y-64981137D01*
X166130759Y-65483800D01*
X166134387Y-65485495D01*
X167240030Y-66024260D01*
X167243557Y-66026050D01*
X168331225Y-66600363D01*
X168334644Y-66602240D01*
X169403113Y-67211455D01*
X169406546Y-67213487D01*
X170454713Y-67856973D01*
X170458021Y-67859079D01*
X171484834Y-68536189D01*
X171488081Y-68538406D01*
X172492417Y-69248404D01*
X172495622Y-69250749D01*
X173414651Y-69946143D01*
X173476396Y-69992863D01*
X173479547Y-69995329D01*
X173824588Y-70274429D01*
X174435773Y-70768811D01*
X174438854Y-70771387D01*
X175369512Y-71575411D01*
X175372508Y-71578085D01*
X176276669Y-72411848D01*
X176279576Y-72414618D01*
X176999493Y-73122970D01*
X177033474Y-73184020D01*
X177029054Y-73253749D01*
X176988016Y-73309730D01*
X176977220Y-73318014D01*
X176977210Y-73318023D01*
X176935814Y-73359419D01*
X176874491Y-73392904D01*
X176804799Y-73387918D01*
X176756904Y-73355720D01*
X176660744Y-73251262D01*
X176464509Y-73098526D01*
X176464507Y-73098525D01*
X176464506Y-73098524D01*
X176245811Y-72980172D01*
X176245802Y-72980169D01*
X176010616Y-72899429D01*
X175765335Y-72858500D01*
X175516665Y-72858500D01*
X175271383Y-72899429D01*
X175036197Y-72980169D01*
X175036188Y-72980172D01*
X174817493Y-73098524D01*
X174621257Y-73251261D01*
X174452833Y-73434217D01*
X174316826Y-73642393D01*
X174216936Y-73870118D01*
X174155892Y-74111175D01*
X174155890Y-74111187D01*
X174135357Y-74358994D01*
X174135357Y-74359005D01*
X174155890Y-74606812D01*
X174155892Y-74606824D01*
X174216936Y-74847881D01*
X174316826Y-75075606D01*
X174452833Y-75283782D01*
X174452836Y-75283785D01*
X174621256Y-75466738D01*
X174626985Y-75471197D01*
X174667798Y-75527907D01*
X174671472Y-75597680D01*
X174638503Y-75656731D01*
X173407891Y-76887342D01*
X173407886Y-76887348D01*
X173396333Y-76902404D01*
X173339903Y-76943605D01*
X173270157Y-76947758D01*
X173210278Y-76914596D01*
X170215213Y-73919531D01*
X170215208Y-73919527D01*
X170135289Y-73873386D01*
X170130826Y-73872190D01*
X170123095Y-73870119D01*
X170123094Y-73870118D01*
X170066762Y-73855024D01*
X170046144Y-73849500D01*
X170046143Y-73849500D01*
X157496543Y-73849500D01*
X157429504Y-73829815D01*
X157408862Y-73813181D01*
X153386819Y-69791137D01*
X153353334Y-69729814D01*
X153350500Y-69703456D01*
X153350500Y-69503999D01*
X155544422Y-69503999D01*
X155544422Y-69504000D01*
X155564722Y-69891339D01*
X155580994Y-69994074D01*
X155625398Y-70274433D01*
X155693307Y-70527875D01*
X155725788Y-70649094D01*
X155864787Y-71011197D01*
X156040877Y-71356793D01*
X156252122Y-71682082D01*
X156290775Y-71729814D01*
X156496219Y-71983516D01*
X156770484Y-72257781D01*
X156770488Y-72257784D01*
X157071917Y-72501877D01*
X157382322Y-72703456D01*
X157397211Y-72713125D01*
X157742806Y-72889214D01*
X158104913Y-73028214D01*
X158479567Y-73128602D01*
X158862662Y-73189278D01*
X159228576Y-73208455D01*
X159249999Y-73209578D01*
X159250000Y-73209578D01*
X159250001Y-73209578D01*
X159270301Y-73208514D01*
X159637338Y-73189278D01*
X160020433Y-73128602D01*
X160395087Y-73028214D01*
X160757194Y-72889214D01*
X161102789Y-72713125D01*
X161428084Y-72501876D01*
X161729516Y-72257781D01*
X162003781Y-71983516D01*
X162247876Y-71682084D01*
X162459125Y-71356789D01*
X162635214Y-71011194D01*
X162774214Y-70649087D01*
X162874602Y-70274433D01*
X162935278Y-69891338D01*
X162955578Y-69504000D01*
X162935278Y-69116662D01*
X162874602Y-68733567D01*
X162774214Y-68358913D01*
X162635214Y-67996806D01*
X162459125Y-67651211D01*
X162400804Y-67561404D01*
X162247877Y-67325917D01*
X162139737Y-67192375D01*
X162003781Y-67024484D01*
X161729516Y-66750219D01*
X161428084Y-66506124D01*
X161428082Y-66506122D01*
X161102793Y-66294877D01*
X160757197Y-66118787D01*
X160395094Y-65979788D01*
X160395087Y-65979786D01*
X160020433Y-65879398D01*
X160020429Y-65879397D01*
X160020428Y-65879397D01*
X159637339Y-65818722D01*
X159250001Y-65798422D01*
X159249999Y-65798422D01*
X158862660Y-65818722D01*
X158479572Y-65879397D01*
X158479570Y-65879397D01*
X158104905Y-65979788D01*
X157742802Y-66118787D01*
X157397206Y-66294877D01*
X157071917Y-66506122D01*
X156770488Y-66750215D01*
X156770480Y-66750222D01*
X156496222Y-67024480D01*
X156496215Y-67024488D01*
X156252122Y-67325917D01*
X156040877Y-67651206D01*
X155864787Y-67996802D01*
X155725788Y-68358905D01*
X155625397Y-68733570D01*
X155625397Y-68733572D01*
X155564722Y-69116660D01*
X155544422Y-69503999D01*
X153350500Y-69503999D01*
X153350500Y-67948540D01*
X153370185Y-67881501D01*
X153376125Y-67873053D01*
X153459023Y-67765019D01*
X153459022Y-67765019D01*
X153459024Y-67765018D01*
X153511974Y-67637183D01*
X153530035Y-67500000D01*
X153511974Y-67362817D01*
X153459024Y-67234983D01*
X153374791Y-67125209D01*
X153374789Y-67125208D01*
X153374789Y-67125207D01*
X153265015Y-67040974D01*
X153137186Y-66988027D01*
X153137184Y-66988026D01*
X153137183Y-66988026D01*
X153045727Y-66975985D01*
X153000001Y-66969965D01*
X152999999Y-66969965D01*
X152931408Y-66978995D01*
X152862817Y-66988026D01*
X152862816Y-66988026D01*
X152862813Y-66988027D01*
X152734985Y-67040974D01*
X152625209Y-67125209D01*
X152540974Y-67234985D01*
X152488027Y-67362813D01*
X152488026Y-67362818D01*
X152469965Y-67499999D01*
X152469965Y-67500000D01*
X152488026Y-67637181D01*
X152488027Y-67637186D01*
X152540975Y-67765016D01*
X152540976Y-67765019D01*
X152623875Y-67873053D01*
X152649070Y-67938222D01*
X152649500Y-67948540D01*
X152649500Y-69946143D01*
X152662342Y-69994073D01*
X152673385Y-70035285D01*
X152673387Y-70035290D01*
X152719527Y-70115208D01*
X152719529Y-70115211D01*
X152719530Y-70115212D01*
X157019531Y-74415212D01*
X157084788Y-74480469D01*
X157084791Y-74480470D01*
X157084794Y-74480473D01*
X157164706Y-74526611D01*
X157164707Y-74526611D01*
X157164712Y-74526614D01*
X157253856Y-74550500D01*
X169803456Y-74550500D01*
X169870495Y-74570185D01*
X169891137Y-74586819D01*
X172714596Y-77410278D01*
X172748081Y-77471601D01*
X172743097Y-77541293D01*
X172702404Y-77596333D01*
X172687343Y-77607889D01*
X172257889Y-78037343D01*
X172246333Y-78052404D01*
X172189904Y-78093605D01*
X172120158Y-78097758D01*
X172060278Y-78064596D01*
X169515213Y-75519531D01*
X169515208Y-75519527D01*
X169435290Y-75473387D01*
X169435289Y-75473386D01*
X169435288Y-75473386D01*
X169346144Y-75449500D01*
X169346143Y-75449500D01*
X156796544Y-75449500D01*
X156729505Y-75429815D01*
X156708863Y-75413181D01*
X151886819Y-70591137D01*
X151853334Y-70529814D01*
X151850500Y-70503456D01*
X151850500Y-67948540D01*
X151870185Y-67881501D01*
X151876125Y-67873053D01*
X151959023Y-67765019D01*
X151959022Y-67765019D01*
X151959024Y-67765018D01*
X152011974Y-67637183D01*
X152030035Y-67500000D01*
X152011974Y-67362817D01*
X151959024Y-67234983D01*
X151874791Y-67125209D01*
X151874789Y-67125208D01*
X151874789Y-67125207D01*
X151765015Y-67040974D01*
X151637186Y-66988027D01*
X151637184Y-66988026D01*
X151637183Y-66988026D01*
X151545727Y-66975985D01*
X151500001Y-66969965D01*
X151499999Y-66969965D01*
X151431408Y-66978995D01*
X151362817Y-66988026D01*
X151362816Y-66988026D01*
X151362813Y-66988027D01*
X151234985Y-67040974D01*
X151125209Y-67125209D01*
X151040974Y-67234985D01*
X150988027Y-67362813D01*
X150988026Y-67362818D01*
X150969965Y-67499999D01*
X150969965Y-67500000D01*
X150988026Y-67637181D01*
X150988027Y-67637186D01*
X151040975Y-67765016D01*
X151040976Y-67765019D01*
X151123875Y-67873053D01*
X151149070Y-67938222D01*
X151149500Y-67948540D01*
X151149500Y-70746146D01*
X151157578Y-70776291D01*
X151157578Y-70776293D01*
X151157579Y-70776293D01*
X151173387Y-70835290D01*
X151219527Y-70915208D01*
X151219529Y-70915211D01*
X151219530Y-70915212D01*
X156384788Y-76080470D01*
X156464712Y-76126614D01*
X156553856Y-76150500D01*
X169103456Y-76150500D01*
X169170495Y-76170185D01*
X169191137Y-76186819D01*
X171564596Y-78560278D01*
X171598081Y-78621601D01*
X171593097Y-78691293D01*
X171552403Y-78746334D01*
X171537346Y-78757887D01*
X171207887Y-79087346D01*
X171196334Y-79102403D01*
X171139905Y-79143605D01*
X171070159Y-79147759D01*
X171010278Y-79114596D01*
X169015213Y-77119531D01*
X169015208Y-77119527D01*
X168935290Y-77073387D01*
X168935289Y-77073386D01*
X168935288Y-77073386D01*
X168846144Y-77049500D01*
X168846143Y-77049500D01*
X155696544Y-77049500D01*
X155629505Y-77029815D01*
X155608863Y-77013181D01*
X150386819Y-71791137D01*
X150353334Y-71729814D01*
X150350500Y-71703456D01*
X150350500Y-67948540D01*
X150370185Y-67881501D01*
X150376125Y-67873053D01*
X150459023Y-67765019D01*
X150459022Y-67765019D01*
X150459024Y-67765018D01*
X150511974Y-67637183D01*
X150530035Y-67500000D01*
X150511974Y-67362817D01*
X150459024Y-67234983D01*
X150374791Y-67125209D01*
X150374789Y-67125208D01*
X150374789Y-67125207D01*
X150265015Y-67040974D01*
X150137186Y-66988027D01*
X150137184Y-66988026D01*
X150137183Y-66988026D01*
X150045727Y-66975985D01*
X150000001Y-66969965D01*
X149999999Y-66969965D01*
X149931408Y-66978995D01*
X149862817Y-66988026D01*
X149862816Y-66988026D01*
X149862813Y-66988027D01*
X149734985Y-67040974D01*
X149625209Y-67125209D01*
X149540974Y-67234985D01*
X149488027Y-67362813D01*
X149488026Y-67362818D01*
X149469965Y-67499999D01*
X149469965Y-67500000D01*
X149488026Y-67637181D01*
X149488027Y-67637186D01*
X149540975Y-67765016D01*
X149540976Y-67765019D01*
X149623875Y-67873053D01*
X149649070Y-67938222D01*
X149649500Y-67948540D01*
X149649500Y-71946144D01*
X149659514Y-71983516D01*
X149673386Y-72035289D01*
X149673387Y-72035290D01*
X149719527Y-72115208D01*
X149719529Y-72115211D01*
X149719530Y-72115212D01*
X155284788Y-77680470D01*
X155364712Y-77726614D01*
X155453856Y-77750500D01*
X155453857Y-77750500D01*
X155546144Y-77750500D01*
X168603456Y-77750500D01*
X168670495Y-77770185D01*
X168691137Y-77786819D01*
X170514596Y-79610278D01*
X170548081Y-79671601D01*
X170543097Y-79741293D01*
X170502403Y-79796334D01*
X170487346Y-79807887D01*
X170207887Y-80087346D01*
X170196334Y-80102403D01*
X170139905Y-80143605D01*
X170070159Y-80147759D01*
X170010278Y-80114596D01*
X168715213Y-78819531D01*
X168715208Y-78819527D01*
X168635290Y-78773387D01*
X168635289Y-78773386D01*
X168635288Y-78773386D01*
X168546144Y-78749500D01*
X168546143Y-78749500D01*
X154896544Y-78749500D01*
X154829505Y-78729815D01*
X154808863Y-78713181D01*
X148886819Y-72791137D01*
X148853334Y-72729814D01*
X148850500Y-72703456D01*
X148850500Y-67948540D01*
X148870185Y-67881501D01*
X148876125Y-67873053D01*
X148959023Y-67765019D01*
X148959022Y-67765019D01*
X148959024Y-67765018D01*
X149011974Y-67637183D01*
X149030035Y-67500000D01*
X149011974Y-67362817D01*
X148959024Y-67234983D01*
X148874791Y-67125209D01*
X148874789Y-67125208D01*
X148874789Y-67125207D01*
X148765015Y-67040974D01*
X148637186Y-66988027D01*
X148637184Y-66988026D01*
X148637183Y-66988026D01*
X148545727Y-66975985D01*
X148500001Y-66969965D01*
X148499999Y-66969965D01*
X148431408Y-66978995D01*
X148362817Y-66988026D01*
X148362816Y-66988026D01*
X148362813Y-66988027D01*
X148234985Y-67040974D01*
X148125209Y-67125209D01*
X148040974Y-67234985D01*
X147988027Y-67362813D01*
X147988026Y-67362818D01*
X147969965Y-67499999D01*
X147969965Y-67500000D01*
X147988026Y-67637181D01*
X147988027Y-67637186D01*
X148040975Y-67765016D01*
X148040976Y-67765019D01*
X148123875Y-67873053D01*
X148149070Y-67938222D01*
X148149500Y-67948540D01*
X148149500Y-72946144D01*
X148158618Y-72980172D01*
X148173386Y-73035289D01*
X148173387Y-73035290D01*
X148219527Y-73115208D01*
X148219529Y-73115211D01*
X148219530Y-73115212D01*
X154484788Y-79380470D01*
X154564712Y-79426614D01*
X154653856Y-79450500D01*
X168303456Y-79450500D01*
X168370495Y-79470185D01*
X168391137Y-79486819D01*
X169514596Y-80610278D01*
X169548081Y-80671601D01*
X169543097Y-80741293D01*
X169502403Y-80796334D01*
X169487346Y-80807887D01*
X169057887Y-81237346D01*
X169046334Y-81252403D01*
X168989905Y-81293605D01*
X168920159Y-81297759D01*
X168860278Y-81264596D01*
X168215213Y-80619531D01*
X168215208Y-80619527D01*
X168135290Y-80573387D01*
X168135289Y-80573386D01*
X168135288Y-80573386D01*
X168046144Y-80549500D01*
X168046143Y-80549500D01*
X154296543Y-80549500D01*
X154229504Y-80529815D01*
X154208862Y-80513181D01*
X147386819Y-73691137D01*
X147353334Y-73629814D01*
X147350500Y-73603456D01*
X147350500Y-67948540D01*
X147370185Y-67881501D01*
X147376125Y-67873053D01*
X147459023Y-67765019D01*
X147459022Y-67765019D01*
X147459024Y-67765018D01*
X147511974Y-67637183D01*
X147530035Y-67500000D01*
X147511974Y-67362817D01*
X147459024Y-67234983D01*
X147374791Y-67125209D01*
X147374789Y-67125208D01*
X147374789Y-67125207D01*
X147265015Y-67040974D01*
X147137186Y-66988027D01*
X147137184Y-66988026D01*
X147137183Y-66988026D01*
X147045727Y-66975985D01*
X147000001Y-66969965D01*
X146999999Y-66969965D01*
X146931408Y-66978995D01*
X146862817Y-66988026D01*
X146862816Y-66988026D01*
X146862813Y-66988027D01*
X146734985Y-67040974D01*
X146625209Y-67125209D01*
X146540974Y-67234985D01*
X146488027Y-67362813D01*
X146488026Y-67362818D01*
X146469965Y-67499999D01*
X146469965Y-67500000D01*
X146488026Y-67637181D01*
X146488027Y-67637186D01*
X146540975Y-67765016D01*
X146540976Y-67765019D01*
X146623875Y-67873053D01*
X146649070Y-67938222D01*
X146649500Y-67948540D01*
X146649500Y-73846144D01*
X146656800Y-73873386D01*
X146669164Y-73919531D01*
X146669164Y-73919532D01*
X146673385Y-73935286D01*
X146719527Y-74015208D01*
X146719529Y-74015211D01*
X146719530Y-74015212D01*
X153819531Y-81115212D01*
X153884788Y-81180469D01*
X153884791Y-81180470D01*
X153884794Y-81180473D01*
X153964706Y-81226611D01*
X153964707Y-81226611D01*
X153964712Y-81226614D01*
X154053856Y-81250500D01*
X167803456Y-81250500D01*
X167870495Y-81270185D01*
X167891137Y-81286819D01*
X168364596Y-81760278D01*
X168398081Y-81821601D01*
X168393097Y-81891293D01*
X168352403Y-81946334D01*
X168337346Y-81957887D01*
X168337345Y-81957888D01*
X166495236Y-83799999D01*
X165712483Y-84582752D01*
X165693885Y-84603960D01*
X165670213Y-84634810D01*
X165670210Y-84634815D01*
X165633025Y-84710220D01*
X165633022Y-84710226D01*
X165613062Y-84784720D01*
X165613061Y-84784725D01*
X165608371Y-84806784D01*
X165608371Y-84806787D01*
X165611632Y-84869011D01*
X165595483Y-84936989D01*
X165545146Y-84985444D01*
X165487802Y-84999500D01*
X163306580Y-84999500D01*
X163239541Y-84979815D01*
X163231093Y-84973876D01*
X163228283Y-84971720D01*
X163228282Y-84971718D01*
X163102841Y-84875464D01*
X162956762Y-84814956D01*
X162956760Y-84814955D01*
X162800001Y-84794318D01*
X162799999Y-84794318D01*
X162643239Y-84814955D01*
X162643237Y-84814956D01*
X162497160Y-84875463D01*
X162371718Y-84971718D01*
X162275463Y-85097160D01*
X162214956Y-85243237D01*
X162214955Y-85243239D01*
X162194318Y-85399998D01*
X162194318Y-85400001D01*
X162214955Y-85556760D01*
X162214956Y-85556762D01*
X162275464Y-85702841D01*
X162371718Y-85828282D01*
X162497159Y-85924536D01*
X162643238Y-85985044D01*
X162721619Y-85995363D01*
X162799999Y-86005682D01*
X162800000Y-86005682D01*
X162800001Y-86005682D01*
X162852254Y-85998802D01*
X162956762Y-85985044D01*
X163102841Y-85924536D01*
X163228282Y-85828282D01*
X163228283Y-85828279D01*
X163231093Y-85826124D01*
X163296263Y-85800930D01*
X163306580Y-85800500D01*
X164195375Y-85800500D01*
X164262414Y-85820185D01*
X164308169Y-85872989D01*
X164318113Y-85942147D01*
X164289088Y-86005703D01*
X164283056Y-86012181D01*
X161778516Y-88516718D01*
X161751725Y-88549364D01*
X161751716Y-88549376D01*
X161736283Y-88572474D01*
X161719420Y-88597712D01*
X161719403Y-88597738D01*
X161719392Y-88597755D01*
X161714855Y-88604841D01*
X161684945Y-88689310D01*
X161684944Y-88689314D01*
X161674878Y-88765785D01*
X161674877Y-88765790D01*
X161673110Y-88788261D01*
X161673110Y-88788269D01*
X161689440Y-88876371D01*
X161689443Y-88876383D01*
X161718951Y-88947617D01*
X161718956Y-88947629D01*
X161747083Y-88996347D01*
X161769584Y-89025672D01*
X161785769Y-89053704D01*
X161805518Y-89101384D01*
X161813895Y-89132649D01*
X161820631Y-89183813D01*
X161820631Y-89216183D01*
X161813896Y-89267346D01*
X161805517Y-89298617D01*
X161785766Y-89346298D01*
X161769582Y-89374329D01*
X161738164Y-89415274D01*
X161715274Y-89438164D01*
X161674329Y-89469582D01*
X161646298Y-89485766D01*
X161598617Y-89505517D01*
X161567346Y-89513896D01*
X161516183Y-89520631D01*
X161483813Y-89520631D01*
X161432650Y-89513895D01*
X161401385Y-89505518D01*
X161371902Y-89493306D01*
X161353699Y-89485766D01*
X161325668Y-89469582D01*
X161296348Y-89447084D01*
X161260473Y-89424776D01*
X161260469Y-89424774D01*
X161260464Y-89424771D01*
X161208348Y-89399070D01*
X161200672Y-89395469D01*
X161200661Y-89395466D01*
X161113020Y-89376838D01*
X161113019Y-89376838D01*
X161035891Y-89376838D01*
X161035888Y-89376838D01*
X161013367Y-89378017D01*
X160928139Y-89405710D01*
X160861351Y-89444269D01*
X160816715Y-89478520D01*
X160816710Y-89478524D01*
X157747055Y-92548181D01*
X157685732Y-92581666D01*
X157659374Y-92584500D01*
X152848992Y-92584500D01*
X152795915Y-92591488D01*
X152793225Y-92591843D01*
X152793216Y-92591845D01*
X152793213Y-92591846D01*
X152762785Y-92599998D01*
X152762786Y-92599999D01*
X152718746Y-92611799D01*
X152718718Y-92611807D01*
X152697274Y-92618774D01*
X152697272Y-92618774D01*
X152697272Y-92618775D01*
X152657243Y-92644770D01*
X152622115Y-92667582D01*
X152567573Y-92722125D01*
X152552486Y-92738883D01*
X152511805Y-92818724D01*
X152491844Y-92893222D01*
X152491842Y-92893233D01*
X152484500Y-92948992D01*
X152484500Y-101520621D01*
X152488641Y-101562669D01*
X152488644Y-101562686D01*
X152499975Y-101619652D01*
X152503319Y-101634889D01*
X152500336Y-101635543D01*
X152502383Y-101692141D01*
X152466758Y-101752246D01*
X152457708Y-101759904D01*
X152375211Y-101823206D01*
X152290974Y-101932985D01*
X152238027Y-102060813D01*
X152238026Y-102060818D01*
X152219965Y-102197999D01*
X152219965Y-102198000D01*
X152238026Y-102335181D01*
X152238027Y-102335186D01*
X152290974Y-102463015D01*
X152290975Y-102463017D01*
X152290976Y-102463018D01*
X152375209Y-102572791D01*
X152461074Y-102638678D01*
X152502275Y-102695105D01*
X152506430Y-102764851D01*
X152505361Y-102769144D01*
X152492446Y-102817346D01*
X152491843Y-102819598D01*
X152491842Y-102819606D01*
X152484500Y-102875365D01*
X152484500Y-105160500D01*
X152464815Y-105227539D01*
X152412011Y-105273294D01*
X152360500Y-105284500D01*
X146248992Y-105284500D01*
X146195915Y-105291488D01*
X146193225Y-105291843D01*
X146193218Y-105291844D01*
X146193217Y-105291845D01*
X146118755Y-105311796D01*
X146118718Y-105311807D01*
X146097274Y-105318774D01*
X146022115Y-105367582D01*
X145967573Y-105422125D01*
X145952486Y-105438883D01*
X145911805Y-105518724D01*
X145891844Y-105593222D01*
X145891842Y-105593233D01*
X145884500Y-105648992D01*
X145884500Y-105740507D01*
X145890615Y-105786948D01*
X145891843Y-105796275D01*
X145891845Y-105796282D01*
X145911796Y-105870744D01*
X145911803Y-105870767D01*
X145911805Y-105870775D01*
X145918775Y-105892228D01*
X145947460Y-105936399D01*
X145951730Y-105942975D01*
X145971733Y-106009920D01*
X145952367Y-106077052D01*
X145935415Y-106098190D01*
X144879522Y-107154084D01*
X144879520Y-107154087D01*
X144826793Y-107245411D01*
X144801373Y-107340283D01*
X144801336Y-107340421D01*
X144801136Y-107341164D01*
X144779775Y-107384418D01*
X144740975Y-107434983D01*
X144688027Y-107562813D01*
X144688026Y-107562818D01*
X144669965Y-107699999D01*
X144669965Y-107700000D01*
X144688026Y-107837181D01*
X144688027Y-107837186D01*
X144740974Y-107965015D01*
X144740975Y-107965017D01*
X144740976Y-107965018D01*
X144825209Y-108074791D01*
X144934982Y-108159024D01*
X145062817Y-108211974D01*
X145185702Y-108228152D01*
X145199999Y-108230035D01*
X145200000Y-108230035D01*
X145200001Y-108230035D01*
X145212947Y-108228330D01*
X145337183Y-108211974D01*
X145465018Y-108159024D01*
X145574791Y-108074791D01*
X145659024Y-107965018D01*
X145659024Y-107965015D01*
X145662124Y-107960977D01*
X145718552Y-107919775D01*
X145788299Y-107915620D01*
X145849219Y-107949833D01*
X145881971Y-108011550D01*
X145884500Y-108036464D01*
X145884500Y-112351007D01*
X145890615Y-112397448D01*
X145891843Y-112406775D01*
X145891845Y-112406782D01*
X145911796Y-112481244D01*
X145911803Y-112481267D01*
X145911805Y-112481275D01*
X145918775Y-112502728D01*
X145967580Y-112577882D01*
X146022118Y-112632420D01*
X146038882Y-112647513D01*
X146118725Y-112688195D01*
X146193225Y-112708157D01*
X146249000Y-112715500D01*
X146249007Y-112715500D01*
X151059738Y-112715500D01*
X151059747Y-112715500D01*
X151087875Y-112713656D01*
X151126439Y-112708579D01*
X151206061Y-112681552D01*
X151272856Y-112642988D01*
X151291774Y-112630702D01*
X151333465Y-112584398D01*
X151392949Y-112547750D01*
X151462807Y-112549079D01*
X151513296Y-112579689D01*
X154175179Y-115241571D01*
X154175189Y-115241582D01*
X154179519Y-115245912D01*
X154179520Y-115245913D01*
X154254087Y-115320480D01*
X154331229Y-115365018D01*
X154345413Y-115373207D01*
X154447273Y-115400501D01*
X154447275Y-115400501D01*
X154560323Y-115400501D01*
X154560339Y-115400500D01*
X154764038Y-115400500D01*
X154831077Y-115420185D01*
X154876832Y-115472989D01*
X154886977Y-115540686D01*
X154884500Y-115559492D01*
X154884500Y-118182980D01*
X154884961Y-118197058D01*
X154886236Y-118216511D01*
X154902179Y-118284885D01*
X154931695Y-118356142D01*
X154931705Y-118356163D01*
X154931710Y-118356174D01*
X154941405Y-118376500D01*
X154999602Y-118444640D01*
X154999607Y-118444645D01*
X155051155Y-118484198D01*
X155092358Y-118540625D01*
X155096513Y-118610371D01*
X155063351Y-118670254D01*
X154970427Y-118763180D01*
X154909104Y-118796666D01*
X154882745Y-118799500D01*
X139283379Y-118799500D01*
X139216340Y-118779815D01*
X139207906Y-118773885D01*
X139165018Y-118740976D01*
X139165017Y-118740975D01*
X139165015Y-118740974D01*
X139037186Y-118688027D01*
X139037184Y-118688026D01*
X139037183Y-118688026D01*
X138945727Y-118675985D01*
X138900001Y-118669965D01*
X138899999Y-118669965D01*
X138831408Y-118678995D01*
X138762817Y-118688026D01*
X138762816Y-118688026D01*
X138762813Y-118688027D01*
X138634985Y-118740974D01*
X138525209Y-118825209D01*
X138440974Y-118934985D01*
X138388027Y-119062813D01*
X138388026Y-119062818D01*
X138369965Y-119199999D01*
X138369965Y-119200000D01*
X138388026Y-119337181D01*
X138388027Y-119337186D01*
X138440974Y-119465015D01*
X138440975Y-119465017D01*
X138440976Y-119465018D01*
X138525209Y-119574791D01*
X138634982Y-119659024D01*
X138762817Y-119711974D01*
X138885702Y-119728152D01*
X138899999Y-119730035D01*
X138900000Y-119730035D01*
X138900001Y-119730035D01*
X138912947Y-119728330D01*
X139037183Y-119711974D01*
X139165018Y-119659024D01*
X139207893Y-119626124D01*
X139273060Y-119600930D01*
X139283379Y-119600500D01*
X154761380Y-119600500D01*
X154828419Y-119620185D01*
X154874174Y-119672989D01*
X154883493Y-119735176D01*
X154884766Y-119735260D01*
X154884500Y-119739318D01*
X154884500Y-125282980D01*
X154884961Y-125297058D01*
X154886236Y-125316511D01*
X154902179Y-125384885D01*
X154931695Y-125456142D01*
X154931705Y-125456163D01*
X154931710Y-125456174D01*
X154941405Y-125476500D01*
X154999602Y-125544640D01*
X154999607Y-125544645D01*
X155051155Y-125584198D01*
X155092358Y-125640625D01*
X155096513Y-125710371D01*
X155063351Y-125770254D01*
X154970427Y-125863180D01*
X154909104Y-125896666D01*
X154882745Y-125899500D01*
X139283379Y-125899500D01*
X139216340Y-125879815D01*
X139207906Y-125873885D01*
X139165018Y-125840976D01*
X139165017Y-125840975D01*
X139165015Y-125840974D01*
X139037186Y-125788027D01*
X139037184Y-125788026D01*
X139037183Y-125788026D01*
X138945727Y-125775985D01*
X138900001Y-125769965D01*
X138899999Y-125769965D01*
X138831408Y-125778995D01*
X138762817Y-125788026D01*
X138762816Y-125788026D01*
X138762813Y-125788027D01*
X138634985Y-125840974D01*
X138525209Y-125925209D01*
X138440974Y-126034985D01*
X138388027Y-126162813D01*
X138388026Y-126162818D01*
X138369965Y-126299999D01*
X138369965Y-126300000D01*
X138388026Y-126437181D01*
X138388027Y-126437186D01*
X138440974Y-126565015D01*
X138440975Y-126565017D01*
X138440976Y-126565018D01*
X138525209Y-126674791D01*
X138634982Y-126759024D01*
X138762817Y-126811974D01*
X138885702Y-126828152D01*
X138899999Y-126830035D01*
X138900000Y-126830035D01*
X138900001Y-126830035D01*
X138912947Y-126828330D01*
X139037183Y-126811974D01*
X139165018Y-126759024D01*
X139207893Y-126726124D01*
X139273060Y-126700930D01*
X139283379Y-126700500D01*
X154761380Y-126700500D01*
X154828419Y-126720185D01*
X154874174Y-126772989D01*
X154883493Y-126835176D01*
X154884766Y-126835260D01*
X154884500Y-126839318D01*
X154884500Y-137582332D01*
X154884951Y-137596279D01*
X154886200Y-137615532D01*
X154886201Y-137615538D01*
X154892278Y-137641717D01*
X154888261Y-137711471D01*
X154847169Y-137767980D01*
X154787508Y-137792714D01*
X154311563Y-137854720D01*
X154307573Y-137855174D01*
X153083510Y-137974483D01*
X153079508Y-137974808D01*
X151852198Y-138054419D01*
X151848186Y-138054614D01*
X150618954Y-138094440D01*
X150614939Y-138094505D01*
X149385061Y-138094505D01*
X149381046Y-138094440D01*
X148151813Y-138054614D01*
X148147801Y-138054419D01*
X146920491Y-137974808D01*
X146916489Y-137974483D01*
X145692425Y-137855174D01*
X145688435Y-137854720D01*
X144468865Y-137695834D01*
X144464891Y-137695251D01*
X143251079Y-137496953D01*
X143247127Y-137496241D01*
X142040414Y-137258749D01*
X142036487Y-137257910D01*
X140838073Y-136981461D01*
X140834175Y-136980495D01*
X139645343Y-136665385D01*
X139641478Y-136664293D01*
X138801447Y-136412255D01*
X138463482Y-136310854D01*
X138459663Y-136309641D01*
X138320739Y-136263005D01*
X138320706Y-136262994D01*
X148494357Y-136262994D01*
X148494357Y-136263005D01*
X148514890Y-136510812D01*
X148514892Y-136510824D01*
X148575936Y-136751881D01*
X148675826Y-136979606D01*
X148811833Y-137187782D01*
X148811836Y-137187785D01*
X148980256Y-137370738D01*
X149176491Y-137523474D01*
X149395190Y-137641828D01*
X149630386Y-137722571D01*
X149875665Y-137763500D01*
X150124335Y-137763500D01*
X150369614Y-137722571D01*
X150604810Y-137641828D01*
X150823509Y-137523474D01*
X151019744Y-137370738D01*
X151188164Y-137187785D01*
X151324173Y-136979607D01*
X151424063Y-136751881D01*
X151485108Y-136510821D01*
X151500600Y-136323863D01*
X151505643Y-136263005D01*
X151505643Y-136262994D01*
X151485109Y-136015187D01*
X151485107Y-136015175D01*
X151424063Y-135774118D01*
X151324173Y-135546393D01*
X151188166Y-135338217D01*
X151166557Y-135314744D01*
X151019744Y-135155262D01*
X150823509Y-135002526D01*
X150823507Y-135002525D01*
X150823506Y-135002524D01*
X150604811Y-134884172D01*
X150604802Y-134884169D01*
X150369616Y-134803429D01*
X150124335Y-134762500D01*
X149875665Y-134762500D01*
X149630383Y-134803429D01*
X149395197Y-134884169D01*
X149395188Y-134884172D01*
X149176493Y-135002524D01*
X148980257Y-135155261D01*
X148811833Y-135338217D01*
X148675826Y-135546393D01*
X148575936Y-135774118D01*
X148514892Y-136015175D01*
X148514890Y-136015187D01*
X148494357Y-136262994D01*
X138320706Y-136262994D01*
X137293729Y-135918242D01*
X137289951Y-135916906D01*
X136137275Y-135487945D01*
X136133534Y-135486483D01*
X134995380Y-135020434D01*
X134991689Y-135018852D01*
X133869240Y-134516199D01*
X133865602Y-134514499D01*
X132759996Y-133975752D01*
X132756415Y-133973935D01*
X132284592Y-133724802D01*
X131668795Y-133399647D01*
X131665333Y-133397747D01*
X130596905Y-132788555D01*
X130593453Y-132786512D01*
X130026736Y-132438596D01*
X129545302Y-132143036D01*
X129541962Y-132140910D01*
X128515178Y-131463819D01*
X128511905Y-131461584D01*
X127507593Y-130751603D01*
X127504359Y-130749237D01*
X126523603Y-130007136D01*
X126520440Y-130004661D01*
X125564226Y-129231188D01*
X125561145Y-129228612D01*
X124630487Y-128424588D01*
X124627491Y-128421914D01*
X123723330Y-127588151D01*
X123720423Y-127585381D01*
X123269295Y-127141500D01*
X122843775Y-126722816D01*
X122840966Y-126719962D01*
X122830559Y-126709037D01*
X121992658Y-125829407D01*
X121989960Y-125826481D01*
X121824391Y-125640994D01*
X122853357Y-125640994D01*
X122853357Y-125641005D01*
X122873890Y-125888812D01*
X122873892Y-125888824D01*
X122934936Y-126129881D01*
X123034826Y-126357606D01*
X123170833Y-126565782D01*
X123170836Y-126565785D01*
X123339256Y-126748738D01*
X123535491Y-126901474D01*
X123754190Y-127019828D01*
X123989386Y-127100571D01*
X124234665Y-127141500D01*
X124483335Y-127141500D01*
X124728614Y-127100571D01*
X124963810Y-127019828D01*
X125182509Y-126901474D01*
X125378744Y-126748738D01*
X125547164Y-126565785D01*
X125683173Y-126357607D01*
X125783063Y-126129881D01*
X125844108Y-125888821D01*
X125844109Y-125888812D01*
X125864643Y-125641005D01*
X125864643Y-125640994D01*
X125844109Y-125393187D01*
X125844107Y-125393175D01*
X125783063Y-125152118D01*
X125683173Y-124924393D01*
X125547166Y-124716217D01*
X125525557Y-124692744D01*
X125378744Y-124533262D01*
X125182509Y-124380526D01*
X125182507Y-124380525D01*
X125182506Y-124380524D01*
X124963811Y-124262172D01*
X124963802Y-124262169D01*
X124728616Y-124181429D01*
X124483335Y-124140500D01*
X124234665Y-124140500D01*
X123989383Y-124181429D01*
X123754197Y-124262169D01*
X123754188Y-124262172D01*
X123535493Y-124380524D01*
X123339257Y-124533261D01*
X123170833Y-124716217D01*
X123034826Y-124924393D01*
X122934936Y-125152118D01*
X122873892Y-125393175D01*
X122873890Y-125393187D01*
X122853357Y-125640994D01*
X121824391Y-125640994D01*
X121170933Y-124908923D01*
X121168369Y-124905955D01*
X120379459Y-123962325D01*
X120376934Y-123959202D01*
X119619083Y-122990634D01*
X119616659Y-122987432D01*
X118890518Y-121994762D01*
X118888200Y-121991483D01*
X118194569Y-120975796D01*
X118192392Y-120972494D01*
X117532040Y-119934919D01*
X117529976Y-119931559D01*
X116903535Y-118873088D01*
X116901546Y-118869599D01*
X116309750Y-117791472D01*
X116307875Y-117787921D01*
X115818069Y-116822762D01*
X115751285Y-116691165D01*
X115749536Y-116687575D01*
X115737292Y-116661380D01*
X115228762Y-115573390D01*
X115227121Y-115569725D01*
X115154606Y-115400501D01*
X114742690Y-114439238D01*
X114741195Y-114435587D01*
X114293619Y-113289990D01*
X114292239Y-113286283D01*
X113881972Y-112126730D01*
X113880729Y-112123027D01*
X113508237Y-110950833D01*
X113507102Y-110947049D01*
X113172774Y-109763447D01*
X113171746Y-109759566D01*
X112875924Y-108565773D01*
X112875022Y-108561860D01*
X112800256Y-108211973D01*
X112618023Y-107359163D01*
X112617249Y-107355229D01*
X112597478Y-107245412D01*
X112399313Y-106144744D01*
X112398677Y-106140844D01*
X112220057Y-104923963D01*
X112219547Y-104920048D01*
X112080424Y-103698004D01*
X112080040Y-103694068D01*
X111980560Y-102468144D01*
X111980305Y-102464204D01*
X111920577Y-101235711D01*
X111920448Y-101231724D01*
X111915477Y-100924782D01*
X111900532Y-100001975D01*
X111900532Y-99999994D01*
X112231357Y-99999994D01*
X112231357Y-100000005D01*
X112251890Y-100247812D01*
X112251892Y-100247824D01*
X112312936Y-100488881D01*
X112412826Y-100716606D01*
X112548833Y-100924782D01*
X112548836Y-100924785D01*
X112717256Y-101107738D01*
X112913491Y-101260474D01*
X113132190Y-101378828D01*
X113367386Y-101459571D01*
X113612665Y-101500500D01*
X113861335Y-101500500D01*
X114106614Y-101459571D01*
X114341810Y-101378828D01*
X114560509Y-101260474D01*
X114756744Y-101107738D01*
X114925164Y-100924785D01*
X115061173Y-100716607D01*
X115161063Y-100488881D01*
X115222108Y-100247821D01*
X115242643Y-100000000D01*
X115222108Y-99752179D01*
X115161063Y-99511119D01*
X115061173Y-99283393D01*
X114925166Y-99075217D01*
X114903557Y-99051744D01*
X114756744Y-98892262D01*
X114560509Y-98739526D01*
X114560507Y-98739525D01*
X114560506Y-98739524D01*
X114341811Y-98621172D01*
X114341802Y-98621169D01*
X114106616Y-98540429D01*
X113861335Y-98499500D01*
X113612665Y-98499500D01*
X113367383Y-98540429D01*
X113132197Y-98621169D01*
X113132188Y-98621172D01*
X112913493Y-98739524D01*
X112717257Y-98892261D01*
X112548833Y-99075217D01*
X112412826Y-99283393D01*
X112312936Y-99511118D01*
X112251892Y-99752175D01*
X112251890Y-99752187D01*
X112231357Y-99999994D01*
X111900532Y-99999994D01*
X111900532Y-99998024D01*
X111920448Y-98768246D01*
X111920578Y-98764261D01*
X111927535Y-98621169D01*
X111980305Y-97535791D01*
X111980560Y-97531859D01*
X112080040Y-96305925D01*
X112080423Y-96302001D01*
X112219548Y-95079943D01*
X112220056Y-95076044D01*
X112398678Y-93859145D01*
X112399312Y-93855265D01*
X112617252Y-92644752D01*
X112618025Y-92640830D01*
X112624227Y-92611807D01*
X112875028Y-91438110D01*
X112875917Y-91434255D01*
X113171750Y-90240416D01*
X113172775Y-90236551D01*
X113188133Y-90182180D01*
X113507107Y-89052933D01*
X113508232Y-89049183D01*
X113880735Y-87876953D01*
X113881965Y-87873288D01*
X114292246Y-86713696D01*
X114293611Y-86710030D01*
X114741204Y-85564390D01*
X114742681Y-85560782D01*
X115227130Y-84430253D01*
X115228762Y-84426609D01*
X115749557Y-83312380D01*
X115751273Y-83308858D01*
X116307890Y-82212048D01*
X116309734Y-82208557D01*
X116901560Y-81130375D01*
X116903520Y-81126936D01*
X117529992Y-80068413D01*
X117532022Y-80065108D01*
X118192410Y-79027476D01*
X118194550Y-79024230D01*
X118888221Y-78008485D01*
X118890495Y-78005268D01*
X119616682Y-77012536D01*
X119619058Y-77009397D01*
X120376956Y-76040768D01*
X120379436Y-76037702D01*
X121168395Y-75094014D01*
X121170906Y-75091107D01*
X121824401Y-74358994D01*
X122852357Y-74358994D01*
X122852357Y-74359005D01*
X122872890Y-74606812D01*
X122872892Y-74606824D01*
X122933936Y-74847881D01*
X123033826Y-75075606D01*
X123169833Y-75283782D01*
X123169836Y-75283785D01*
X123338256Y-75466738D01*
X123534491Y-75619474D01*
X123753190Y-75737828D01*
X123988386Y-75818571D01*
X124233665Y-75859500D01*
X124482335Y-75859500D01*
X124727614Y-75818571D01*
X124962810Y-75737828D01*
X125181509Y-75619474D01*
X125377744Y-75466738D01*
X125546164Y-75283785D01*
X125682173Y-75075607D01*
X125782063Y-74847881D01*
X125843108Y-74606821D01*
X125843109Y-74606812D01*
X125863643Y-74359005D01*
X125863643Y-74358994D01*
X125843109Y-74111187D01*
X125843107Y-74111175D01*
X125782063Y-73870118D01*
X125682173Y-73642393D01*
X125546166Y-73434217D01*
X125524557Y-73410744D01*
X125377744Y-73251262D01*
X125181509Y-73098526D01*
X125181507Y-73098525D01*
X125181506Y-73098524D01*
X124962811Y-72980172D01*
X124962802Y-72980169D01*
X124727616Y-72899429D01*
X124482335Y-72858500D01*
X124233665Y-72858500D01*
X123988383Y-72899429D01*
X123753197Y-72980169D01*
X123753188Y-72980172D01*
X123534493Y-73098524D01*
X123338257Y-73251261D01*
X123169833Y-73434217D01*
X123033826Y-73642393D01*
X122933936Y-73870118D01*
X122872892Y-74111175D01*
X122872890Y-74111187D01*
X122852357Y-74358994D01*
X121824401Y-74358994D01*
X121989988Y-74173486D01*
X121992632Y-74170619D01*
X122841003Y-73279998D01*
X122843744Y-73277213D01*
X123720447Y-72414594D01*
X123723305Y-72411871D01*
X124627504Y-71578073D01*
X124630487Y-71575411D01*
X125561172Y-70771364D01*
X125564198Y-70768833D01*
X126520481Y-69995305D01*
X126523560Y-69992896D01*
X127504406Y-69250727D01*
X127507552Y-69248425D01*
X128511947Y-68538386D01*
X128515135Y-68536208D01*
X129542005Y-67859060D01*
X129545258Y-67856991D01*
X130593475Y-67213473D01*
X130596859Y-67211470D01*
X131665381Y-66602225D01*
X131668748Y-66600377D01*
X132756466Y-66026037D01*
X132759944Y-66024273D01*
X133865636Y-65485484D01*
X133869205Y-65483816D01*
X134991734Y-64981127D01*
X134995334Y-64979584D01*
X136133572Y-64513500D01*
X136137236Y-64512069D01*
X137290013Y-64083070D01*
X137293673Y-64081776D01*
X138320741Y-63736994D01*
X148494357Y-63736994D01*
X148494357Y-63737005D01*
X148514890Y-63984812D01*
X148514892Y-63984824D01*
X148575936Y-64225881D01*
X148675826Y-64453606D01*
X148811833Y-64661782D01*
X148811836Y-64661785D01*
X148980256Y-64844738D01*
X149176491Y-64997474D01*
X149395190Y-65115828D01*
X149630386Y-65196571D01*
X149875665Y-65237500D01*
X150124335Y-65237500D01*
X150369614Y-65196571D01*
X150604810Y-65115828D01*
X150823509Y-64997474D01*
X151019744Y-64844738D01*
X151188164Y-64661785D01*
X151324173Y-64453607D01*
X151424063Y-64225881D01*
X151485108Y-63984821D01*
X151505643Y-63737000D01*
X151501778Y-63690358D01*
X151485109Y-63489187D01*
X151485107Y-63489175D01*
X151424063Y-63248118D01*
X151324173Y-63020393D01*
X151188166Y-62812217D01*
X151166557Y-62788744D01*
X151019744Y-62629262D01*
X150823509Y-62476526D01*
X150823507Y-62476525D01*
X150823506Y-62476524D01*
X150604811Y-62358172D01*
X150604802Y-62358169D01*
X150369616Y-62277429D01*
X150124335Y-62236500D01*
X149875665Y-62236500D01*
X149630383Y-62277429D01*
X149395197Y-62358169D01*
X149395188Y-62358172D01*
X149176493Y-62476524D01*
X148980257Y-62629261D01*
X148811833Y-62812217D01*
X148675826Y-63020393D01*
X148575936Y-63248118D01*
X148514892Y-63489175D01*
X148514890Y-63489187D01*
X148494357Y-63736994D01*
X138320741Y-63736994D01*
X138459727Y-63690337D01*
X138463425Y-63689162D01*
X139641516Y-63335695D01*
X139645306Y-63334624D01*
X140834190Y-63019500D01*
X140838058Y-63018541D01*
X142036517Y-62742082D01*
X142040384Y-62741256D01*
X143247166Y-62503750D01*
X143251040Y-62503053D01*
X144464910Y-62304745D01*
X144468846Y-62304167D01*
X145688471Y-62145274D01*
X145692389Y-62144829D01*
X146916527Y-62025512D01*
X146920454Y-62025193D01*
X148147857Y-61945577D01*
X148151756Y-61945387D01*
X149381046Y-61905560D01*
X149385061Y-61905495D01*
X150614939Y-61905495D01*
X150618954Y-61905560D01*
G37*
G04 #@! TD.AperFunction*
G04 #@! TA.AperFunction,Conductor*
G36*
X162767351Y-123286104D02*
G01*
X162798615Y-123294481D01*
X162846297Y-123314231D01*
X162874327Y-123330414D01*
X162915275Y-123361835D01*
X162938162Y-123384721D01*
X162953875Y-123405198D01*
X162953876Y-123405200D01*
X162969583Y-123425670D01*
X162985768Y-123453704D01*
X163005516Y-123501381D01*
X163013894Y-123532646D01*
X163020631Y-123583812D01*
X163020631Y-123616183D01*
X163013896Y-123667346D01*
X163005517Y-123698617D01*
X162985766Y-123746298D01*
X162969582Y-123774329D01*
X162938164Y-123815274D01*
X162915274Y-123838164D01*
X162874329Y-123869582D01*
X162846298Y-123885766D01*
X162798617Y-123905517D01*
X162767346Y-123913896D01*
X162716183Y-123920631D01*
X162683813Y-123920631D01*
X162632649Y-123913895D01*
X162601385Y-123905518D01*
X162553704Y-123885769D01*
X162525666Y-123869581D01*
X162481396Y-123835610D01*
X162481381Y-123835599D01*
X162469913Y-123827381D01*
X162468735Y-123826594D01*
X162453730Y-123816568D01*
X162453727Y-123816566D01*
X162453725Y-123816565D01*
X162453722Y-123816563D01*
X162389775Y-123787590D01*
X162315275Y-123767628D01*
X162307920Y-123766064D01*
X162293214Y-123762938D01*
X162293212Y-123762938D01*
X162261043Y-123764623D01*
X162230989Y-123766199D01*
X162163011Y-123750050D01*
X162114556Y-123699713D01*
X162100500Y-123642369D01*
X162100500Y-123558199D01*
X162120185Y-123491160D01*
X162172989Y-123445405D01*
X162240690Y-123435261D01*
X162250821Y-123436595D01*
X162273309Y-123438365D01*
X162361418Y-123422035D01*
X162432675Y-123392519D01*
X162481395Y-123364390D01*
X162525676Y-123330409D01*
X162553704Y-123314228D01*
X162601379Y-123294481D01*
X162632640Y-123286104D01*
X162683818Y-123279368D01*
X162716179Y-123279368D01*
X162767351Y-123286104D01*
G37*
G04 #@! TD.AperFunction*
G04 #@! TA.AperFunction,Conductor*
G36*
X162767351Y-116186104D02*
G01*
X162798615Y-116194481D01*
X162846297Y-116214231D01*
X162874327Y-116230414D01*
X162915275Y-116261835D01*
X162938160Y-116284719D01*
X162953874Y-116305197D01*
X162953875Y-116305198D01*
X162953876Y-116305200D01*
X162969583Y-116325670D01*
X162985768Y-116353704D01*
X163005516Y-116401381D01*
X163013894Y-116432646D01*
X163020631Y-116483812D01*
X163020631Y-116516183D01*
X163013896Y-116567346D01*
X163005517Y-116598617D01*
X162985766Y-116646298D01*
X162969582Y-116674329D01*
X162938164Y-116715274D01*
X162915274Y-116738164D01*
X162874329Y-116769582D01*
X162846298Y-116785766D01*
X162798617Y-116805517D01*
X162767346Y-116813896D01*
X162716183Y-116820631D01*
X162683813Y-116820631D01*
X162632649Y-116813895D01*
X162601387Y-116805519D01*
X162596547Y-116803514D01*
X162588717Y-116800271D01*
X162588713Y-116800268D01*
X162588713Y-116800269D01*
X162553701Y-116785766D01*
X162525667Y-116769581D01*
X162484721Y-116738161D01*
X162461834Y-116715273D01*
X162430416Y-116674329D01*
X162414230Y-116646295D01*
X162394481Y-116598615D01*
X162386104Y-116567350D01*
X162379368Y-116516179D01*
X162379368Y-116483818D01*
X162386104Y-116432640D01*
X162394481Y-116401379D01*
X162414229Y-116353704D01*
X162430407Y-116325680D01*
X162461841Y-116284715D01*
X162484715Y-116261841D01*
X162525680Y-116230407D01*
X162553705Y-116214228D01*
X162601379Y-116194481D01*
X162632640Y-116186104D01*
X162683818Y-116179368D01*
X162716179Y-116179368D01*
X162767351Y-116186104D01*
G37*
G04 #@! TD.AperFunction*
G04 #@! TA.AperFunction,Conductor*
G36*
X161567351Y-102436104D02*
G01*
X161598615Y-102444481D01*
X161646297Y-102464231D01*
X161674326Y-102480413D01*
X161715276Y-102511835D01*
X161738164Y-102534723D01*
X161769582Y-102575667D01*
X161785769Y-102603704D01*
X161805517Y-102651383D01*
X161813894Y-102682646D01*
X161820631Y-102733812D01*
X161820631Y-102766183D01*
X161813896Y-102817346D01*
X161805517Y-102848617D01*
X161785766Y-102896298D01*
X161769582Y-102924329D01*
X161738164Y-102965274D01*
X161715274Y-102988164D01*
X161674329Y-103019582D01*
X161646298Y-103035766D01*
X161598617Y-103055517D01*
X161567346Y-103063896D01*
X161516183Y-103070631D01*
X161483813Y-103070631D01*
X161432650Y-103063895D01*
X161401383Y-103055517D01*
X161353700Y-103035766D01*
X161325667Y-103019581D01*
X161305195Y-103003872D01*
X161284721Y-102988162D01*
X161261833Y-102965274D01*
X161230413Y-102924326D01*
X161214230Y-102896295D01*
X161205561Y-102875365D01*
X161194481Y-102848615D01*
X161186104Y-102817350D01*
X161179368Y-102766179D01*
X161179368Y-102733818D01*
X161186104Y-102682640D01*
X161194481Y-102651379D01*
X161214229Y-102603704D01*
X161230407Y-102575680D01*
X161261841Y-102534715D01*
X161284715Y-102511841D01*
X161325680Y-102480407D01*
X161353705Y-102464228D01*
X161401379Y-102444481D01*
X161432640Y-102436104D01*
X161483818Y-102429368D01*
X161516179Y-102429368D01*
X161567351Y-102436104D01*
G37*
G04 #@! TD.AperFunction*
G04 #@! TA.AperFunction,Conductor*
G36*
X160067351Y-92286104D02*
G01*
X160098615Y-92294481D01*
X160146297Y-92314231D01*
X160174327Y-92330414D01*
X160215275Y-92361835D01*
X160238160Y-92384719D01*
X160253874Y-92405197D01*
X160253875Y-92405198D01*
X160253876Y-92405200D01*
X160269583Y-92425670D01*
X160285768Y-92453704D01*
X160305516Y-92501381D01*
X160313894Y-92532646D01*
X160320631Y-92583812D01*
X160320631Y-92616183D01*
X160313896Y-92667346D01*
X160305517Y-92698617D01*
X160285766Y-92746298D01*
X160269582Y-92774329D01*
X160238164Y-92815274D01*
X160215274Y-92838164D01*
X160174329Y-92869582D01*
X160146298Y-92885766D01*
X160098617Y-92905517D01*
X160067346Y-92913896D01*
X160016183Y-92920631D01*
X159983813Y-92920631D01*
X159932649Y-92913895D01*
X159901387Y-92905519D01*
X159896547Y-92903514D01*
X159888717Y-92900271D01*
X159888713Y-92900268D01*
X159888713Y-92900269D01*
X159853701Y-92885766D01*
X159825669Y-92869582D01*
X159784724Y-92838164D01*
X159761838Y-92815279D01*
X159730413Y-92774326D01*
X159714232Y-92746300D01*
X159694479Y-92698613D01*
X159686103Y-92667346D01*
X159682613Y-92640830D01*
X159679368Y-92616180D01*
X159679368Y-92583816D01*
X159686104Y-92532645D01*
X159694481Y-92501379D01*
X159714229Y-92453704D01*
X159730407Y-92425680D01*
X159761841Y-92384715D01*
X159784715Y-92361841D01*
X159825680Y-92330407D01*
X159853705Y-92314228D01*
X159901379Y-92294481D01*
X159932640Y-92286104D01*
X159983818Y-92279368D01*
X160016179Y-92279368D01*
X160067351Y-92286104D01*
G37*
G04 #@! TD.AperFunction*
G04 #@! TA.AperFunction,Conductor*
G36*
X168417351Y-83486104D02*
G01*
X168448615Y-83494481D01*
X168496297Y-83514231D01*
X168524327Y-83530414D01*
X168565275Y-83561835D01*
X168588160Y-83584719D01*
X168603874Y-83605197D01*
X168603875Y-83605198D01*
X168603876Y-83605200D01*
X168619583Y-83625670D01*
X168635768Y-83653704D01*
X168655516Y-83701381D01*
X168663894Y-83732646D01*
X168670631Y-83783812D01*
X168670631Y-83816183D01*
X168663896Y-83867346D01*
X168655517Y-83898617D01*
X168635766Y-83946298D01*
X168619582Y-83974329D01*
X168588164Y-84015274D01*
X168565274Y-84038164D01*
X168524329Y-84069582D01*
X168496298Y-84085766D01*
X168448617Y-84105517D01*
X168417346Y-84113896D01*
X168366183Y-84120631D01*
X168333813Y-84120631D01*
X168282649Y-84113895D01*
X168251387Y-84105519D01*
X168246547Y-84103514D01*
X168238717Y-84100271D01*
X168238712Y-84100267D01*
X168238712Y-84100269D01*
X168203698Y-84085765D01*
X168175667Y-84069581D01*
X168134726Y-84038166D01*
X168111834Y-84015273D01*
X168106641Y-84008505D01*
X168080415Y-83974327D01*
X168064229Y-83946292D01*
X168044482Y-83898618D01*
X168036104Y-83867350D01*
X168029368Y-83816179D01*
X168029368Y-83783818D01*
X168036104Y-83732640D01*
X168044481Y-83701379D01*
X168064229Y-83653704D01*
X168080407Y-83625680D01*
X168111841Y-83584715D01*
X168134715Y-83561841D01*
X168175680Y-83530407D01*
X168203705Y-83514228D01*
X168251379Y-83494481D01*
X168282640Y-83486104D01*
X168333818Y-83479368D01*
X168366179Y-83479368D01*
X168417351Y-83486104D01*
G37*
G04 #@! TD.AperFunction*
M02*
