G04 #@! TF.GenerationSoftware,KiCad,Pcbnew,8.0.4*
G04 #@! TF.CreationDate,2025-04-17T01:05:08+02:00*
G04 #@! TF.ProjectId,buck_mcu_stage,6275636b-5f6d-4637-955f-73746167652e,rev?*
G04 #@! TF.SameCoordinates,Original*
G04 #@! TF.FileFunction,Copper,L1,Top*
G04 #@! TF.FilePolarity,Positive*
%FSLAX46Y46*%
G04 Gerber Fmt 4.6, Leading zero omitted, Abs format (unit mm)*
G04 Created by KiCad (PCBNEW 8.0.4) date 2025-04-17 01:05:08*
%MOMM*%
%LPD*%
G01*
G04 APERTURE LIST*
G04 Aperture macros list*
%AMRoundRect*
0 Rectangle with rounded corners*
0 $1 Rounding radius*
0 $2 $3 $4 $5 $6 $7 $8 $9 X,Y pos of 4 corners*
0 Add a 4 corners polygon primitive as box body*
4,1,4,$2,$3,$4,$5,$6,$7,$8,$9,$2,$3,0*
0 Add four circle primitives for the rounded corners*
1,1,$1+$1,$2,$3*
1,1,$1+$1,$4,$5*
1,1,$1+$1,$6,$7*
1,1,$1+$1,$8,$9*
0 Add four rect primitives between the rounded corners*
20,1,$1+$1,$2,$3,$4,$5,0*
20,1,$1+$1,$4,$5,$6,$7,0*
20,1,$1+$1,$6,$7,$8,$9,0*
20,1,$1+$1,$8,$9,$2,$3,0*%
%AMFreePoly0*
4,1,19,0.500000,-0.750000,0.000000,-0.750000,0.000000,-0.744911,-0.071157,-0.744911,-0.207708,-0.704816,-0.327430,-0.627875,-0.420627,-0.520320,-0.479746,-0.390866,-0.500000,-0.250000,-0.500000,0.250000,-0.479746,0.390866,-0.420627,0.520320,-0.327430,0.627875,-0.207708,0.704816,-0.071157,0.744911,0.000000,0.744911,0.000000,0.750000,0.500000,0.750000,0.500000,-0.750000,0.500000,-0.750000,
$1*%
%AMFreePoly1*
4,1,19,0.000000,0.744911,0.071157,0.744911,0.207708,0.704816,0.327430,0.627875,0.420627,0.520320,0.479746,0.390866,0.500000,0.250000,0.500000,-0.250000,0.479746,-0.390866,0.420627,-0.520320,0.327430,-0.627875,0.207708,-0.704816,0.071157,-0.744911,0.000000,-0.744911,0.000000,-0.750000,-0.500000,-0.750000,-0.500000,0.750000,0.000000,0.750000,0.000000,0.744911,0.000000,0.744911,
$1*%
G04 Aperture macros list end*
G04 #@! TA.AperFunction,EtchedComponent*
%ADD10C,0.000000*%
G04 #@! TD*
G04 #@! TA.AperFunction,SMDPad,CuDef*
%ADD11RoundRect,0.200000X-0.275000X0.200000X-0.275000X-0.200000X0.275000X-0.200000X0.275000X0.200000X0*%
G04 #@! TD*
G04 #@! TA.AperFunction,SMDPad,CuDef*
%ADD12RoundRect,0.150000X-0.150000X0.587500X-0.150000X-0.587500X0.150000X-0.587500X0.150000X0.587500X0*%
G04 #@! TD*
G04 #@! TA.AperFunction,SMDPad,CuDef*
%ADD13R,1.372000X0.710000*%
G04 #@! TD*
G04 #@! TA.AperFunction,SMDPad,CuDef*
%ADD14R,0.595000X0.710000*%
G04 #@! TD*
G04 #@! TA.AperFunction,SMDPad,CuDef*
%ADD15R,0.656000X0.710000*%
G04 #@! TD*
G04 #@! TA.AperFunction,SMDPad,CuDef*
%ADD16R,3.850000X4.520000*%
G04 #@! TD*
G04 #@! TA.AperFunction,SMDPad,CuDef*
%ADD17RoundRect,1.500000X2.500000X-1.500000X2.500000X1.500000X-2.500000X1.500000X-2.500000X-1.500000X0*%
G04 #@! TD*
G04 #@! TA.AperFunction,SMDPad,CuDef*
%ADD18RoundRect,0.200000X0.275000X-0.200000X0.275000X0.200000X-0.275000X0.200000X-0.275000X-0.200000X0*%
G04 #@! TD*
G04 #@! TA.AperFunction,ComponentPad*
%ADD19C,7.000000*%
G04 #@! TD*
G04 #@! TA.AperFunction,SMDPad,CuDef*
%ADD20RoundRect,0.250000X1.100000X-0.325000X1.100000X0.325000X-1.100000X0.325000X-1.100000X-0.325000X0*%
G04 #@! TD*
G04 #@! TA.AperFunction,SMDPad,CuDef*
%ADD21RoundRect,1.500000X-1.500000X-2.500000X1.500000X-2.500000X1.500000X2.500000X-1.500000X2.500000X0*%
G04 #@! TD*
G04 #@! TA.AperFunction,SMDPad,CuDef*
%ADD22RoundRect,0.200000X-0.200000X-0.275000X0.200000X-0.275000X0.200000X0.275000X-0.200000X0.275000X0*%
G04 #@! TD*
G04 #@! TA.AperFunction,SMDPad,CuDef*
%ADD23R,0.250000X0.600000*%
G04 #@! TD*
G04 #@! TA.AperFunction,SMDPad,CuDef*
%ADD24R,0.600000X0.250000*%
G04 #@! TD*
G04 #@! TA.AperFunction,SMDPad,CuDef*
%ADD25R,1.700000X2.700000*%
G04 #@! TD*
G04 #@! TA.AperFunction,SMDPad,CuDef*
%ADD26C,0.500000*%
G04 #@! TD*
G04 #@! TA.AperFunction,SMDPad,CuDef*
%ADD27RoundRect,0.200000X0.200000X0.275000X-0.200000X0.275000X-0.200000X-0.275000X0.200000X-0.275000X0*%
G04 #@! TD*
G04 #@! TA.AperFunction,SMDPad,CuDef*
%ADD28R,0.710000X1.372000*%
G04 #@! TD*
G04 #@! TA.AperFunction,SMDPad,CuDef*
%ADD29R,0.710000X0.595000*%
G04 #@! TD*
G04 #@! TA.AperFunction,SMDPad,CuDef*
%ADD30R,0.710000X0.656000*%
G04 #@! TD*
G04 #@! TA.AperFunction,SMDPad,CuDef*
%ADD31R,4.520000X3.850000*%
G04 #@! TD*
G04 #@! TA.AperFunction,SMDPad,CuDef*
%ADD32RoundRect,0.625000X1.875000X-0.625000X1.875000X0.625000X-1.875000X0.625000X-1.875000X-0.625000X0*%
G04 #@! TD*
G04 #@! TA.AperFunction,SMDPad,CuDef*
%ADD33RoundRect,0.625000X-1.875000X0.625000X-1.875000X-0.625000X1.875000X-0.625000X1.875000X0.625000X0*%
G04 #@! TD*
G04 #@! TA.AperFunction,SMDPad,CuDef*
%ADD34RoundRect,1.500000X1.500000X2.500000X-1.500000X2.500000X-1.500000X-2.500000X1.500000X-2.500000X0*%
G04 #@! TD*
G04 #@! TA.AperFunction,SMDPad,CuDef*
%ADD35R,2.380000X9.000000*%
G04 #@! TD*
G04 #@! TA.AperFunction,SMDPad,CuDef*
%ADD36RoundRect,0.218750X0.256250X-0.218750X0.256250X0.218750X-0.256250X0.218750X-0.256250X-0.218750X0*%
G04 #@! TD*
G04 #@! TA.AperFunction,SMDPad,CuDef*
%ADD37R,0.830000X0.630000*%
G04 #@! TD*
G04 #@! TA.AperFunction,SMDPad,CuDef*
%ADD38R,1.200000X0.600000*%
G04 #@! TD*
G04 #@! TA.AperFunction,SMDPad,CuDef*
%ADD39R,1.000000X1.700000*%
G04 #@! TD*
G04 #@! TA.AperFunction,SMDPad,CuDef*
%ADD40RoundRect,0.150000X0.512500X0.150000X-0.512500X0.150000X-0.512500X-0.150000X0.512500X-0.150000X0*%
G04 #@! TD*
G04 #@! TA.AperFunction,SMDPad,CuDef*
%ADD41R,0.600000X0.300000*%
G04 #@! TD*
G04 #@! TA.AperFunction,SMDPad,CuDef*
%ADD42R,0.300000X0.600000*%
G04 #@! TD*
G04 #@! TA.AperFunction,SMDPad,CuDef*
%ADD43FreePoly0,180.000000*%
G04 #@! TD*
G04 #@! TA.AperFunction,SMDPad,CuDef*
%ADD44FreePoly1,180.000000*%
G04 #@! TD*
G04 #@! TA.AperFunction,ComponentPad*
%ADD45C,2.600000*%
G04 #@! TD*
G04 #@! TA.AperFunction,ViaPad*
%ADD46C,0.650000*%
G04 #@! TD*
G04 #@! TA.AperFunction,ViaPad*
%ADD47C,0.800000*%
G04 #@! TD*
G04 #@! TA.AperFunction,Conductor*
%ADD48C,0.250000*%
G04 #@! TD*
G04 #@! TA.AperFunction,Conductor*
%ADD49C,0.300000*%
G04 #@! TD*
G04 #@! TA.AperFunction,Conductor*
%ADD50C,0.400000*%
G04 #@! TD*
G04 #@! TA.AperFunction,Conductor*
%ADD51C,0.600000*%
G04 #@! TD*
G04 APERTURE END LIST*
D10*
G04 #@! TA.AperFunction,EtchedComponent*
G36*
X169350000Y-84050000D02*
G01*
X168350000Y-84050000D01*
X168350000Y-83550000D01*
X169350000Y-83550000D01*
X169350000Y-84050000D01*
G37*
G04 #@! TD.AperFunction*
D11*
X164500000Y-90100000D03*
X164500000Y-91700000D03*
D12*
X175800000Y-99650000D03*
X173900000Y-99650000D03*
X174850000Y-101525000D03*
D11*
X161700000Y-123600000D03*
X161700000Y-125200000D03*
D13*
X138894000Y-124235000D03*
X138894000Y-122965000D03*
X138894000Y-121695000D03*
X138894000Y-125505000D03*
D14*
X144822500Y-125505000D03*
D15*
X144792000Y-124235000D03*
X144792000Y-122965000D03*
X144792000Y-121695001D03*
D16*
X142600000Y-123600000D03*
D17*
X150200000Y-116400000D03*
D18*
X152300000Y-85400000D03*
X152300000Y-83800000D03*
D19*
X159250000Y-69504000D03*
D11*
X161700000Y-116500000D03*
X161700000Y-118100000D03*
D20*
X146900000Y-86075000D03*
X146900000Y-83125000D03*
D18*
X164500000Y-101700000D03*
X164500000Y-100100000D03*
D21*
X141800000Y-107800000D03*
D22*
X168300000Y-90150000D03*
X169900000Y-90150000D03*
X165100000Y-108200000D03*
X166700000Y-108200000D03*
D23*
X164500000Y-98050000D03*
D24*
X165400000Y-97650000D03*
X165400000Y-97150000D03*
X165400000Y-96650000D03*
X165400000Y-96150000D03*
X165400000Y-95650000D03*
X165400000Y-95150000D03*
X165400000Y-94650000D03*
X165400000Y-94150000D03*
D23*
X164500000Y-93750000D03*
X163000000Y-93750000D03*
D24*
X162100000Y-94150000D03*
X162100000Y-94650000D03*
X162100000Y-95150000D03*
X162100000Y-95650000D03*
X162100000Y-96150000D03*
X162100000Y-96650000D03*
X162100000Y-97150000D03*
X162100000Y-97650000D03*
D23*
X163000000Y-98050000D03*
D25*
X163750000Y-95900000D03*
D11*
X160300000Y-104150000D03*
X160300000Y-105750000D03*
X160000000Y-96600000D03*
X160000000Y-98200000D03*
X166000000Y-100100000D03*
X166000000Y-101700000D03*
D13*
X138894000Y-117135000D03*
X138894000Y-115865000D03*
X138894000Y-114595000D03*
X138894000Y-118405000D03*
D14*
X144822500Y-118405000D03*
D15*
X144792000Y-117135000D03*
X144792000Y-115865000D03*
X144792000Y-114595001D03*
D16*
X142600000Y-116500000D03*
D20*
X143700000Y-86075000D03*
X143700000Y-83125000D03*
D18*
X153650000Y-108950000D03*
X153650000Y-107350000D03*
D11*
X171300000Y-111750000D03*
X171300000Y-113350000D03*
D22*
X174200000Y-103300000D03*
X175800000Y-103300000D03*
D18*
X174800000Y-88100000D03*
X174800000Y-86500000D03*
D11*
X166000000Y-90100000D03*
X166000000Y-91700000D03*
D26*
X168350000Y-83800000D03*
X169350000Y-83800000D03*
D27*
X169900000Y-91650000D03*
X168300000Y-91650000D03*
D20*
X132700000Y-89175000D03*
X132700000Y-86225000D03*
D28*
X150500000Y-102198000D03*
X149230000Y-102198000D03*
X147960000Y-102198000D03*
X151770000Y-102198000D03*
D29*
X151770000Y-96269500D03*
D30*
X150500000Y-96300000D03*
X149230000Y-96300000D03*
X147960000Y-96300000D03*
D31*
X149865000Y-98492000D03*
D20*
X139100000Y-89175000D03*
X139100000Y-86225000D03*
D32*
X161050000Y-109500000D03*
D33*
X157380000Y-86280000D03*
D18*
X149300000Y-85400000D03*
X149300000Y-83800000D03*
D34*
X133900000Y-107800000D03*
D35*
X144100000Y-97500000D03*
X137450000Y-97500000D03*
D36*
X166600000Y-111287500D03*
X166600000Y-109712500D03*
D37*
X163550000Y-118485000D03*
X163550000Y-120715000D03*
D22*
X168300000Y-94650000D03*
X169900000Y-94650000D03*
D11*
X168100000Y-105100000D03*
X168100000Y-106700000D03*
D18*
X161500000Y-91700000D03*
X161500000Y-90100000D03*
D38*
X160050000Y-117450000D03*
X160050000Y-116500000D03*
X160050000Y-115550000D03*
X157550000Y-115550000D03*
X157550000Y-117450000D03*
D27*
X164700000Y-112200000D03*
X163100000Y-112200000D03*
D11*
X155900000Y-115700000D03*
X155900000Y-117300000D03*
D39*
X166300000Y-117850000D03*
X166300000Y-121450000D03*
X169800000Y-117850000D03*
D11*
X155200000Y-109050000D03*
X155200000Y-110650000D03*
D22*
X168300000Y-100650000D03*
X169900000Y-100650000D03*
X168300000Y-96150000D03*
X169900000Y-96150000D03*
D27*
X158300000Y-107075000D03*
X156700000Y-107075000D03*
D33*
X149950000Y-110650000D03*
D11*
X173300000Y-86500000D03*
X173300000Y-88100000D03*
D27*
X169900000Y-93150000D03*
X168300000Y-93150000D03*
D22*
X163100000Y-113700000D03*
X164700000Y-113700000D03*
D40*
X158637500Y-105420000D03*
X158637500Y-104470000D03*
X158637500Y-103520000D03*
X156362500Y-103520000D03*
X156362500Y-105420000D03*
D18*
X171350000Y-93200000D03*
X171350000Y-91600000D03*
D38*
X160050000Y-124550000D03*
X160050000Y-123600000D03*
X160050000Y-122650000D03*
X157550000Y-122650000D03*
X157550000Y-124550000D03*
D20*
X135900000Y-89175000D03*
X135900000Y-86225000D03*
D28*
X150500000Y-93834000D03*
X149230000Y-93834000D03*
X147960000Y-93834000D03*
X151770000Y-93834000D03*
D29*
X151770000Y-87905500D03*
D30*
X150500000Y-87936000D03*
X149230000Y-87936000D03*
X147960000Y-87936000D03*
D31*
X149865000Y-90128000D03*
D41*
X169400000Y-106900000D03*
X169400000Y-107400000D03*
X169400000Y-107900000D03*
X169400000Y-108400000D03*
X169400000Y-108900000D03*
X169400000Y-109400000D03*
X169400000Y-109900000D03*
D42*
X170000000Y-110500000D03*
X170500000Y-110500000D03*
X171000000Y-110500000D03*
X171500000Y-110500000D03*
X172000000Y-110500000D03*
X172500000Y-110500000D03*
X173000000Y-110500000D03*
D41*
X173600000Y-109900000D03*
X173600000Y-109400000D03*
X173600000Y-108900000D03*
X173600000Y-108400000D03*
X173600000Y-107900000D03*
X173600000Y-107400000D03*
X173600000Y-106900000D03*
D42*
X173000000Y-106300000D03*
X172500000Y-106300000D03*
X172000000Y-106300000D03*
X171500000Y-106300000D03*
X171000000Y-106300000D03*
X170500000Y-106300000D03*
X170000000Y-106300000D03*
D18*
X163000000Y-101700000D03*
X163000000Y-100100000D03*
D22*
X174000000Y-89600000D03*
X175600000Y-89600000D03*
D19*
X140750000Y-69504000D03*
D22*
X168300000Y-97650000D03*
X169900000Y-97650000D03*
D32*
X149900000Y-107350000D03*
D43*
X164400000Y-103700000D03*
D44*
X163100000Y-103700000D03*
D18*
X163000000Y-91700000D03*
X163000000Y-90100000D03*
D12*
X169750000Y-113062500D03*
X167850000Y-113062500D03*
X168800000Y-114937500D03*
D22*
X168300000Y-99150000D03*
X169900000Y-99150000D03*
D32*
X156700000Y-100900000D03*
D27*
X169700000Y-103600000D03*
X168100000Y-103600000D03*
D18*
X168100000Y-111300000D03*
X168100000Y-109700000D03*
D17*
X150200000Y-125000000D03*
D18*
X160000000Y-95200000D03*
X160000000Y-93600000D03*
D11*
X155900000Y-122800000D03*
X155900000Y-124400000D03*
D18*
X171800000Y-88100000D03*
X171800000Y-86500000D03*
X161500000Y-101700000D03*
X161500000Y-100100000D03*
X171350000Y-97700000D03*
X171350000Y-96100000D03*
D27*
X178100000Y-104800000D03*
X176500000Y-104800000D03*
D18*
X174900000Y-110300000D03*
X174900000Y-108700000D03*
D22*
X164700000Y-115200000D03*
X166300000Y-115200000D03*
D12*
X170250000Y-86525000D03*
X168350000Y-86525000D03*
X169300000Y-88400000D03*
D18*
X150800000Y-85400000D03*
X150800000Y-83800000D03*
D45*
X113737000Y-100000000D03*
X150000000Y-63737000D03*
X124358000Y-74359000D03*
X186263000Y-100000000D03*
X150000000Y-136263000D03*
X175641000Y-125641000D03*
X124359000Y-125641000D03*
X175641000Y-74359000D03*
D46*
X164500000Y-89200000D03*
X161000000Y-95800000D03*
X163000000Y-89200000D03*
X158650000Y-98200000D03*
D47*
X127500000Y-117500000D03*
X125000000Y-95000000D03*
D46*
X143795000Y-81708000D03*
X168350000Y-83800000D03*
D47*
X130000000Y-85000000D03*
D46*
X161500000Y-102750000D03*
D47*
X132500000Y-122500000D03*
X127500000Y-97500000D03*
X127500000Y-92500000D03*
D46*
X148295000Y-80708000D03*
D47*
X135000000Y-125000000D03*
X125000000Y-105000000D03*
X127500000Y-102500000D03*
X127500000Y-112500000D03*
D46*
X144795000Y-81708000D03*
D47*
X122500000Y-102500000D03*
D46*
X149200000Y-103600000D03*
D47*
X135000000Y-85000000D03*
D46*
X150700000Y-104600000D03*
X147295000Y-80708000D03*
X150795000Y-81708000D03*
X149795000Y-81708000D03*
X151795000Y-81708000D03*
X148200000Y-103600000D03*
X143295000Y-80708000D03*
X146295000Y-80708000D03*
X162700000Y-123600000D03*
D47*
X125000000Y-110000000D03*
X127500000Y-107500000D03*
X132500000Y-82500000D03*
D46*
X145795000Y-81708000D03*
D47*
X135000000Y-115000000D03*
X137500000Y-82500000D03*
D46*
X147200000Y-103600000D03*
X146700000Y-104600000D03*
X161500000Y-89200000D03*
X151200000Y-103600000D03*
D47*
X135000000Y-120000000D03*
D46*
X151700000Y-104600000D03*
D47*
X127500000Y-82500000D03*
D46*
X142795000Y-81708000D03*
X147700000Y-104600000D03*
D47*
X122500000Y-107500000D03*
D46*
X150200000Y-103600000D03*
X149295000Y-80708000D03*
D47*
X140000000Y-85000000D03*
X122500000Y-92500000D03*
D46*
X147795000Y-81708000D03*
X148795000Y-81708000D03*
D47*
X130000000Y-115000000D03*
X130000000Y-120000000D03*
D46*
X150295000Y-80708000D03*
X160000000Y-92600000D03*
X151295000Y-80708000D03*
X144295000Y-80708000D03*
D47*
X125000000Y-115000000D03*
X127500000Y-87500000D03*
X132500000Y-117500000D03*
X125000000Y-90000000D03*
X125000000Y-100000000D03*
D46*
X146795000Y-81708000D03*
X148700000Y-104600000D03*
X149700000Y-104600000D03*
X162700000Y-116500000D03*
D47*
X122500000Y-97500000D03*
D46*
X145295000Y-80708000D03*
X165500000Y-104900000D03*
D47*
X162800000Y-85400000D03*
D46*
X165700000Y-112400000D03*
X166700000Y-107000000D03*
X176900000Y-109700000D03*
X153000000Y-67500000D03*
X168100000Y-107600000D03*
X165150000Y-109500000D03*
X175900000Y-108700000D03*
X151500000Y-67500000D03*
X176250000Y-107500000D03*
X175200000Y-106900000D03*
X150000000Y-67500000D03*
X147000000Y-67500000D03*
X173600000Y-105200000D03*
X148500000Y-67500000D03*
X175200000Y-105600000D03*
X175600000Y-90700000D03*
X169500000Y-111600000D03*
X164200000Y-106000000D03*
X174900000Y-111500000D03*
X163750000Y-92850000D03*
X164000000Y-116500000D03*
X168650000Y-113050000D03*
X170750000Y-94650000D03*
X173900000Y-98300000D03*
X156100000Y-113700000D03*
X163750000Y-98900000D03*
X166000000Y-102750000D03*
X169300000Y-105600000D03*
X161700000Y-126200000D03*
X161700000Y-119100000D03*
X172550000Y-93200000D03*
X145200000Y-107700000D03*
X158850000Y-94400000D03*
X152750000Y-102198000D03*
X161800000Y-115100000D03*
X171200000Y-115100000D03*
X172300000Y-112600000D03*
X162100000Y-113700000D03*
X171800000Y-89100000D03*
X172000000Y-103700000D03*
X155900000Y-118400000D03*
X138900000Y-119200000D03*
X155900000Y-125500000D03*
X138900000Y-126300000D03*
X165500000Y-103700000D03*
X159800000Y-100900000D03*
X155300000Y-107350000D03*
X171250000Y-102850000D03*
X156300000Y-110650000D03*
X170700000Y-104750000D03*
D48*
X165400000Y-97150000D02*
X166450000Y-97150000D01*
X167650000Y-99150000D02*
X168300000Y-99150000D01*
X167200000Y-98700000D02*
X167650000Y-99150000D01*
X166450000Y-97150000D02*
X167200000Y-97900000D01*
X167200000Y-97900000D02*
X167200000Y-98700000D01*
D49*
X167400000Y-101600000D02*
X166000000Y-100200000D01*
X174850000Y-101525000D02*
X174775000Y-101600000D01*
X166000000Y-100200000D02*
X166000000Y-100100000D01*
X174775000Y-101600000D02*
X167400000Y-101600000D01*
D48*
X164500000Y-98050000D02*
X164500000Y-100100000D01*
D49*
X166000000Y-100100000D02*
X164500000Y-100100000D01*
D48*
X161000000Y-95800000D02*
X161000000Y-95150000D01*
D49*
X164500000Y-90100000D02*
X166000000Y-90100000D01*
D48*
X161200000Y-95150000D02*
X161000000Y-95150000D01*
D50*
X164500000Y-90100000D02*
X164500000Y-89200000D01*
D48*
X161000000Y-95150000D02*
X160050000Y-95150000D01*
X162100000Y-95150000D02*
X161200000Y-95150000D01*
D50*
X163000000Y-100100000D02*
X163000000Y-98650000D01*
D48*
X163000000Y-98050000D02*
X163000000Y-98650000D01*
D51*
X163000000Y-100100000D02*
X161500000Y-100100000D01*
D48*
X163000000Y-93750000D02*
X163000000Y-91700000D01*
D49*
X163000000Y-91700000D02*
X161500000Y-91700000D01*
D48*
X162100000Y-96650000D02*
X160050000Y-96650000D01*
X160050000Y-96650000D02*
X160000000Y-96600000D01*
D49*
X158650000Y-98200000D02*
X150157000Y-98200000D01*
X160000000Y-98200000D02*
X158650000Y-98200000D01*
D48*
X161550000Y-97650000D02*
X161000000Y-98200000D01*
X150157000Y-98200000D02*
X149865000Y-98492000D01*
X162100000Y-97650000D02*
X161550000Y-97650000D01*
D50*
X163000000Y-90100000D02*
X163000000Y-89200000D01*
D48*
X161000000Y-98200000D02*
X160000000Y-98200000D01*
X165975000Y-94650000D02*
X166300000Y-94325000D01*
X166300000Y-94325000D02*
X166300000Y-93100000D01*
X165400000Y-94650000D02*
X165975000Y-94650000D01*
X166000000Y-92800000D02*
X166000000Y-91700000D01*
X166300000Y-93100000D02*
X166000000Y-92800000D01*
X164500000Y-93750000D02*
X164500000Y-91700000D01*
X165400000Y-96650000D02*
X166450000Y-96650000D01*
X166450000Y-96650000D02*
X166950000Y-96150000D01*
X166950000Y-96150000D02*
X168300000Y-96150000D01*
D49*
X168300000Y-97650000D02*
X168300000Y-96150000D01*
X169100000Y-94850000D02*
X168900000Y-94650000D01*
X169900000Y-96150000D02*
X169300000Y-96150000D01*
X168300000Y-91650000D02*
X168300000Y-90150000D01*
D48*
X168300000Y-94650000D02*
X168400000Y-94650000D01*
D49*
X171300000Y-96150000D02*
X171350000Y-96100000D01*
X169100000Y-95950000D02*
X169100000Y-94850000D01*
X168300000Y-94650000D02*
X168300000Y-93150000D01*
D48*
X167475000Y-94650000D02*
X168300000Y-94650000D01*
X165975000Y-96150000D02*
X167475000Y-94650000D01*
D49*
X169900000Y-96150000D02*
X171300000Y-96150000D01*
X168300000Y-93150000D02*
X168300000Y-91650000D01*
X169300000Y-96150000D02*
X169100000Y-95950000D01*
X168900000Y-94650000D02*
X168300000Y-94650000D01*
D48*
X165400000Y-96150000D02*
X165975000Y-96150000D01*
X167200000Y-99650000D02*
X167200000Y-100400000D01*
X166500000Y-98200000D02*
X166500000Y-98950000D01*
X165400000Y-97650000D02*
X165950000Y-97650000D01*
X165950000Y-97650000D02*
X166500000Y-98200000D01*
X167200000Y-100400000D02*
X167450000Y-100650000D01*
X167450000Y-100650000D02*
X168300000Y-100650000D01*
X166500000Y-98950000D02*
X167200000Y-99650000D01*
D50*
X160050000Y-116500000D02*
X161700000Y-116500000D01*
X161700000Y-116500000D02*
X162700000Y-116500000D01*
D48*
X161550000Y-94150000D02*
X161000000Y-93600000D01*
D50*
X161500000Y-90100000D02*
X161500000Y-89200000D01*
D48*
X162100000Y-94150000D02*
X161550000Y-94150000D01*
D51*
X161500000Y-101700000D02*
X161500000Y-102750000D01*
X160000000Y-93600000D02*
X160000000Y-92600000D01*
D48*
X161000000Y-93600000D02*
X160000000Y-93600000D01*
D50*
X160050000Y-123600000D02*
X161700000Y-123600000D01*
X161700000Y-123600000D02*
X162700000Y-123600000D01*
X164100000Y-104950000D02*
X163400000Y-104950000D01*
D49*
X165700000Y-112400000D02*
X165500000Y-112200000D01*
D50*
X164400000Y-104950000D02*
X165450000Y-104950000D01*
X163400000Y-104950000D02*
X163100000Y-104650000D01*
D51*
X163000000Y-101700000D02*
X163000000Y-103600000D01*
D50*
X163100000Y-104650000D02*
X163100000Y-103700000D01*
D51*
X163000000Y-103600000D02*
X163100000Y-103700000D01*
D49*
X165500000Y-112200000D02*
X164700000Y-112200000D01*
D50*
X165450000Y-104950000D02*
X165500000Y-104900000D01*
X164100000Y-104950000D02*
X164400000Y-104950000D01*
D49*
X166700000Y-108200000D02*
X166700000Y-107000000D01*
X169400000Y-108400000D02*
X167800000Y-108400000D01*
X167800000Y-108400000D02*
X167600000Y-108200000D01*
X167600000Y-108200000D02*
X166700000Y-108200000D01*
D50*
X166300000Y-115200000D02*
X166300000Y-113000000D01*
X166300000Y-117850000D02*
X165400000Y-117850000D01*
X165400000Y-117850000D02*
X164765000Y-118485000D01*
D51*
X156362500Y-106062500D02*
X156700000Y-106400000D01*
D50*
X165137500Y-111287500D02*
X166600000Y-111287500D01*
D49*
X168100000Y-106700000D02*
X168100000Y-107600000D01*
D50*
X164300000Y-110450000D02*
X165137500Y-111287500D01*
D49*
X174700000Y-108900000D02*
X174900000Y-108700000D01*
D50*
X166300000Y-113000000D02*
X166600000Y-112700000D01*
D51*
X156362500Y-105425000D02*
X156362500Y-106062500D01*
D49*
X174300000Y-108700000D02*
X174900000Y-108700000D01*
D51*
X156700000Y-107075000D02*
X156700000Y-108400000D01*
X157800000Y-109500000D02*
X161050000Y-109500000D01*
X156700000Y-108400000D02*
X157800000Y-109500000D01*
D49*
X173600000Y-108900000D02*
X174100000Y-108900000D01*
D51*
X161050000Y-109500000D02*
X165150000Y-109500000D01*
X156700000Y-106400000D02*
X156700000Y-107075000D01*
D49*
X169400000Y-106900000D02*
X168100000Y-106900000D01*
D50*
X164300000Y-109500000D02*
X164300000Y-110450000D01*
X166300000Y-117850000D02*
X166300000Y-115200000D01*
X175900000Y-108700000D02*
X174900000Y-108700000D01*
X164765000Y-118485000D02*
X163550000Y-118485000D01*
X166600000Y-112700000D02*
X166600000Y-111287500D01*
D49*
X174100000Y-108900000D02*
X174300000Y-108700000D01*
X168100000Y-109700000D02*
X166600000Y-109700000D01*
X168400000Y-108900000D02*
X168100000Y-109200000D01*
X168100000Y-109200000D02*
X168100000Y-109700000D01*
X169400000Y-108900000D02*
X168400000Y-108900000D01*
D50*
X155900000Y-123400000D02*
X155900000Y-122800000D01*
X156100000Y-123600000D02*
X155900000Y-123400000D01*
X157300000Y-123600000D02*
X156100000Y-123600000D01*
X157550000Y-123850000D02*
X157300000Y-123600000D01*
X157550000Y-124550000D02*
X157550000Y-123850000D01*
D49*
X176250000Y-107500000D02*
X175850000Y-107900000D01*
X175850000Y-107900000D02*
X173600000Y-107900000D01*
X174700000Y-107400000D02*
X175200000Y-106900000D01*
X173600000Y-107400000D02*
X174700000Y-107400000D01*
X173000000Y-106300000D02*
X173000000Y-105800000D01*
X173000000Y-105800000D02*
X173600000Y-105200000D01*
X174000000Y-106900000D02*
X173600000Y-106900000D01*
X175200000Y-105600000D02*
X175200000Y-105700000D01*
X175200000Y-105700000D02*
X174000000Y-106900000D01*
X170000000Y-110500000D02*
X170000000Y-111100000D01*
D50*
X175600000Y-89600000D02*
X175600000Y-88900000D01*
X175600000Y-89600000D02*
X175600000Y-90700000D01*
X175600000Y-88900000D02*
X174800000Y-88100000D01*
D49*
X170000000Y-111100000D02*
X169500000Y-111600000D01*
X175800000Y-99650000D02*
X175800000Y-103300000D01*
D48*
X165400000Y-95650000D02*
X164000000Y-95650000D01*
D50*
X163750000Y-95900000D02*
X163750000Y-92850000D01*
X158637500Y-104475000D02*
X159975000Y-104475000D01*
D49*
X154300000Y-108950000D02*
X154400000Y-109050000D01*
X169900000Y-94650000D02*
X170750000Y-94650000D01*
X168800000Y-105100000D02*
X169300000Y-105600000D01*
D50*
X168100000Y-111900000D02*
X168100000Y-111300000D01*
D49*
X174250000Y-109400000D02*
X174900000Y-110050000D01*
X173900000Y-99650000D02*
X173900000Y-98300000D01*
D50*
X168637500Y-113062500D02*
X168650000Y-113050000D01*
X157500000Y-104950001D02*
X157500000Y-106275000D01*
D48*
X164000000Y-95650000D02*
X163750000Y-95900000D01*
D50*
X167850000Y-113062500D02*
X168637500Y-113062500D01*
D49*
X153650000Y-108950000D02*
X154300000Y-108950000D01*
X169900000Y-100650000D02*
X169900000Y-99150000D01*
X166000000Y-101700000D02*
X166000000Y-102750000D01*
D50*
X158637500Y-104475000D02*
X157975001Y-104475000D01*
D48*
X163500000Y-95650000D02*
X163750000Y-95900000D01*
D50*
X167850000Y-112150000D02*
X168100000Y-111900000D01*
X159975000Y-104475000D02*
X160300000Y-104150000D01*
D49*
X174900000Y-110050000D02*
X174900000Y-110300000D01*
D50*
X163750000Y-95900000D02*
X163750000Y-98900000D01*
D48*
X163500000Y-96150000D02*
X163750000Y-95900000D01*
X162100000Y-95650000D02*
X163500000Y-95650000D01*
D50*
X157975001Y-104475000D02*
X157500000Y-104950001D01*
D49*
X168100000Y-105100000D02*
X168800000Y-105100000D01*
X170000000Y-106300000D02*
X169300000Y-105600000D01*
D50*
X157500000Y-106275000D02*
X158300000Y-107075000D01*
D49*
X173600000Y-109400000D02*
X174250000Y-109400000D01*
X154400000Y-109050000D02*
X155200000Y-109050000D01*
D50*
X167850000Y-113062500D02*
X167850000Y-112150000D01*
D49*
X169900000Y-93150000D02*
X171300000Y-93150000D01*
D50*
X160050000Y-124550000D02*
X161050000Y-124550000D01*
X174000000Y-91750000D02*
X174000000Y-89600000D01*
D49*
X171300000Y-93150000D02*
X171350000Y-93200000D01*
D50*
X172550000Y-93200000D02*
X174000000Y-91750000D01*
X161700000Y-118100000D02*
X161700000Y-119100000D01*
X161050000Y-117450000D02*
X161700000Y-118100000D01*
X160050000Y-117450000D02*
X161050000Y-117450000D01*
X172550000Y-93200000D02*
X171350000Y-93200000D01*
X161050000Y-124550000D02*
X161700000Y-125200000D01*
X161700000Y-125200000D02*
X161700000Y-126200000D01*
D49*
X152634000Y-93834000D02*
X151770000Y-93834000D01*
X153600000Y-96500000D02*
X153200000Y-96100000D01*
D48*
X158500000Y-96600000D02*
X159300000Y-97400000D01*
X160800000Y-97400000D02*
X161050000Y-97150000D01*
X159300000Y-97400000D02*
X160800000Y-97400000D01*
X161050000Y-97150000D02*
X162100000Y-97150000D01*
D49*
X153200000Y-94400000D02*
X152634000Y-93834000D01*
X158400000Y-96500000D02*
X153600000Y-96500000D01*
X158500000Y-96600000D02*
X158400000Y-96500000D01*
X153200000Y-96100000D02*
X153200000Y-94400000D01*
D48*
X159350000Y-94400000D02*
X159200000Y-94400000D01*
X160850000Y-94400000D02*
X159350000Y-94400000D01*
D49*
X152750000Y-102198000D02*
X151770000Y-102198000D01*
X158850000Y-94400000D02*
X159350000Y-94400000D01*
D48*
X161100000Y-94650000D02*
X160850000Y-94400000D01*
X162100000Y-94650000D02*
X161100000Y-94650000D01*
D49*
X173700000Y-103300000D02*
X174200000Y-103300000D01*
D48*
X175300000Y-104400000D02*
X174600000Y-104400000D01*
X174200000Y-104000000D02*
X174200000Y-103300000D01*
X174600000Y-104400000D02*
X174200000Y-104000000D01*
D49*
X172500000Y-106300000D02*
X172500000Y-104500000D01*
D48*
X175700000Y-104800000D02*
X175300000Y-104400000D01*
X176500000Y-104800000D02*
X175700000Y-104800000D01*
D49*
X172500000Y-104500000D02*
X173700000Y-103300000D01*
X160050000Y-115550000D02*
X161350000Y-115550000D01*
X172500000Y-111000000D02*
X173100000Y-111600000D01*
X173100000Y-111600000D02*
X173100000Y-113200000D01*
X161350000Y-115550000D02*
X161800000Y-115100000D01*
X173100000Y-113200000D02*
X171200000Y-115100000D01*
X172500000Y-110500000D02*
X172500000Y-111000000D01*
D48*
X172300000Y-111526996D02*
X172300000Y-112600000D01*
X172000000Y-110500000D02*
X172000000Y-111226996D01*
X172000000Y-111226996D02*
X172300000Y-111526996D01*
D49*
X163100000Y-113700000D02*
X163100000Y-112200000D01*
X162100000Y-113700000D02*
X163100000Y-113700000D01*
X171300000Y-111200000D02*
X171300000Y-111750000D01*
X171500000Y-110500000D02*
X171500000Y-111000000D01*
X171500000Y-111000000D02*
X171300000Y-111200000D01*
X171500000Y-111550000D02*
X171300000Y-111750000D01*
X173000000Y-110500000D02*
X173400000Y-110500000D01*
X163777298Y-122650000D02*
X160050000Y-122650000D01*
X164327298Y-123200000D02*
X163777298Y-122650000D01*
X167400000Y-123200000D02*
X164327298Y-123200000D01*
X173400000Y-110500000D02*
X173800000Y-110900000D01*
X173800000Y-110900000D02*
X173800000Y-116800000D01*
X173800000Y-116800000D02*
X167400000Y-123200000D01*
X171800000Y-88100000D02*
X173300000Y-88100000D01*
X171800000Y-88100000D02*
X171800000Y-89100000D01*
X172000000Y-106300000D02*
X172000000Y-103700000D01*
D50*
X168150000Y-116550000D02*
X168150000Y-120500000D01*
X164465000Y-120715000D02*
X165200000Y-121450000D01*
X168800000Y-115900000D02*
X168150000Y-116550000D01*
X167200000Y-121450000D02*
X166300000Y-121450000D01*
X168800000Y-114937500D02*
X168800000Y-115900000D01*
X163550000Y-120715000D02*
X164465000Y-120715000D01*
X165200000Y-121450000D02*
X166300000Y-121450000D01*
X168150000Y-120500000D02*
X167200000Y-121450000D01*
D49*
X171300000Y-91650000D02*
X171350000Y-91600000D01*
X169900000Y-91650000D02*
X171300000Y-91650000D01*
D50*
X170600000Y-113350000D02*
X171300000Y-113350000D01*
X170312500Y-113062500D02*
X170600000Y-113350000D01*
X169750000Y-113062500D02*
X170312500Y-113062500D01*
X138894000Y-118405000D02*
X138894000Y-119194000D01*
X138894000Y-119194000D02*
X138900000Y-119200000D01*
X155900000Y-117300000D02*
X155900000Y-118400000D01*
X138894000Y-125505000D02*
X138894000Y-126294000D01*
X155900000Y-124400000D02*
X155900000Y-125500000D01*
X138894000Y-126294000D02*
X138900000Y-126300000D01*
X156100000Y-116500000D02*
X155900000Y-116300000D01*
X157550000Y-116750000D02*
X157300000Y-116500000D01*
X155900000Y-116300000D02*
X155900000Y-115700000D01*
X157550000Y-117450000D02*
X157550000Y-116750000D01*
X157300000Y-116500000D02*
X156100000Y-116500000D01*
X169900000Y-90150000D02*
X169900000Y-89000000D01*
X169900000Y-89000000D02*
X169300000Y-88400000D01*
D49*
X170250000Y-86525000D02*
X171775000Y-86525000D01*
X171775000Y-86525000D02*
X171800000Y-86500000D01*
X164500000Y-103600000D02*
X164400000Y-103700000D01*
D50*
X160300000Y-105750000D02*
X161000000Y-105750000D01*
X161000000Y-105750000D02*
X161450000Y-105300000D01*
X159800000Y-102200000D02*
X159800000Y-100900000D01*
X158637500Y-105425000D02*
X159975000Y-105425000D01*
X164500000Y-101700000D02*
X164500000Y-103600000D01*
X159975000Y-105425000D02*
X160300000Y-105750000D01*
X161450000Y-103850000D02*
X159800000Y-102200000D01*
X161450000Y-105300000D02*
X161450000Y-103850000D01*
X164400000Y-103700000D02*
X165500000Y-103700000D01*
D51*
X156700000Y-100900000D02*
X159800000Y-100900000D01*
D49*
X171300000Y-97650000D02*
X171350000Y-97700000D01*
X169900000Y-97650000D02*
X171300000Y-97650000D01*
D50*
X149900000Y-107350000D02*
X153650000Y-107350000D01*
D49*
X171250000Y-102850000D02*
X171250000Y-104300000D01*
X171500000Y-104550000D02*
X171500000Y-106300000D01*
D50*
X153650000Y-107350000D02*
X155300000Y-107350000D01*
D49*
X171250000Y-104300000D02*
X171500000Y-104550000D01*
X171000000Y-106300000D02*
X171000000Y-105050000D01*
D50*
X155200000Y-110650000D02*
X156300000Y-110650000D01*
D49*
X171000000Y-105050000D02*
X170700000Y-104750000D01*
D50*
X149950000Y-110650000D02*
X155200000Y-110650000D01*
D49*
X170500000Y-106300000D02*
X170500000Y-105650000D01*
X170500000Y-105650000D02*
X169700000Y-104850000D01*
X169700000Y-104850000D02*
X169700000Y-103600000D01*
G04 #@! TA.AperFunction,Conductor*
G36*
X141643039Y-87919685D02*
G01*
X141688794Y-87972489D01*
X141700000Y-88024000D01*
X141700000Y-92400000D01*
X140000000Y-92400000D01*
X140000000Y-102300000D01*
X130000000Y-102300000D01*
X130000000Y-88024000D01*
X130019685Y-87956961D01*
X130072489Y-87911206D01*
X130124000Y-87900000D01*
X141576000Y-87900000D01*
X141643039Y-87919685D01*
G37*
G04 #@! TD.AperFunction*
G04 #@! TA.AperFunction,Conductor*
G36*
X153100000Y-92400000D02*
G01*
X142224000Y-92400000D01*
X142156961Y-92380315D01*
X142111206Y-92327511D01*
X142100000Y-92276000D01*
X142100000Y-84924000D01*
X142119685Y-84856961D01*
X142172489Y-84811206D01*
X142224000Y-84800000D01*
X153100000Y-84800000D01*
X153100000Y-92400000D01*
G37*
G04 #@! TD.AperFunction*
G04 #@! TA.AperFunction,Conductor*
G36*
X129600000Y-112900000D02*
G01*
X139976000Y-112900000D01*
X140043039Y-112919685D01*
X140088794Y-112972489D01*
X140100000Y-113024000D01*
X140100000Y-136624746D01*
X140080315Y-136691785D01*
X140027511Y-136737540D01*
X139958353Y-136747484D01*
X139944230Y-136744607D01*
X139645343Y-136665385D01*
X139641478Y-136664293D01*
X138801447Y-136412255D01*
X138463482Y-136310854D01*
X138459663Y-136309641D01*
X137293737Y-135918245D01*
X137289951Y-135916906D01*
X136137275Y-135487945D01*
X136133534Y-135486483D01*
X134995380Y-135020434D01*
X134991689Y-135018852D01*
X133869240Y-134516199D01*
X133865602Y-134514499D01*
X132759996Y-133975752D01*
X132756415Y-133973935D01*
X132284592Y-133724802D01*
X131668795Y-133399647D01*
X131665333Y-133397747D01*
X130596905Y-132788555D01*
X130593453Y-132786512D01*
X130026736Y-132438596D01*
X129545302Y-132143036D01*
X129541962Y-132140910D01*
X128515178Y-131463819D01*
X128511905Y-131461584D01*
X127507593Y-130751603D01*
X127504359Y-130749237D01*
X126523603Y-130007136D01*
X126520440Y-130004661D01*
X125564226Y-129231188D01*
X125561145Y-129228612D01*
X124630487Y-128424588D01*
X124627491Y-128421914D01*
X123723330Y-127588151D01*
X123720423Y-127585381D01*
X123269295Y-127141500D01*
X122843775Y-126722816D01*
X122840966Y-126719962D01*
X122693372Y-126565018D01*
X122159494Y-126004552D01*
X121992658Y-125829407D01*
X121989960Y-125826481D01*
X121824391Y-125640994D01*
X122853357Y-125640994D01*
X122853357Y-125641005D01*
X122873890Y-125888812D01*
X122873892Y-125888824D01*
X122934936Y-126129881D01*
X123034826Y-126357606D01*
X123170833Y-126565782D01*
X123170836Y-126565785D01*
X123339256Y-126748738D01*
X123535491Y-126901474D01*
X123754190Y-127019828D01*
X123989386Y-127100571D01*
X124234665Y-127141500D01*
X124483335Y-127141500D01*
X124728614Y-127100571D01*
X124963810Y-127019828D01*
X125182509Y-126901474D01*
X125378744Y-126748738D01*
X125547164Y-126565785D01*
X125683173Y-126357607D01*
X125783063Y-126129881D01*
X125844108Y-125888821D01*
X125844109Y-125888812D01*
X125864643Y-125641005D01*
X125864643Y-125640994D01*
X125844109Y-125393187D01*
X125844107Y-125393175D01*
X125783063Y-125152118D01*
X125773469Y-125130247D01*
X138007500Y-125130247D01*
X138007500Y-125879752D01*
X138019131Y-125938229D01*
X138019132Y-125938230D01*
X138063447Y-126004552D01*
X138129769Y-126048867D01*
X138129770Y-126048868D01*
X138188247Y-126060499D01*
X138188250Y-126060500D01*
X138188252Y-126060500D01*
X138260101Y-126060500D01*
X138327140Y-126080185D01*
X138372895Y-126132989D01*
X138383040Y-126200685D01*
X138369965Y-126299998D01*
X138369965Y-126300000D01*
X138388026Y-126437181D01*
X138388027Y-126437186D01*
X138440974Y-126565015D01*
X138440975Y-126565017D01*
X138440976Y-126565018D01*
X138525209Y-126674791D01*
X138634982Y-126759024D01*
X138762817Y-126811974D01*
X138885702Y-126828152D01*
X138899999Y-126830035D01*
X138900000Y-126830035D01*
X138900001Y-126830035D01*
X138912947Y-126828330D01*
X139037183Y-126811974D01*
X139165018Y-126759024D01*
X139274791Y-126674791D01*
X139359024Y-126565018D01*
X139411974Y-126437183D01*
X139430035Y-126300000D01*
X139416960Y-126200685D01*
X139427725Y-126131650D01*
X139474105Y-126079394D01*
X139539899Y-126060500D01*
X139599750Y-126060500D01*
X139599751Y-126060499D01*
X139614568Y-126057552D01*
X139658229Y-126048868D01*
X139658229Y-126048867D01*
X139658231Y-126048867D01*
X139724552Y-126004552D01*
X139768867Y-125938231D01*
X139768867Y-125938229D01*
X139768868Y-125938229D01*
X139780499Y-125879752D01*
X139780500Y-125879750D01*
X139780500Y-125130249D01*
X139780499Y-125130247D01*
X139768868Y-125071770D01*
X139768867Y-125071769D01*
X139724552Y-125005447D01*
X139658230Y-124961132D01*
X139658229Y-124961131D01*
X139599752Y-124949500D01*
X139599748Y-124949500D01*
X138188252Y-124949500D01*
X138188247Y-124949500D01*
X138129770Y-124961131D01*
X138129769Y-124961132D01*
X138063447Y-125005447D01*
X138019132Y-125071769D01*
X138019131Y-125071770D01*
X138007500Y-125130247D01*
X125773469Y-125130247D01*
X125683173Y-124924393D01*
X125547166Y-124716217D01*
X125525557Y-124692744D01*
X125378744Y-124533262D01*
X125182509Y-124380526D01*
X125182507Y-124380525D01*
X125182506Y-124380524D01*
X124963811Y-124262172D01*
X124963802Y-124262169D01*
X124728616Y-124181429D01*
X124483335Y-124140500D01*
X124234665Y-124140500D01*
X123989383Y-124181429D01*
X123754197Y-124262169D01*
X123754188Y-124262172D01*
X123535493Y-124380524D01*
X123339257Y-124533261D01*
X123170833Y-124716217D01*
X123034826Y-124924393D01*
X122934936Y-125152118D01*
X122873892Y-125393175D01*
X122873890Y-125393187D01*
X122853357Y-125640994D01*
X121824391Y-125640994D01*
X121170933Y-124908923D01*
X121168369Y-124905955D01*
X120379459Y-123962325D01*
X120376934Y-123959202D01*
X119619083Y-122990634D01*
X119616659Y-122987432D01*
X118890518Y-121994762D01*
X118888200Y-121991483D01*
X118194569Y-120975796D01*
X118192392Y-120972494D01*
X117532040Y-119934919D01*
X117529976Y-119931559D01*
X116939484Y-118933830D01*
X116903535Y-118873088D01*
X116901546Y-118869599D01*
X116440816Y-118030247D01*
X138007500Y-118030247D01*
X138007500Y-118779752D01*
X138019131Y-118838229D01*
X138019132Y-118838230D01*
X138063447Y-118904552D01*
X138129769Y-118948867D01*
X138129770Y-118948868D01*
X138188247Y-118960499D01*
X138188250Y-118960500D01*
X138188252Y-118960500D01*
X138260101Y-118960500D01*
X138327140Y-118980185D01*
X138372895Y-119032989D01*
X138383040Y-119100685D01*
X138369965Y-119199998D01*
X138369965Y-119200000D01*
X138388026Y-119337181D01*
X138388027Y-119337186D01*
X138440974Y-119465015D01*
X138440975Y-119465017D01*
X138440976Y-119465018D01*
X138525209Y-119574791D01*
X138634982Y-119659024D01*
X138762817Y-119711974D01*
X138885702Y-119728152D01*
X138899999Y-119730035D01*
X138900000Y-119730035D01*
X138900001Y-119730035D01*
X138912947Y-119728330D01*
X139037183Y-119711974D01*
X139165018Y-119659024D01*
X139274791Y-119574791D01*
X139359024Y-119465018D01*
X139411974Y-119337183D01*
X139430035Y-119200000D01*
X139416960Y-119100685D01*
X139427725Y-119031650D01*
X139474105Y-118979394D01*
X139539899Y-118960500D01*
X139599750Y-118960500D01*
X139599751Y-118960499D01*
X139614568Y-118957552D01*
X139658229Y-118948868D01*
X139658229Y-118948867D01*
X139658231Y-118948867D01*
X139724552Y-118904552D01*
X139768867Y-118838231D01*
X139768867Y-118838229D01*
X139768868Y-118838229D01*
X139780499Y-118779752D01*
X139780500Y-118779750D01*
X139780500Y-118030249D01*
X139780499Y-118030247D01*
X139768868Y-117971770D01*
X139768867Y-117971769D01*
X139724552Y-117905447D01*
X139658230Y-117861132D01*
X139658229Y-117861131D01*
X139599752Y-117849500D01*
X139599748Y-117849500D01*
X138188252Y-117849500D01*
X138188247Y-117849500D01*
X138129770Y-117861131D01*
X138129769Y-117861132D01*
X138063447Y-117905447D01*
X138019132Y-117971769D01*
X138019131Y-117971770D01*
X138007500Y-118030247D01*
X116440816Y-118030247D01*
X116309750Y-117791472D01*
X116307875Y-117787921D01*
X115751285Y-116691165D01*
X115749536Y-116687575D01*
X115228762Y-115573390D01*
X115227121Y-115569725D01*
X114779392Y-114524887D01*
X114742690Y-114439238D01*
X114741195Y-114435587D01*
X114293619Y-113289990D01*
X114292239Y-113286283D01*
X113881972Y-112126730D01*
X113880729Y-112123027D01*
X113508237Y-110950833D01*
X113507102Y-110947049D01*
X113172774Y-109763447D01*
X113171746Y-109759566D01*
X112875924Y-108565773D01*
X112875022Y-108561860D01*
X112618025Y-107359169D01*
X112617249Y-107355229D01*
X112405191Y-106177389D01*
X112399313Y-106144744D01*
X112398677Y-106140844D01*
X112220057Y-104923963D01*
X112219547Y-104920048D01*
X112080424Y-103698004D01*
X112080040Y-103694068D01*
X111980560Y-102468144D01*
X111980305Y-102464200D01*
X111972322Y-102300000D01*
X129600000Y-102300000D01*
X129600000Y-112900000D01*
G37*
G04 #@! TD.AperFunction*
G04 #@! TA.AperFunction,Conductor*
G36*
X154307596Y-62144827D02*
G01*
X154311542Y-62145276D01*
X155531144Y-62304166D01*
X155535098Y-62304746D01*
X156748949Y-62503051D01*
X156752843Y-62503752D01*
X157959602Y-62741253D01*
X157963495Y-62742085D01*
X159161926Y-63018538D01*
X159165823Y-63019503D01*
X160354677Y-63334620D01*
X160358500Y-63335700D01*
X161536556Y-63689156D01*
X161540290Y-63690343D01*
X162706306Y-64081769D01*
X162710005Y-64083077D01*
X163862742Y-64512061D01*
X163866448Y-64513509D01*
X165000000Y-64977674D01*
X165000000Y-85000000D01*
X161293463Y-88706535D01*
X161253239Y-88733413D01*
X161234986Y-88740974D01*
X161125209Y-88825209D01*
X161040974Y-88934986D01*
X161033413Y-88953239D01*
X161006535Y-88993463D01*
X157636319Y-92363681D01*
X157574996Y-92397166D01*
X157548638Y-92400000D01*
X153100000Y-92400000D01*
X153100000Y-84800000D01*
X153500000Y-84800000D01*
X153500000Y-67690755D01*
X153509439Y-67643302D01*
X153511974Y-67637183D01*
X153530035Y-67500000D01*
X153511974Y-67362817D01*
X153509437Y-67356691D01*
X153500000Y-67309242D01*
X153500000Y-62202784D01*
X153519685Y-62135745D01*
X153572489Y-62089990D01*
X153636024Y-62079369D01*
X154307596Y-62144827D01*
G37*
G04 #@! TD.AperFunction*
G04 #@! TA.AperFunction,Conductor*
G36*
X129600000Y-102300000D02*
G01*
X111972322Y-102300000D01*
X111920577Y-101235711D01*
X111920448Y-101231724D01*
X111915477Y-100924782D01*
X111900532Y-100001975D01*
X111900532Y-99999994D01*
X112231357Y-99999994D01*
X112231357Y-100000005D01*
X112251890Y-100247812D01*
X112251892Y-100247824D01*
X112312936Y-100488881D01*
X112412826Y-100716606D01*
X112548833Y-100924782D01*
X112548836Y-100924785D01*
X112717256Y-101107738D01*
X112913491Y-101260474D01*
X113132190Y-101378828D01*
X113367386Y-101459571D01*
X113612665Y-101500500D01*
X113861335Y-101500500D01*
X114106614Y-101459571D01*
X114341810Y-101378828D01*
X114560509Y-101260474D01*
X114756744Y-101107738D01*
X114925164Y-100924785D01*
X115061173Y-100716607D01*
X115161063Y-100488881D01*
X115222108Y-100247821D01*
X115242643Y-100000000D01*
X115222108Y-99752179D01*
X115161063Y-99511119D01*
X115061173Y-99283393D01*
X114925166Y-99075217D01*
X114903557Y-99051744D01*
X114756744Y-98892262D01*
X114560509Y-98739526D01*
X114560507Y-98739525D01*
X114560506Y-98739524D01*
X114341811Y-98621172D01*
X114341802Y-98621169D01*
X114106616Y-98540429D01*
X113861335Y-98499500D01*
X113612665Y-98499500D01*
X113367383Y-98540429D01*
X113132197Y-98621169D01*
X113132188Y-98621172D01*
X112913493Y-98739524D01*
X112717257Y-98892261D01*
X112548833Y-99075217D01*
X112412826Y-99283393D01*
X112312936Y-99511118D01*
X112251892Y-99752175D01*
X112251890Y-99752187D01*
X112231357Y-99999994D01*
X111900532Y-99999994D01*
X111900532Y-99998024D01*
X111920448Y-98768246D01*
X111920578Y-98764261D01*
X111927535Y-98621169D01*
X111980305Y-97535791D01*
X111980560Y-97531859D01*
X112080040Y-96305925D01*
X112080423Y-96302001D01*
X112219548Y-95079943D01*
X112220056Y-95076044D01*
X112398678Y-93859145D01*
X112399312Y-93855265D01*
X112617252Y-92644752D01*
X112618025Y-92640830D01*
X112875028Y-91438110D01*
X112875917Y-91434255D01*
X113171750Y-90240416D01*
X113172775Y-90236551D01*
X113188133Y-90182180D01*
X113507107Y-89052933D01*
X113508232Y-89049183D01*
X113880735Y-87876953D01*
X113881965Y-87873288D01*
X114014041Y-87500000D01*
X129600000Y-87500000D01*
X129600000Y-102300000D01*
G37*
G04 #@! TD.AperFunction*
G04 #@! TA.AperFunction,Conductor*
G36*
X150618954Y-61905560D02*
G01*
X151848240Y-61945387D01*
X151852145Y-61945577D01*
X152984027Y-62018998D01*
X153049651Y-62042981D01*
X153091892Y-62098636D01*
X153100000Y-62142738D01*
X153100000Y-66848054D01*
X153080315Y-66915093D01*
X153027511Y-66960848D01*
X152992187Y-66970993D01*
X152862817Y-66988026D01*
X152862813Y-66988027D01*
X152734985Y-67040974D01*
X152625209Y-67125209D01*
X152540974Y-67234985D01*
X152488027Y-67362813D01*
X152488026Y-67362818D01*
X152469965Y-67499999D01*
X152469965Y-67500000D01*
X152488026Y-67637181D01*
X152488027Y-67637186D01*
X152540974Y-67765015D01*
X152540975Y-67765017D01*
X152540976Y-67765018D01*
X152625209Y-67874791D01*
X152734982Y-67959024D01*
X152862817Y-68011974D01*
X152992186Y-68029006D01*
X153056082Y-68057273D01*
X153094553Y-68115597D01*
X153100000Y-68151945D01*
X153100000Y-84276000D01*
X153080315Y-84343039D01*
X153027511Y-84388794D01*
X152976000Y-84400000D01*
X115241200Y-84400000D01*
X115749557Y-83312380D01*
X115751273Y-83308858D01*
X116307890Y-82212048D01*
X116309734Y-82208557D01*
X116901560Y-81130375D01*
X116903520Y-81126936D01*
X117529992Y-80068413D01*
X117532022Y-80065108D01*
X118192410Y-79027476D01*
X118194550Y-79024230D01*
X118888221Y-78008485D01*
X118890495Y-78005268D01*
X119616682Y-77012536D01*
X119619058Y-77009397D01*
X120376956Y-76040768D01*
X120379436Y-76037702D01*
X121168395Y-75094014D01*
X121170906Y-75091107D01*
X121824401Y-74358994D01*
X122852357Y-74358994D01*
X122852357Y-74359005D01*
X122872890Y-74606812D01*
X122872892Y-74606824D01*
X122933936Y-74847881D01*
X123033826Y-75075606D01*
X123169833Y-75283782D01*
X123169836Y-75283785D01*
X123338256Y-75466738D01*
X123534491Y-75619474D01*
X123753190Y-75737828D01*
X123988386Y-75818571D01*
X124233665Y-75859500D01*
X124482335Y-75859500D01*
X124727614Y-75818571D01*
X124962810Y-75737828D01*
X125181509Y-75619474D01*
X125377744Y-75466738D01*
X125546164Y-75283785D01*
X125682173Y-75075607D01*
X125782063Y-74847881D01*
X125843108Y-74606821D01*
X125863643Y-74359000D01*
X125848150Y-74172029D01*
X125843109Y-74111187D01*
X125843107Y-74111175D01*
X125782063Y-73870118D01*
X125682173Y-73642393D01*
X125546166Y-73434217D01*
X125524557Y-73410744D01*
X125377744Y-73251262D01*
X125181509Y-73098526D01*
X125181507Y-73098525D01*
X125181506Y-73098524D01*
X124962811Y-72980172D01*
X124962802Y-72980169D01*
X124727616Y-72899429D01*
X124482335Y-72858500D01*
X124233665Y-72858500D01*
X123988383Y-72899429D01*
X123753197Y-72980169D01*
X123753188Y-72980172D01*
X123534493Y-73098524D01*
X123338257Y-73251261D01*
X123169833Y-73434217D01*
X123033826Y-73642393D01*
X122933936Y-73870118D01*
X122872892Y-74111175D01*
X122872890Y-74111187D01*
X122852357Y-74358994D01*
X121824401Y-74358994D01*
X121989988Y-74173486D01*
X121992632Y-74170619D01*
X122841003Y-73279998D01*
X122843744Y-73277213D01*
X123720447Y-72414594D01*
X123723305Y-72411871D01*
X124627504Y-71578073D01*
X124630487Y-71575411D01*
X124894652Y-71347191D01*
X125561172Y-70771364D01*
X125564198Y-70768833D01*
X126520481Y-69995305D01*
X126523560Y-69992896D01*
X127504406Y-69250727D01*
X127507552Y-69248425D01*
X128511947Y-68538386D01*
X128515135Y-68536208D01*
X129542005Y-67859060D01*
X129545258Y-67856991D01*
X130126757Y-67499999D01*
X146469965Y-67499999D01*
X146469965Y-67500000D01*
X146488026Y-67637181D01*
X146488027Y-67637186D01*
X146540974Y-67765015D01*
X146540975Y-67765017D01*
X146540976Y-67765018D01*
X146625209Y-67874791D01*
X146734982Y-67959024D01*
X146862817Y-68011974D01*
X146985702Y-68028152D01*
X146999999Y-68030035D01*
X147000000Y-68030035D01*
X147000001Y-68030035D01*
X147012947Y-68028330D01*
X147137183Y-68011974D01*
X147265018Y-67959024D01*
X147374791Y-67874791D01*
X147459024Y-67765018D01*
X147511974Y-67637183D01*
X147530035Y-67500000D01*
X147530035Y-67499999D01*
X147969965Y-67499999D01*
X147969965Y-67500000D01*
X147988026Y-67637181D01*
X147988027Y-67637186D01*
X148040974Y-67765015D01*
X148040975Y-67765017D01*
X148040976Y-67765018D01*
X148125209Y-67874791D01*
X148234982Y-67959024D01*
X148362817Y-68011974D01*
X148485702Y-68028152D01*
X148499999Y-68030035D01*
X148500000Y-68030035D01*
X148500001Y-68030035D01*
X148512947Y-68028330D01*
X148637183Y-68011974D01*
X148765018Y-67959024D01*
X148874791Y-67874791D01*
X148959024Y-67765018D01*
X149011974Y-67637183D01*
X149030035Y-67500000D01*
X149030035Y-67499999D01*
X149469965Y-67499999D01*
X149469965Y-67500000D01*
X149488026Y-67637181D01*
X149488027Y-67637186D01*
X149540974Y-67765015D01*
X149540975Y-67765017D01*
X149540976Y-67765018D01*
X149625209Y-67874791D01*
X149734982Y-67959024D01*
X149862817Y-68011974D01*
X149985702Y-68028152D01*
X149999999Y-68030035D01*
X150000000Y-68030035D01*
X150000001Y-68030035D01*
X150012947Y-68028330D01*
X150137183Y-68011974D01*
X150265018Y-67959024D01*
X150374791Y-67874791D01*
X150459024Y-67765018D01*
X150511974Y-67637183D01*
X150530035Y-67500000D01*
X150530035Y-67499999D01*
X150969965Y-67499999D01*
X150969965Y-67500000D01*
X150988026Y-67637181D01*
X150988027Y-67637186D01*
X151040974Y-67765015D01*
X151040975Y-67765017D01*
X151040976Y-67765018D01*
X151125209Y-67874791D01*
X151234982Y-67959024D01*
X151362817Y-68011974D01*
X151485702Y-68028152D01*
X151499999Y-68030035D01*
X151500000Y-68030035D01*
X151500001Y-68030035D01*
X151512947Y-68028330D01*
X151637183Y-68011974D01*
X151765018Y-67959024D01*
X151874791Y-67874791D01*
X151959024Y-67765018D01*
X152011974Y-67637183D01*
X152030035Y-67500000D01*
X152011974Y-67362817D01*
X151959024Y-67234983D01*
X151874791Y-67125209D01*
X151874789Y-67125208D01*
X151874789Y-67125207D01*
X151765015Y-67040974D01*
X151637186Y-66988027D01*
X151637184Y-66988026D01*
X151637183Y-66988026D01*
X151545727Y-66975985D01*
X151500001Y-66969965D01*
X151499999Y-66969965D01*
X151431408Y-66978995D01*
X151362817Y-66988026D01*
X151362816Y-66988026D01*
X151362813Y-66988027D01*
X151234985Y-67040974D01*
X151125209Y-67125209D01*
X151040974Y-67234985D01*
X150988027Y-67362813D01*
X150988026Y-67362818D01*
X150969965Y-67499999D01*
X150530035Y-67499999D01*
X150511974Y-67362817D01*
X150459024Y-67234983D01*
X150374791Y-67125209D01*
X150374789Y-67125208D01*
X150374789Y-67125207D01*
X150265015Y-67040974D01*
X150137186Y-66988027D01*
X150137184Y-66988026D01*
X150137183Y-66988026D01*
X150045727Y-66975985D01*
X150000001Y-66969965D01*
X149999999Y-66969965D01*
X149931408Y-66978995D01*
X149862817Y-66988026D01*
X149862816Y-66988026D01*
X149862813Y-66988027D01*
X149734985Y-67040974D01*
X149625209Y-67125209D01*
X149540974Y-67234985D01*
X149488027Y-67362813D01*
X149488026Y-67362818D01*
X149469965Y-67499999D01*
X149030035Y-67499999D01*
X149011974Y-67362817D01*
X148959024Y-67234983D01*
X148874791Y-67125209D01*
X148874789Y-67125208D01*
X148874789Y-67125207D01*
X148765015Y-67040974D01*
X148637186Y-66988027D01*
X148637184Y-66988026D01*
X148637183Y-66988026D01*
X148545727Y-66975985D01*
X148500001Y-66969965D01*
X148499999Y-66969965D01*
X148431408Y-66978995D01*
X148362817Y-66988026D01*
X148362816Y-66988026D01*
X148362813Y-66988027D01*
X148234985Y-67040974D01*
X148125209Y-67125209D01*
X148040974Y-67234985D01*
X147988027Y-67362813D01*
X147988026Y-67362818D01*
X147969965Y-67499999D01*
X147530035Y-67499999D01*
X147511974Y-67362817D01*
X147459024Y-67234983D01*
X147374791Y-67125209D01*
X147374789Y-67125208D01*
X147374789Y-67125207D01*
X147265015Y-67040974D01*
X147137186Y-66988027D01*
X147137184Y-66988026D01*
X147137183Y-66988026D01*
X147045727Y-66975985D01*
X147000001Y-66969965D01*
X146999999Y-66969965D01*
X146931408Y-66978995D01*
X146862817Y-66988026D01*
X146862816Y-66988026D01*
X146862813Y-66988027D01*
X146734985Y-67040974D01*
X146625209Y-67125209D01*
X146540974Y-67234985D01*
X146488027Y-67362813D01*
X146488026Y-67362818D01*
X146469965Y-67499999D01*
X130126757Y-67499999D01*
X130593475Y-67213473D01*
X130596859Y-67211470D01*
X131665381Y-66602225D01*
X131668748Y-66600377D01*
X132756466Y-66026037D01*
X132759944Y-66024273D01*
X133865636Y-65485484D01*
X133869205Y-65483816D01*
X134991734Y-64981127D01*
X134995334Y-64979584D01*
X136133572Y-64513500D01*
X136137236Y-64512069D01*
X137290013Y-64083070D01*
X137293673Y-64081776D01*
X138320741Y-63736994D01*
X148494357Y-63736994D01*
X148494357Y-63737005D01*
X148514890Y-63984812D01*
X148514892Y-63984824D01*
X148575936Y-64225881D01*
X148675826Y-64453606D01*
X148811833Y-64661782D01*
X148811836Y-64661785D01*
X148980256Y-64844738D01*
X149176491Y-64997474D01*
X149395190Y-65115828D01*
X149630386Y-65196571D01*
X149875665Y-65237500D01*
X150124335Y-65237500D01*
X150369614Y-65196571D01*
X150604810Y-65115828D01*
X150823509Y-64997474D01*
X151019744Y-64844738D01*
X151188164Y-64661785D01*
X151324173Y-64453607D01*
X151424063Y-64225881D01*
X151485108Y-63984821D01*
X151505643Y-63737000D01*
X151501778Y-63690358D01*
X151485109Y-63489187D01*
X151485107Y-63489175D01*
X151424063Y-63248118D01*
X151324173Y-63020393D01*
X151188166Y-62812217D01*
X151166557Y-62788744D01*
X151019744Y-62629262D01*
X150823509Y-62476526D01*
X150823507Y-62476525D01*
X150823506Y-62476524D01*
X150604811Y-62358172D01*
X150604802Y-62358169D01*
X150369616Y-62277429D01*
X150124335Y-62236500D01*
X149875665Y-62236500D01*
X149630383Y-62277429D01*
X149395197Y-62358169D01*
X149395188Y-62358172D01*
X149176493Y-62476524D01*
X148980257Y-62629261D01*
X148811833Y-62812217D01*
X148675826Y-63020393D01*
X148575936Y-63248118D01*
X148514892Y-63489175D01*
X148514890Y-63489187D01*
X148494357Y-63736994D01*
X138320741Y-63736994D01*
X138459727Y-63690337D01*
X138463425Y-63689162D01*
X139641516Y-63335695D01*
X139645306Y-63334624D01*
X140834190Y-63019500D01*
X140838058Y-63018541D01*
X142036517Y-62742082D01*
X142040384Y-62741256D01*
X143247166Y-62503750D01*
X143251040Y-62503053D01*
X144464910Y-62304745D01*
X144468846Y-62304167D01*
X145688471Y-62145274D01*
X145692389Y-62144829D01*
X146916527Y-62025512D01*
X146920454Y-62025193D01*
X148147857Y-61945577D01*
X148151756Y-61945387D01*
X149381046Y-61905560D01*
X149385061Y-61905495D01*
X150614939Y-61905495D01*
X150618954Y-61905560D01*
G37*
G04 #@! TD.AperFunction*
G04 #@! TA.AperFunction,Conductor*
G36*
X154643039Y-112919685D02*
G01*
X154688794Y-112972489D01*
X154700000Y-113024000D01*
X154700000Y-119776000D01*
X154680315Y-119843039D01*
X154627511Y-119888794D01*
X154576000Y-119900000D01*
X140624000Y-119900000D01*
X140556961Y-119880315D01*
X140511206Y-119827511D01*
X140500000Y-119776000D01*
X140500000Y-113024000D01*
X140519685Y-112956961D01*
X140572489Y-112911206D01*
X140624000Y-112900000D01*
X154576000Y-112900000D01*
X154643039Y-112919685D01*
G37*
G04 #@! TD.AperFunction*
G04 #@! TA.AperFunction,Conductor*
G36*
X147350000Y-105100000D02*
G01*
X146224013Y-105100000D01*
X146156974Y-105080315D01*
X146111219Y-105027511D01*
X146100013Y-104975987D01*
X146100064Y-104476680D01*
X146100305Y-102151040D01*
X146119996Y-102084006D01*
X146136619Y-102063380D01*
X147063681Y-101136319D01*
X147125004Y-101102834D01*
X147151362Y-101100000D01*
X147350000Y-101100000D01*
X147350000Y-105100000D01*
G37*
G04 #@! TD.AperFunction*
G04 #@! TA.AperFunction,Conductor*
G36*
X141700000Y-92800000D02*
G01*
X142176000Y-92800000D01*
X142243039Y-92819685D01*
X142288794Y-92872489D01*
X142300000Y-92924000D01*
X142300000Y-102300000D01*
X140000000Y-102300000D01*
X140000000Y-92400000D01*
X141700000Y-92400000D01*
X141700000Y-92800000D01*
G37*
G04 #@! TD.AperFunction*
G04 #@! TA.AperFunction,Conductor*
G36*
X154643039Y-120319685D02*
G01*
X154688794Y-120372489D01*
X154700000Y-120424000D01*
X154700000Y-137695221D01*
X154680315Y-137762260D01*
X154627511Y-137808015D01*
X154592019Y-137818182D01*
X154311564Y-137854720D01*
X154307574Y-137855174D01*
X153083510Y-137974483D01*
X153079508Y-137974808D01*
X151852198Y-138054419D01*
X151848186Y-138054614D01*
X150618954Y-138094440D01*
X150614939Y-138094505D01*
X149385061Y-138094505D01*
X149381046Y-138094440D01*
X148151813Y-138054614D01*
X148147801Y-138054419D01*
X146920491Y-137974808D01*
X146916489Y-137974483D01*
X145692425Y-137855174D01*
X145688435Y-137854720D01*
X144468865Y-137695834D01*
X144464891Y-137695251D01*
X143251079Y-137496953D01*
X143247127Y-137496241D01*
X142040414Y-137258749D01*
X142036487Y-137257910D01*
X140838073Y-136981461D01*
X140834175Y-136980495D01*
X140592230Y-136916365D01*
X140532471Y-136880161D01*
X140501773Y-136817397D01*
X140500000Y-136796504D01*
X140500000Y-136262994D01*
X148494357Y-136262994D01*
X148494357Y-136263005D01*
X148514890Y-136510812D01*
X148514892Y-136510824D01*
X148575936Y-136751881D01*
X148675826Y-136979606D01*
X148811833Y-137187782D01*
X148811836Y-137187785D01*
X148980256Y-137370738D01*
X149176491Y-137523474D01*
X149395190Y-137641828D01*
X149630386Y-137722571D01*
X149875665Y-137763500D01*
X150124335Y-137763500D01*
X150369614Y-137722571D01*
X150604810Y-137641828D01*
X150823509Y-137523474D01*
X151019744Y-137370738D01*
X151188164Y-137187785D01*
X151324173Y-136979607D01*
X151424063Y-136751881D01*
X151485108Y-136510821D01*
X151500600Y-136323863D01*
X151505643Y-136263005D01*
X151505643Y-136262994D01*
X151485109Y-136015187D01*
X151485107Y-136015175D01*
X151424063Y-135774118D01*
X151324173Y-135546393D01*
X151188166Y-135338217D01*
X151166557Y-135314744D01*
X151019744Y-135155262D01*
X150823509Y-135002526D01*
X150823507Y-135002525D01*
X150823506Y-135002524D01*
X150604811Y-134884172D01*
X150604802Y-134884169D01*
X150369616Y-134803429D01*
X150124335Y-134762500D01*
X149875665Y-134762500D01*
X149630383Y-134803429D01*
X149395197Y-134884169D01*
X149395188Y-134884172D01*
X149176493Y-135002524D01*
X148980257Y-135155261D01*
X148811833Y-135338217D01*
X148675826Y-135546393D01*
X148575936Y-135774118D01*
X148514892Y-136015175D01*
X148514890Y-136015187D01*
X148494357Y-136262994D01*
X140500000Y-136262994D01*
X140500000Y-120424000D01*
X140519685Y-120356961D01*
X140572489Y-120311206D01*
X140624000Y-120300000D01*
X154576000Y-120300000D01*
X154643039Y-120319685D01*
G37*
G04 #@! TD.AperFunction*
G04 #@! TA.AperFunction,Conductor*
G36*
X151328977Y-101119685D02*
G01*
X151374732Y-101172489D01*
X151384676Y-101241647D01*
X151355651Y-101305203D01*
X151330829Y-101327102D01*
X151270447Y-101367447D01*
X151226132Y-101433769D01*
X151226131Y-101433770D01*
X151214500Y-101492247D01*
X151214500Y-102903752D01*
X151226131Y-102962229D01*
X151226132Y-102962230D01*
X151270447Y-103028552D01*
X151336769Y-103072867D01*
X151336770Y-103072868D01*
X151395247Y-103084499D01*
X151395250Y-103084500D01*
X152126000Y-103084500D01*
X152193039Y-103104185D01*
X152238794Y-103156989D01*
X152250000Y-103208500D01*
X152250000Y-104976000D01*
X152230315Y-105043039D01*
X152177511Y-105088794D01*
X152126000Y-105100000D01*
X147350000Y-105100000D01*
X147350000Y-101100000D01*
X151261938Y-101100000D01*
X151328977Y-101119685D01*
G37*
G04 #@! TD.AperFunction*
G04 #@! TA.AperFunction,Conductor*
G36*
X141700000Y-87376000D02*
G01*
X141680315Y-87443039D01*
X141627511Y-87488794D01*
X141576000Y-87500000D01*
X114014041Y-87500000D01*
X114018006Y-87488794D01*
X114111004Y-87225946D01*
X114292239Y-86713716D01*
X114293611Y-86710029D01*
X114741204Y-85564390D01*
X114742681Y-85560782D01*
X115227130Y-84430253D01*
X115228762Y-84426609D01*
X115241200Y-84400000D01*
X141700000Y-84400000D01*
X141700000Y-87376000D01*
G37*
G04 #@! TD.AperFunction*
G04 #@! TA.AperFunction,Conductor*
G36*
X165004643Y-64979575D02*
G01*
X165008287Y-64981137D01*
X166130759Y-65483800D01*
X166134387Y-65485495D01*
X167240030Y-66024260D01*
X167243557Y-66026050D01*
X168331225Y-66600363D01*
X168334644Y-66602240D01*
X169403113Y-67211455D01*
X169406546Y-67213487D01*
X170454713Y-67856973D01*
X170458021Y-67859079D01*
X171484834Y-68536189D01*
X171488081Y-68538406D01*
X172492417Y-69248404D01*
X172495622Y-69250749D01*
X173476396Y-69992863D01*
X173479559Y-69995338D01*
X174435773Y-70768811D01*
X174438854Y-70771387D01*
X175369512Y-71575411D01*
X175372508Y-71578085D01*
X176276669Y-72411848D01*
X176279576Y-72414618D01*
X176848659Y-72974559D01*
X176882639Y-73035607D01*
X176878219Y-73105336D01*
X176849371Y-73150626D01*
X176787654Y-73212343D01*
X176726331Y-73245828D01*
X176656639Y-73240844D01*
X176623811Y-73222516D01*
X176464506Y-73098524D01*
X176245811Y-72980172D01*
X176245802Y-72980169D01*
X176010616Y-72899429D01*
X175765335Y-72858500D01*
X175516665Y-72858500D01*
X175271383Y-72899429D01*
X175036197Y-72980169D01*
X175036188Y-72980172D01*
X174817493Y-73098524D01*
X174621257Y-73251261D01*
X174452833Y-73434217D01*
X174316826Y-73642393D01*
X174216936Y-73870118D01*
X174155892Y-74111175D01*
X174155890Y-74111187D01*
X174135357Y-74358994D01*
X174135357Y-74359005D01*
X174155890Y-74606812D01*
X174155892Y-74606824D01*
X174216936Y-74847881D01*
X174316826Y-75075606D01*
X174452833Y-75283782D01*
X174452836Y-75283785D01*
X174498497Y-75333386D01*
X174529419Y-75396039D01*
X174521559Y-75465465D01*
X174494948Y-75505049D01*
X165000000Y-85000000D01*
X165000000Y-64977674D01*
X165004643Y-64979575D01*
G37*
G04 #@! TD.AperFunction*
G04 #@! TA.AperFunction,Conductor*
G36*
X151241572Y-92819685D02*
G01*
X151287327Y-92872489D01*
X151297271Y-92941647D01*
X151274514Y-92991476D01*
X151277233Y-92993293D01*
X151226132Y-93069769D01*
X151226131Y-93069770D01*
X151214500Y-93128247D01*
X151214500Y-94539752D01*
X151226131Y-94598229D01*
X151226132Y-94598230D01*
X151270447Y-94664552D01*
X151336769Y-94708867D01*
X151336770Y-94708868D01*
X151395247Y-94720499D01*
X151395250Y-94720500D01*
X151395252Y-94720500D01*
X152144749Y-94720500D01*
X152151807Y-94719096D01*
X152221399Y-94725323D01*
X152276577Y-94768185D01*
X152299822Y-94834074D01*
X152300000Y-94840713D01*
X152300000Y-100576000D01*
X152280315Y-100643039D01*
X152227511Y-100688794D01*
X152176000Y-100700000D01*
X146999999Y-100700000D01*
X145436319Y-102263681D01*
X145374996Y-102297166D01*
X145348638Y-102300000D01*
X142824000Y-102300000D01*
X142756961Y-102280315D01*
X142711206Y-102227511D01*
X142700000Y-102176000D01*
X142700000Y-92924000D01*
X142719685Y-92856961D01*
X142772489Y-92811206D01*
X142824000Y-92800000D01*
X151174533Y-92800000D01*
X151241572Y-92819685D01*
G37*
G04 #@! TD.AperFunction*
G04 #@! TA.AperFunction,Conductor*
G36*
X142300000Y-102700000D02*
G01*
X145576000Y-102700000D01*
X145643039Y-102719685D01*
X145688794Y-102772489D01*
X145700000Y-102824000D01*
X145700000Y-112376000D01*
X145680315Y-112443039D01*
X145627511Y-112488794D01*
X145576000Y-112500000D01*
X130124000Y-112500000D01*
X130056961Y-112480315D01*
X130011206Y-112427511D01*
X130000000Y-112376000D01*
X130000000Y-102300000D01*
X142300000Y-102300000D01*
X142300000Y-102700000D01*
G37*
G04 #@! TD.AperFunction*
G04 #@! TA.AperFunction,Conductor*
G36*
X177340310Y-73470405D02*
G01*
X177342802Y-73472958D01*
X177577321Y-73719156D01*
X178007057Y-74170294D01*
X178010328Y-74173842D01*
X178828760Y-75090735D01*
X178831915Y-75094386D01*
X179620262Y-76037341D01*
X179623297Y-76041093D01*
X180380694Y-77009082D01*
X180383605Y-77012930D01*
X181109232Y-78004896D01*
X181112018Y-78008836D01*
X181805182Y-79023839D01*
X181807838Y-79027868D01*
X182467731Y-80064721D01*
X182470256Y-80068833D01*
X183096256Y-81126559D01*
X183098646Y-81130751D01*
X183690055Y-82208174D01*
X183692308Y-82212441D01*
X184248518Y-83308447D01*
X184250632Y-83312785D01*
X184771070Y-84426251D01*
X184773042Y-84430656D01*
X185257127Y-85560338D01*
X185258956Y-85564803D01*
X185706230Y-86709626D01*
X185707913Y-86714149D01*
X186002875Y-87547810D01*
X186116056Y-87867698D01*
X186117866Y-87872812D01*
X186119398Y-87877374D01*
X186491637Y-89048772D01*
X186493019Y-89053383D01*
X186506188Y-89100002D01*
X186827110Y-90236148D01*
X186828347Y-90240813D01*
X187123978Y-91433833D01*
X187125062Y-91438535D01*
X187203166Y-91804043D01*
X187371006Y-92589501D01*
X187381893Y-92640447D01*
X187382823Y-92645174D01*
X187394161Y-92708145D01*
X187600605Y-93854807D01*
X187601383Y-93859569D01*
X187779876Y-95075591D01*
X187780500Y-95080376D01*
X187919528Y-96301579D01*
X187919996Y-96306382D01*
X188019404Y-97531431D01*
X188019716Y-97536246D01*
X188079402Y-98763863D01*
X188079558Y-98768686D01*
X188099460Y-99997587D01*
X188099460Y-100002413D01*
X188079558Y-101231313D01*
X188079402Y-101236136D01*
X188019716Y-102463753D01*
X188019404Y-102468568D01*
X187919996Y-103693617D01*
X187919528Y-103698420D01*
X187780500Y-104919623D01*
X187779876Y-104924408D01*
X187601383Y-106140430D01*
X187600605Y-106145192D01*
X187382825Y-107354817D01*
X187381893Y-107359552D01*
X187125062Y-108561464D01*
X187123978Y-108566166D01*
X186828347Y-109759186D01*
X186827110Y-109763851D01*
X186493023Y-110946605D01*
X186491637Y-110951227D01*
X186119402Y-112122613D01*
X186117866Y-112127187D01*
X185707913Y-113285850D01*
X185706230Y-113290373D01*
X185258956Y-114435196D01*
X185257127Y-114439661D01*
X184773042Y-115569343D01*
X184771070Y-115573748D01*
X184250632Y-116687214D01*
X184248518Y-116691552D01*
X183692308Y-117787558D01*
X183690055Y-117791825D01*
X183098646Y-118869248D01*
X183096256Y-118873440D01*
X182470256Y-119931166D01*
X182467731Y-119935278D01*
X181807838Y-120972131D01*
X181805182Y-120976160D01*
X181112018Y-121991163D01*
X181109232Y-121995103D01*
X180383605Y-122987069D01*
X180380694Y-122990917D01*
X179623297Y-123958906D01*
X179620262Y-123962658D01*
X178831915Y-124905613D01*
X178828760Y-124909264D01*
X178010328Y-125826157D01*
X178007057Y-125829705D01*
X177159323Y-126719657D01*
X177155938Y-126723096D01*
X176279847Y-127585114D01*
X176276353Y-127588443D01*
X175372803Y-128421642D01*
X175369203Y-128424855D01*
X174439157Y-129228350D01*
X174435455Y-129231445D01*
X173479885Y-130004397D01*
X173476085Y-130007371D01*
X172495955Y-130748998D01*
X172492060Y-130751847D01*
X171488442Y-131461338D01*
X171484457Y-131464059D01*
X170458405Y-132140667D01*
X170454334Y-132143258D01*
X169406902Y-132786293D01*
X169402749Y-132788751D01*
X168335042Y-133397532D01*
X168330812Y-133399854D01*
X167243956Y-133973738D01*
X167239653Y-133975922D01*
X166134760Y-134514322D01*
X166130389Y-134516365D01*
X165008686Y-135018684D01*
X165004250Y-135020585D01*
X163866824Y-135486336D01*
X163862329Y-135488092D01*
X162710428Y-135916764D01*
X162705879Y-135918373D01*
X161540739Y-136309505D01*
X161536140Y-136310967D01*
X160358879Y-136664186D01*
X160354280Y-136665485D01*
X159166208Y-136980394D01*
X159161546Y-136981549D01*
X157963929Y-137257814D01*
X157959210Y-137258823D01*
X156753250Y-137496167D01*
X156748500Y-137497022D01*
X155535494Y-137695188D01*
X155530720Y-137695888D01*
X155268249Y-137730082D01*
X155191794Y-137719912D01*
X155130668Y-137672877D01*
X155101249Y-137601580D01*
X155100000Y-137582331D01*
X155100000Y-125717032D01*
X155119962Y-125642532D01*
X155174500Y-125587994D01*
X155249000Y-125568032D01*
X155323500Y-125587994D01*
X155378038Y-125642532D01*
X155386657Y-125660012D01*
X155432241Y-125770061D01*
X155455932Y-125800935D01*
X155515085Y-125878025D01*
X155518077Y-125881923D01*
X155629939Y-125967759D01*
X155706247Y-125999367D01*
X155760208Y-126021718D01*
X155899997Y-126040121D01*
X155900000Y-126040121D01*
X155900003Y-126040121D01*
X156039791Y-126021718D01*
X156039793Y-126021717D01*
X156039794Y-126021717D01*
X156170061Y-125967759D01*
X156281923Y-125881923D01*
X156367759Y-125770061D01*
X156421717Y-125639794D01*
X156421717Y-125639793D01*
X156421718Y-125639791D01*
X156440121Y-125500002D01*
X156440121Y-125499997D01*
X156421718Y-125360208D01*
X156367760Y-125229940D01*
X156341290Y-125195444D01*
X156311775Y-125124187D01*
X156310500Y-125104739D01*
X156310500Y-125082981D01*
X156330462Y-125008481D01*
X156385000Y-124953943D01*
X156391833Y-124950232D01*
X156419294Y-124936241D01*
X156500130Y-124855404D01*
X156566923Y-124816841D01*
X156644051Y-124816841D01*
X156710846Y-124855404D01*
X156749411Y-124922199D01*
X156751624Y-124931691D01*
X156751710Y-124932127D01*
X156751712Y-124932131D01*
X156751713Y-124932133D01*
X156798238Y-125001762D01*
X156867867Y-125048287D01*
X156929267Y-125060500D01*
X158170732Y-125060499D01*
X158232133Y-125048287D01*
X158301762Y-125001762D01*
X158348287Y-124932133D01*
X158360500Y-124870733D01*
X158360499Y-124229268D01*
X158348287Y-124167867D01*
X158301762Y-124098238D01*
X158299189Y-124096519D01*
X158261846Y-124071567D01*
X158232133Y-124051713D01*
X158170733Y-124039500D01*
X158109500Y-124039500D01*
X158035000Y-124019538D01*
X157980462Y-123965000D01*
X157960500Y-123890500D01*
X157960500Y-123795957D01*
X157960499Y-123795955D01*
X157958770Y-123789501D01*
X157932525Y-123691553D01*
X157878482Y-123597947D01*
X157802053Y-123521518D01*
X157802051Y-123521516D01*
X157784893Y-123504358D01*
X157746329Y-123437563D01*
X157746329Y-123360435D01*
X157784893Y-123293640D01*
X157851688Y-123255076D01*
X157890252Y-123249999D01*
X158194795Y-123249999D01*
X158219874Y-123247090D01*
X158322477Y-123201787D01*
X158322478Y-123201787D01*
X158401786Y-123122478D01*
X158447091Y-123019871D01*
X158450000Y-122994795D01*
X158450000Y-122800000D01*
X157549000Y-122800000D01*
X157474500Y-122780038D01*
X157419962Y-122725500D01*
X157400000Y-122651000D01*
X157400000Y-122500000D01*
X157700000Y-122500000D01*
X158449999Y-122500000D01*
X158449999Y-122305205D01*
X158447090Y-122280125D01*
X158401787Y-122177522D01*
X158322478Y-122098213D01*
X158219871Y-122052908D01*
X158194796Y-122050000D01*
X157700000Y-122050000D01*
X157700000Y-122500000D01*
X157400000Y-122500000D01*
X157400000Y-122050000D01*
X156905205Y-122050000D01*
X156880125Y-122052909D01*
X156777522Y-122098212D01*
X156777522Y-122098213D01*
X156698213Y-122177521D01*
X156674225Y-122231851D01*
X156625871Y-122291940D01*
X156553952Y-122319802D01*
X156477736Y-122307972D01*
X156432561Y-122277026D01*
X156419294Y-122263759D01*
X156303434Y-122204725D01*
X156287412Y-122202187D01*
X156207307Y-122189500D01*
X156207302Y-122189500D01*
X155592698Y-122189500D01*
X155496566Y-122204725D01*
X155496564Y-122204726D01*
X155380705Y-122263759D01*
X155354359Y-122290106D01*
X155287564Y-122328670D01*
X155210436Y-122328670D01*
X155143641Y-122290106D01*
X155105077Y-122223311D01*
X155100000Y-122184747D01*
X155100000Y-118617032D01*
X155119962Y-118542532D01*
X155174500Y-118487994D01*
X155249000Y-118468032D01*
X155323500Y-118487994D01*
X155378038Y-118542532D01*
X155386657Y-118560012D01*
X155432241Y-118670061D01*
X155455932Y-118700935D01*
X155518075Y-118781921D01*
X155518078Y-118781924D01*
X155539191Y-118798124D01*
X155629939Y-118867759D01*
X155664639Y-118882132D01*
X155760208Y-118921718D01*
X155899997Y-118940121D01*
X155900000Y-118940121D01*
X155900003Y-118940121D01*
X156039791Y-118921718D01*
X156039793Y-118921717D01*
X156039794Y-118921717D01*
X156170061Y-118867759D01*
X156281923Y-118781923D01*
X156367759Y-118670061D01*
X156421717Y-118539794D01*
X156421717Y-118539793D01*
X156421718Y-118539791D01*
X156440121Y-118400002D01*
X156440121Y-118399997D01*
X156421718Y-118260208D01*
X156367760Y-118129940D01*
X156341290Y-118095444D01*
X156311775Y-118024187D01*
X156310500Y-118004739D01*
X156310500Y-117982981D01*
X156330462Y-117908481D01*
X156385000Y-117853943D01*
X156391833Y-117850232D01*
X156419294Y-117836241D01*
X156500130Y-117755404D01*
X156566923Y-117716841D01*
X156644051Y-117716841D01*
X156710846Y-117755404D01*
X156749411Y-117822199D01*
X156751624Y-117831691D01*
X156751710Y-117832127D01*
X156751712Y-117832131D01*
X156751713Y-117832133D01*
X156798238Y-117901762D01*
X156867867Y-117948287D01*
X156929267Y-117960500D01*
X158170732Y-117960499D01*
X158232133Y-117948287D01*
X158301762Y-117901762D01*
X158348287Y-117832133D01*
X158360500Y-117770733D01*
X158360499Y-117129268D01*
X158348287Y-117067867D01*
X158301762Y-116998238D01*
X158299189Y-116996519D01*
X158261846Y-116971567D01*
X158232133Y-116951713D01*
X158170733Y-116939500D01*
X158109500Y-116939500D01*
X158035000Y-116919538D01*
X157980462Y-116865000D01*
X157960500Y-116790500D01*
X157960500Y-116695956D01*
X157958742Y-116689396D01*
X157958741Y-116689393D01*
X157945450Y-116639791D01*
X157932525Y-116591553D01*
X157932523Y-116591550D01*
X157932523Y-116591548D01*
X157910871Y-116554047D01*
X157910870Y-116554046D01*
X157910869Y-116554044D01*
X157878482Y-116497947D01*
X157802053Y-116421518D01*
X157802051Y-116421516D01*
X157784893Y-116404358D01*
X157746329Y-116337563D01*
X157746329Y-116260435D01*
X157784893Y-116193640D01*
X157851688Y-116155076D01*
X157890252Y-116149999D01*
X158194795Y-116149999D01*
X158219874Y-116147090D01*
X158322477Y-116101787D01*
X158322478Y-116101787D01*
X158401786Y-116022478D01*
X158447091Y-115919871D01*
X158450000Y-115894795D01*
X158450000Y-115700000D01*
X157549000Y-115700000D01*
X157474500Y-115680038D01*
X157419962Y-115625500D01*
X157400000Y-115551000D01*
X157400000Y-115400000D01*
X157700000Y-115400000D01*
X158449999Y-115400000D01*
X158449999Y-115229266D01*
X159239500Y-115229266D01*
X159239500Y-115870729D01*
X159251713Y-115932132D01*
X159251713Y-115932133D01*
X159258453Y-115942220D01*
X159283245Y-116015255D01*
X159268198Y-116090901D01*
X159258453Y-116107780D01*
X159251713Y-116117867D01*
X159239500Y-116179266D01*
X159239500Y-116820729D01*
X159244971Y-116848237D01*
X159251671Y-116881924D01*
X159251713Y-116882132D01*
X159251713Y-116882133D01*
X159258453Y-116892220D01*
X159283245Y-116965255D01*
X159268198Y-117040901D01*
X159258453Y-117057780D01*
X159251713Y-117067867D01*
X159239500Y-117129266D01*
X159239500Y-117770729D01*
X159243276Y-117789712D01*
X159251713Y-117832133D01*
X159298238Y-117901762D01*
X159367867Y-117948287D01*
X159429267Y-117960500D01*
X160670732Y-117960499D01*
X160732133Y-117948287D01*
X160771703Y-117921846D01*
X160844734Y-117897054D01*
X160920380Y-117912099D01*
X160959841Y-117940376D01*
X160970859Y-117951394D01*
X161009423Y-118018189D01*
X161014500Y-118056752D01*
X161014500Y-118332302D01*
X161029725Y-118428433D01*
X161029726Y-118428435D01*
X161088759Y-118544294D01*
X161180705Y-118636240D01*
X161187253Y-118640997D01*
X161235794Y-118700935D01*
X161247862Y-118777113D01*
X161233912Y-118820060D01*
X161235978Y-118820916D01*
X161178281Y-118960208D01*
X161159879Y-119099997D01*
X161159879Y-119100002D01*
X161178281Y-119239791D01*
X161232239Y-119370057D01*
X161232241Y-119370061D01*
X161318077Y-119481923D01*
X161429939Y-119567759D01*
X161506247Y-119599367D01*
X161560208Y-119621718D01*
X161699997Y-119640121D01*
X161700000Y-119640121D01*
X161700003Y-119640121D01*
X161839791Y-119621718D01*
X161839793Y-119621717D01*
X161839794Y-119621717D01*
X161970061Y-119567759D01*
X162081923Y-119481923D01*
X162167759Y-119370061D01*
X162221717Y-119239794D01*
X162221717Y-119239793D01*
X162221718Y-119239791D01*
X162240121Y-119100002D01*
X162240121Y-119099997D01*
X162221718Y-118960208D01*
X162164022Y-118820916D01*
X162166912Y-118819718D01*
X162151321Y-118761567D01*
X162171271Y-118687064D01*
X162212750Y-118640994D01*
X162219286Y-118636244D01*
X162219294Y-118636241D01*
X162311241Y-118544294D01*
X162370275Y-118428433D01*
X162385500Y-118332307D01*
X162385499Y-117867694D01*
X162370275Y-117771567D01*
X162311241Y-117655706D01*
X162219294Y-117563759D01*
X162157564Y-117532306D01*
X162103434Y-117504725D01*
X162087412Y-117502187D01*
X162007307Y-117489500D01*
X162007302Y-117489500D01*
X161731753Y-117489500D01*
X161657253Y-117469538D01*
X161626394Y-117445859D01*
X161545393Y-117364858D01*
X161506829Y-117298063D01*
X161506829Y-117220935D01*
X161545393Y-117154140D01*
X161612188Y-117115576D01*
X161650747Y-117110499D01*
X162007306Y-117110499D01*
X162103433Y-117095275D01*
X162219294Y-117036241D01*
X162259017Y-116996517D01*
X162325809Y-116957954D01*
X162402938Y-116957954D01*
X162421395Y-116964219D01*
X162429936Y-116967756D01*
X162429939Y-116967759D01*
X162560206Y-117021717D01*
X162560209Y-117021717D01*
X162560211Y-117021718D01*
X162560208Y-117021718D01*
X162699997Y-117040121D01*
X162700000Y-117040121D01*
X162700003Y-117040121D01*
X162839791Y-117021718D01*
X162839793Y-117021717D01*
X162839794Y-117021717D01*
X162970061Y-116967759D01*
X163081923Y-116881923D01*
X163167759Y-116770061D01*
X163221717Y-116639794D01*
X163221717Y-116639793D01*
X163221718Y-116639791D01*
X163240121Y-116500002D01*
X163240121Y-116499997D01*
X163221718Y-116360208D01*
X163167760Y-116229940D01*
X163110313Y-116155076D01*
X163081923Y-116118077D01*
X162970061Y-116032241D01*
X162970058Y-116032239D01*
X162970057Y-116032239D01*
X162839791Y-115978281D01*
X162700003Y-115959879D01*
X162699997Y-115959879D01*
X162560208Y-115978281D01*
X162421394Y-116035780D01*
X162344926Y-116045847D01*
X162273669Y-116016331D01*
X162259016Y-116003481D01*
X162219294Y-115963759D01*
X162103434Y-115904725D01*
X162079641Y-115900956D01*
X162012612Y-115890340D01*
X161942154Y-115858970D01*
X161896819Y-115796571D01*
X161888757Y-115719866D01*
X161920128Y-115649406D01*
X161978903Y-115605517D01*
X162070061Y-115567759D01*
X162128623Y-115522822D01*
X164000000Y-115522822D01*
X164000001Y-115522842D01*
X164006401Y-115582377D01*
X164056645Y-115717084D01*
X164056650Y-115717094D01*
X164142809Y-115832187D01*
X164142812Y-115832190D01*
X164257905Y-115918349D01*
X164257915Y-115918354D01*
X164392623Y-115968598D01*
X164392621Y-115968598D01*
X164452157Y-115974998D01*
X164452177Y-115975000D01*
X164550000Y-115975000D01*
X164550000Y-115350000D01*
X164000000Y-115350000D01*
X164000000Y-115522822D01*
X162128623Y-115522822D01*
X162181923Y-115481923D01*
X162267759Y-115370061D01*
X162321717Y-115239794D01*
X162321717Y-115239793D01*
X162321718Y-115239791D01*
X162340121Y-115100002D01*
X162340121Y-115099997D01*
X162321718Y-114960208D01*
X162267760Y-114829940D01*
X162224841Y-114774008D01*
X162181923Y-114718077D01*
X162070061Y-114632241D01*
X162070058Y-114632239D01*
X162070057Y-114632239D01*
X161939791Y-114578281D01*
X161800003Y-114559879D01*
X161799997Y-114559879D01*
X161660208Y-114578281D01*
X161529940Y-114632239D01*
X161529940Y-114632240D01*
X161418079Y-114718075D01*
X161418075Y-114718079D01*
X161332240Y-114829940D01*
X161332239Y-114829940D01*
X161278281Y-114960208D01*
X161265151Y-115059948D01*
X161235636Y-115131205D01*
X161174446Y-115178158D01*
X161117426Y-115189500D01*
X160942384Y-115189500D01*
X160867884Y-115169538D01*
X160818496Y-115123281D01*
X160801763Y-115098239D01*
X160801761Y-115098237D01*
X160778657Y-115082799D01*
X160732133Y-115051713D01*
X160670733Y-115039500D01*
X159429269Y-115039500D01*
X159367867Y-115051713D01*
X159298238Y-115098237D01*
X159298237Y-115098238D01*
X159251713Y-115167867D01*
X159239500Y-115229266D01*
X158449999Y-115229266D01*
X158449999Y-115205205D01*
X158447090Y-115180125D01*
X158401787Y-115077522D01*
X158322478Y-114998213D01*
X158219871Y-114952908D01*
X158194796Y-114950000D01*
X157700000Y-114950000D01*
X157700000Y-115400000D01*
X157400000Y-115400000D01*
X157400000Y-114950000D01*
X156905205Y-114950000D01*
X156880125Y-114952909D01*
X156777522Y-114998212D01*
X156777522Y-114998213D01*
X156698213Y-115077521D01*
X156674225Y-115131851D01*
X156625871Y-115191940D01*
X156553952Y-115219802D01*
X156477736Y-115207972D01*
X156432561Y-115177026D01*
X156419294Y-115163759D01*
X156303434Y-115104725D01*
X156273613Y-115100002D01*
X156207307Y-115089500D01*
X156207302Y-115089500D01*
X155592698Y-115089500D01*
X155496566Y-115104725D01*
X155496564Y-115104726D01*
X155380705Y-115163759D01*
X155354359Y-115190106D01*
X155287564Y-115228670D01*
X155210436Y-115228670D01*
X155143641Y-115190106D01*
X155105077Y-115123311D01*
X155100000Y-115084747D01*
X155100000Y-112500000D01*
X146249000Y-112500000D01*
X146174500Y-112480038D01*
X146119962Y-112425500D01*
X146100000Y-112351000D01*
X146100000Y-109952352D01*
X147239500Y-109952352D01*
X147239500Y-111347648D01*
X147242267Y-111388459D01*
X147286125Y-111564818D01*
X147366868Y-111727622D01*
X147366869Y-111727623D01*
X147366871Y-111727627D01*
X147480728Y-111869272D01*
X147622373Y-111983129D01*
X147785182Y-112063875D01*
X147961542Y-112107733D01*
X148002345Y-112110500D01*
X151897654Y-112110499D01*
X151938458Y-112107733D01*
X152114818Y-112063875D01*
X152277627Y-111983129D01*
X152419272Y-111869272D01*
X152533129Y-111727627D01*
X152613875Y-111564818D01*
X152657733Y-111388458D01*
X152660500Y-111347655D01*
X152660500Y-111209500D01*
X152680462Y-111135000D01*
X152735000Y-111080462D01*
X152809500Y-111060500D01*
X154493247Y-111060500D01*
X154567747Y-111080462D01*
X154598606Y-111104141D01*
X154680706Y-111186241D01*
X154796567Y-111245275D01*
X154892693Y-111260500D01*
X155507306Y-111260499D01*
X155603433Y-111245275D01*
X155719294Y-111186241D01*
X155800519Y-111105016D01*
X155867313Y-111066451D01*
X155944441Y-111066451D01*
X155996583Y-111092164D01*
X156012192Y-111104141D01*
X156029939Y-111117759D01*
X156101646Y-111147461D01*
X156160208Y-111171718D01*
X156299997Y-111190121D01*
X156300000Y-111190121D01*
X156300003Y-111190121D01*
X156439791Y-111171718D01*
X156439793Y-111171717D01*
X156439794Y-111171717D01*
X156570061Y-111117759D01*
X156681923Y-111031923D01*
X156767759Y-110920061D01*
X156821717Y-110789794D01*
X156821717Y-110789793D01*
X156821718Y-110789791D01*
X156840121Y-110650002D01*
X156840121Y-110649997D01*
X156821718Y-110510208D01*
X156767760Y-110379940D01*
X156717962Y-110315044D01*
X156681923Y-110268077D01*
X156570061Y-110182241D01*
X156570058Y-110182239D01*
X156570057Y-110182239D01*
X156439791Y-110128281D01*
X156300003Y-110109879D01*
X156299997Y-110109879D01*
X156160208Y-110128281D01*
X156029940Y-110182239D01*
X156029937Y-110182242D01*
X155996581Y-110207836D01*
X155925324Y-110237351D01*
X155848856Y-110227282D01*
X155800519Y-110194984D01*
X155719294Y-110113759D01*
X155603431Y-110054724D01*
X155532454Y-110043482D01*
X155461994Y-110012111D01*
X155416660Y-109949713D01*
X155408599Y-109873007D01*
X155439970Y-109802547D01*
X155502368Y-109757213D01*
X155539839Y-109748170D01*
X155582380Y-109743596D01*
X155717084Y-109693354D01*
X155717094Y-109693349D01*
X155832187Y-109607190D01*
X155832190Y-109607187D01*
X155918349Y-109492094D01*
X155918354Y-109492084D01*
X155968598Y-109357377D01*
X155974998Y-109297842D01*
X155975000Y-109297822D01*
X155975000Y-109200000D01*
X154531000Y-109200000D01*
X154456500Y-109180038D01*
X154401962Y-109125500D01*
X154390029Y-109080967D01*
X154319000Y-109100000D01*
X153800000Y-109100000D01*
X153800000Y-109650000D01*
X153972823Y-109650000D01*
X153972842Y-109649998D01*
X154032377Y-109643598D01*
X154167084Y-109593354D01*
X154167094Y-109593349D01*
X154290720Y-109500803D01*
X154291718Y-109502136D01*
X154347914Y-109469686D01*
X154425042Y-109469680D01*
X154491840Y-109508239D01*
X154505769Y-109524312D01*
X154567812Y-109607190D01*
X154682905Y-109693349D01*
X154682915Y-109693354D01*
X154817623Y-109743598D01*
X154817621Y-109743598D01*
X154860167Y-109748172D01*
X154932106Y-109775983D01*
X154980502Y-109836038D01*
X154992386Y-109912245D01*
X154964575Y-109984184D01*
X154904520Y-110032580D01*
X154867551Y-110043482D01*
X154812850Y-110052146D01*
X154796566Y-110054725D01*
X154796564Y-110054726D01*
X154680705Y-110113759D01*
X154598606Y-110195859D01*
X154531811Y-110234423D01*
X154493247Y-110239500D01*
X152809499Y-110239500D01*
X152734999Y-110219538D01*
X152680461Y-110165000D01*
X152660499Y-110090500D01*
X152660499Y-109952351D01*
X152660499Y-109952345D01*
X152657733Y-109911542D01*
X152613875Y-109735182D01*
X152533129Y-109572373D01*
X152419272Y-109430728D01*
X152277627Y-109316871D01*
X152277623Y-109316869D01*
X152277622Y-109316868D01*
X152114818Y-109236125D01*
X151960796Y-109197822D01*
X152875000Y-109197822D01*
X152875001Y-109197842D01*
X152881401Y-109257377D01*
X152931645Y-109392084D01*
X152931650Y-109392094D01*
X153017809Y-109507187D01*
X153017812Y-109507190D01*
X153132905Y-109593349D01*
X153132915Y-109593354D01*
X153267623Y-109643598D01*
X153267621Y-109643598D01*
X153327157Y-109649998D01*
X153327177Y-109650000D01*
X153500000Y-109650000D01*
X153500000Y-109100000D01*
X152875000Y-109100000D01*
X152875000Y-109197822D01*
X151960796Y-109197822D01*
X151938454Y-109192266D01*
X151938455Y-109192266D01*
X151914179Y-109190620D01*
X151897655Y-109189500D01*
X151897647Y-109189500D01*
X148002351Y-109189500D01*
X147961540Y-109192267D01*
X147785181Y-109236125D01*
X147622377Y-109316868D01*
X147622373Y-109316870D01*
X147622373Y-109316871D01*
X147480728Y-109430728D01*
X147374938Y-109562338D01*
X147366868Y-109572377D01*
X147286125Y-109735181D01*
X147242266Y-109911545D01*
X147240859Y-109932307D01*
X147239679Y-109949713D01*
X147239500Y-109952352D01*
X146100000Y-109952352D01*
X146100000Y-105649000D01*
X146119962Y-105574500D01*
X146174500Y-105519962D01*
X146249000Y-105500000D01*
X152700000Y-105500000D01*
X152700000Y-103335775D01*
X155489500Y-103335775D01*
X155489500Y-103704209D01*
X155489501Y-103704214D01*
X155499709Y-103774286D01*
X155552551Y-103882375D01*
X155637625Y-103967449D01*
X155745714Y-104020291D01*
X155772995Y-104024265D01*
X155815775Y-104030499D01*
X155815778Y-104030499D01*
X155815785Y-104030500D01*
X156909214Y-104030499D01*
X156979286Y-104020291D01*
X157087375Y-103967449D01*
X157172449Y-103882375D01*
X157225291Y-103774286D01*
X157235500Y-103704215D01*
X157235499Y-103335786D01*
X157225291Y-103265714D01*
X157172449Y-103157625D01*
X157087375Y-103072551D01*
X156979286Y-103019709D01*
X156979284Y-103019708D01*
X156979283Y-103019708D01*
X156909218Y-103009500D01*
X155815789Y-103009500D01*
X155815785Y-103009501D01*
X155801906Y-103011523D01*
X155745714Y-103019709D01*
X155745712Y-103019709D01*
X155745711Y-103019710D01*
X155637624Y-103072551D01*
X155552551Y-103157624D01*
X155499708Y-103265715D01*
X155499708Y-103265717D01*
X155489500Y-103335775D01*
X152700000Y-103335775D01*
X152700000Y-102875373D01*
X152719962Y-102800873D01*
X152774500Y-102746335D01*
X152829549Y-102727648D01*
X152889794Y-102719717D01*
X153020061Y-102665759D01*
X153131923Y-102579923D01*
X153217759Y-102468061D01*
X153271717Y-102337794D01*
X153271717Y-102337793D01*
X153271718Y-102337791D01*
X153290121Y-102198002D01*
X153290121Y-102197997D01*
X153271718Y-102058208D01*
X153217760Y-101927940D01*
X153153765Y-101844542D01*
X153131923Y-101816077D01*
X153020061Y-101730241D01*
X153020058Y-101730239D01*
X153020057Y-101730239D01*
X152936290Y-101695542D01*
X152889794Y-101676283D01*
X152889793Y-101676282D01*
X152889791Y-101676282D01*
X152829551Y-101668351D01*
X152758294Y-101638835D01*
X152711342Y-101577645D01*
X152700000Y-101520626D01*
X152700000Y-98709500D01*
X152719962Y-98635000D01*
X152774500Y-98580462D01*
X152849000Y-98560500D01*
X158189580Y-98560500D01*
X158264080Y-98580462D01*
X158280281Y-98591288D01*
X158379939Y-98667759D01*
X158456247Y-98699367D01*
X158510208Y-98721718D01*
X158649997Y-98740121D01*
X158650000Y-98740121D01*
X158650003Y-98740121D01*
X158789791Y-98721718D01*
X158789793Y-98721717D01*
X158789794Y-98721717D01*
X158920061Y-98667759D01*
X159019715Y-98591290D01*
X159090970Y-98561775D01*
X159110420Y-98560500D01*
X159254757Y-98560500D01*
X159329257Y-98580462D01*
X159383795Y-98635000D01*
X159387506Y-98641835D01*
X159388759Y-98644294D01*
X159480706Y-98736241D01*
X159596567Y-98795275D01*
X159692693Y-98810500D01*
X160307306Y-98810499D01*
X160403433Y-98795275D01*
X160519294Y-98736241D01*
X160611241Y-98644294D01*
X160625221Y-98616855D01*
X160676829Y-98559539D01*
X160750182Y-98535704D01*
X160757981Y-98535500D01*
X161044169Y-98535500D01*
X161129498Y-98512636D01*
X161206002Y-98468467D01*
X161645327Y-98029140D01*
X161712122Y-97990577D01*
X161750686Y-97985500D01*
X162161514Y-97985500D01*
X162161522Y-97985499D01*
X162420729Y-97985499D01*
X162420732Y-97985499D01*
X162482133Y-97973287D01*
X162482133Y-97973286D01*
X162486435Y-97972431D01*
X162563398Y-97977478D01*
X162627527Y-98020329D01*
X162661638Y-98089504D01*
X162664500Y-98118569D01*
X162664500Y-98370178D01*
X162644538Y-98444677D01*
X162617476Y-98491549D01*
X162589500Y-98595955D01*
X162589500Y-99417018D01*
X162569538Y-99491518D01*
X162515000Y-99546056D01*
X162508146Y-99549777D01*
X162470259Y-99569082D01*
X162469153Y-99566912D01*
X162412441Y-99588684D01*
X162396864Y-99589500D01*
X162103136Y-99589500D01*
X162028636Y-99569538D01*
X162021358Y-99564811D01*
X162019294Y-99563759D01*
X161957703Y-99532377D01*
X161903434Y-99504725D01*
X161887412Y-99502187D01*
X161807307Y-99489500D01*
X161807302Y-99489500D01*
X161192698Y-99489500D01*
X161096566Y-99504725D01*
X161096564Y-99504726D01*
X160980705Y-99563759D01*
X160888759Y-99655705D01*
X160829725Y-99771565D01*
X160829725Y-99771567D01*
X160814500Y-99867693D01*
X160814500Y-99867694D01*
X160814500Y-99867697D01*
X160814500Y-100332302D01*
X160827530Y-100414574D01*
X160829725Y-100428433D01*
X160888759Y-100544294D01*
X160980706Y-100636241D01*
X161096567Y-100695275D01*
X161192693Y-100710500D01*
X161807306Y-100710499D01*
X161903433Y-100695275D01*
X162019294Y-100636241D01*
X162019295Y-100636239D01*
X162029742Y-100630917D01*
X162030847Y-100633087D01*
X162087559Y-100611316D01*
X162103136Y-100610500D01*
X162396864Y-100610500D01*
X162471364Y-100630462D01*
X162478641Y-100635188D01*
X162480704Y-100636239D01*
X162480706Y-100636241D01*
X162596567Y-100695275D01*
X162692693Y-100710500D01*
X163307306Y-100710499D01*
X163403433Y-100695275D01*
X163519294Y-100636241D01*
X163611241Y-100544294D01*
X163617240Y-100532519D01*
X163668848Y-100475203D01*
X163742201Y-100451368D01*
X163817644Y-100467404D01*
X163874961Y-100519012D01*
X163882758Y-100532517D01*
X163888759Y-100544294D01*
X163980706Y-100636241D01*
X164096567Y-100695275D01*
X164192693Y-100710500D01*
X164807306Y-100710499D01*
X164903433Y-100695275D01*
X165019294Y-100636241D01*
X165111241Y-100544294D01*
X165112483Y-100541855D01*
X165115224Y-100538811D01*
X165118132Y-100534809D01*
X165118552Y-100535114D01*
X165164090Y-100484539D01*
X165237443Y-100460704D01*
X165245243Y-100460500D01*
X165254757Y-100460500D01*
X165329257Y-100480462D01*
X165383795Y-100535000D01*
X165387506Y-100541835D01*
X165388759Y-100544294D01*
X165480706Y-100636241D01*
X165596567Y-100695275D01*
X165667546Y-100706517D01*
X165738004Y-100737887D01*
X165783338Y-100800285D01*
X165791401Y-100876991D01*
X165760030Y-100947451D01*
X165697632Y-100992785D01*
X165660163Y-101001828D01*
X165617622Y-101006401D01*
X165482915Y-101056645D01*
X165482905Y-101056650D01*
X165367812Y-101142809D01*
X165367811Y-101142810D01*
X165312685Y-101216448D01*
X165252057Y-101264124D01*
X165175714Y-101275099D01*
X165104111Y-101246432D01*
X165088047Y-101232512D01*
X165019294Y-101163759D01*
X164903434Y-101104725D01*
X164887412Y-101102187D01*
X164807307Y-101089500D01*
X164807302Y-101089500D01*
X164192698Y-101089500D01*
X164096566Y-101104725D01*
X164096564Y-101104726D01*
X163980705Y-101163759D01*
X163888758Y-101255706D01*
X163882759Y-101267481D01*
X163831150Y-101324798D01*
X163757796Y-101348631D01*
X163682354Y-101332594D01*
X163625037Y-101280985D01*
X163617241Y-101267481D01*
X163611241Y-101255706D01*
X163519294Y-101163759D01*
X163403434Y-101104725D01*
X163387412Y-101102187D01*
X163307307Y-101089500D01*
X163307302Y-101089500D01*
X162692698Y-101089500D01*
X162596566Y-101104725D01*
X162596564Y-101104726D01*
X162480705Y-101163759D01*
X162388758Y-101255706D01*
X162382759Y-101267481D01*
X162331150Y-101324798D01*
X162257796Y-101348631D01*
X162182354Y-101332594D01*
X162125037Y-101280985D01*
X162117241Y-101267481D01*
X162111241Y-101255706D01*
X162019294Y-101163759D01*
X161903434Y-101104725D01*
X161887412Y-101102187D01*
X161807307Y-101089500D01*
X161807302Y-101089500D01*
X161192698Y-101089500D01*
X161096566Y-101104725D01*
X161096564Y-101104726D01*
X160980705Y-101163759D01*
X160888759Y-101255705D01*
X160829725Y-101371565D01*
X160829725Y-101371567D01*
X160814500Y-101467693D01*
X160814500Y-101467694D01*
X160814500Y-101467697D01*
X160814500Y-101932302D01*
X160829725Y-102028433D01*
X160829726Y-102028435D01*
X160888759Y-102144294D01*
X160945859Y-102201394D01*
X160984423Y-102268189D01*
X160989500Y-102306753D01*
X160989500Y-102449247D01*
X160969538Y-102523747D01*
X160915000Y-102578285D01*
X160840500Y-102598247D01*
X160766000Y-102578285D01*
X160735141Y-102554606D01*
X160254141Y-102073606D01*
X160215577Y-102006811D01*
X160210500Y-101968247D01*
X160210500Y-101295260D01*
X160230462Y-101220760D01*
X160241291Y-101204554D01*
X160267759Y-101170061D01*
X160321717Y-101039794D01*
X160321717Y-101039793D01*
X160321718Y-101039791D01*
X160340121Y-100900002D01*
X160340121Y-100899997D01*
X160321718Y-100760208D01*
X160267760Y-100629940D01*
X160205305Y-100548549D01*
X160181923Y-100518077D01*
X160070061Y-100432241D01*
X160070058Y-100432239D01*
X160070057Y-100432239D01*
X159939791Y-100378281D01*
X159800003Y-100359879D01*
X159799997Y-100359879D01*
X159660211Y-100378281D01*
X159650776Y-100380810D01*
X159650593Y-100380130D01*
X159603488Y-100389500D01*
X159559499Y-100389500D01*
X159484999Y-100369538D01*
X159430461Y-100315000D01*
X159410499Y-100240500D01*
X159410499Y-100202351D01*
X159410499Y-100202345D01*
X159407733Y-100161542D01*
X159363875Y-99985182D01*
X159283129Y-99822373D01*
X159169272Y-99680728D01*
X159027627Y-99566871D01*
X159027623Y-99566869D01*
X159027622Y-99566868D01*
X158864818Y-99486125D01*
X158688454Y-99442266D01*
X158688455Y-99442266D01*
X158664179Y-99440620D01*
X158647655Y-99439500D01*
X158647647Y-99439500D01*
X154752351Y-99439500D01*
X154711540Y-99442267D01*
X154535181Y-99486125D01*
X154372377Y-99566868D01*
X154372373Y-99566870D01*
X154372373Y-99566871D01*
X154230728Y-99680728D01*
X154118558Y-99820275D01*
X154116868Y-99822377D01*
X154036125Y-99985181D01*
X153992266Y-100161545D01*
X153989500Y-100202352D01*
X153989500Y-101597648D01*
X153992267Y-101638459D01*
X154036125Y-101814818D01*
X154116868Y-101977622D01*
X154116869Y-101977623D01*
X154116871Y-101977627D01*
X154230728Y-102119272D01*
X154372373Y-102233129D01*
X154535182Y-102313875D01*
X154711542Y-102357733D01*
X154752345Y-102360500D01*
X158647654Y-102360499D01*
X158688458Y-102357733D01*
X158864818Y-102313875D01*
X159027627Y-102233129D01*
X159147153Y-102137051D01*
X159217723Y-102105937D01*
X159294399Y-102114276D01*
X159356633Y-102159836D01*
X159387749Y-102230409D01*
X159389500Y-102253186D01*
X159389500Y-102254043D01*
X159417475Y-102358447D01*
X159471518Y-102452053D01*
X160215107Y-103195642D01*
X160253671Y-103262436D01*
X160253671Y-103339564D01*
X160215107Y-103406359D01*
X160148312Y-103444923D01*
X160109748Y-103450000D01*
X159977177Y-103450000D01*
X159977157Y-103450001D01*
X159917622Y-103456401D01*
X159782915Y-103506645D01*
X159782905Y-103506650D01*
X159748791Y-103532188D01*
X159677187Y-103560853D01*
X159600844Y-103549876D01*
X159540218Y-103502199D01*
X159511553Y-103430595D01*
X159510499Y-103412907D01*
X159510499Y-103335789D01*
X159510499Y-103335786D01*
X159500291Y-103265714D01*
X159447449Y-103157625D01*
X159362375Y-103072551D01*
X159254286Y-103019709D01*
X159254284Y-103019708D01*
X159254283Y-103019708D01*
X159184218Y-103009500D01*
X158090789Y-103009500D01*
X158090785Y-103009501D01*
X158076906Y-103011523D01*
X158020714Y-103019709D01*
X158020712Y-103019709D01*
X158020711Y-103019710D01*
X157912624Y-103072551D01*
X157827551Y-103157624D01*
X157774708Y-103265715D01*
X157774708Y-103265717D01*
X157764500Y-103335775D01*
X157764500Y-103704209D01*
X157764501Y-103704214D01*
X157774709Y-103774286D01*
X157774710Y-103774288D01*
X157812219Y-103851013D01*
X157827006Y-103926710D01*
X157801963Y-103999659D01*
X157798244Y-104004933D01*
X157722654Y-104107352D01*
X157677850Y-104235397D01*
X157675000Y-104265787D01*
X157675000Y-104320000D01*
X158638500Y-104320000D01*
X158713000Y-104339962D01*
X158767538Y-104394500D01*
X158787500Y-104469000D01*
X158787500Y-104471000D01*
X158767538Y-104545500D01*
X158713000Y-104600038D01*
X158638500Y-104620000D01*
X157675001Y-104620000D01*
X157675001Y-104674219D01*
X157677850Y-104704604D01*
X157722653Y-104832644D01*
X157798244Y-104935065D01*
X157826422Y-105006861D01*
X157814927Y-105083128D01*
X157812219Y-105088985D01*
X157774709Y-105165712D01*
X157774708Y-105165717D01*
X157764500Y-105235775D01*
X157764500Y-105604209D01*
X157764501Y-105604214D01*
X157774709Y-105674286D01*
X157827551Y-105782375D01*
X157912625Y-105867449D01*
X158020714Y-105920291D01*
X158039356Y-105923007D01*
X158090775Y-105930499D01*
X158090778Y-105930499D01*
X158090785Y-105930500D01*
X159184214Y-105930499D01*
X159254286Y-105920291D01*
X159362375Y-105867449D01*
X159362378Y-105867445D01*
X159368274Y-105863237D01*
X159440505Y-105836193D01*
X159454855Y-105835500D01*
X159465501Y-105835500D01*
X159540001Y-105855462D01*
X159594539Y-105910000D01*
X159612382Y-105976594D01*
X159614041Y-105976464D01*
X159614500Y-105982297D01*
X159614501Y-105982303D01*
X159614501Y-105982306D01*
X159629725Y-106078433D01*
X159688759Y-106194294D01*
X159780706Y-106286241D01*
X159896567Y-106345275D01*
X159992693Y-106360500D01*
X160607306Y-106360499D01*
X160703433Y-106345275D01*
X160819294Y-106286241D01*
X160901394Y-106204141D01*
X160968189Y-106165577D01*
X161006753Y-106160500D01*
X161054043Y-106160500D01*
X161158447Y-106132525D01*
X161252053Y-106078482D01*
X161689785Y-105640747D01*
X161689790Y-105640744D01*
X161702051Y-105628482D01*
X161702053Y-105628482D01*
X161778482Y-105552053D01*
X161832525Y-105458447D01*
X161857813Y-105364071D01*
X161857814Y-105364070D01*
X161860499Y-105354048D01*
X161860500Y-105354043D01*
X161860500Y-103795957D01*
X161860499Y-103795955D01*
X161859499Y-103792223D01*
X161832525Y-103691553D01*
X161778482Y-103597947D01*
X161702053Y-103521518D01*
X161702050Y-103521516D01*
X161664861Y-103484327D01*
X161626297Y-103417532D01*
X161626297Y-103340404D01*
X161664861Y-103273609D01*
X161713198Y-103241312D01*
X161770061Y-103217759D01*
X161881923Y-103131923D01*
X161967759Y-103020061D01*
X162021717Y-102889794D01*
X162021717Y-102889793D01*
X162021718Y-102889791D01*
X162040121Y-102750002D01*
X162040121Y-102749997D01*
X162021717Y-102610206D01*
X162019190Y-102600773D01*
X162019869Y-102600591D01*
X162010500Y-102553487D01*
X162010500Y-102306753D01*
X162030462Y-102232253D01*
X162054141Y-102201394D01*
X162071983Y-102183552D01*
X162111241Y-102144294D01*
X162117240Y-102132519D01*
X162168848Y-102075203D01*
X162242201Y-102051368D01*
X162317644Y-102067404D01*
X162374961Y-102119012D01*
X162382760Y-102132520D01*
X162388759Y-102144294D01*
X162445859Y-102201394D01*
X162484423Y-102268189D01*
X162489500Y-102306753D01*
X162489500Y-103032021D01*
X162476035Y-103093918D01*
X162419295Y-103218159D01*
X162419295Y-103218162D01*
X162402014Y-103277011D01*
X162402013Y-103277016D01*
X162381553Y-103419319D01*
X162381551Y-103419335D01*
X162381551Y-103480669D01*
X162382983Y-103490625D01*
X162384500Y-103511834D01*
X162384500Y-103888161D01*
X162382984Y-103909362D01*
X162381551Y-103919325D01*
X162381551Y-103980664D01*
X162381553Y-103980680D01*
X162402013Y-104122983D01*
X162402014Y-104122988D01*
X162418660Y-104179676D01*
X162419295Y-104181838D01*
X162479023Y-104312623D01*
X162512183Y-104364221D01*
X162604706Y-104471000D01*
X162606339Y-104472884D01*
X162606343Y-104472887D01*
X162638076Y-104500385D01*
X162681306Y-104564259D01*
X162689500Y-104612990D01*
X162689500Y-104704043D01*
X162717475Y-104808447D01*
X162771518Y-104902053D01*
X163071516Y-105202051D01*
X163071518Y-105202053D01*
X163147947Y-105278482D01*
X163205185Y-105311528D01*
X163205186Y-105311529D01*
X163241549Y-105332523D01*
X163241553Y-105332525D01*
X163345956Y-105360500D01*
X163345957Y-105360500D01*
X164045957Y-105360500D01*
X164345957Y-105360500D01*
X165182776Y-105360500D01*
X165239795Y-105371842D01*
X165360208Y-105421718D01*
X165499997Y-105440121D01*
X165500000Y-105440121D01*
X165500003Y-105440121D01*
X165639791Y-105421718D01*
X165639793Y-105421717D01*
X165639794Y-105421717D01*
X165770061Y-105367759D01*
X165881923Y-105281923D01*
X165967759Y-105170061D01*
X166021717Y-105039794D01*
X166021717Y-105039793D01*
X166021718Y-105039791D01*
X166040121Y-104900002D01*
X166040121Y-104899997D01*
X166033826Y-104852177D01*
X167325000Y-104852177D01*
X167325000Y-104950000D01*
X167950000Y-104950000D01*
X167950000Y-103750000D01*
X167400000Y-103750000D01*
X167400000Y-103922822D01*
X167400001Y-103922842D01*
X167406401Y-103982377D01*
X167456645Y-104117084D01*
X167456650Y-104117094D01*
X167542809Y-104232187D01*
X167542812Y-104232190D01*
X167553441Y-104240147D01*
X167601118Y-104300774D01*
X167612094Y-104377117D01*
X167583428Y-104448720D01*
X167553442Y-104478706D01*
X167467813Y-104542808D01*
X167467809Y-104542812D01*
X167381650Y-104657905D01*
X167381645Y-104657915D01*
X167331401Y-104792622D01*
X167325001Y-104852157D01*
X167325000Y-104852177D01*
X166033826Y-104852177D01*
X166021718Y-104760208D01*
X165967760Y-104629940D01*
X165924841Y-104574008D01*
X165881923Y-104518077D01*
X165770061Y-104432241D01*
X165770055Y-104432238D01*
X165764512Y-104429038D01*
X165709974Y-104374500D01*
X165690012Y-104300000D01*
X165709974Y-104225500D01*
X165764512Y-104170962D01*
X165770049Y-104167763D01*
X165770061Y-104167759D01*
X165881923Y-104081923D01*
X165967759Y-103970061D01*
X166021717Y-103839794D01*
X166021717Y-103839793D01*
X166021718Y-103839791D01*
X166040121Y-103700002D01*
X166040121Y-103699997D01*
X166021718Y-103560208D01*
X165967760Y-103429940D01*
X165899055Y-103340404D01*
X165881923Y-103318077D01*
X165828622Y-103277177D01*
X167400000Y-103277177D01*
X167400000Y-103450000D01*
X167950000Y-103450000D01*
X167950000Y-102825000D01*
X167852177Y-102825000D01*
X167852157Y-102825001D01*
X167792622Y-102831401D01*
X167657915Y-102881645D01*
X167657905Y-102881650D01*
X167542812Y-102967809D01*
X167542809Y-102967812D01*
X167456650Y-103082905D01*
X167456645Y-103082915D01*
X167406401Y-103217622D01*
X167400001Y-103277157D01*
X167400000Y-103277177D01*
X165828622Y-103277177D01*
X165770061Y-103232241D01*
X165770058Y-103232239D01*
X165770057Y-103232239D01*
X165639791Y-103178281D01*
X165500003Y-103159879D01*
X165499997Y-103159879D01*
X165360211Y-103178281D01*
X165242679Y-103226964D01*
X165166210Y-103237030D01*
X165094954Y-103207514D01*
X165050125Y-103151202D01*
X165041321Y-103131924D01*
X165020977Y-103087377D01*
X164987817Y-103035779D01*
X164965046Y-103009500D01*
X164946892Y-102988548D01*
X164913192Y-102919172D01*
X164910500Y-102890975D01*
X164910500Y-102382981D01*
X164930462Y-102308481D01*
X164985000Y-102253943D01*
X164991833Y-102250232D01*
X165019294Y-102236241D01*
X165088048Y-102167486D01*
X165154841Y-102128923D01*
X165231969Y-102128923D01*
X165298764Y-102167486D01*
X165312686Y-102183552D01*
X165367812Y-102257190D01*
X165482905Y-102343349D01*
X165482915Y-102343354D01*
X165617623Y-102393598D01*
X165617621Y-102393598D01*
X165677157Y-102399998D01*
X165677177Y-102400000D01*
X165850000Y-102400000D01*
X165850000Y-101699000D01*
X165869962Y-101624500D01*
X165924500Y-101569962D01*
X165999000Y-101550000D01*
X166001000Y-101550000D01*
X166075500Y-101569962D01*
X166130038Y-101624500D01*
X166150000Y-101699000D01*
X166150000Y-102400000D01*
X166322823Y-102400000D01*
X166322842Y-102399998D01*
X166382377Y-102393598D01*
X166517084Y-102343354D01*
X166517094Y-102343349D01*
X166632187Y-102257190D01*
X166632190Y-102257187D01*
X166718349Y-102142094D01*
X166718354Y-102142084D01*
X166768598Y-102007377D01*
X166774998Y-101947842D01*
X166775000Y-101947822D01*
X166775000Y-101844542D01*
X166794962Y-101770042D01*
X166849500Y-101715504D01*
X166924000Y-101695542D01*
X166998500Y-101715504D01*
X167029359Y-101739183D01*
X167111528Y-101821352D01*
X167178648Y-101888472D01*
X167178651Y-101888474D01*
X167178654Y-101888476D01*
X167260848Y-101935931D01*
X167260849Y-101935931D01*
X167260852Y-101935933D01*
X167352539Y-101960500D01*
X174190501Y-101960500D01*
X174265001Y-101980462D01*
X174319539Y-102035000D01*
X174339501Y-102109500D01*
X174339501Y-102146714D01*
X174349709Y-102216786D01*
X174349710Y-102216788D01*
X174402551Y-102324875D01*
X174437817Y-102360141D01*
X174476381Y-102426936D01*
X174476381Y-102504064D01*
X174437817Y-102570859D01*
X174371022Y-102609423D01*
X174332458Y-102614500D01*
X173967697Y-102614500D01*
X173871566Y-102629725D01*
X173871564Y-102629726D01*
X173755705Y-102688759D01*
X173663759Y-102780705D01*
X173599401Y-102907016D01*
X173597695Y-102906147D01*
X173563524Y-102958765D01*
X173538327Y-102977071D01*
X173478654Y-103011523D01*
X173478650Y-103011526D01*
X172782858Y-103707317D01*
X172716063Y-103745881D01*
X172638935Y-103745881D01*
X172572140Y-103707317D01*
X172533576Y-103640522D01*
X172529775Y-103621418D01*
X172521717Y-103560206D01*
X172488772Y-103480669D01*
X172467760Y-103429940D01*
X172399055Y-103340404D01*
X172381923Y-103318077D01*
X172270061Y-103232241D01*
X172270058Y-103232239D01*
X172270057Y-103232239D01*
X172139791Y-103178281D01*
X172000003Y-103159879D01*
X171999996Y-103159879D01*
X171937214Y-103168144D01*
X171860746Y-103158077D01*
X171799557Y-103111124D01*
X171770042Y-103039866D01*
X171772678Y-102999771D01*
X171770443Y-102999477D01*
X171790121Y-102850002D01*
X171790121Y-102849997D01*
X171771718Y-102710208D01*
X171717760Y-102579940D01*
X171659537Y-102504064D01*
X171631923Y-102468077D01*
X171520061Y-102382241D01*
X171520058Y-102382239D01*
X171520057Y-102382239D01*
X171389791Y-102328281D01*
X171250003Y-102309879D01*
X171249997Y-102309879D01*
X171110208Y-102328281D01*
X170979940Y-102382239D01*
X170979940Y-102382240D01*
X170868079Y-102468075D01*
X170868075Y-102468079D01*
X170782240Y-102579940D01*
X170782239Y-102579940D01*
X170728281Y-102710208D01*
X170709879Y-102849997D01*
X170709879Y-102850002D01*
X170728281Y-102989791D01*
X170782239Y-103120057D01*
X170782240Y-103120060D01*
X170791343Y-103131923D01*
X170857515Y-103218159D01*
X170858709Y-103219714D01*
X170888225Y-103290970D01*
X170889500Y-103310420D01*
X170889500Y-104064925D01*
X170869538Y-104139425D01*
X170815000Y-104193963D01*
X170740500Y-104213925D01*
X170721053Y-104212650D01*
X170700004Y-104209879D01*
X170699997Y-104209879D01*
X170560210Y-104228281D01*
X170452325Y-104272968D01*
X170375857Y-104283034D01*
X170304600Y-104253518D01*
X170257648Y-104192327D01*
X170247582Y-104115859D01*
X170262545Y-104067667D01*
X170295275Y-104003433D01*
X170310500Y-103907307D01*
X170310499Y-103292694D01*
X170295275Y-103196567D01*
X170236241Y-103080706D01*
X170144294Y-102988759D01*
X170103183Y-102967812D01*
X170028434Y-102929725D01*
X170012412Y-102927187D01*
X169932307Y-102914500D01*
X169932302Y-102914500D01*
X169467697Y-102914500D01*
X169371566Y-102929725D01*
X169371564Y-102929726D01*
X169255705Y-102988759D01*
X169163759Y-103080705D01*
X169104724Y-103196567D01*
X169104724Y-103196569D01*
X169093482Y-103267545D01*
X169062111Y-103338005D01*
X168999712Y-103383339D01*
X168923007Y-103391400D01*
X168852547Y-103360029D01*
X168807213Y-103297630D01*
X168798171Y-103260160D01*
X168793598Y-103217623D01*
X168743354Y-103082915D01*
X168743349Y-103082905D01*
X168657190Y-102967812D01*
X168657187Y-102967809D01*
X168542094Y-102881650D01*
X168542084Y-102881645D01*
X168407376Y-102831401D01*
X168407378Y-102831401D01*
X168347842Y-102825001D01*
X168347823Y-102825000D01*
X168250000Y-102825000D01*
X168250000Y-104950000D01*
X168875000Y-104950000D01*
X168875000Y-104852177D01*
X168874998Y-104852157D01*
X168868598Y-104792622D01*
X168818354Y-104657915D01*
X168818349Y-104657905D01*
X168732190Y-104542812D01*
X168732187Y-104542809D01*
X168646558Y-104478707D01*
X168598881Y-104418080D01*
X168587905Y-104341737D01*
X168616571Y-104270134D01*
X168646561Y-104240145D01*
X168657187Y-104232190D01*
X168657190Y-104232187D01*
X168743349Y-104117094D01*
X168743354Y-104117084D01*
X168793598Y-103982377D01*
X168798172Y-103939833D01*
X168825983Y-103867893D01*
X168886037Y-103819497D01*
X168962244Y-103807613D01*
X169034184Y-103835424D01*
X169082580Y-103895478D01*
X169093482Y-103932448D01*
X169104725Y-104003433D01*
X169163759Y-104119294D01*
X169255706Y-104211241D01*
X169258144Y-104212483D01*
X169261188Y-104215224D01*
X169265191Y-104218132D01*
X169264885Y-104218552D01*
X169315461Y-104264090D01*
X169339296Y-104337443D01*
X169339500Y-104345243D01*
X169339500Y-104897463D01*
X169364068Y-104989151D01*
X169411523Y-105071345D01*
X169411526Y-105071349D01*
X169411528Y-105071352D01*
X169808737Y-105468561D01*
X169847300Y-105535354D01*
X169847300Y-105612482D01*
X169808736Y-105679277D01*
X169763562Y-105710222D01*
X169677523Y-105748212D01*
X169677522Y-105748213D01*
X169598213Y-105827521D01*
X169552908Y-105930128D01*
X169550000Y-105955204D01*
X169550000Y-106150000D01*
X169990500Y-106150000D01*
X170065000Y-106169962D01*
X170119538Y-106224500D01*
X170139500Y-106299000D01*
X170139500Y-106379782D01*
X170119538Y-106454282D01*
X170065000Y-106508820D01*
X169990500Y-106528782D01*
X169916000Y-106508820D01*
X169885141Y-106485141D01*
X169850000Y-106450000D01*
X169550001Y-106450000D01*
X169506360Y-106493641D01*
X169503879Y-106491160D01*
X169475501Y-106519538D01*
X169401001Y-106539500D01*
X168924130Y-106539500D01*
X168849630Y-106519538D01*
X168795092Y-106465000D01*
X168776965Y-106413810D01*
X168770275Y-106371567D01*
X168711241Y-106255706D01*
X168619294Y-106163759D01*
X168503433Y-106104725D01*
X168503432Y-106104724D01*
X168503431Y-106104724D01*
X168432454Y-106093482D01*
X168361994Y-106062111D01*
X168316660Y-105999713D01*
X168308599Y-105923007D01*
X168339970Y-105852547D01*
X168402368Y-105807213D01*
X168439839Y-105798170D01*
X168482380Y-105793596D01*
X168617084Y-105743354D01*
X168617094Y-105743349D01*
X168732187Y-105657190D01*
X168732190Y-105657187D01*
X168818349Y-105542094D01*
X168818354Y-105542084D01*
X168868598Y-105407377D01*
X168874998Y-105347842D01*
X168875000Y-105347822D01*
X168875000Y-105250000D01*
X167325000Y-105250000D01*
X167325000Y-105347822D01*
X167325001Y-105347842D01*
X167331401Y-105407377D01*
X167381645Y-105542084D01*
X167381650Y-105542094D01*
X167467809Y-105657187D01*
X167467812Y-105657190D01*
X167582905Y-105743349D01*
X167582915Y-105743354D01*
X167717623Y-105793598D01*
X167717621Y-105793598D01*
X167760167Y-105798172D01*
X167832106Y-105825983D01*
X167880502Y-105886038D01*
X167892386Y-105962245D01*
X167864575Y-106034184D01*
X167804520Y-106082580D01*
X167767551Y-106093482D01*
X167712850Y-106102146D01*
X167696566Y-106104725D01*
X167696564Y-106104726D01*
X167580705Y-106163759D01*
X167488759Y-106255705D01*
X167429725Y-106371565D01*
X167429725Y-106371567D01*
X167414500Y-106467693D01*
X167414500Y-106467694D01*
X167414500Y-106467697D01*
X167414500Y-106612559D01*
X167394538Y-106687059D01*
X167340000Y-106741597D01*
X167265500Y-106761559D01*
X167191000Y-106741597D01*
X167147291Y-106703266D01*
X167081923Y-106618077D01*
X166970061Y-106532241D01*
X166970058Y-106532239D01*
X166970057Y-106532239D01*
X166839791Y-106478281D01*
X166700003Y-106459879D01*
X166699997Y-106459879D01*
X166560208Y-106478281D01*
X166429940Y-106532239D01*
X166429940Y-106532240D01*
X166318079Y-106618075D01*
X166318075Y-106618079D01*
X166232240Y-106729940D01*
X166232239Y-106729940D01*
X166178281Y-106860208D01*
X166159879Y-106999997D01*
X166159879Y-107000002D01*
X166178281Y-107139791D01*
X166232239Y-107270057D01*
X166232240Y-107270060D01*
X166305584Y-107365642D01*
X166335100Y-107436899D01*
X166325033Y-107513367D01*
X166278081Y-107574557D01*
X166256580Y-107588123D01*
X166255706Y-107588758D01*
X166163759Y-107680705D01*
X166104724Y-107796567D01*
X166104724Y-107796569D01*
X166093482Y-107867545D01*
X166062111Y-107938005D01*
X165999712Y-107983339D01*
X165923007Y-107991400D01*
X165852547Y-107960029D01*
X165807213Y-107897630D01*
X165798171Y-107860160D01*
X165793598Y-107817623D01*
X165743354Y-107682915D01*
X165743349Y-107682905D01*
X165657190Y-107567812D01*
X165657187Y-107567809D01*
X165542094Y-107481650D01*
X165542084Y-107481645D01*
X165407376Y-107431401D01*
X165407378Y-107431401D01*
X165347842Y-107425001D01*
X165347823Y-107425000D01*
X165250000Y-107425000D01*
X165250000Y-108201000D01*
X165230038Y-108275500D01*
X165175500Y-108330038D01*
X165101000Y-108350000D01*
X164400000Y-108350000D01*
X164400000Y-108522822D01*
X164400001Y-108522842D01*
X164406401Y-108582377D01*
X164456645Y-108717084D01*
X164456650Y-108717095D01*
X164482187Y-108751207D01*
X164510853Y-108822810D01*
X164499877Y-108899153D01*
X164452200Y-108959780D01*
X164380597Y-108988446D01*
X164362907Y-108989500D01*
X163909499Y-108989500D01*
X163834999Y-108969538D01*
X163780461Y-108915000D01*
X163760499Y-108840500D01*
X163760499Y-108802351D01*
X163760499Y-108802345D01*
X163757733Y-108761542D01*
X163713875Y-108585182D01*
X163633129Y-108422373D01*
X163519272Y-108280728D01*
X163377627Y-108166871D01*
X163377623Y-108166869D01*
X163377622Y-108166868D01*
X163214818Y-108086125D01*
X163038454Y-108042266D01*
X163038455Y-108042266D01*
X163014179Y-108040620D01*
X162997655Y-108039500D01*
X162997647Y-108039500D01*
X159102351Y-108039500D01*
X159061540Y-108042267D01*
X158885181Y-108086125D01*
X158722377Y-108166868D01*
X158722373Y-108166870D01*
X158722373Y-108166871D01*
X158580728Y-108280728D01*
X158478736Y-108407613D01*
X158466868Y-108422377D01*
X158386125Y-108585181D01*
X158342266Y-108761545D01*
X158340532Y-108787114D01*
X158339512Y-108802177D01*
X158339500Y-108802352D01*
X158339500Y-108840500D01*
X158319538Y-108915000D01*
X158265000Y-108969538D01*
X158190500Y-108989500D01*
X158073174Y-108989500D01*
X157998674Y-108969538D01*
X157967815Y-108945859D01*
X157254141Y-108232185D01*
X157215577Y-108165390D01*
X157210500Y-108126826D01*
X157210500Y-107877177D01*
X164400000Y-107877177D01*
X164400000Y-108050000D01*
X164950000Y-108050000D01*
X164950000Y-107425000D01*
X164852177Y-107425000D01*
X164852157Y-107425001D01*
X164792622Y-107431401D01*
X164657915Y-107481645D01*
X164657905Y-107481650D01*
X164542812Y-107567809D01*
X164542809Y-107567812D01*
X164456650Y-107682905D01*
X164456645Y-107682915D01*
X164406401Y-107817622D01*
X164400001Y-107877157D01*
X164400000Y-107877177D01*
X157210500Y-107877177D01*
X157210500Y-107678136D01*
X157230462Y-107603636D01*
X157235188Y-107596358D01*
X157236238Y-107594296D01*
X157236241Y-107594294D01*
X157295275Y-107478433D01*
X157306517Y-107407453D01*
X157337887Y-107336996D01*
X157400285Y-107291661D01*
X157476990Y-107283598D01*
X157547450Y-107314969D01*
X157592785Y-107377367D01*
X157601828Y-107414836D01*
X157606401Y-107457377D01*
X157656645Y-107592084D01*
X157656650Y-107592094D01*
X157742809Y-107707187D01*
X157742812Y-107707190D01*
X157857905Y-107793349D01*
X157857915Y-107793354D01*
X157992623Y-107843598D01*
X157992621Y-107843598D01*
X158052157Y-107849998D01*
X158052177Y-107850000D01*
X158150000Y-107850000D01*
X158450000Y-107850000D01*
X158547823Y-107850000D01*
X158547842Y-107849998D01*
X158607377Y-107843598D01*
X158742084Y-107793354D01*
X158742094Y-107793349D01*
X158857187Y-107707190D01*
X158857190Y-107707187D01*
X158943349Y-107592094D01*
X158943354Y-107592084D01*
X158993598Y-107457377D01*
X158999998Y-107397842D01*
X159000000Y-107397822D01*
X159000000Y-107225000D01*
X158450000Y-107225000D01*
X158450000Y-107850000D01*
X158150000Y-107850000D01*
X158150000Y-106925000D01*
X158450000Y-106925000D01*
X159000000Y-106925000D01*
X159000000Y-106752177D01*
X158999998Y-106752157D01*
X158993598Y-106692622D01*
X158943354Y-106557915D01*
X158943349Y-106557905D01*
X158857190Y-106442812D01*
X158857187Y-106442809D01*
X158742094Y-106356650D01*
X158742084Y-106356645D01*
X158607376Y-106306401D01*
X158607378Y-106306401D01*
X158547842Y-106300001D01*
X158547823Y-106300000D01*
X158450000Y-106300000D01*
X158450000Y-106925000D01*
X158150000Y-106925000D01*
X158150000Y-106300000D01*
X158052177Y-106300000D01*
X158052157Y-106300001D01*
X157992622Y-106306401D01*
X157857915Y-106356645D01*
X157857905Y-106356650D01*
X157742812Y-106442809D01*
X157742809Y-106442812D01*
X157656650Y-106557905D01*
X157656645Y-106557915D01*
X157606401Y-106692622D01*
X157601827Y-106735169D01*
X157574015Y-106807108D01*
X157513959Y-106855503D01*
X157437752Y-106867386D01*
X157365813Y-106839574D01*
X157317418Y-106779518D01*
X157306517Y-106742554D01*
X157295275Y-106671567D01*
X157236241Y-106555706D01*
X157236240Y-106555705D01*
X157230917Y-106545258D01*
X157233085Y-106544153D01*
X157211315Y-106487427D01*
X157210500Y-106471863D01*
X157210500Y-106332791D01*
X157175710Y-106202954D01*
X157108502Y-106086546D01*
X157093749Y-106071793D01*
X157055185Y-106004998D01*
X157055185Y-105927870D01*
X157093749Y-105861075D01*
X157128841Y-105825983D01*
X157172449Y-105782375D01*
X157225291Y-105674286D01*
X157235500Y-105604215D01*
X157235499Y-105235786D01*
X157225291Y-105165714D01*
X157172449Y-105057625D01*
X157087375Y-104972551D01*
X156979286Y-104919709D01*
X156979284Y-104919708D01*
X156979283Y-104919708D01*
X156909218Y-104909500D01*
X155815789Y-104909500D01*
X155815785Y-104909501D01*
X155801379Y-104911599D01*
X155745714Y-104919709D01*
X155745712Y-104919709D01*
X155745711Y-104919710D01*
X155637624Y-104972551D01*
X155552551Y-105057624D01*
X155499708Y-105165715D01*
X155499708Y-105165717D01*
X155489500Y-105235775D01*
X155489500Y-105604209D01*
X155489501Y-105604214D01*
X155499709Y-105674286D01*
X155552551Y-105782375D01*
X155637625Y-105867449D01*
X155745714Y-105920291D01*
X155745724Y-105920292D01*
X155746986Y-105920683D01*
X155748623Y-105921713D01*
X155756110Y-105925373D01*
X155755717Y-105926175D01*
X155812273Y-105961749D01*
X155848280Y-106029956D01*
X155852000Y-106063043D01*
X155852000Y-106129710D01*
X155886791Y-106259549D01*
X155936285Y-106345274D01*
X155936286Y-106345275D01*
X155951466Y-106371567D01*
X155953999Y-106375955D01*
X156077082Y-106499038D01*
X156115646Y-106565833D01*
X156115646Y-106642961D01*
X156105047Y-106670574D01*
X156104726Y-106671560D01*
X156104725Y-106671567D01*
X156089500Y-106767693D01*
X156089500Y-106767694D01*
X156089500Y-106767697D01*
X156089500Y-107107619D01*
X156069538Y-107182119D01*
X156015000Y-107236657D01*
X155940500Y-107256619D01*
X155866000Y-107236657D01*
X155811462Y-107182119D01*
X155802847Y-107164651D01*
X155767759Y-107079940D01*
X155760693Y-107070732D01*
X155731158Y-107032241D01*
X155681923Y-106968077D01*
X155570061Y-106882241D01*
X155570058Y-106882239D01*
X155570057Y-106882239D01*
X155439791Y-106828281D01*
X155300003Y-106809879D01*
X155299997Y-106809879D01*
X155160208Y-106828281D01*
X155029940Y-106882239D01*
X155029940Y-106882240D01*
X154995446Y-106908709D01*
X154924190Y-106938225D01*
X154904740Y-106939500D01*
X154356753Y-106939500D01*
X154282253Y-106919538D01*
X154251394Y-106895859D01*
X154169294Y-106813759D01*
X154053434Y-106754725D01*
X154037219Y-106752157D01*
X153957307Y-106739500D01*
X153957302Y-106739500D01*
X153342698Y-106739500D01*
X153246566Y-106754725D01*
X153246564Y-106754726D01*
X153130705Y-106813759D01*
X153048606Y-106895859D01*
X152981811Y-106934423D01*
X152943247Y-106939500D01*
X152759499Y-106939500D01*
X152684999Y-106919538D01*
X152630461Y-106865000D01*
X152610499Y-106790500D01*
X152610499Y-106652351D01*
X152610499Y-106652345D01*
X152607733Y-106611542D01*
X152563875Y-106435182D01*
X152483129Y-106272373D01*
X152369272Y-106130728D01*
X152227627Y-106016871D01*
X152227623Y-106016869D01*
X152227622Y-106016868D01*
X152064818Y-105936125D01*
X151888454Y-105892266D01*
X151888455Y-105892266D01*
X151864179Y-105890620D01*
X151847655Y-105889500D01*
X151847647Y-105889500D01*
X147952351Y-105889500D01*
X147911540Y-105892267D01*
X147735181Y-105936125D01*
X147572377Y-106016868D01*
X147572373Y-106016870D01*
X147572373Y-106016871D01*
X147430728Y-106130728D01*
X147319222Y-106269449D01*
X147316868Y-106272377D01*
X147236125Y-106435181D01*
X147192266Y-106611545D01*
X147191019Y-106629940D01*
X147190137Y-106642961D01*
X147189500Y-106652352D01*
X147189500Y-108047648D01*
X147192267Y-108088459D01*
X147236125Y-108264818D01*
X147316868Y-108427622D01*
X147316869Y-108427623D01*
X147316871Y-108427627D01*
X147430728Y-108569272D01*
X147572373Y-108683129D01*
X147735182Y-108763875D01*
X147911542Y-108807733D01*
X147952345Y-108810500D01*
X151847654Y-108810499D01*
X151888458Y-108807733D01*
X152064818Y-108763875D01*
X152227627Y-108683129D01*
X152369272Y-108569272D01*
X152483129Y-108427627D01*
X152563875Y-108264818D01*
X152607733Y-108088458D01*
X152610500Y-108047655D01*
X152610500Y-107909500D01*
X152630462Y-107835000D01*
X152685000Y-107780462D01*
X152759500Y-107760500D01*
X152943247Y-107760500D01*
X153017747Y-107780462D01*
X153048606Y-107804141D01*
X153130706Y-107886241D01*
X153246567Y-107945275D01*
X153317546Y-107956517D01*
X153388004Y-107987887D01*
X153433338Y-108050285D01*
X153441401Y-108126991D01*
X153410030Y-108197451D01*
X153347632Y-108242785D01*
X153310163Y-108251828D01*
X153267622Y-108256401D01*
X153132915Y-108306645D01*
X153132905Y-108306650D01*
X153017812Y-108392809D01*
X153017809Y-108392812D01*
X152931650Y-108507905D01*
X152931645Y-108507915D01*
X152881401Y-108642622D01*
X152875001Y-108702157D01*
X152875000Y-108702177D01*
X152875000Y-108800000D01*
X154319000Y-108800000D01*
X154393500Y-108819962D01*
X154448038Y-108874500D01*
X154459970Y-108919032D01*
X154531000Y-108900000D01*
X155050000Y-108900000D01*
X155350000Y-108900000D01*
X155975000Y-108900000D01*
X155975000Y-108802177D01*
X155974998Y-108802157D01*
X155968599Y-108742630D01*
X155966588Y-108734121D01*
X155968258Y-108677968D01*
X155956274Y-108671050D01*
X155922027Y-108617762D01*
X155918352Y-108607911D01*
X155918349Y-108607905D01*
X155832190Y-108492812D01*
X155832187Y-108492809D01*
X155717094Y-108406650D01*
X155717084Y-108406645D01*
X155582376Y-108356401D01*
X155582378Y-108356401D01*
X155522842Y-108350001D01*
X155522823Y-108350000D01*
X155350000Y-108350000D01*
X155350000Y-108900000D01*
X155050000Y-108900000D01*
X155050000Y-108350000D01*
X154877177Y-108350000D01*
X154877157Y-108350001D01*
X154817622Y-108356401D01*
X154682915Y-108406645D01*
X154682905Y-108406650D01*
X154559280Y-108499197D01*
X154558283Y-108497865D01*
X154502063Y-108530319D01*
X154424935Y-108530313D01*
X154358143Y-108491744D01*
X154344230Y-108475686D01*
X154282190Y-108392812D01*
X154282187Y-108392809D01*
X154167094Y-108306650D01*
X154167084Y-108306645D01*
X154032377Y-108256401D01*
X153989830Y-108251827D01*
X153917891Y-108224015D01*
X153869496Y-108163959D01*
X153857613Y-108087752D01*
X153885425Y-108015813D01*
X153945481Y-107967418D01*
X153982442Y-107956517D01*
X154053433Y-107945275D01*
X154169294Y-107886241D01*
X154251394Y-107804141D01*
X154318189Y-107765577D01*
X154356753Y-107760500D01*
X154904740Y-107760500D01*
X154979240Y-107780462D01*
X154995444Y-107791290D01*
X155029939Y-107817759D01*
X155034234Y-107819538D01*
X155160208Y-107871718D01*
X155299997Y-107890121D01*
X155300000Y-107890121D01*
X155300003Y-107890121D01*
X155439791Y-107871718D01*
X155439793Y-107871717D01*
X155439794Y-107871717D01*
X155570061Y-107817759D01*
X155681923Y-107731923D01*
X155767759Y-107620061D01*
X155821717Y-107489794D01*
X155821717Y-107489793D01*
X155825454Y-107480772D01*
X155827215Y-107481501D01*
X155859660Y-107425300D01*
X155926453Y-107386733D01*
X156003581Y-107386729D01*
X156070378Y-107425290D01*
X156097224Y-107469092D01*
X156099401Y-107467984D01*
X156104724Y-107478432D01*
X156104725Y-107478433D01*
X156160938Y-107588758D01*
X156169083Y-107604742D01*
X156166912Y-107605847D01*
X156188684Y-107662559D01*
X156189500Y-107678136D01*
X156189500Y-108467209D01*
X156200407Y-108507915D01*
X156205555Y-108527125D01*
X156205555Y-108588725D01*
X156220038Y-108597671D01*
X156240631Y-108625351D01*
X156271400Y-108678644D01*
X156271401Y-108678645D01*
X156271403Y-108678648D01*
X156284975Y-108702157D01*
X156291498Y-108713454D01*
X157391498Y-109813454D01*
X157486546Y-109908502D01*
X157527778Y-109932307D01*
X157593169Y-109970061D01*
X157602954Y-109975710D01*
X157732791Y-110010500D01*
X157867209Y-110010500D01*
X158190501Y-110010500D01*
X158265001Y-110030462D01*
X158319539Y-110085000D01*
X158339501Y-110159500D01*
X158339501Y-110197654D01*
X158341132Y-110221717D01*
X158342267Y-110238459D01*
X158386125Y-110414818D01*
X158466868Y-110577622D01*
X158466869Y-110577623D01*
X158466871Y-110577627D01*
X158580728Y-110719272D01*
X158722373Y-110833129D01*
X158885182Y-110913875D01*
X159061542Y-110957733D01*
X159102345Y-110960500D01*
X162997654Y-110960499D01*
X163038458Y-110957733D01*
X163214818Y-110913875D01*
X163377627Y-110833129D01*
X163519272Y-110719272D01*
X163633129Y-110577627D01*
X163637078Y-110569663D01*
X163688062Y-110511790D01*
X163761152Y-110487161D01*
X163836764Y-110502376D01*
X163894638Y-110553360D01*
X163914487Y-110597297D01*
X163916926Y-110606401D01*
X163917475Y-110608447D01*
X163941467Y-110650002D01*
X163971518Y-110702053D01*
X164533944Y-111264479D01*
X164572508Y-111331274D01*
X164572508Y-111408402D01*
X164533944Y-111475197D01*
X164467149Y-111513761D01*
X164451898Y-111517002D01*
X164395331Y-111525961D01*
X164371566Y-111529725D01*
X164371564Y-111529726D01*
X164255705Y-111588759D01*
X164163759Y-111680705D01*
X164104725Y-111796565D01*
X164104725Y-111796567D01*
X164089500Y-111892693D01*
X164089500Y-111892694D01*
X164089500Y-111892697D01*
X164089500Y-112507301D01*
X164104725Y-112603433D01*
X164104726Y-112603435D01*
X164163759Y-112719294D01*
X164232512Y-112788047D01*
X164271076Y-112854842D01*
X164271076Y-112931970D01*
X164232512Y-112998765D01*
X164216448Y-113012685D01*
X164142810Y-113067811D01*
X164142809Y-113067812D01*
X164056650Y-113182905D01*
X164056645Y-113182915D01*
X164006401Y-113317622D01*
X164001827Y-113360169D01*
X163974015Y-113432108D01*
X163913959Y-113480503D01*
X163837752Y-113492386D01*
X163765813Y-113464574D01*
X163717418Y-113404518D01*
X163706517Y-113367554D01*
X163695275Y-113296567D01*
X163636241Y-113180706D01*
X163544294Y-113088759D01*
X163544293Y-113088758D01*
X163541853Y-113087515D01*
X163538806Y-113084772D01*
X163534807Y-113081866D01*
X163535112Y-113081445D01*
X163484537Y-113035905D01*
X163460704Y-112962552D01*
X163460500Y-112954756D01*
X163460500Y-112945243D01*
X163480462Y-112870743D01*
X163535000Y-112816205D01*
X163541835Y-112812493D01*
X163544294Y-112811241D01*
X163636241Y-112719294D01*
X163695275Y-112603433D01*
X163710500Y-112507307D01*
X163710499Y-111892694D01*
X163695275Y-111796567D01*
X163636241Y-111680706D01*
X163544294Y-111588759D01*
X163428434Y-111529725D01*
X163412412Y-111527187D01*
X163332307Y-111514500D01*
X163332302Y-111514500D01*
X162867697Y-111514500D01*
X162771566Y-111529725D01*
X162771564Y-111529726D01*
X162655705Y-111588759D01*
X162563759Y-111680705D01*
X162504725Y-111796565D01*
X162504725Y-111796567D01*
X162489500Y-111892693D01*
X162489500Y-111892694D01*
X162489500Y-111892697D01*
X162489500Y-112507301D01*
X162504725Y-112603433D01*
X162504726Y-112603435D01*
X162510420Y-112614611D01*
X162563759Y-112719294D01*
X162655706Y-112811241D01*
X162658144Y-112812483D01*
X162661188Y-112815224D01*
X162665191Y-112818132D01*
X162664885Y-112818552D01*
X162715461Y-112864090D01*
X162739296Y-112937443D01*
X162739500Y-112945243D01*
X162739500Y-112954756D01*
X162719538Y-113029256D01*
X162665000Y-113083794D01*
X162658147Y-113087515D01*
X162655706Y-113088758D01*
X162563760Y-113180704D01*
X162558999Y-113187258D01*
X162499059Y-113235796D01*
X162422880Y-113247862D01*
X162379940Y-113233909D01*
X162379084Y-113235978D01*
X162239791Y-113178281D01*
X162100003Y-113159879D01*
X162099997Y-113159879D01*
X161960208Y-113178281D01*
X161829940Y-113232239D01*
X161829940Y-113232240D01*
X161718079Y-113318075D01*
X161718075Y-113318079D01*
X161632240Y-113429940D01*
X161632239Y-113429940D01*
X161578281Y-113560208D01*
X161559879Y-113699997D01*
X161559879Y-113700002D01*
X161578281Y-113839791D01*
X161628508Y-113961049D01*
X161632241Y-113970061D01*
X161664195Y-114011703D01*
X161718075Y-114081921D01*
X161718078Y-114081924D01*
X161722491Y-114085310D01*
X161829939Y-114167759D01*
X161906247Y-114199367D01*
X161960208Y-114221718D01*
X162099997Y-114240121D01*
X162100000Y-114240121D01*
X162100003Y-114240121D01*
X162239791Y-114221718D01*
X162239793Y-114221717D01*
X162239794Y-114221717D01*
X162330854Y-114183999D01*
X162379084Y-114164022D01*
X162380282Y-114166916D01*
X162438404Y-114151321D01*
X162512911Y-114171258D01*
X162559001Y-114212745D01*
X162563758Y-114219293D01*
X162563759Y-114219294D01*
X162655706Y-114311241D01*
X162771567Y-114370275D01*
X162867693Y-114385500D01*
X163332306Y-114385499D01*
X163428433Y-114370275D01*
X163544294Y-114311241D01*
X163636241Y-114219294D01*
X163695275Y-114103433D01*
X163706517Y-114032453D01*
X163737887Y-113961996D01*
X163800285Y-113916661D01*
X163876990Y-113908598D01*
X163947450Y-113939969D01*
X163992785Y-114002367D01*
X164001828Y-114039836D01*
X164006401Y-114082377D01*
X164056645Y-114217084D01*
X164056650Y-114217094D01*
X164142809Y-114332187D01*
X164150346Y-114339724D01*
X164148992Y-114341077D01*
X164188526Y-114391350D01*
X164199501Y-114467693D01*
X164170833Y-114539295D01*
X164150099Y-114560029D01*
X164150346Y-114560276D01*
X164142809Y-114567812D01*
X164056650Y-114682905D01*
X164056645Y-114682915D01*
X164006401Y-114817622D01*
X164000001Y-114877157D01*
X164000000Y-114877177D01*
X164000000Y-115050000D01*
X164550000Y-115050000D01*
X164550000Y-113699000D01*
X164569962Y-113624500D01*
X164624500Y-113569962D01*
X164699000Y-113550000D01*
X165400000Y-113550000D01*
X165400000Y-113377177D01*
X165399998Y-113377157D01*
X165393598Y-113317622D01*
X165343354Y-113182915D01*
X165343351Y-113182908D01*
X165287971Y-113108931D01*
X165259305Y-113037328D01*
X165270281Y-112960984D01*
X165317957Y-112900357D01*
X165389560Y-112871691D01*
X165464268Y-112881978D01*
X165560206Y-112921717D01*
X165560209Y-112921717D01*
X165560211Y-112921718D01*
X165560208Y-112921718D01*
X165638086Y-112931970D01*
X165700000Y-112940121D01*
X165721051Y-112937349D01*
X165797516Y-112947415D01*
X165858707Y-112994366D01*
X165888225Y-113065622D01*
X165889500Y-113085074D01*
X165889500Y-114493247D01*
X165869538Y-114567747D01*
X165845859Y-114598606D01*
X165763759Y-114680705D01*
X165704724Y-114796567D01*
X165704724Y-114796569D01*
X165693482Y-114867545D01*
X165662111Y-114938005D01*
X165599712Y-114983339D01*
X165523007Y-114991400D01*
X165452547Y-114960029D01*
X165407213Y-114897630D01*
X165398171Y-114860160D01*
X165393598Y-114817623D01*
X165343354Y-114682915D01*
X165343349Y-114682905D01*
X165257190Y-114567812D01*
X165249654Y-114560276D01*
X165251007Y-114558922D01*
X165211477Y-114508660D01*
X165200497Y-114432318D01*
X165229159Y-114360713D01*
X165249901Y-114339971D01*
X165249654Y-114339724D01*
X165257190Y-114332187D01*
X165343349Y-114217094D01*
X165343354Y-114217084D01*
X165393598Y-114082377D01*
X165399998Y-114022842D01*
X165400000Y-114022822D01*
X165400000Y-113850000D01*
X164850000Y-113850000D01*
X164850000Y-115975000D01*
X164947823Y-115975000D01*
X164947842Y-115974998D01*
X165007377Y-115968598D01*
X165142084Y-115918354D01*
X165142094Y-115918349D01*
X165257187Y-115832190D01*
X165257190Y-115832187D01*
X165343349Y-115717094D01*
X165343354Y-115717084D01*
X165393598Y-115582377D01*
X165398172Y-115539833D01*
X165425983Y-115467893D01*
X165486037Y-115419497D01*
X165562244Y-115407613D01*
X165634184Y-115435424D01*
X165682580Y-115495478D01*
X165693482Y-115532448D01*
X165704725Y-115603433D01*
X165762638Y-115717094D01*
X165763760Y-115719295D01*
X165763761Y-115719297D01*
X165845858Y-115801393D01*
X165884423Y-115868187D01*
X165889500Y-115906752D01*
X165889500Y-116645293D01*
X165869538Y-116719793D01*
X165815000Y-116774331D01*
X165769565Y-116791430D01*
X165745189Y-116796278D01*
X165717866Y-116801713D01*
X165648238Y-116848237D01*
X165648237Y-116848238D01*
X165601713Y-116917867D01*
X165589500Y-116979266D01*
X165589500Y-117290499D01*
X165569538Y-117364999D01*
X165515000Y-117419537D01*
X165440500Y-117439499D01*
X165345957Y-117439499D01*
X165293755Y-117453487D01*
X165241552Y-117467475D01*
X165147946Y-117521518D01*
X164638606Y-118030859D01*
X164571811Y-118069423D01*
X164533247Y-118074500D01*
X164233997Y-118074500D01*
X164159497Y-118054538D01*
X164129404Y-118026349D01*
X164127139Y-118028615D01*
X164116761Y-118018237D01*
X164093657Y-118002799D01*
X164047133Y-117971713D01*
X163985733Y-117959500D01*
X163114270Y-117959500D01*
X163052867Y-117971713D01*
X162983238Y-118018237D01*
X162983237Y-118018238D01*
X162936713Y-118087867D01*
X162924500Y-118149266D01*
X162924500Y-118820729D01*
X162932679Y-118861853D01*
X162936713Y-118882133D01*
X162963163Y-118921718D01*
X162978226Y-118944262D01*
X162983238Y-118951762D01*
X163052867Y-118998287D01*
X163114267Y-119010500D01*
X163985732Y-119010499D01*
X164047133Y-118998287D01*
X164116762Y-118951762D01*
X164116764Y-118951758D01*
X164127139Y-118941385D01*
X164130016Y-118944262D01*
X164168080Y-118910874D01*
X164233997Y-118895500D01*
X164819043Y-118895500D01*
X164923447Y-118867525D01*
X165017053Y-118813482D01*
X165335142Y-118495393D01*
X165401937Y-118456829D01*
X165479065Y-118456829D01*
X165545860Y-118495393D01*
X165584424Y-118562188D01*
X165589501Y-118600752D01*
X165589501Y-118720732D01*
X165601713Y-118782133D01*
X165648238Y-118851762D01*
X165717867Y-118898287D01*
X165779267Y-118910500D01*
X166820732Y-118910499D01*
X166882133Y-118898287D01*
X166951762Y-118851762D01*
X166998287Y-118782133D01*
X167010500Y-118720733D01*
X167010499Y-116979268D01*
X166998287Y-116917867D01*
X166951762Y-116848238D01*
X166950602Y-116847463D01*
X166882133Y-116801713D01*
X166830431Y-116791429D01*
X166761257Y-116757316D01*
X166718407Y-116693186D01*
X166710500Y-116645292D01*
X166710500Y-115906752D01*
X166730462Y-115832252D01*
X166754142Y-115801393D01*
X166836238Y-115719297D01*
X166836241Y-115719294D01*
X166895275Y-115603433D01*
X166910500Y-115507307D01*
X166910499Y-114892694D01*
X166895275Y-114796567D01*
X166836241Y-114680706D01*
X166754141Y-114598606D01*
X166715577Y-114531811D01*
X166710500Y-114493247D01*
X166710500Y-113704219D01*
X167250001Y-113704219D01*
X167252850Y-113734604D01*
X167297653Y-113862645D01*
X167378208Y-113971791D01*
X167487354Y-114052346D01*
X167615397Y-114097149D01*
X167645796Y-114099999D01*
X167700000Y-114099999D01*
X167700000Y-113212500D01*
X167250001Y-113212500D01*
X167250001Y-113704219D01*
X166710500Y-113704219D01*
X166710500Y-113231752D01*
X166730462Y-113157252D01*
X166754141Y-113126394D01*
X166843556Y-113036978D01*
X166852051Y-113028483D01*
X166852053Y-113028482D01*
X166928482Y-112952053D01*
X166971962Y-112876743D01*
X167026499Y-112822205D01*
X167100999Y-112802242D01*
X167175499Y-112822204D01*
X167230037Y-112876741D01*
X167235819Y-112898319D01*
X167250000Y-112912500D01*
X168449999Y-112912500D01*
X168449999Y-112420801D01*
X168449998Y-112420780D01*
X168447149Y-112390395D01*
X168402346Y-112262354D01*
X168378618Y-112230205D01*
X168350438Y-112158409D01*
X168361932Y-112082142D01*
X168410019Y-112021840D01*
X168473577Y-111996893D01*
X168473306Y-111995742D01*
X168481358Y-111993839D01*
X168481815Y-111993660D01*
X168482375Y-111993598D01*
X168482376Y-111993598D01*
X168617084Y-111943354D01*
X168617094Y-111943349D01*
X168732187Y-111857190D01*
X168732188Y-111857189D01*
X168765117Y-111813202D01*
X168825744Y-111765524D01*
X168902087Y-111754548D01*
X168973690Y-111783213D01*
X169021368Y-111843840D01*
X169022055Y-111845472D01*
X169031914Y-111869272D01*
X169032241Y-111870061D01*
X169060621Y-111907046D01*
X169118075Y-111981921D01*
X169118078Y-111981924D01*
X169119651Y-111983131D01*
X169229939Y-112067759D01*
X169229945Y-112067761D01*
X169238400Y-112072644D01*
X169236786Y-112075439D01*
X169284255Y-112111855D01*
X169313779Y-112183109D01*
X169303721Y-112259578D01*
X169299916Y-112268015D01*
X169249708Y-112370715D01*
X169249708Y-112370717D01*
X169239500Y-112440775D01*
X169239500Y-113684210D01*
X169239501Y-113684214D01*
X169246841Y-113734602D01*
X169249710Y-113754290D01*
X169278120Y-113812403D01*
X169292907Y-113888100D01*
X169267863Y-113961049D01*
X169209700Y-114011703D01*
X169134003Y-114026490D01*
X169078820Y-114011703D01*
X169054286Y-113999709D01*
X169054284Y-113999708D01*
X169054283Y-113999708D01*
X168984218Y-113989500D01*
X168615790Y-113989500D01*
X168615782Y-113989501D01*
X168587442Y-113993630D01*
X168510842Y-113984615D01*
X168449012Y-113938509D01*
X168418519Y-113867665D01*
X168425325Y-113796973D01*
X168447149Y-113734602D01*
X168449999Y-113704212D01*
X168450000Y-113704194D01*
X168450000Y-113212500D01*
X168000000Y-113212500D01*
X168000000Y-114099999D01*
X168054199Y-114099999D01*
X168054219Y-114099998D01*
X168084604Y-114097149D01*
X168101959Y-114091076D01*
X168178871Y-114085310D01*
X168248362Y-114118772D01*
X168291812Y-114182497D01*
X168298618Y-114253194D01*
X168289501Y-114315772D01*
X168289500Y-114315787D01*
X168289500Y-115559210D01*
X168289501Y-115559214D01*
X168299709Y-115629287D01*
X168315526Y-115661640D01*
X168330311Y-115737338D01*
X168305268Y-115810287D01*
X168287024Y-115832439D01*
X167897947Y-116221518D01*
X167821518Y-116297946D01*
X167793839Y-116345889D01*
X167767475Y-116391553D01*
X167759446Y-116421518D01*
X167739500Y-116495955D01*
X167739500Y-120268247D01*
X167719538Y-120342747D01*
X167695859Y-120373606D01*
X167264858Y-120804607D01*
X167198063Y-120843171D01*
X167120935Y-120843171D01*
X167054140Y-120804607D01*
X167015576Y-120737812D01*
X167010499Y-120699248D01*
X167010499Y-120579269D01*
X167010499Y-120579267D01*
X166998287Y-120517867D01*
X166951762Y-120448238D01*
X166882133Y-120401713D01*
X166820733Y-120389500D01*
X165779269Y-120389500D01*
X165717867Y-120401713D01*
X165648238Y-120448237D01*
X165648237Y-120448238D01*
X165601713Y-120517867D01*
X165589500Y-120579266D01*
X165589500Y-120890500D01*
X165569538Y-120965000D01*
X165515000Y-121019538D01*
X165440500Y-121039500D01*
X165431753Y-121039500D01*
X165357253Y-121019538D01*
X165326394Y-120995859D01*
X164717053Y-120386518D01*
X164702628Y-120378190D01*
X164623447Y-120332475D01*
X164519043Y-120304500D01*
X164233997Y-120304500D01*
X164159497Y-120284538D01*
X164129404Y-120256349D01*
X164127139Y-120258615D01*
X164116761Y-120248237D01*
X164070601Y-120217394D01*
X164047133Y-120201713D01*
X163985733Y-120189500D01*
X163114270Y-120189500D01*
X163052867Y-120201713D01*
X162983238Y-120248237D01*
X162983237Y-120248238D01*
X162936713Y-120317867D01*
X162924500Y-120379266D01*
X162924500Y-121050729D01*
X162924501Y-121050732D01*
X162936713Y-121112133D01*
X162983238Y-121181762D01*
X163052867Y-121228287D01*
X163114267Y-121240500D01*
X163985732Y-121240499D01*
X164047133Y-121228287D01*
X164116762Y-121181762D01*
X164116764Y-121181758D01*
X164127139Y-121171385D01*
X164130118Y-121174364D01*
X164167724Y-121141350D01*
X164243362Y-121126263D01*
X164316410Y-121151016D01*
X164339055Y-121169590D01*
X164871518Y-121702053D01*
X164947947Y-121778482D01*
X165041553Y-121832525D01*
X165145957Y-121860500D01*
X165440501Y-121860500D01*
X165515001Y-121880462D01*
X165569539Y-121935000D01*
X165589501Y-122009500D01*
X165589501Y-122320732D01*
X165601713Y-122382133D01*
X165648238Y-122451762D01*
X165717867Y-122498287D01*
X165779267Y-122510500D01*
X166820732Y-122510499D01*
X166882133Y-122498287D01*
X166951762Y-122451762D01*
X166998287Y-122382133D01*
X167010500Y-122320733D01*
X167010500Y-122009500D01*
X167030462Y-121935000D01*
X167085000Y-121880462D01*
X167159500Y-121860500D01*
X167254043Y-121860500D01*
X167358447Y-121832525D01*
X167452053Y-121778482D01*
X168478482Y-120752053D01*
X168532525Y-120658447D01*
X168560500Y-120554043D01*
X168560500Y-120445956D01*
X168560500Y-116979266D01*
X169089500Y-116979266D01*
X169089500Y-118720730D01*
X169089501Y-118720733D01*
X169101713Y-118782133D01*
X169148238Y-118851762D01*
X169217867Y-118898287D01*
X169279267Y-118910500D01*
X170320732Y-118910499D01*
X170382133Y-118898287D01*
X170451762Y-118851762D01*
X170498287Y-118782133D01*
X170510500Y-118720733D01*
X170510499Y-116979268D01*
X170498287Y-116917867D01*
X170451762Y-116848238D01*
X170450602Y-116847463D01*
X170422477Y-116828670D01*
X170382133Y-116801713D01*
X170320733Y-116789500D01*
X169279269Y-116789500D01*
X169217867Y-116801713D01*
X169148238Y-116848237D01*
X169148237Y-116848238D01*
X169101713Y-116917867D01*
X169089500Y-116979266D01*
X168560500Y-116979266D01*
X168560500Y-116781753D01*
X168580462Y-116707253D01*
X168604141Y-116676394D01*
X168859019Y-116421516D01*
X169128482Y-116152053D01*
X169182525Y-116058447D01*
X169210500Y-115954043D01*
X169210500Y-115845956D01*
X169210500Y-115836042D01*
X169230462Y-115761542D01*
X169240933Y-115747895D01*
X169240274Y-115747425D01*
X169247446Y-115737378D01*
X169247449Y-115737375D01*
X169300291Y-115629286D01*
X169308699Y-115571578D01*
X169310499Y-115559224D01*
X169310499Y-115559221D01*
X169310500Y-115559215D01*
X169310499Y-114315786D01*
X169300291Y-114245714D01*
X169271878Y-114187596D01*
X169257092Y-114111900D01*
X169282135Y-114038951D01*
X169340298Y-113988296D01*
X169415995Y-113973509D01*
X169471177Y-113988295D01*
X169495714Y-114000291D01*
X169522995Y-114004265D01*
X169565775Y-114010499D01*
X169565778Y-114010499D01*
X169565785Y-114010500D01*
X169934214Y-114010499D01*
X170004286Y-114000291D01*
X170112375Y-113947449D01*
X170197449Y-113862375D01*
X170230577Y-113794610D01*
X170281229Y-113736449D01*
X170354178Y-113711406D01*
X170429876Y-113726192D01*
X170438923Y-113731006D01*
X170441553Y-113732525D01*
X170545956Y-113760500D01*
X170545957Y-113760500D01*
X170593247Y-113760500D01*
X170667747Y-113780462D01*
X170698606Y-113804141D01*
X170780706Y-113886241D01*
X170896567Y-113945275D01*
X170992693Y-113960500D01*
X171469958Y-113960499D01*
X171544458Y-113980461D01*
X171598996Y-114034999D01*
X171618958Y-114109499D01*
X171598996Y-114183999D01*
X171575317Y-114214858D01*
X171270653Y-114519521D01*
X171203858Y-114558085D01*
X171184742Y-114561887D01*
X171060208Y-114578281D01*
X170929940Y-114632239D01*
X170929940Y-114632240D01*
X170818079Y-114718075D01*
X170818075Y-114718079D01*
X170732240Y-114829940D01*
X170732239Y-114829940D01*
X170678281Y-114960208D01*
X170659879Y-115099997D01*
X170659879Y-115100002D01*
X170678281Y-115239791D01*
X170732239Y-115370057D01*
X170732241Y-115370061D01*
X170761056Y-115407613D01*
X170807158Y-115467694D01*
X170818077Y-115481923D01*
X170929939Y-115567759D01*
X171006247Y-115599367D01*
X171060208Y-115621718D01*
X171199997Y-115640121D01*
X171200000Y-115640121D01*
X171200003Y-115640121D01*
X171339791Y-115621718D01*
X171339793Y-115621717D01*
X171339794Y-115621717D01*
X171470061Y-115567759D01*
X171581923Y-115481923D01*
X171667759Y-115370061D01*
X171721717Y-115239794D01*
X171738113Y-115115250D01*
X171767626Y-115043999D01*
X171780470Y-115029352D01*
X173185143Y-113624680D01*
X173251936Y-113586118D01*
X173329064Y-113586118D01*
X173395859Y-113624682D01*
X173434423Y-113691477D01*
X173439500Y-113730041D01*
X173439500Y-116588958D01*
X173419538Y-116663458D01*
X173395859Y-116694317D01*
X167294317Y-122795859D01*
X167227522Y-122834423D01*
X167188958Y-122839500D01*
X164538340Y-122839500D01*
X164463840Y-122819538D01*
X164432981Y-122795859D01*
X164288122Y-122651000D01*
X163998650Y-122361528D01*
X163998647Y-122361526D01*
X163998643Y-122361523D01*
X163916449Y-122314068D01*
X163916446Y-122314067D01*
X163883372Y-122305205D01*
X163824761Y-122289500D01*
X163824759Y-122289500D01*
X160942384Y-122289500D01*
X160867884Y-122269538D01*
X160818496Y-122223281D01*
X160801763Y-122198239D01*
X160801761Y-122198237D01*
X160778657Y-122182799D01*
X160732133Y-122151713D01*
X160670733Y-122139500D01*
X159429269Y-122139500D01*
X159367867Y-122151713D01*
X159298238Y-122198237D01*
X159298237Y-122198238D01*
X159251713Y-122267867D01*
X159239500Y-122329266D01*
X159239500Y-122970729D01*
X159251713Y-123032132D01*
X159251713Y-123032133D01*
X159258453Y-123042220D01*
X159283245Y-123115255D01*
X159268198Y-123190901D01*
X159258453Y-123207780D01*
X159251713Y-123217867D01*
X159239500Y-123279266D01*
X159239500Y-123920729D01*
X159246457Y-123955706D01*
X159251671Y-123981924D01*
X159251713Y-123982132D01*
X159251713Y-123982133D01*
X159258453Y-123992220D01*
X159283245Y-124065255D01*
X159268198Y-124140901D01*
X159258453Y-124157780D01*
X159251713Y-124167867D01*
X159239500Y-124229266D01*
X159239500Y-124870729D01*
X159239667Y-124871567D01*
X159251713Y-124932133D01*
X159298238Y-125001762D01*
X159367867Y-125048287D01*
X159429267Y-125060500D01*
X160670732Y-125060499D01*
X160732133Y-125048287D01*
X160771703Y-125021846D01*
X160844734Y-124997054D01*
X160920380Y-125012099D01*
X160959841Y-125040376D01*
X160970859Y-125051394D01*
X161009423Y-125118189D01*
X161014500Y-125156752D01*
X161014500Y-125432302D01*
X161029725Y-125528433D01*
X161029726Y-125528435D01*
X161088759Y-125644294D01*
X161180705Y-125736240D01*
X161187253Y-125740997D01*
X161235794Y-125800935D01*
X161247862Y-125877113D01*
X161233912Y-125920060D01*
X161235978Y-125920916D01*
X161178281Y-126060208D01*
X161159879Y-126199997D01*
X161159879Y-126200002D01*
X161178281Y-126339791D01*
X161232239Y-126470057D01*
X161232241Y-126470061D01*
X161318077Y-126581923D01*
X161429939Y-126667759D01*
X161506247Y-126699367D01*
X161560208Y-126721718D01*
X161699997Y-126740121D01*
X161700000Y-126740121D01*
X161700003Y-126740121D01*
X161839791Y-126721718D01*
X161839793Y-126721717D01*
X161839794Y-126721717D01*
X161970061Y-126667759D01*
X162081923Y-126581923D01*
X162167759Y-126470061D01*
X162221717Y-126339794D01*
X162221717Y-126339793D01*
X162221718Y-126339791D01*
X162240121Y-126200002D01*
X162240121Y-126199997D01*
X162221718Y-126060208D01*
X162164022Y-125920916D01*
X162166912Y-125919718D01*
X162151321Y-125861567D01*
X162171271Y-125787064D01*
X162212750Y-125740994D01*
X162219286Y-125736244D01*
X162219294Y-125736241D01*
X162311241Y-125644294D01*
X162312919Y-125641000D01*
X174125829Y-125641000D01*
X174144483Y-125878027D01*
X174144484Y-125878032D01*
X174199987Y-126109216D01*
X174290968Y-126328863D01*
X174290971Y-126328869D01*
X174290973Y-126328873D01*
X174336705Y-126403500D01*
X174415199Y-126531593D01*
X174415201Y-126531595D01*
X174569612Y-126712388D01*
X174727383Y-126847136D01*
X174750406Y-126866800D01*
X174814452Y-126906047D01*
X174953127Y-126991027D01*
X174953132Y-126991029D01*
X174953136Y-126991031D01*
X175172783Y-127082012D01*
X175172784Y-127082012D01*
X175172786Y-127082013D01*
X175403975Y-127137517D01*
X175641000Y-127156171D01*
X175878025Y-127137517D01*
X176109214Y-127082013D01*
X176328873Y-126991027D01*
X176531595Y-126866799D01*
X176712388Y-126712388D01*
X176866799Y-126531595D01*
X176991027Y-126328873D01*
X177082013Y-126109214D01*
X177137517Y-125878025D01*
X177156171Y-125641000D01*
X177137517Y-125403975D01*
X177082013Y-125172786D01*
X177082012Y-125172783D01*
X176991031Y-124953136D01*
X176991028Y-124953130D01*
X176991027Y-124953127D01*
X176906047Y-124814452D01*
X176866800Y-124750406D01*
X176847136Y-124727383D01*
X176712388Y-124569612D01*
X176531595Y-124415201D01*
X176531596Y-124415201D01*
X176531593Y-124415199D01*
X176403500Y-124336705D01*
X176328873Y-124290973D01*
X176328870Y-124290972D01*
X176328869Y-124290971D01*
X176328863Y-124290968D01*
X176109216Y-124199987D01*
X175878032Y-124144484D01*
X175878027Y-124144483D01*
X175641000Y-124125829D01*
X175403972Y-124144483D01*
X175403967Y-124144484D01*
X175172783Y-124199987D01*
X174953136Y-124290968D01*
X174953130Y-124290971D01*
X174750406Y-124415199D01*
X174569612Y-124569612D01*
X174415199Y-124750406D01*
X174290971Y-124953130D01*
X174290968Y-124953136D01*
X174199987Y-125172783D01*
X174144484Y-125403967D01*
X174144483Y-125403972D01*
X174125829Y-125641000D01*
X162312919Y-125641000D01*
X162370275Y-125528433D01*
X162385500Y-125432307D01*
X162385499Y-124967694D01*
X162370275Y-124871567D01*
X162311241Y-124755706D01*
X162219294Y-124663759D01*
X162157564Y-124632306D01*
X162103434Y-124604725D01*
X162087412Y-124602187D01*
X162007307Y-124589500D01*
X162007302Y-124589500D01*
X161731753Y-124589500D01*
X161657253Y-124569538D01*
X161626394Y-124545859D01*
X161545393Y-124464858D01*
X161506829Y-124398063D01*
X161506829Y-124320935D01*
X161545393Y-124254140D01*
X161612188Y-124215576D01*
X161650747Y-124210499D01*
X162007306Y-124210499D01*
X162103433Y-124195275D01*
X162219294Y-124136241D01*
X162259017Y-124096517D01*
X162325809Y-124057954D01*
X162402938Y-124057954D01*
X162421395Y-124064219D01*
X162429936Y-124067756D01*
X162429939Y-124067759D01*
X162560206Y-124121717D01*
X162560209Y-124121717D01*
X162560211Y-124121718D01*
X162560208Y-124121718D01*
X162699997Y-124140121D01*
X162700000Y-124140121D01*
X162700003Y-124140121D01*
X162839791Y-124121718D01*
X162839793Y-124121717D01*
X162839794Y-124121717D01*
X162970061Y-124067759D01*
X163081923Y-123981923D01*
X163167759Y-123870061D01*
X163221717Y-123739794D01*
X163221717Y-123739793D01*
X163221718Y-123739791D01*
X163240121Y-123600002D01*
X163240121Y-123599997D01*
X163221718Y-123460208D01*
X163167760Y-123329942D01*
X163167759Y-123329941D01*
X163167759Y-123329940D01*
X163106574Y-123250203D01*
X163077060Y-123178950D01*
X163087126Y-123102482D01*
X163134078Y-123041291D01*
X163205335Y-123011775D01*
X163224785Y-123010500D01*
X163566256Y-123010500D01*
X163640756Y-123030462D01*
X163671615Y-123054141D01*
X164038826Y-123421352D01*
X164105946Y-123488472D01*
X164105948Y-123488473D01*
X164105952Y-123488476D01*
X164188146Y-123535931D01*
X164188147Y-123535931D01*
X164188150Y-123535933D01*
X164279837Y-123560500D01*
X164279839Y-123560500D01*
X167447459Y-123560500D01*
X167447461Y-123560500D01*
X167539148Y-123535933D01*
X167621352Y-123488472D01*
X174088472Y-117021352D01*
X174135933Y-116939148D01*
X174160500Y-116847461D01*
X174160500Y-116752539D01*
X174160500Y-111073033D01*
X174180462Y-110998533D01*
X174235000Y-110943995D01*
X174309500Y-110924033D01*
X174372723Y-110940170D01*
X174372926Y-110939629D01*
X174377965Y-110941508D01*
X174380909Y-110942260D01*
X174382911Y-110943353D01*
X174517623Y-110993598D01*
X174517621Y-110993598D01*
X174577157Y-110999998D01*
X174577177Y-111000000D01*
X174750000Y-111000000D01*
X175050000Y-111000000D01*
X175222823Y-111000000D01*
X175222842Y-110999998D01*
X175282377Y-110993598D01*
X175417084Y-110943354D01*
X175417094Y-110943349D01*
X175532187Y-110857190D01*
X175532190Y-110857187D01*
X175618349Y-110742094D01*
X175618354Y-110742084D01*
X175668598Y-110607377D01*
X175674998Y-110547842D01*
X175675000Y-110547822D01*
X175675000Y-110450000D01*
X175050000Y-110450000D01*
X175050000Y-111000000D01*
X174750000Y-111000000D01*
X174750000Y-110299000D01*
X174769962Y-110224500D01*
X174824500Y-110169962D01*
X174899000Y-110150000D01*
X175675000Y-110150000D01*
X175675000Y-110052177D01*
X175674998Y-110052157D01*
X175668598Y-109992622D01*
X175618354Y-109857915D01*
X175618349Y-109857905D01*
X175532190Y-109742812D01*
X175532187Y-109742809D01*
X175474998Y-109699997D01*
X176359879Y-109699997D01*
X176359879Y-109700002D01*
X176378281Y-109839791D01*
X176431287Y-109967758D01*
X176432241Y-109970061D01*
X176477032Y-110028433D01*
X176518075Y-110081921D01*
X176518078Y-110081924D01*
X176539191Y-110098124D01*
X176629939Y-110167759D01*
X176695666Y-110194984D01*
X176760208Y-110221718D01*
X176899997Y-110240121D01*
X176900000Y-110240121D01*
X176900003Y-110240121D01*
X177039791Y-110221718D01*
X177039793Y-110221717D01*
X177039794Y-110221717D01*
X177170061Y-110167759D01*
X177281923Y-110081923D01*
X177367759Y-109970061D01*
X177421717Y-109839794D01*
X177421717Y-109839793D01*
X177421718Y-109839791D01*
X177440121Y-109700002D01*
X177440121Y-109699997D01*
X177421718Y-109560208D01*
X177367760Y-109429940D01*
X177302627Y-109345059D01*
X177281923Y-109318077D01*
X177170061Y-109232241D01*
X177170058Y-109232239D01*
X177170057Y-109232239D01*
X177039791Y-109178281D01*
X176900003Y-109159879D01*
X176899997Y-109159879D01*
X176760208Y-109178281D01*
X176629940Y-109232239D01*
X176629940Y-109232240D01*
X176518079Y-109318075D01*
X176518075Y-109318079D01*
X176432240Y-109429940D01*
X176432239Y-109429940D01*
X176378281Y-109560208D01*
X176359879Y-109699997D01*
X175474998Y-109699997D01*
X175417094Y-109656650D01*
X175417084Y-109656645D01*
X175282377Y-109606401D01*
X175239830Y-109601827D01*
X175167891Y-109574015D01*
X175119496Y-109513959D01*
X175107613Y-109437752D01*
X175135425Y-109365813D01*
X175195481Y-109317418D01*
X175232442Y-109306517D01*
X175303433Y-109295275D01*
X175419294Y-109236241D01*
X175459017Y-109196517D01*
X175525809Y-109157954D01*
X175602938Y-109157954D01*
X175621395Y-109164219D01*
X175629936Y-109167756D01*
X175629939Y-109167759D01*
X175760206Y-109221717D01*
X175760209Y-109221717D01*
X175760211Y-109221718D01*
X175760208Y-109221718D01*
X175899997Y-109240121D01*
X175900000Y-109240121D01*
X175900003Y-109240121D01*
X176039791Y-109221718D01*
X176039793Y-109221717D01*
X176039794Y-109221717D01*
X176170061Y-109167759D01*
X176281923Y-109081923D01*
X176367759Y-108970061D01*
X176421717Y-108839794D01*
X176421717Y-108839793D01*
X176421718Y-108839791D01*
X176440121Y-108700002D01*
X176440121Y-108699997D01*
X176421718Y-108560208D01*
X176367760Y-108429940D01*
X176324841Y-108374008D01*
X176281923Y-108318077D01*
X176253440Y-108296221D01*
X176206488Y-108235032D01*
X176196421Y-108158564D01*
X176225936Y-108087307D01*
X176287126Y-108040354D01*
X176324699Y-108030287D01*
X176389790Y-108021718D01*
X176389791Y-108021718D01*
X176389793Y-108021717D01*
X176389794Y-108021717D01*
X176520061Y-107967759D01*
X176631923Y-107881923D01*
X176717759Y-107770061D01*
X176771717Y-107639794D01*
X176771717Y-107639793D01*
X176771718Y-107639791D01*
X176790121Y-107500002D01*
X176790121Y-107499997D01*
X176771718Y-107360208D01*
X176717760Y-107229940D01*
X176667651Y-107164638D01*
X176631923Y-107118077D01*
X176520061Y-107032241D01*
X176520058Y-107032239D01*
X176520057Y-107032239D01*
X176389791Y-106978281D01*
X176250003Y-106959879D01*
X176249997Y-106959879D01*
X176110208Y-106978281D01*
X175979940Y-107032239D01*
X175979938Y-107032241D01*
X175979184Y-107032820D01*
X175978306Y-107033183D01*
X175971483Y-107037123D01*
X175970964Y-107036224D01*
X175907926Y-107062333D01*
X175831458Y-107052263D01*
X175770270Y-107005308D01*
X175740757Y-106934050D01*
X175740759Y-106909766D01*
X175740121Y-106909766D01*
X175740121Y-106899997D01*
X175721718Y-106760208D01*
X175667760Y-106629940D01*
X175607733Y-106551713D01*
X175581923Y-106518077D01*
X175470061Y-106432241D01*
X175470059Y-106432240D01*
X175470057Y-106432238D01*
X175362428Y-106387658D01*
X175301238Y-106340706D01*
X175271722Y-106269449D01*
X175281789Y-106192981D01*
X175328741Y-106131791D01*
X175362428Y-106112342D01*
X175470057Y-106067761D01*
X175470057Y-106067760D01*
X175470061Y-106067759D01*
X175581923Y-105981923D01*
X175667759Y-105870061D01*
X175721717Y-105739794D01*
X175721717Y-105739793D01*
X175721718Y-105739791D01*
X175740121Y-105600002D01*
X175740121Y-105599997D01*
X175720950Y-105454376D01*
X175731017Y-105377908D01*
X175777970Y-105316718D01*
X175849227Y-105287203D01*
X175925695Y-105297270D01*
X175974034Y-105329569D01*
X176055706Y-105411241D01*
X176171567Y-105470275D01*
X176267693Y-105485500D01*
X176732306Y-105485499D01*
X176828433Y-105470275D01*
X176944294Y-105411241D01*
X177036241Y-105319294D01*
X177095275Y-105203433D01*
X177106517Y-105132453D01*
X177137887Y-105061996D01*
X177200285Y-105016661D01*
X177276990Y-105008598D01*
X177347450Y-105039969D01*
X177392785Y-105102367D01*
X177401828Y-105139836D01*
X177406401Y-105182377D01*
X177456645Y-105317084D01*
X177456650Y-105317094D01*
X177542809Y-105432187D01*
X177542812Y-105432190D01*
X177657905Y-105518349D01*
X177657915Y-105518354D01*
X177792623Y-105568598D01*
X177792621Y-105568598D01*
X177852157Y-105574998D01*
X177852177Y-105575000D01*
X177950000Y-105575000D01*
X178250000Y-105575000D01*
X178347823Y-105575000D01*
X178347842Y-105574998D01*
X178407377Y-105568598D01*
X178542084Y-105518354D01*
X178542094Y-105518349D01*
X178657187Y-105432190D01*
X178657190Y-105432187D01*
X178743349Y-105317094D01*
X178743354Y-105317084D01*
X178793598Y-105182377D01*
X178799998Y-105122842D01*
X178800000Y-105122822D01*
X178800000Y-104950000D01*
X178250000Y-104950000D01*
X178250000Y-105575000D01*
X177950000Y-105575000D01*
X177950000Y-104650000D01*
X178250000Y-104650000D01*
X178800000Y-104650000D01*
X178800000Y-104477177D01*
X178799998Y-104477157D01*
X178793598Y-104417622D01*
X178743354Y-104282915D01*
X178743349Y-104282905D01*
X178657190Y-104167812D01*
X178657187Y-104167809D01*
X178542094Y-104081650D01*
X178542084Y-104081645D01*
X178407376Y-104031401D01*
X178407378Y-104031401D01*
X178347842Y-104025001D01*
X178347823Y-104025000D01*
X178250000Y-104025000D01*
X178250000Y-104650000D01*
X177950000Y-104650000D01*
X177950000Y-104025000D01*
X177852177Y-104025000D01*
X177852157Y-104025001D01*
X177792622Y-104031401D01*
X177657915Y-104081645D01*
X177657905Y-104081650D01*
X177542812Y-104167809D01*
X177542809Y-104167812D01*
X177456650Y-104282905D01*
X177456645Y-104282915D01*
X177406401Y-104417622D01*
X177401827Y-104460169D01*
X177374015Y-104532108D01*
X177313959Y-104580503D01*
X177237752Y-104592386D01*
X177165813Y-104564574D01*
X177117418Y-104504518D01*
X177106517Y-104467554D01*
X177095275Y-104396567D01*
X177036241Y-104280706D01*
X176944294Y-104188759D01*
X176926468Y-104179676D01*
X176828434Y-104129725D01*
X176812412Y-104127187D01*
X176732307Y-104114500D01*
X176732302Y-104114500D01*
X176400752Y-104114500D01*
X176326252Y-104094538D01*
X176271714Y-104040000D01*
X176251752Y-103965500D01*
X176271714Y-103891000D01*
X176295390Y-103860144D01*
X176336241Y-103819294D01*
X176395275Y-103703433D01*
X176410500Y-103607307D01*
X176410499Y-102992694D01*
X176395275Y-102896567D01*
X176336241Y-102780706D01*
X176244294Y-102688759D01*
X176244293Y-102688758D01*
X176241853Y-102687515D01*
X176238806Y-102684772D01*
X176234807Y-102681866D01*
X176235112Y-102681445D01*
X176184537Y-102635905D01*
X176160704Y-102562552D01*
X176160500Y-102554756D01*
X176160500Y-100598541D01*
X176180462Y-100524041D01*
X176204138Y-100493185D01*
X176247449Y-100449875D01*
X176300291Y-100341786D01*
X176310500Y-100271715D01*
X176310500Y-100000000D01*
X184747829Y-100000000D01*
X184766483Y-100237027D01*
X184766484Y-100237032D01*
X184821987Y-100468216D01*
X184912968Y-100687863D01*
X184912971Y-100687869D01*
X184912973Y-100687873D01*
X184926839Y-100710500D01*
X185037199Y-100890593D01*
X185045235Y-100900002D01*
X185191612Y-101071388D01*
X185306246Y-101169294D01*
X185372406Y-101225800D01*
X185406075Y-101246432D01*
X185575127Y-101350027D01*
X185575132Y-101350029D01*
X185575136Y-101350031D01*
X185794783Y-101441012D01*
X185794784Y-101441012D01*
X185794786Y-101441013D01*
X186025975Y-101496517D01*
X186263000Y-101515171D01*
X186500025Y-101496517D01*
X186731214Y-101441013D01*
X186950873Y-101350027D01*
X187153595Y-101225799D01*
X187334388Y-101071388D01*
X187488799Y-100890595D01*
X187613027Y-100687873D01*
X187704013Y-100468214D01*
X187759517Y-100237025D01*
X187778171Y-100000000D01*
X187759517Y-99762975D01*
X187704013Y-99531786D01*
X187694095Y-99507841D01*
X187613031Y-99312136D01*
X187613028Y-99312130D01*
X187613027Y-99312127D01*
X187488799Y-99109405D01*
X187334388Y-98928612D01*
X187178270Y-98795275D01*
X187153593Y-98774199D01*
X187025500Y-98695705D01*
X186950873Y-98649973D01*
X186950870Y-98649972D01*
X186950869Y-98649971D01*
X186950863Y-98649968D01*
X186731216Y-98558987D01*
X186500032Y-98503484D01*
X186500027Y-98503483D01*
X186263000Y-98484829D01*
X186025972Y-98503483D01*
X186025967Y-98503484D01*
X185794783Y-98558987D01*
X185575136Y-98649968D01*
X185575130Y-98649971D01*
X185372406Y-98774199D01*
X185191612Y-98928612D01*
X185037199Y-99109406D01*
X184912971Y-99312130D01*
X184912968Y-99312136D01*
X184821987Y-99531783D01*
X184766484Y-99762967D01*
X184766483Y-99762972D01*
X184747829Y-100000000D01*
X176310500Y-100000000D01*
X176310499Y-99028286D01*
X176300291Y-98958214D01*
X176247449Y-98850125D01*
X176162375Y-98765051D01*
X176054286Y-98712209D01*
X176054284Y-98712208D01*
X176054283Y-98712208D01*
X175984218Y-98702000D01*
X175615790Y-98702000D01*
X175615785Y-98702001D01*
X175601379Y-98704099D01*
X175545714Y-98712209D01*
X175545712Y-98712209D01*
X175545711Y-98712210D01*
X175437624Y-98765051D01*
X175352551Y-98850124D01*
X175299708Y-98958215D01*
X175299708Y-98958217D01*
X175289500Y-99028275D01*
X175289500Y-100271710D01*
X175289501Y-100271714D01*
X175299708Y-100341782D01*
X175299710Y-100341790D01*
X175328120Y-100399903D01*
X175342907Y-100475600D01*
X175317863Y-100548549D01*
X175259700Y-100599203D01*
X175184003Y-100613990D01*
X175128820Y-100599203D01*
X175104286Y-100587209D01*
X175104284Y-100587208D01*
X175104283Y-100587208D01*
X175034218Y-100577000D01*
X174665790Y-100577000D01*
X174665782Y-100577001D01*
X174637442Y-100581130D01*
X174560842Y-100572115D01*
X174499012Y-100526009D01*
X174468519Y-100455165D01*
X174475325Y-100384473D01*
X174497149Y-100322102D01*
X174499999Y-100291712D01*
X174500000Y-100291694D01*
X174500000Y-99800000D01*
X174050000Y-99800000D01*
X174050000Y-100687499D01*
X174104199Y-100687499D01*
X174104219Y-100687498D01*
X174134604Y-100684649D01*
X174151959Y-100678576D01*
X174228871Y-100672810D01*
X174298362Y-100706272D01*
X174341812Y-100769997D01*
X174348618Y-100840694D01*
X174339501Y-100903271D01*
X174339500Y-100903286D01*
X174339500Y-101090500D01*
X174319538Y-101165000D01*
X174265000Y-101219538D01*
X174190500Y-101239500D01*
X170730946Y-101239500D01*
X170656446Y-101219538D01*
X170601908Y-101165000D01*
X170581946Y-101090500D01*
X170591340Y-101038432D01*
X170593598Y-101032376D01*
X170599998Y-100972842D01*
X170600000Y-100972822D01*
X170600000Y-100800000D01*
X169899000Y-100800000D01*
X169824500Y-100780038D01*
X169769962Y-100725500D01*
X169750000Y-100651000D01*
X169750000Y-100500000D01*
X170050000Y-100500000D01*
X170600000Y-100500000D01*
X170600000Y-100327177D01*
X170599998Y-100327157D01*
X170596188Y-100291719D01*
X173300001Y-100291719D01*
X173302850Y-100322104D01*
X173347653Y-100450145D01*
X173428208Y-100559291D01*
X173537354Y-100639846D01*
X173665397Y-100684649D01*
X173695796Y-100687499D01*
X173750000Y-100687499D01*
X173750000Y-99800000D01*
X173300001Y-99800000D01*
X173300001Y-100291719D01*
X170596188Y-100291719D01*
X170593598Y-100267622D01*
X170543354Y-100132915D01*
X170543349Y-100132905D01*
X170457190Y-100017812D01*
X170449654Y-100010276D01*
X170451007Y-100008922D01*
X170411477Y-99958660D01*
X170400497Y-99882318D01*
X170429159Y-99810713D01*
X170449901Y-99789971D01*
X170449654Y-99789724D01*
X170457190Y-99782187D01*
X170543349Y-99667094D01*
X170543354Y-99667084D01*
X170593598Y-99532377D01*
X170599998Y-99472842D01*
X170600000Y-99472822D01*
X170600000Y-99300000D01*
X170050000Y-99300000D01*
X170050000Y-100500000D01*
X169750000Y-100500000D01*
X169750000Y-99149000D01*
X169769962Y-99074500D01*
X169824500Y-99019962D01*
X169868072Y-99008287D01*
X173300000Y-99008287D01*
X173300000Y-99500000D01*
X173750000Y-99500000D01*
X174050000Y-99500000D01*
X174499999Y-99500000D01*
X174499999Y-99008301D01*
X174499998Y-99008280D01*
X174497149Y-98977895D01*
X174452346Y-98849854D01*
X174371791Y-98740708D01*
X174262645Y-98660153D01*
X174134602Y-98615350D01*
X174104212Y-98612500D01*
X174050000Y-98612500D01*
X174050000Y-99500000D01*
X173750000Y-99500000D01*
X173750000Y-98612500D01*
X173695801Y-98612500D01*
X173695779Y-98612502D01*
X173665395Y-98615350D01*
X173537354Y-98660153D01*
X173428208Y-98740708D01*
X173347653Y-98849854D01*
X173302850Y-98977897D01*
X173300000Y-99008287D01*
X169868072Y-99008287D01*
X169899000Y-99000000D01*
X170600000Y-99000000D01*
X170600000Y-98827177D01*
X170599998Y-98827157D01*
X170593598Y-98767622D01*
X170543354Y-98632915D01*
X170543349Y-98632905D01*
X170457190Y-98517812D01*
X170383552Y-98462686D01*
X170335876Y-98402058D01*
X170324900Y-98325715D01*
X170353566Y-98254112D01*
X170367481Y-98238053D01*
X170436241Y-98169294D01*
X170461109Y-98120486D01*
X170512717Y-98063170D01*
X170586070Y-98039335D01*
X170661513Y-98055371D01*
X170718830Y-98106979D01*
X170726626Y-98120483D01*
X170738759Y-98144294D01*
X170830706Y-98236241D01*
X170946567Y-98295275D01*
X171042693Y-98310500D01*
X171657306Y-98310499D01*
X171753433Y-98295275D01*
X171869294Y-98236241D01*
X171961241Y-98144294D01*
X172020275Y-98028433D01*
X172035500Y-97932307D01*
X172035499Y-97467694D01*
X172020275Y-97371567D01*
X171961241Y-97255706D01*
X171869294Y-97163759D01*
X171804422Y-97130705D01*
X171753434Y-97104725D01*
X171737412Y-97102187D01*
X171657307Y-97089500D01*
X171657302Y-97089500D01*
X171042698Y-97089500D01*
X170946566Y-97104725D01*
X170946564Y-97104726D01*
X170830705Y-97163759D01*
X170748606Y-97245859D01*
X170681811Y-97284423D01*
X170643247Y-97289500D01*
X170608458Y-97289500D01*
X170533958Y-97269538D01*
X170479420Y-97215000D01*
X170475698Y-97208145D01*
X170436240Y-97130705D01*
X170344294Y-97038759D01*
X170344292Y-97038758D01*
X170332519Y-97032759D01*
X170275203Y-96981152D01*
X170251368Y-96907799D01*
X170267404Y-96832356D01*
X170319012Y-96775039D01*
X170332520Y-96767240D01*
X170344294Y-96761241D01*
X170436241Y-96669294D01*
X170475698Y-96591854D01*
X170527307Y-96534538D01*
X170600660Y-96510704D01*
X170608458Y-96510500D01*
X170643247Y-96510500D01*
X170717747Y-96530462D01*
X170748606Y-96554141D01*
X170830706Y-96636241D01*
X170946567Y-96695275D01*
X171042693Y-96710500D01*
X171657306Y-96710499D01*
X171753433Y-96695275D01*
X171869294Y-96636241D01*
X171961241Y-96544294D01*
X172020275Y-96428433D01*
X172035500Y-96332307D01*
X172035499Y-95867694D01*
X172020275Y-95771567D01*
X171961241Y-95655706D01*
X171869294Y-95563759D01*
X171808453Y-95532759D01*
X171753434Y-95504725D01*
X171737412Y-95502187D01*
X171657307Y-95489500D01*
X171657302Y-95489500D01*
X171042698Y-95489500D01*
X170946566Y-95504725D01*
X170946564Y-95504726D01*
X170830705Y-95563759D01*
X170738759Y-95655705D01*
X170726629Y-95679513D01*
X170675020Y-95736830D01*
X170601666Y-95760664D01*
X170526224Y-95744628D01*
X170468907Y-95693019D01*
X170461109Y-95679513D01*
X170448979Y-95655706D01*
X170436241Y-95630706D01*
X170367487Y-95561952D01*
X170328923Y-95495157D01*
X170328923Y-95418029D01*
X170367487Y-95351234D01*
X170383553Y-95337313D01*
X170457187Y-95282190D01*
X170457190Y-95282187D01*
X170543349Y-95167094D01*
X170543354Y-95167084D01*
X170593598Y-95032377D01*
X170599998Y-94972842D01*
X170600000Y-94972822D01*
X170600000Y-94800000D01*
X169899000Y-94800000D01*
X169824500Y-94780038D01*
X169769962Y-94725500D01*
X169750000Y-94651000D01*
X169750000Y-94649000D01*
X169769962Y-94574500D01*
X169824500Y-94519962D01*
X169899000Y-94500000D01*
X170600000Y-94500000D01*
X170600000Y-94327177D01*
X170599998Y-94327157D01*
X170593598Y-94267622D01*
X170543354Y-94132915D01*
X170543349Y-94132905D01*
X170457190Y-94017812D01*
X170383552Y-93962686D01*
X170335876Y-93902058D01*
X170324900Y-93825715D01*
X170353566Y-93754112D01*
X170367481Y-93738053D01*
X170436241Y-93669294D01*
X170461109Y-93620486D01*
X170512717Y-93563170D01*
X170586070Y-93539335D01*
X170661513Y-93555371D01*
X170718830Y-93606979D01*
X170726626Y-93620483D01*
X170738759Y-93644294D01*
X170830706Y-93736241D01*
X170946567Y-93795275D01*
X171042693Y-93810500D01*
X171657306Y-93810499D01*
X171753433Y-93795275D01*
X171869294Y-93736241D01*
X171951394Y-93654141D01*
X172018189Y-93615577D01*
X172056753Y-93610500D01*
X172154740Y-93610500D01*
X172229240Y-93630462D01*
X172245444Y-93641290D01*
X172279939Y-93667759D01*
X172356247Y-93699367D01*
X172410208Y-93721718D01*
X172549997Y-93740121D01*
X172550000Y-93740121D01*
X172550003Y-93740121D01*
X172689791Y-93721718D01*
X172689793Y-93721717D01*
X172689794Y-93721717D01*
X172820061Y-93667759D01*
X172931923Y-93581923D01*
X173017759Y-93470061D01*
X173071717Y-93339794D01*
X173077391Y-93296688D01*
X173106903Y-93225434D01*
X173119749Y-93210784D01*
X174328482Y-92002053D01*
X174382525Y-91908447D01*
X174410500Y-91804043D01*
X174410500Y-91695956D01*
X174410500Y-90306752D01*
X174430462Y-90232252D01*
X174454142Y-90201393D01*
X174536238Y-90119297D01*
X174536241Y-90119294D01*
X174595275Y-90003433D01*
X174610500Y-89907307D01*
X174610499Y-89292694D01*
X174595275Y-89196567D01*
X174536241Y-89080706D01*
X174444294Y-88988759D01*
X174434809Y-88981868D01*
X174436711Y-88979249D01*
X174393839Y-88940639D01*
X174370011Y-88867284D01*
X174386054Y-88791842D01*
X174437668Y-88734530D01*
X174511023Y-88710702D01*
X174518772Y-88710499D01*
X174768246Y-88710499D01*
X174842746Y-88730461D01*
X174873605Y-88754140D01*
X175033255Y-88913790D01*
X175071819Y-88980585D01*
X175071819Y-89057713D01*
X175060656Y-89086793D01*
X175004726Y-89196563D01*
X175004725Y-89196565D01*
X175004725Y-89196567D01*
X174989500Y-89292693D01*
X174989500Y-89292694D01*
X174989500Y-89292697D01*
X174989500Y-89907301D01*
X174989501Y-89907306D01*
X175004725Y-90003433D01*
X175023282Y-90039854D01*
X175063760Y-90119295D01*
X175063761Y-90119297D01*
X175144984Y-90200519D01*
X175183549Y-90267313D01*
X175183549Y-90344441D01*
X175157836Y-90396583D01*
X175132239Y-90429940D01*
X175078281Y-90560208D01*
X175059879Y-90699997D01*
X175059879Y-90700002D01*
X175078281Y-90839791D01*
X175132239Y-90970057D01*
X175132241Y-90970061D01*
X175218077Y-91081923D01*
X175329939Y-91167759D01*
X175406247Y-91199367D01*
X175460208Y-91221718D01*
X175599997Y-91240121D01*
X175600000Y-91240121D01*
X175600003Y-91240121D01*
X175739791Y-91221718D01*
X175739793Y-91221717D01*
X175739794Y-91221717D01*
X175870061Y-91167759D01*
X175981923Y-91081923D01*
X176067759Y-90970061D01*
X176121717Y-90839794D01*
X176121717Y-90839793D01*
X176121718Y-90839791D01*
X176140121Y-90700002D01*
X176140121Y-90699997D01*
X176121718Y-90560208D01*
X176067760Y-90429942D01*
X176067759Y-90429941D01*
X176067759Y-90429940D01*
X176042163Y-90396583D01*
X176012648Y-90325328D01*
X176022714Y-90248860D01*
X176055010Y-90200524D01*
X176136241Y-90119294D01*
X176195275Y-90003433D01*
X176210500Y-89907307D01*
X176210499Y-89292694D01*
X176195275Y-89196567D01*
X176136241Y-89080706D01*
X176054141Y-88998606D01*
X176015577Y-88931811D01*
X176010500Y-88893247D01*
X176010500Y-88845957D01*
X176010499Y-88845955D01*
X175982525Y-88741553D01*
X175928482Y-88647947D01*
X175852053Y-88571518D01*
X175529140Y-88248605D01*
X175490576Y-88181810D01*
X175485499Y-88143246D01*
X175485499Y-87867698D01*
X175485499Y-87867697D01*
X175485499Y-87867694D01*
X175470275Y-87771567D01*
X175411241Y-87655706D01*
X175319294Y-87563759D01*
X175203433Y-87504725D01*
X175203432Y-87504724D01*
X175203431Y-87504724D01*
X175132454Y-87493482D01*
X175061994Y-87462111D01*
X175016660Y-87399713D01*
X175008599Y-87323007D01*
X175039970Y-87252547D01*
X175102368Y-87207213D01*
X175139839Y-87198170D01*
X175182380Y-87193596D01*
X175317084Y-87143354D01*
X175317094Y-87143349D01*
X175432187Y-87057190D01*
X175432190Y-87057187D01*
X175518349Y-86942094D01*
X175518354Y-86942084D01*
X175568598Y-86807377D01*
X175574998Y-86747842D01*
X175575000Y-86747822D01*
X175575000Y-86650000D01*
X173299000Y-86650000D01*
X173224500Y-86630038D01*
X173169962Y-86575500D01*
X173150000Y-86501000D01*
X173150000Y-86350000D01*
X173450000Y-86350000D01*
X174650000Y-86350000D01*
X174950000Y-86350000D01*
X175575000Y-86350000D01*
X175575000Y-86252177D01*
X175574998Y-86252157D01*
X175568598Y-86192622D01*
X175518354Y-86057915D01*
X175518349Y-86057905D01*
X175432190Y-85942812D01*
X175432187Y-85942809D01*
X175317094Y-85856650D01*
X175317084Y-85856645D01*
X175182376Y-85806401D01*
X175182378Y-85806401D01*
X175122842Y-85800001D01*
X175122823Y-85800000D01*
X174950000Y-85800000D01*
X174950000Y-86350000D01*
X174650000Y-86350000D01*
X174650000Y-85800000D01*
X174477177Y-85800000D01*
X174477157Y-85800001D01*
X174417622Y-85806401D01*
X174282915Y-85856645D01*
X174282905Y-85856650D01*
X174167812Y-85942809D01*
X174160276Y-85950346D01*
X174158922Y-85948992D01*
X174108650Y-85988526D01*
X174032307Y-85999501D01*
X173960705Y-85970833D01*
X173939971Y-85950099D01*
X173939724Y-85950346D01*
X173932187Y-85942809D01*
X173817094Y-85856650D01*
X173817084Y-85856645D01*
X173682376Y-85806401D01*
X173682378Y-85806401D01*
X173622842Y-85800001D01*
X173622823Y-85800000D01*
X173450000Y-85800000D01*
X173450000Y-86350000D01*
X173150000Y-86350000D01*
X173150000Y-85800000D01*
X172977177Y-85800000D01*
X172977157Y-85800001D01*
X172917622Y-85806401D01*
X172782915Y-85856645D01*
X172782905Y-85856650D01*
X172667812Y-85942809D01*
X172667811Y-85942810D01*
X172612685Y-86016448D01*
X172552057Y-86064124D01*
X172475714Y-86075099D01*
X172404111Y-86046432D01*
X172388047Y-86032512D01*
X172319294Y-85963759D01*
X172203434Y-85904725D01*
X172187412Y-85902187D01*
X172107307Y-85889500D01*
X172107302Y-85889500D01*
X171492698Y-85889500D01*
X171396566Y-85904725D01*
X171396564Y-85904726D01*
X171280705Y-85963759D01*
X171188760Y-86055704D01*
X171188759Y-86055706D01*
X171174778Y-86083144D01*
X171123171Y-86140461D01*
X171049818Y-86164296D01*
X171042019Y-86164500D01*
X170909499Y-86164500D01*
X170834999Y-86144538D01*
X170780461Y-86090000D01*
X170760499Y-86015500D01*
X170760499Y-85903289D01*
X170760499Y-85903286D01*
X170750291Y-85833214D01*
X170697449Y-85725125D01*
X170612375Y-85640051D01*
X170504286Y-85587209D01*
X170504284Y-85587208D01*
X170504283Y-85587208D01*
X170434218Y-85577000D01*
X170065790Y-85577000D01*
X170065785Y-85577001D01*
X170051379Y-85579099D01*
X169995714Y-85587209D01*
X169995712Y-85587209D01*
X169995711Y-85587210D01*
X169887624Y-85640051D01*
X169802551Y-85725124D01*
X169749708Y-85833215D01*
X169749708Y-85833217D01*
X169739500Y-85903275D01*
X169739500Y-87146710D01*
X169739501Y-87146713D01*
X169739501Y-87146714D01*
X169749708Y-87216782D01*
X169749710Y-87216790D01*
X169778120Y-87274903D01*
X169792907Y-87350600D01*
X169767863Y-87423549D01*
X169709700Y-87474203D01*
X169634003Y-87488990D01*
X169578820Y-87474203D01*
X169554286Y-87462209D01*
X169554284Y-87462208D01*
X169554283Y-87462208D01*
X169484218Y-87452000D01*
X169115790Y-87452000D01*
X169115782Y-87452001D01*
X169087442Y-87456130D01*
X169010842Y-87447115D01*
X168949012Y-87401009D01*
X168918519Y-87330165D01*
X168925325Y-87259473D01*
X168947149Y-87197102D01*
X168949999Y-87166712D01*
X168950000Y-87166694D01*
X168950000Y-86675000D01*
X168500000Y-86675000D01*
X168500000Y-87562499D01*
X168554199Y-87562499D01*
X168554219Y-87562498D01*
X168584604Y-87559649D01*
X168601959Y-87553576D01*
X168678871Y-87547810D01*
X168748362Y-87581272D01*
X168791812Y-87644997D01*
X168798618Y-87715694D01*
X168789501Y-87778272D01*
X168789500Y-87778287D01*
X168789500Y-89021710D01*
X168789501Y-89021714D01*
X168799709Y-89091786D01*
X168852551Y-89199875D01*
X168937625Y-89284949D01*
X169045714Y-89337791D01*
X169072995Y-89341765D01*
X169115775Y-89347999D01*
X169115778Y-89347999D01*
X169115785Y-89348000D01*
X169286748Y-89347999D01*
X169361246Y-89367961D01*
X169415784Y-89422498D01*
X169435747Y-89496998D01*
X169415785Y-89571498D01*
X169392107Y-89602356D01*
X169363762Y-89630701D01*
X169363760Y-89630704D01*
X169304725Y-89746565D01*
X169300765Y-89771567D01*
X169289500Y-89842693D01*
X169289500Y-89842694D01*
X169289500Y-89842697D01*
X169289500Y-90457301D01*
X169304725Y-90553433D01*
X169304726Y-90553435D01*
X169363759Y-90669294D01*
X169455706Y-90761241D01*
X169467481Y-90767241D01*
X169524798Y-90818850D01*
X169548631Y-90892204D01*
X169532594Y-90967646D01*
X169480985Y-91024963D01*
X169467481Y-91032759D01*
X169455706Y-91038758D01*
X169363759Y-91130705D01*
X169304725Y-91246565D01*
X169300765Y-91271567D01*
X169289500Y-91342693D01*
X169289500Y-91342694D01*
X169289500Y-91342697D01*
X169289500Y-91957301D01*
X169304725Y-92053433D01*
X169304726Y-92053435D01*
X169363759Y-92169294D01*
X169455706Y-92261241D01*
X169467481Y-92267241D01*
X169524798Y-92318850D01*
X169548631Y-92392204D01*
X169532594Y-92467646D01*
X169480985Y-92524963D01*
X169467481Y-92532759D01*
X169455706Y-92538758D01*
X169363759Y-92630705D01*
X169304725Y-92746565D01*
X169302802Y-92758709D01*
X169289500Y-92842693D01*
X169289500Y-92842694D01*
X169289500Y-92842697D01*
X169289500Y-93457301D01*
X169304725Y-93553433D01*
X169304726Y-93553435D01*
X169363759Y-93669294D01*
X169432512Y-93738047D01*
X169471076Y-93804842D01*
X169471076Y-93881970D01*
X169432512Y-93948765D01*
X169416448Y-93962685D01*
X169342810Y-94017811D01*
X169342809Y-94017812D01*
X169256650Y-94132905D01*
X169256646Y-94132913D01*
X169222791Y-94223682D01*
X169178053Y-94286508D01*
X169107894Y-94318548D01*
X169044621Y-94315534D01*
X169039149Y-94314067D01*
X169039148Y-94314067D01*
X169006034Y-94305194D01*
X168976435Y-94297263D01*
X168909640Y-94258698D01*
X168882240Y-94220985D01*
X168836241Y-94130706D01*
X168744294Y-94038759D01*
X168744293Y-94038758D01*
X168741853Y-94037515D01*
X168738806Y-94034772D01*
X168734807Y-94031866D01*
X168735112Y-94031445D01*
X168684537Y-93985905D01*
X168660704Y-93912552D01*
X168660500Y-93904756D01*
X168660500Y-93895243D01*
X168680462Y-93820743D01*
X168735000Y-93766205D01*
X168741835Y-93762493D01*
X168744294Y-93761241D01*
X168836241Y-93669294D01*
X168895275Y-93553433D01*
X168910500Y-93457307D01*
X168910499Y-92842694D01*
X168895275Y-92746567D01*
X168836241Y-92630706D01*
X168744294Y-92538759D01*
X168744293Y-92538758D01*
X168741853Y-92537515D01*
X168738806Y-92534772D01*
X168734807Y-92531866D01*
X168735112Y-92531445D01*
X168684537Y-92485905D01*
X168660704Y-92412552D01*
X168660500Y-92404756D01*
X168660500Y-92395243D01*
X168680462Y-92320743D01*
X168735000Y-92266205D01*
X168741835Y-92262493D01*
X168744294Y-92261241D01*
X168836241Y-92169294D01*
X168895275Y-92053433D01*
X168910500Y-91957307D01*
X168910499Y-91342694D01*
X168895275Y-91246567D01*
X168836241Y-91130706D01*
X168744294Y-91038759D01*
X168744293Y-91038758D01*
X168741853Y-91037515D01*
X168738806Y-91034772D01*
X168734807Y-91031866D01*
X168735112Y-91031445D01*
X168684537Y-90985905D01*
X168660704Y-90912552D01*
X168660500Y-90904756D01*
X168660500Y-90895243D01*
X168680462Y-90820743D01*
X168735000Y-90766205D01*
X168741835Y-90762493D01*
X168744294Y-90761241D01*
X168836241Y-90669294D01*
X168895275Y-90553433D01*
X168910500Y-90457307D01*
X168910499Y-89842694D01*
X168895275Y-89746567D01*
X168836241Y-89630706D01*
X168744294Y-89538759D01*
X168704620Y-89518544D01*
X168628434Y-89479725D01*
X168612412Y-89477187D01*
X168532307Y-89464500D01*
X168532302Y-89464500D01*
X168067697Y-89464500D01*
X167971566Y-89479725D01*
X167971564Y-89479726D01*
X167855705Y-89538759D01*
X167763759Y-89630705D01*
X167704725Y-89746565D01*
X167700765Y-89771567D01*
X167689500Y-89842693D01*
X167689500Y-89842694D01*
X167689500Y-89842697D01*
X167689500Y-90457301D01*
X167689501Y-90457306D01*
X167704725Y-90553433D01*
X167763759Y-90669294D01*
X167855706Y-90761241D01*
X167858144Y-90762483D01*
X167861188Y-90765224D01*
X167865191Y-90768132D01*
X167864885Y-90768552D01*
X167915461Y-90814090D01*
X167939296Y-90887443D01*
X167939500Y-90895243D01*
X167939500Y-90904756D01*
X167919538Y-90979256D01*
X167865000Y-91033794D01*
X167858147Y-91037515D01*
X167855706Y-91038758D01*
X167763759Y-91130705D01*
X167704725Y-91246565D01*
X167700765Y-91271567D01*
X167689500Y-91342693D01*
X167689500Y-91342694D01*
X167689500Y-91342697D01*
X167689500Y-91957301D01*
X167703278Y-92044294D01*
X167704725Y-92053433D01*
X167763759Y-92169294D01*
X167855706Y-92261241D01*
X167858144Y-92262483D01*
X167861188Y-92265224D01*
X167865191Y-92268132D01*
X167864885Y-92268552D01*
X167915461Y-92314090D01*
X167939296Y-92387443D01*
X167939500Y-92395243D01*
X167939500Y-92404756D01*
X167919538Y-92479256D01*
X167865000Y-92533794D01*
X167858147Y-92537515D01*
X167855706Y-92538758D01*
X167763759Y-92630705D01*
X167704725Y-92746565D01*
X167702802Y-92758709D01*
X167689500Y-92842693D01*
X167689500Y-92842694D01*
X167689500Y-92842697D01*
X167689500Y-93457301D01*
X167700766Y-93528433D01*
X167704725Y-93553433D01*
X167763759Y-93669294D01*
X167855706Y-93761241D01*
X167858144Y-93762483D01*
X167861188Y-93765224D01*
X167865191Y-93768132D01*
X167864885Y-93768552D01*
X167915461Y-93814090D01*
X167939296Y-93887443D01*
X167939500Y-93895243D01*
X167939500Y-93904756D01*
X167919538Y-93979256D01*
X167865000Y-94033794D01*
X167858147Y-94037515D01*
X167855706Y-94038758D01*
X167763759Y-94130705D01*
X167731254Y-94194500D01*
X167716386Y-94223682D01*
X167711564Y-94233145D01*
X167659955Y-94290462D01*
X167586602Y-94314296D01*
X167578804Y-94314500D01*
X167430829Y-94314500D01*
X167345500Y-94337364D01*
X167268998Y-94381532D01*
X167206531Y-94444000D01*
X166211639Y-95438890D01*
X166144844Y-95477454D01*
X166067716Y-95477454D01*
X166000921Y-95438890D01*
X165969976Y-95393715D01*
X165951788Y-95352524D01*
X165943984Y-95341131D01*
X165945575Y-95340040D01*
X165915576Y-95288080D01*
X165910499Y-95249522D01*
X165910499Y-95128948D01*
X165930461Y-95054450D01*
X165984999Y-94999912D01*
X166020934Y-94985027D01*
X166104498Y-94962636D01*
X166181002Y-94918467D01*
X166506000Y-94593468D01*
X166506002Y-94593467D01*
X166568467Y-94531002D01*
X166612636Y-94454498D01*
X166615404Y-94444169D01*
X166635500Y-94369170D01*
X166635500Y-94280831D01*
X166635500Y-93055831D01*
X166612636Y-92970502D01*
X166588964Y-92929501D01*
X166568467Y-92893998D01*
X166379141Y-92704672D01*
X166340577Y-92637877D01*
X166335500Y-92599313D01*
X166335500Y-92421195D01*
X166355462Y-92346695D01*
X166410000Y-92292157D01*
X166416836Y-92288445D01*
X166519294Y-92236241D01*
X166611241Y-92144294D01*
X166670275Y-92028433D01*
X166685500Y-91932307D01*
X166685499Y-91467694D01*
X166670275Y-91371567D01*
X166611241Y-91255706D01*
X166519294Y-91163759D01*
X166454422Y-91130705D01*
X166403434Y-91104725D01*
X166387412Y-91102187D01*
X166307307Y-91089500D01*
X166307302Y-91089500D01*
X165692698Y-91089500D01*
X165596566Y-91104725D01*
X165596564Y-91104726D01*
X165480705Y-91163759D01*
X165388758Y-91255706D01*
X165382759Y-91267481D01*
X165331150Y-91324798D01*
X165257796Y-91348631D01*
X165182354Y-91332594D01*
X165125037Y-91280985D01*
X165117241Y-91267481D01*
X165111241Y-91255706D01*
X165019294Y-91163759D01*
X164903434Y-91104725D01*
X164887412Y-91102187D01*
X164807307Y-91089500D01*
X164807302Y-91089500D01*
X164192698Y-91089500D01*
X164096566Y-91104725D01*
X164096564Y-91104726D01*
X163980705Y-91163759D01*
X163888758Y-91255706D01*
X163882759Y-91267481D01*
X163831150Y-91324798D01*
X163757796Y-91348631D01*
X163682354Y-91332594D01*
X163625037Y-91280985D01*
X163617241Y-91267481D01*
X163611241Y-91255706D01*
X163519294Y-91163759D01*
X163403434Y-91104725D01*
X163387412Y-91102187D01*
X163307307Y-91089500D01*
X163307302Y-91089500D01*
X162692698Y-91089500D01*
X162596566Y-91104725D01*
X162596564Y-91104726D01*
X162480705Y-91163759D01*
X162388760Y-91255704D01*
X162388759Y-91255706D01*
X162387516Y-91258144D01*
X162384775Y-91261188D01*
X162381868Y-91265191D01*
X162381447Y-91264885D01*
X162335910Y-91315461D01*
X162262557Y-91339296D01*
X162254757Y-91339500D01*
X162245243Y-91339500D01*
X162170743Y-91319538D01*
X162116205Y-91265000D01*
X162112493Y-91258164D01*
X162111241Y-91255706D01*
X162019294Y-91163759D01*
X161954422Y-91130705D01*
X161903434Y-91104725D01*
X161887412Y-91102187D01*
X161807307Y-91089500D01*
X161807302Y-91089500D01*
X161192698Y-91089500D01*
X161096566Y-91104725D01*
X161096564Y-91104726D01*
X160980705Y-91163759D01*
X160888759Y-91255705D01*
X160829725Y-91371565D01*
X160829725Y-91371567D01*
X160814500Y-91467693D01*
X160814500Y-91467694D01*
X160814500Y-91467697D01*
X160814500Y-91932302D01*
X160829725Y-92028433D01*
X160829726Y-92028435D01*
X160846064Y-92060500D01*
X160888759Y-92144294D01*
X160980706Y-92236241D01*
X161096567Y-92295275D01*
X161192693Y-92310500D01*
X161807306Y-92310499D01*
X161903433Y-92295275D01*
X162019294Y-92236241D01*
X162111241Y-92144294D01*
X162112483Y-92141855D01*
X162115224Y-92138811D01*
X162118132Y-92134809D01*
X162118552Y-92135114D01*
X162164090Y-92084539D01*
X162237443Y-92060704D01*
X162245243Y-92060500D01*
X162254757Y-92060500D01*
X162329257Y-92080462D01*
X162383795Y-92135000D01*
X162387506Y-92141835D01*
X162388759Y-92144294D01*
X162480706Y-92236241D01*
X162556852Y-92275039D01*
X162583145Y-92288436D01*
X162640462Y-92340045D01*
X162664296Y-92413398D01*
X162664500Y-92421196D01*
X162664500Y-93681431D01*
X162644538Y-93755931D01*
X162590000Y-93810469D01*
X162515500Y-93830431D01*
X162486432Y-93827568D01*
X162420733Y-93814500D01*
X162144170Y-93814500D01*
X162144169Y-93814500D01*
X161750686Y-93814500D01*
X161676186Y-93794538D01*
X161645327Y-93770859D01*
X161437638Y-93563170D01*
X161206002Y-93331533D01*
X161206001Y-93331532D01*
X161129501Y-93287365D01*
X161129498Y-93287364D01*
X161044169Y-93264500D01*
X160757981Y-93264500D01*
X160683481Y-93244538D01*
X160628943Y-93190000D01*
X160625232Y-93183166D01*
X160611241Y-93155706D01*
X160554141Y-93098606D01*
X160515577Y-93031811D01*
X160510500Y-92993247D01*
X160510500Y-92796512D01*
X160519869Y-92749406D01*
X160519190Y-92749224D01*
X160521715Y-92739798D01*
X160521717Y-92739794D01*
X160521718Y-92739788D01*
X160540121Y-92600002D01*
X160540121Y-92599997D01*
X160521718Y-92460208D01*
X160467760Y-92329940D01*
X160415043Y-92261240D01*
X160381923Y-92218077D01*
X160270061Y-92132241D01*
X160270058Y-92132239D01*
X160270057Y-92132239D01*
X160139791Y-92078281D01*
X160000003Y-92059879D01*
X159999997Y-92059879D01*
X159860208Y-92078281D01*
X159729940Y-92132239D01*
X159729940Y-92132240D01*
X159618079Y-92218075D01*
X159618075Y-92218079D01*
X159532240Y-92329940D01*
X159532239Y-92329940D01*
X159478281Y-92460208D01*
X159459879Y-92599997D01*
X159459879Y-92600002D01*
X159478281Y-92739788D01*
X159480810Y-92749224D01*
X159480130Y-92749406D01*
X159489500Y-92796512D01*
X159489500Y-92993247D01*
X159469538Y-93067747D01*
X159445859Y-93098606D01*
X159388759Y-93155705D01*
X159329725Y-93271565D01*
X159325113Y-93300686D01*
X159314500Y-93367693D01*
X159314500Y-93367696D01*
X159314500Y-93367697D01*
X159314500Y-93789786D01*
X159294538Y-93864286D01*
X159240000Y-93918824D01*
X159165500Y-93938786D01*
X159108481Y-93927444D01*
X158989791Y-93878281D01*
X158850003Y-93859879D01*
X158849997Y-93859879D01*
X158710208Y-93878281D01*
X158579940Y-93932239D01*
X158579940Y-93932240D01*
X158468079Y-94018075D01*
X158468075Y-94018079D01*
X158382240Y-94129940D01*
X158382239Y-94129940D01*
X158328281Y-94260208D01*
X158309879Y-94399997D01*
X158309879Y-94400002D01*
X158328281Y-94539791D01*
X158382239Y-94670057D01*
X158382241Y-94670061D01*
X158428617Y-94730499D01*
X158466630Y-94780038D01*
X158468077Y-94781923D01*
X158579939Y-94867759D01*
X158591518Y-94872555D01*
X158710208Y-94921718D01*
X158849997Y-94940121D01*
X158850000Y-94940121D01*
X158850003Y-94940121D01*
X158989789Y-94921718D01*
X158989790Y-94921717D01*
X158989794Y-94921717D01*
X159108483Y-94872554D01*
X159184948Y-94862488D01*
X159256205Y-94892003D01*
X159303158Y-94953193D01*
X159314500Y-95010213D01*
X159314500Y-95432302D01*
X159323559Y-95489500D01*
X159329725Y-95528433D01*
X159388759Y-95644294D01*
X159480706Y-95736241D01*
X159528639Y-95760664D01*
X159541545Y-95767240D01*
X159598862Y-95818849D01*
X159622696Y-95892203D01*
X159606660Y-95967645D01*
X159555051Y-96024962D01*
X159541545Y-96032760D01*
X159480705Y-96063759D01*
X159388759Y-96155705D01*
X159329725Y-96271565D01*
X159325898Y-96295732D01*
X159314500Y-96367693D01*
X159314500Y-96367696D01*
X159314500Y-96367697D01*
X159314500Y-96580313D01*
X159294538Y-96654813D01*
X159240000Y-96709351D01*
X159165500Y-96729313D01*
X159091000Y-96709351D01*
X159060141Y-96685672D01*
X158850640Y-96476171D01*
X158826961Y-96445312D01*
X158788474Y-96378651D01*
X158788473Y-96378650D01*
X158788472Y-96378648D01*
X158621352Y-96211528D01*
X158621349Y-96211526D01*
X158621345Y-96211523D01*
X158539151Y-96164068D01*
X158539148Y-96164067D01*
X158507940Y-96155705D01*
X158447463Y-96139500D01*
X158447461Y-96139500D01*
X153811042Y-96139500D01*
X153736542Y-96119538D01*
X153705683Y-96095859D01*
X153604141Y-95994317D01*
X153565577Y-95927522D01*
X153560500Y-95888958D01*
X153560500Y-94352540D01*
X153560499Y-94352536D01*
X153551392Y-94318548D01*
X153535933Y-94260852D01*
X153535730Y-94260500D01*
X153488476Y-94178654D01*
X153488474Y-94178651D01*
X153488472Y-94178648D01*
X153421352Y-94111528D01*
X152855352Y-93545528D01*
X152855349Y-93545526D01*
X152855345Y-93545523D01*
X152774499Y-93498846D01*
X152719962Y-93444308D01*
X152700000Y-93369809D01*
X152700000Y-92949000D01*
X152719962Y-92874500D01*
X152774500Y-92819962D01*
X152849000Y-92800000D01*
X157799999Y-92800000D01*
X157800000Y-92800000D01*
X160560145Y-90039854D01*
X160626936Y-90001293D01*
X160704064Y-90001293D01*
X160770859Y-90039857D01*
X160809423Y-90106652D01*
X160814500Y-90145215D01*
X160814500Y-90332302D01*
X160824681Y-90396583D01*
X160829725Y-90428433D01*
X160888759Y-90544294D01*
X160980706Y-90636241D01*
X161096567Y-90695275D01*
X161192693Y-90710500D01*
X161807306Y-90710499D01*
X161903433Y-90695275D01*
X162019294Y-90636241D01*
X162111241Y-90544294D01*
X162117240Y-90532519D01*
X162168848Y-90475203D01*
X162242201Y-90451368D01*
X162317644Y-90467404D01*
X162374961Y-90519012D01*
X162382758Y-90532517D01*
X162388759Y-90544294D01*
X162480706Y-90636241D01*
X162596567Y-90695275D01*
X162692693Y-90710500D01*
X163307306Y-90710499D01*
X163403433Y-90695275D01*
X163519294Y-90636241D01*
X163611241Y-90544294D01*
X163617240Y-90532519D01*
X163668848Y-90475203D01*
X163742201Y-90451368D01*
X163817644Y-90467404D01*
X163874961Y-90519012D01*
X163882758Y-90532517D01*
X163888759Y-90544294D01*
X163980706Y-90636241D01*
X164096567Y-90695275D01*
X164192693Y-90710500D01*
X164807306Y-90710499D01*
X164903433Y-90695275D01*
X165019294Y-90636241D01*
X165111241Y-90544294D01*
X165112483Y-90541855D01*
X165115224Y-90538811D01*
X165118132Y-90534809D01*
X165118552Y-90535114D01*
X165164090Y-90484539D01*
X165237443Y-90460704D01*
X165245243Y-90460500D01*
X165254757Y-90460500D01*
X165329257Y-90480462D01*
X165383795Y-90535000D01*
X165387506Y-90541835D01*
X165388759Y-90544294D01*
X165480706Y-90636241D01*
X165596567Y-90695275D01*
X165692693Y-90710500D01*
X166307306Y-90710499D01*
X166403433Y-90695275D01*
X166519294Y-90636241D01*
X166611241Y-90544294D01*
X166670275Y-90428433D01*
X166685500Y-90332307D01*
X166685499Y-89867694D01*
X166670275Y-89771567D01*
X166611241Y-89655706D01*
X166519294Y-89563759D01*
X166503322Y-89555621D01*
X166403434Y-89504725D01*
X166387412Y-89502187D01*
X166307307Y-89489500D01*
X166307302Y-89489500D01*
X165692698Y-89489500D01*
X165596566Y-89504725D01*
X165596564Y-89504726D01*
X165480705Y-89563759D01*
X165388760Y-89655704D01*
X165388759Y-89655706D01*
X165387516Y-89658144D01*
X165384775Y-89661188D01*
X165381868Y-89665191D01*
X165381447Y-89664885D01*
X165335910Y-89715461D01*
X165262557Y-89739296D01*
X165254757Y-89739500D01*
X165245243Y-89739500D01*
X165170743Y-89719538D01*
X165116205Y-89665000D01*
X165112493Y-89658164D01*
X165111241Y-89655706D01*
X165025807Y-89570272D01*
X164987244Y-89503478D01*
X164987244Y-89426350D01*
X164993509Y-89407895D01*
X165021718Y-89339791D01*
X165040121Y-89200002D01*
X165040121Y-89199997D01*
X165021718Y-89060208D01*
X164967760Y-88929940D01*
X164903316Y-88845957D01*
X164881923Y-88818077D01*
X164770061Y-88732241D01*
X164770058Y-88732239D01*
X164770057Y-88732239D01*
X164639791Y-88678281D01*
X164500003Y-88659879D01*
X164499997Y-88659879D01*
X164360208Y-88678281D01*
X164229940Y-88732239D01*
X164229940Y-88732240D01*
X164118079Y-88818075D01*
X164118075Y-88818079D01*
X164032240Y-88929940D01*
X164032239Y-88929940D01*
X163978281Y-89060208D01*
X163959879Y-89199997D01*
X163959879Y-89200002D01*
X163978281Y-89339789D01*
X164006491Y-89407896D01*
X164016557Y-89484365D01*
X163987040Y-89555621D01*
X163974191Y-89570272D01*
X163888762Y-89655701D01*
X163888758Y-89655706D01*
X163882759Y-89667481D01*
X163831150Y-89724798D01*
X163757796Y-89748631D01*
X163682354Y-89732594D01*
X163625037Y-89680985D01*
X163617241Y-89667481D01*
X163611241Y-89655706D01*
X163525808Y-89570273D01*
X163487244Y-89503478D01*
X163487244Y-89426350D01*
X163493509Y-89407895D01*
X163521718Y-89339791D01*
X163540121Y-89200002D01*
X163540121Y-89199997D01*
X163521718Y-89060208D01*
X163467760Y-88929940D01*
X163403316Y-88845957D01*
X163381923Y-88818077D01*
X163270061Y-88732241D01*
X163270058Y-88732239D01*
X163270057Y-88732239D01*
X163139791Y-88678281D01*
X163000003Y-88659879D01*
X162999997Y-88659879D01*
X162860208Y-88678281D01*
X162729940Y-88732239D01*
X162729940Y-88732240D01*
X162618079Y-88818075D01*
X162618075Y-88818079D01*
X162532240Y-88929940D01*
X162532239Y-88929940D01*
X162478281Y-89060208D01*
X162459879Y-89199997D01*
X162459879Y-89200002D01*
X162478281Y-89339789D01*
X162506491Y-89407896D01*
X162516557Y-89484365D01*
X162487040Y-89555621D01*
X162474191Y-89570272D01*
X162388762Y-89655701D01*
X162388758Y-89655706D01*
X162382759Y-89667481D01*
X162331150Y-89724798D01*
X162257796Y-89748631D01*
X162182354Y-89732594D01*
X162125037Y-89680985D01*
X162117241Y-89667481D01*
X162111241Y-89655706D01*
X162025808Y-89570273D01*
X161987244Y-89503478D01*
X161987244Y-89426350D01*
X161993509Y-89407895D01*
X162021718Y-89339791D01*
X162040121Y-89200002D01*
X162040121Y-89199997D01*
X162021718Y-89060208D01*
X161967760Y-88929942D01*
X161967759Y-88929941D01*
X161967759Y-88929940D01*
X161918051Y-88865159D01*
X161888536Y-88793905D01*
X161898602Y-88717436D01*
X161930898Y-88669101D01*
X163433280Y-87166719D01*
X167750001Y-87166719D01*
X167752850Y-87197104D01*
X167797653Y-87325145D01*
X167878208Y-87434291D01*
X167987354Y-87514846D01*
X168115397Y-87559649D01*
X168145796Y-87562499D01*
X168200000Y-87562499D01*
X168200000Y-86675000D01*
X167750001Y-86675000D01*
X167750001Y-87166719D01*
X163433280Y-87166719D01*
X164716712Y-85883287D01*
X167750000Y-85883287D01*
X167750000Y-86375000D01*
X168200000Y-86375000D01*
X168500000Y-86375000D01*
X168949999Y-86375000D01*
X168949999Y-85883301D01*
X168949998Y-85883280D01*
X168947149Y-85852895D01*
X168902346Y-85724854D01*
X168821791Y-85615708D01*
X168712645Y-85535153D01*
X168584602Y-85490350D01*
X168554212Y-85487500D01*
X168500000Y-85487500D01*
X168500000Y-86375000D01*
X168200000Y-86375000D01*
X168200000Y-85487500D01*
X168145801Y-85487500D01*
X168145779Y-85487502D01*
X168115395Y-85490350D01*
X167987354Y-85535153D01*
X167878208Y-85615708D01*
X167797653Y-85724854D01*
X167752850Y-85852897D01*
X167750000Y-85883287D01*
X164716712Y-85883287D01*
X166800002Y-83799997D01*
X167809879Y-83799997D01*
X167809879Y-83800002D01*
X167828281Y-83939791D01*
X167882239Y-84070057D01*
X167882241Y-84070061D01*
X167968077Y-84181923D01*
X168079939Y-84267759D01*
X168156247Y-84299367D01*
X168210208Y-84321718D01*
X168349997Y-84340121D01*
X168350000Y-84340121D01*
X168350003Y-84340121D01*
X168489791Y-84321718D01*
X168489793Y-84321717D01*
X168489794Y-84321717D01*
X168620061Y-84267759D01*
X168731923Y-84181923D01*
X168817759Y-84070061D01*
X168871717Y-83939794D01*
X168871717Y-83939793D01*
X168871718Y-83939791D01*
X168890121Y-83800002D01*
X168890121Y-83799997D01*
X168871718Y-83660208D01*
X168817760Y-83529940D01*
X168772968Y-83471567D01*
X168731923Y-83418077D01*
X168620061Y-83332241D01*
X168620058Y-83332239D01*
X168620057Y-83332239D01*
X168489791Y-83278281D01*
X168350003Y-83259879D01*
X168349997Y-83259879D01*
X168210208Y-83278281D01*
X168079940Y-83332239D01*
X168079940Y-83332240D01*
X167968079Y-83418075D01*
X167968075Y-83418079D01*
X167882240Y-83529940D01*
X167882239Y-83529940D01*
X167828281Y-83660208D01*
X167809879Y-83799997D01*
X166800002Y-83799997D01*
X174838782Y-75761217D01*
X174905572Y-75722656D01*
X174982700Y-75722656D01*
X175001151Y-75728919D01*
X175172786Y-75800013D01*
X175403975Y-75855517D01*
X175641000Y-75874171D01*
X175878025Y-75855517D01*
X176109214Y-75800013D01*
X176328873Y-75709027D01*
X176531595Y-75584799D01*
X176712388Y-75430388D01*
X176866799Y-75249595D01*
X176991027Y-75046873D01*
X177082013Y-74827214D01*
X177137517Y-74596025D01*
X177156171Y-74359000D01*
X177137517Y-74121975D01*
X177082013Y-73890786D01*
X177010920Y-73719154D01*
X177000854Y-73642688D01*
X177030369Y-73571431D01*
X177043205Y-73556793D01*
X177129596Y-73470402D01*
X177196387Y-73431841D01*
X177273515Y-73431841D01*
X177340310Y-73470405D01*
G37*
G04 #@! TD.AperFunction*
G04 #@! TA.AperFunction,Conductor*
G36*
X172779066Y-106800515D02*
G01*
X172804515Y-106805576D01*
X172829267Y-106810500D01*
X172940501Y-106810499D01*
X173014999Y-106830461D01*
X173069537Y-106884998D01*
X173089500Y-106959498D01*
X173089500Y-107070728D01*
X173089501Y-107070732D01*
X173099485Y-107120932D01*
X173099486Y-107120934D01*
X173099485Y-107179066D01*
X173089501Y-107229259D01*
X173089500Y-107229271D01*
X173089500Y-107570728D01*
X173089501Y-107570732D01*
X173099485Y-107620932D01*
X173099486Y-107620934D01*
X173099485Y-107679066D01*
X173089501Y-107729259D01*
X173089500Y-107729271D01*
X173089500Y-108070728D01*
X173092798Y-108087307D01*
X173099485Y-108120932D01*
X173099486Y-108120934D01*
X173099485Y-108179066D01*
X173089501Y-108229259D01*
X173089500Y-108229271D01*
X173089500Y-108570728D01*
X173091817Y-108582377D01*
X173099485Y-108620932D01*
X173099486Y-108620934D01*
X173099485Y-108679066D01*
X173089500Y-108729265D01*
X173089500Y-108974516D01*
X173069538Y-109049016D01*
X173052759Y-109070884D01*
X173048214Y-109077518D01*
X173002908Y-109180128D01*
X173000000Y-109205204D01*
X173000000Y-109250000D01*
X173211804Y-109250000D01*
X173240866Y-109252861D01*
X173245898Y-109253862D01*
X173315072Y-109287973D01*
X173357923Y-109352102D01*
X173362970Y-109429065D01*
X173328859Y-109498240D01*
X173264730Y-109541091D01*
X173245908Y-109546135D01*
X173240877Y-109547136D01*
X173211806Y-109550000D01*
X173000001Y-109550000D01*
X173000001Y-109594794D01*
X173002909Y-109619874D01*
X173048212Y-109722477D01*
X173056016Y-109733869D01*
X173054424Y-109734959D01*
X173084423Y-109786919D01*
X173089500Y-109825483D01*
X173089500Y-109840500D01*
X173069538Y-109915000D01*
X173015000Y-109969538D01*
X172940501Y-109989500D01*
X172829270Y-109989500D01*
X172779064Y-109999486D01*
X172720932Y-109999485D01*
X172670738Y-109989501D01*
X172670733Y-109989500D01*
X172670728Y-109989500D01*
X172329269Y-109989500D01*
X172279064Y-109999486D01*
X172220932Y-109999485D01*
X172170738Y-109989501D01*
X172170733Y-109989500D01*
X172170728Y-109989500D01*
X171829269Y-109989500D01*
X171779064Y-109999486D01*
X171720932Y-109999485D01*
X171670738Y-109989501D01*
X171670733Y-109989500D01*
X171670728Y-109989500D01*
X171329269Y-109989500D01*
X171279064Y-109999486D01*
X171220932Y-109999485D01*
X171170738Y-109989501D01*
X171170733Y-109989500D01*
X171170728Y-109989500D01*
X170829269Y-109989500D01*
X170779064Y-109999486D01*
X170720932Y-109999485D01*
X170670738Y-109989501D01*
X170670733Y-109989500D01*
X170670728Y-109989500D01*
X170329269Y-109989500D01*
X170279064Y-109999486D01*
X170220932Y-109999485D01*
X170170733Y-109989500D01*
X170059499Y-109989500D01*
X169984999Y-109969538D01*
X169930461Y-109915000D01*
X169910499Y-109840500D01*
X169910499Y-109729269D01*
X169900514Y-109679064D01*
X169900515Y-109620932D01*
X169906001Y-109593349D01*
X169910500Y-109570733D01*
X169910499Y-109229268D01*
X169900514Y-109179064D01*
X169900515Y-109120932D01*
X169902698Y-109109955D01*
X169910500Y-109070733D01*
X169910499Y-108729268D01*
X169900514Y-108679064D01*
X169900515Y-108620932D01*
X169900734Y-108619829D01*
X169910500Y-108570733D01*
X169910499Y-108229268D01*
X169900514Y-108179064D01*
X169900515Y-108120932D01*
X169906974Y-108088458D01*
X169910500Y-108070733D01*
X169910499Y-107729268D01*
X169900514Y-107679064D01*
X169900515Y-107620932D01*
X169900734Y-107619829D01*
X169910500Y-107570733D01*
X169910499Y-107229268D01*
X169900514Y-107179064D01*
X169900515Y-107120932D01*
X169903163Y-107107619D01*
X169910500Y-107070733D01*
X169910499Y-107020215D01*
X169930460Y-106945718D01*
X169984997Y-106891180D01*
X170059496Y-106871216D01*
X170133997Y-106891177D01*
X170145494Y-106899999D01*
X170194795Y-106899999D01*
X170219874Y-106897090D01*
X170322478Y-106851787D01*
X170333866Y-106843986D01*
X170334956Y-106845577D01*
X170386920Y-106815576D01*
X170425478Y-106810499D01*
X170670732Y-106810499D01*
X170720935Y-106800514D01*
X170779066Y-106800515D01*
X170804515Y-106805576D01*
X170829267Y-106810500D01*
X171170732Y-106810499D01*
X171220935Y-106800514D01*
X171279066Y-106800515D01*
X171304515Y-106805576D01*
X171329267Y-106810500D01*
X171670732Y-106810499D01*
X171720935Y-106800514D01*
X171779066Y-106800515D01*
X171804515Y-106805576D01*
X171829267Y-106810500D01*
X172170732Y-106810499D01*
X172220935Y-106800514D01*
X172279066Y-106800515D01*
X172304515Y-106805576D01*
X172329267Y-106810500D01*
X172670732Y-106810499D01*
X172720935Y-106800514D01*
X172779066Y-106800515D01*
G37*
G04 #@! TD.AperFunction*
G04 #@! TA.AperFunction,Conductor*
G36*
X174377310Y-109234510D02*
G01*
X174380704Y-109236239D01*
X174380706Y-109236241D01*
X174496567Y-109295275D01*
X174567546Y-109306517D01*
X174638004Y-109337887D01*
X174683338Y-109400285D01*
X174691401Y-109476991D01*
X174660030Y-109547451D01*
X174597632Y-109592785D01*
X174560163Y-109601828D01*
X174517626Y-109606401D01*
X174401070Y-109649874D01*
X174324291Y-109657205D01*
X174254133Y-109625164D01*
X174209394Y-109562338D01*
X174208745Y-109558745D01*
X174200000Y-109550000D01*
X174198801Y-109550000D01*
X174124301Y-109530038D01*
X174069763Y-109475500D01*
X174049801Y-109401000D01*
X174069763Y-109326500D01*
X174124301Y-109271962D01*
X174160236Y-109257077D01*
X174167700Y-109255077D01*
X174206265Y-109250000D01*
X174217087Y-109250000D01*
X174231061Y-109241931D01*
X174230125Y-109239670D01*
X174239145Y-109235933D01*
X174239148Y-109235933D01*
X174239149Y-109235931D01*
X174248172Y-109232195D01*
X174249124Y-109234493D01*
X174309656Y-109218270D01*
X174377310Y-109234510D01*
G37*
G04 #@! TD.AperFunction*
G04 #@! TA.AperFunction,Conductor*
G36*
X163817644Y-92067404D02*
G01*
X163874961Y-92119012D01*
X163882758Y-92132517D01*
X163888759Y-92144294D01*
X163980706Y-92236241D01*
X164056852Y-92275039D01*
X164083145Y-92288436D01*
X164140462Y-92340045D01*
X164164296Y-92413398D01*
X164164500Y-92421196D01*
X164164500Y-94070731D01*
X164164740Y-94071933D01*
X164164691Y-94072669D01*
X164165218Y-94078013D01*
X164164335Y-94078099D01*
X164159695Y-94148896D01*
X164116844Y-94213025D01*
X164047670Y-94247137D01*
X164018603Y-94250000D01*
X163900000Y-94250000D01*
X163900000Y-97549999D01*
X164018602Y-97549999D01*
X164093102Y-97569961D01*
X164147640Y-97624499D01*
X164167602Y-97698999D01*
X164164739Y-97728063D01*
X164164500Y-97729267D01*
X164164500Y-97729269D01*
X164164500Y-99378803D01*
X164144538Y-99453303D01*
X164090000Y-99507841D01*
X164083146Y-99511562D01*
X163980706Y-99563758D01*
X163888758Y-99655706D01*
X163882759Y-99667481D01*
X163831150Y-99724798D01*
X163757796Y-99748631D01*
X163682354Y-99732594D01*
X163625037Y-99680985D01*
X163617241Y-99667481D01*
X163611241Y-99655706D01*
X163519294Y-99563759D01*
X163519292Y-99563758D01*
X163491854Y-99549777D01*
X163434537Y-99498168D01*
X163410704Y-99424814D01*
X163410500Y-99417018D01*
X163410500Y-98595957D01*
X163410499Y-98595955D01*
X163382525Y-98491553D01*
X163376520Y-98481152D01*
X163355462Y-98444677D01*
X163335500Y-98370178D01*
X163335500Y-97993827D01*
X163335499Y-97993813D01*
X163335499Y-97729269D01*
X163335259Y-97728063D01*
X163335307Y-97727322D01*
X163334782Y-97721987D01*
X163335663Y-97721900D01*
X163340306Y-97651100D01*
X163383158Y-97586972D01*
X163452333Y-97552861D01*
X163481397Y-97549999D01*
X163600000Y-97549999D01*
X163600000Y-94250000D01*
X163481399Y-94250000D01*
X163406899Y-94230038D01*
X163352361Y-94175500D01*
X163332399Y-94101000D01*
X163335260Y-94071940D01*
X163335500Y-94070733D01*
X163335500Y-92421195D01*
X163355462Y-92346695D01*
X163410000Y-92292157D01*
X163416836Y-92288445D01*
X163519294Y-92236241D01*
X163611241Y-92144294D01*
X163617240Y-92132519D01*
X163668848Y-92075203D01*
X163742201Y-92051368D01*
X163817644Y-92067404D01*
G37*
G04 #@! TD.AperFunction*
M02*
