M48
; DRILL file {KiCad 8.0.4} date 2025-04-17T01:05:10+0200
; FORMAT={-:-/ absolute / metric / decimal}
; #@! TF.CreationDate,2025-04-17T01:05:10+02:00
; #@! TF.GenerationSoftware,Kicad,Pcbnew,8.0.4
; #@! TF.FileFunction,Plated,1,4,PTH
FMAT,2
METRIC
; #@! TA.AperFunction,Plated,PTH,ViaDrill
T1C0.350
; #@! TA.AperFunction,Plated,PTH,ViaDrill
T2C0.400
; #@! TA.AperFunction,Plated,PTH,ComponentDrill
T3C2.200
; #@! TA.AperFunction,Plated,PTH,ComponentDrill
T4C3.250
%
G90
G05
T1
X138.9Y-119.2
X138.9Y-126.3
X142.795Y-81.708
X143.295Y-80.708
X143.795Y-81.708
X144.295Y-80.708
X144.795Y-81.708
X145.2Y-107.7
X145.295Y-80.708
X145.795Y-81.708
X146.295Y-80.708
X146.7Y-104.6
X146.795Y-81.708
X147.0Y-67.5
X147.2Y-103.6
X147.295Y-80.708
X147.7Y-104.6
X147.795Y-81.708
X148.2Y-103.6
X148.295Y-80.708
X148.5Y-67.5
X148.7Y-104.6
X148.795Y-81.708
X149.2Y-103.6
X149.295Y-80.708
X149.7Y-104.6
X149.795Y-81.708
X150.0Y-67.5
X150.2Y-103.6
X150.295Y-80.708
X150.7Y-104.6
X150.795Y-81.708
X151.2Y-103.6
X151.295Y-80.708
X151.5Y-67.5
X151.7Y-104.6
X151.795Y-81.708
X152.75Y-102.198
X153.0Y-67.5
X155.3Y-107.35
X155.9Y-118.4
X155.9Y-125.5
X156.1Y-113.7
X156.3Y-110.65
X158.65Y-98.2
X158.85Y-94.4
X159.8Y-100.9
X160.0Y-92.6
X161.0Y-95.8
X161.5Y-89.2
X161.5Y-102.75
X161.7Y-119.1
X161.7Y-126.2
X161.8Y-115.1
X162.1Y-113.7
X162.7Y-116.5
X162.7Y-123.6
X163.0Y-89.2
X163.75Y-92.85
X163.75Y-98.9
X164.0Y-116.5
X164.2Y-106.0
X164.5Y-89.2
X165.15Y-109.5
X165.5Y-103.7
X165.5Y-104.9
X165.7Y-112.4
X166.0Y-102.75
X166.7Y-107.0
X168.1Y-107.6
X168.35Y-83.8
X168.65Y-113.05
X169.3Y-105.6
X169.5Y-111.6
X170.7Y-104.75
X170.75Y-94.65
X171.2Y-115.1
X171.25Y-102.85
X171.8Y-89.1
X172.0Y-103.7
X172.3Y-112.6
X172.55Y-93.2
X173.6Y-105.2
X173.9Y-98.3
X174.9Y-111.5
X175.2Y-105.6
X175.2Y-106.9
X175.6Y-90.7
X175.9Y-108.7
X176.25Y-107.5
X176.9Y-109.7
T2
X122.5Y-92.5
X122.5Y-97.5
X122.5Y-102.5
X122.5Y-107.5
X125.0Y-90.0
X125.0Y-95.0
X125.0Y-100.0
X125.0Y-105.0
X125.0Y-110.0
X125.0Y-115.0
X127.5Y-82.5
X127.5Y-87.5
X127.5Y-92.5
X127.5Y-97.5
X127.5Y-102.5
X127.5Y-107.5
X127.5Y-112.5
X127.5Y-117.5
X130.0Y-85.0
X130.0Y-115.0
X130.0Y-120.0
X132.5Y-82.5
X132.5Y-117.5
X132.5Y-122.5
X135.0Y-85.0
X135.0Y-115.0
X135.0Y-120.0
X135.0Y-125.0
X137.5Y-82.5
X140.0Y-85.0
X162.8Y-85.4
T3
X113.737Y-100.0
X124.358Y-74.359
X124.359Y-125.641
X150.0Y-63.737
X150.0Y-136.263
X175.641Y-74.359
X175.641Y-125.641
X186.263Y-100.0
T4
X140.75Y-69.504
X159.25Y-69.504
M30
